<svg width="72" height="91" viewBox="0 0 72 91" fill="none" xmlns="http://www.w3.org/2000/svg">
<path fill-rule="evenodd" clip-rule="evenodd" d="M0 0H72V91H0V0ZM9.79102 14.9292H62.209V41.2216H60.709V16.4292H11.291V41.2216H9.79102V14.9292ZM19.9756 30.2556H52.0245V41.2215H50.5245V31.7556H21.4756V41.2215H19.9756V30.2556ZM10.5029 57.4344L11.3536 57.1865C11.6578 58.3831 12.3469 58.9695 13.573 58.9695C14.6804 58.9695 15.5548 58.4641 15.5548 57.4344C15.5548 56.8815 15.4265 56.2379 13.6063 55.8994C11.9477 55.5943 10.7928 54.9889 10.7928 53.5683C10.7928 52.1477 12.0332 51.261 13.5588 51.261C15.0843 51.261 15.9635 52.1191 16.3247 53.5111L15.474 53.759C15.2411 52.7626 14.7041 52.0809 13.573 52.0809C12.4419 52.0809 11.7196 52.6196 11.7196 53.5683C11.7196 54.5169 12.4514 54.7648 13.7869 54.9984C15.5596 55.3512 16.4815 56.0186 16.4815 57.4106C16.4815 58.8026 15.2079 59.7656 13.5873 59.7656C11.9667 59.7656 10.9307 59.0267 10.5029 57.4344ZM19.5234 52.2718H22.0327V59.637H22.9452V52.2718H25.4688V51.4375H19.5234V52.2718ZM29.1182 51.4375H34.0702V52.2575H30.0306V55.0939H33.5902V55.8996H30.0306V58.817H34.0702V59.637H29.1182V51.4375ZM38.8989 51.4375H37.9912V59.637H42.8102V58.8027H38.8989V51.4375ZM46.4648 51.4375H47.3726V58.8027H51.2839V59.637H46.4648V51.4375ZM56.2455 57.3392H59.7006L60.5608 59.637H61.5113L58.4554 51.4375H57.5049L54.4443 59.637H55.3948L56.2455 57.3392ZM57.9707 52.6674L59.3964 56.5193H56.5449L57.9707 52.6674ZM14.5474 67.1213H17.0662C20.2408 67.1213 21.1628 69.2665 21.1628 71.1734C21.1628 73.2328 20.0555 75.3208 17.2183 75.3208H14.5474V67.1213ZM17.1517 74.5009C19.528 74.5009 20.2551 72.8276 20.2551 71.1639C20.2551 69.5001 19.623 67.9413 17.0424 67.9413H15.4551V74.5009H17.1517ZM25.0814 69.5818C24.8822 70.1012 24.7892 70.6554 24.808 71.2116C24.808 73.6905 26.5855 75.4734 28.9522 75.4734C31.3189 75.4734 33.0726 73.6905 33.0726 71.2116C33.0914 70.6554 32.9984 70.1012 32.7992 69.5818C32.6 69.0624 32.2987 68.5886 31.9131 68.1885C31.5275 67.7884 31.0656 67.4702 30.5549 67.2529C30.0442 67.0356 29.4951 66.9236 28.9403 66.9236C28.3856 66.9236 27.8365 67.0356 27.3257 67.2529C26.815 67.4702 26.3531 67.7884 25.9675 68.1885C25.582 68.5886 25.2806 69.0624 25.0814 69.5818ZM28.9522 67.7792C30.7962 67.7792 32.1601 69.2428 32.1601 71.2116C32.1601 73.2233 30.8579 74.6392 28.9522 74.6392C27.0465 74.6392 25.7158 73.1804 25.7158 71.2116C25.7158 69.2428 27.1082 67.7792 28.9522 67.7792ZM45.1484 75.3208H44.2644V68.7755L41.4842 75.3208H40.7618L38.0196 68.7994V75.3208H37.0977V67.1213H38.1717L41.1373 74.1147L44.0886 67.1213H45.1484V75.3208ZM49.4613 69.5818C49.2621 70.1012 49.1691 70.6554 49.1879 71.2116C49.1879 73.6905 50.9606 75.4734 53.3321 75.4734C55.7036 75.4734 57.4525 73.6905 57.4525 71.2116C57.4713 70.6554 57.3783 70.1012 57.1791 69.5818C56.9799 69.0624 56.6786 68.5886 56.293 68.1885C55.9074 67.7884 55.4455 67.4702 54.9348 67.2529C54.4241 67.0356 53.875 66.9236 53.3202 66.9236C52.7654 66.9236 52.2163 67.0356 51.7056 67.2529C51.1949 67.4702 50.733 67.7884 50.3474 68.1885C49.9618 68.5886 49.6605 69.0624 49.4613 69.5818ZM53.3321 67.7792C55.1761 67.7792 56.5448 69.2428 56.5448 71.2116H56.5543C56.5543 73.2233 55.2331 74.6392 53.3321 74.6392C51.4311 74.6392 50.1004 73.1804 50.1004 71.2116C50.1004 69.2428 51.4881 67.7792 53.3321 67.7792Z" fill="white"/>
</svg>
