<svg xmlns="http://www.w3.org/2000/svg" viewBox="0 0 500 500"><defs><style>.cls-1{fill:#f7f7f7;}</style></defs><g id="takuma"><path class="cls-1" d="M259.84,213.29a1.42,1.42,0,0,0-1-2.41,1.53,1.53,0,0,0-1.05.45c-.78.61-1.49,1.3-2.21,2-1,.79-1.92,1.56-2.91,2.29-.42-.59-.88-1-1.39-.78s-.55,1.1-.2,1.88a16.49,16.49,0,0,1-1.78.9l-.95-1.39a1.17,1.17,0,1,0-2,1.13,9.25,9.25,0,0,0,.68,1.18c-.63.26-1.26.5-1.9.74-.13-.3-.26-.6-.41-.89-.57-1.11-1.92-1.1-2.08.25a4.13,4.13,0,0,0,.17,1.44c-.79.25-1.58.48-2.39.68a5.43,5.43,0,0,0-.28-2.09.91.91,0,0,0-1.74-.09,5.14,5.14,0,0,0-.29,2.64c-.55.09-1.1.14-1.64.18.17-1.09.21-2.58-1.16-2.33-.81.27-1.24,1.23-1.48,2.34a19,19,0,0,1-2.14-.27,1.21,1.21,0,0,0-.24-.66c0-.09.07-.19.11-.28a1.44,1.44,0,0,0,0-1.42c-1-.89-1.7.62-2.16,1.81-.54-.17-1.08-.35-1.61-.56a11.12,11.12,0,0,0,1-1.46,2.18,2.18,0,0,0,.36-1.81c-.32-.78-1.34-.68-1.87-.16a8.25,8.25,0,0,0-1.81,2.41l-.67-.35c0-.13,0-.25.07-.37.37-1.71,1.51-4.83-1.21-5a2.64,2.64,0,0,0-2.19,1.58,3.57,3.57,0,0,0-.81.92,10.62,10.62,0,0,0-2.59-1.59c-1.15-.36-1.88.4-1.59,1.54a10,10,0,0,0,2.61,3.8c-.63,1.22-1.68,3.22.14,3.83,1.31.33,1.74-.85,2.11-1.85h0a16.61,16.61,0,0,0,2.08,1.28c-.4.83-.59,1.65.28,2.07,1.07.34,1.35-.44,1.64-1.21a24.25,24.25,0,0,0,2.67.82c-.19.88,0,1.66.93,2a1.4,1.4,0,0,0,1.72-1c0-.16.07-.31.11-.46.88.13,1.76.24,2.65.33a1.26,1.26,0,0,0,2.42.2l.55,0a18,18,0,0,0,2.85-.09l0,.18a1.23,1.23,0,0,0,1.52.86,1.19,1.19,0,0,0,.86-1.44,23.13,23.13,0,0,0,2.83-.87c.11.19.21.38.32.56a1.3,1.3,0,0,0,2.24-1.31l-.21-.32a24.09,24.09,0,0,0,2.54-1.53c.27.33.55.67.8,1a1.21,1.21,0,1,0,1.82-1.6c-.29-.26-.55-.53-.81-.81l.44-.38.86-.66A1,1,0,0,0,254.2,218,32.82,32.82,0,0,0,259.84,213.29Z"/><path class="cls-1" d="M246.46,191.77c-.65-2-2.62-1-4.07-.74a36.11,36.11,0,0,1-3.73.57,35.34,35.34,0,0,1-6.72-.65c-2-.26-5.95-2.16-7.71-1.2-.83.69-.3,2,.22,2.68a4.86,4.86,0,0,0,.53.58,1,1,0,0,0,.43,1.46.87.87,0,0,0,1.13-.38,9.5,9.5,0,0,0,1.19.47c-.12.35-.22.7-.32,1-.17.8-.88,2,.17,2.46.76.3,1.24-.31,1.48-.95a11.59,11.59,0,0,0,1-2l1.73.25a2.8,2.8,0,0,0-.09,1.69c-.05.63-.32,1.61.56,1.76s.9-.85,1-1.44c0-.2.22-.32.27-.54.09-.49.14-.87.25-1.34q.84,0,1.68,0a6.06,6.06,0,0,0,.1.76,6.67,6.67,0,0,1,.59,2.13.86.86,0,0,0,1.69-.23,7.94,7.94,0,0,1,0-2.23c0-.21,0-.42-.06-.63q.93-.1,1.86-.27a13.72,13.72,0,0,0,.35,1.57c.1.37.4.62.47,1a.91.91,0,0,0,1.18.48,1.05,1.05,0,0,0,.44-1.4,8.91,8.91,0,0,0-.26-2l1.49-.3C244.77,194,246.89,193.77,246.46,191.77Z"/><path class="cls-1" d="M221.72,163.94c-1.26-.78-2.59.11-3.25,1.23-.66.71-1.33,1.43-2,2.1-1.37-.83-2.74.22-3.5,1.36s-1.9,2.33-2,3.78c1,2.76,3.69-.89,4.61-2,2,.7,3.41-1.28,4.62-2.49,2.11,1.09,3.82-1.5,5.24-2.7,1.16,1,2.75.35,3.85-.42,1.11.93,2.65.51,3.77-.17.9,1.45,2.77,1.09,3.89.12,1.12,1.81,3.31,1,4.95.51,1,1.43,2.75,1.05,4.11.54.84,1.59,2.71,1.51,4.13.8.91.65,2.06.34,3.1.47.53,1.39,2.34,1.7,3.63,1.33a1.29,1.29,0,0,0,.21-2.42,4.33,4.33,0,0,0-1.55-.4,2.27,2.27,0,0,0-2-1.13c-.28-2.49-2.36-3-4.34-1.85a3.3,3.3,0,0,0-3.8-.8,2.34,2.34,0,0,0-3.33-.6,4.36,4.36,0,0,1-1.52.53,2.24,2.24,0,0,0-.73-1.12c.94-.38,1.87-.81,2.77-1.24a50.85,50.85,0,0,1,5.92-1.51,1.94,1.94,0,0,0,.7-3.69,4.2,4.2,0,0,0-2.28,0c-2.68.29-5,1.58-7.47,2.57-2.09.62-4.27,1.52-6.48,1.09-1.71-.37-3.18-1.36-4.81-1.95-2.06-1-4.51-.08-6.45-1.35-1.4-.72-1.07-2.53-1.78-3.62a8.13,8.13,0,0,0,.43-.83c.4-.72,1.18-1.57.72-2.44-1-1.39-2.52.65-3.59,1.05a15.74,15.74,0,0,0-3.69,3.64c-1.16,1.3-2.37,2.56-3.49,3.89a25.86,25.86,0,0,0-3.37,4.7c-.58,1.62-1.25,3.21-1.95,4.78a22,22,0,0,0-1.08,7.21,20.74,20.74,0,0,0,.71,2.65c.28,1.34.34,2.74.7,4.07a1,1,0,0,0,1.1.53c.78-.21.74-1.05.56-1.69-.18-1.05-.35-2.11-.44-3.18.14-3.54.22-7.3,1.74-10.62a63.1,63.1,0,0,1,6.12-7.8c.66-.75,1.39-1.6,2.2-2.42,1.19,3.34,5.26,4.16,8.46,4.62a30.39,30.39,0,0,1,3.89,1.46,4.35,4.35,0,0,0-1.72,1C225.05,159.8,223.24,162.57,221.72,163.94Z"/><path class="cls-1" d="M215.93,102.33c-5.6-.36-10.3-2-15.33,1.62-1.11.67-1.7,1.82-2.54,2.76-.56.75-1.9,2.18-1.3,3.15.89.63,2.47-1.86,3.09-2.45a12.21,12.21,0,0,1,1.77-1.24l.37.06c1.29.07,2.58.19,3.87.22,2.42,0,4.84-.28,7.25-.49a45.14,45.14,0,0,0,6.56-.76c.67-.14,1.61-.49,1.88-1.13a7.23,7.23,0,0,0,1.16-.47c.71-.31,1.58-1,1-1.85s-1.44-.08-2.13.17A18.9,18.9,0,0,1,215.93,102.33Z"/><path class="cls-1" d="M201,124.32a8.35,8.35,0,0,0,.6-.59l.29-.34c.24-.27.51-.52.77-.78s.53-.51.78-.78.33-.39.52-.57a5.31,5.31,0,0,1,.66-.48l.15-.1c3.05-2.53,5.56-2.85,9.42-2.07,2.29.36,4,2,5.71,3.43l.09.08a14.85,14.85,0,0,1,1.14,2.25l0,0a2.76,2.76,0,0,1,.77.33,2.9,2.9,0,0,1,.58.45,1.36,1.36,0,0,0,1.15-1.89,14.78,14.78,0,0,0-.8-1.59s0,0,0-.07a9.73,9.73,0,0,0-1.37-2.12,8,8,0,0,0-.88-1,15.1,15.1,0,0,0-11.53-5.38c-.85,0-8.26.62-6.73,2.23a2.78,2.78,0,0,0,1.67.14c.71,0,1.43,0,2.15,0a33.27,33.27,0,0,1,5.38.26,16.21,16.21,0,0,0-9.88,5,14.85,14.85,0,0,0-1.68,2,1.76,1.76,0,0,0-.63,1.64,1.32,1.32,0,0,0,.22.39l.15-.05a3.53,3.53,0,0,1,.72-.14h.14l.24-.19-.08.07Z"/><path class="cls-1" d="M194.52,168.06a25.14,25.14,0,0,0,1,4.68,16.26,16.26,0,0,0,1,3.51,9.88,9.88,0,0,0,1.14,2.33,1,1,0,0,0,1.71-.85c-.22-.9-.68-1.72-.85-2.63a52.67,52.67,0,0,1-1.37-5.94,14.76,14.76,0,0,1-.58-2.93,2.64,2.64,0,0,0-.8-1.66c-.58-.32-1.07.2-1.27.7A5.61,5.61,0,0,0,194.52,168.06Z"/><path class="cls-1" d="M273.41,105a7.31,7.31,0,0,0-2.17-.73l-.51-.11c-1-.44-1.93-.94-2.9-1.45a5.84,5.84,0,0,0-2.47-.79c-6.61-.15-13.05,1.74-19.69,1.36-.72,0-1.71-.23-2.19.48a1.05,1.05,0,0,0,.24,1.35,5,5,0,0,0,2.49.89,11.61,11.61,0,0,0,1.67.1,12.57,12.57,0,0,0,4.78,1.28,16.91,16.91,0,0,0-3.07,2.66c-.56.64-1.75,1.4-1.38,2.38.75,1.08,1.82-.32,2.51-.79,1.7-1.2,3.62-2,5.35-3.16a19.44,19.44,0,0,1,2.14-1c2.85-.06,6.14-.32,7.6-1.34l.92-.12a1.07,1.07,0,0,0,.27-.09,2.75,2.75,0,0,0,.5,0,13.92,13.92,0,0,1,3.41.29l.51.22a1.12,1.12,0,0,0,.64.06l.17,0a9.66,9.66,0,0,1,2.34.74.72.72,0,0,0,.88-.35C275.91,105.83,274.08,105.52,273.41,105Z"/><path class="cls-1" d="M275.53,126.46a.51.51,0,0,0,.09-.16,1.24,1.24,0,0,0,1.85-1.61c-1.84-3.08-3.94-6.17-7.05-8.09-3.9-2.58-9.08-3.82-13.57-2.18a19.9,19.9,0,0,0-2.15,1,10.68,10.68,0,0,1,1-.72,19.25,19.25,0,0,1,8.74-2.32.67.67,0,0,0,.1-1.33,16.13,16.13,0,0,0-8.26,1.43,15.78,15.78,0,0,0-4.56,2.44,10.67,10.67,0,0,0-2.58,4.89c-.08.29-.2.6-.29.91-.75,1.12-1.59,2.55-.76,3.38a1.08,1.08,0,0,0,1.2.12c1.15-.75,1.87-2.1,2.93-3,2.79-2.74,5.65-5.42,9.84-5.21a11.93,11.93,0,0,1,8,3.38,45.26,45.26,0,0,1,4.79,5.92l-.14,0a3.12,3.12,0,0,0-1.23.47c-.21.11-.45.25-.51.5-.09.57.58.59,1,.64S275.19,126.89,275.53,126.46Z"/><path class="cls-1" d="M227.58,136.61a.6.6,0,0,0,.38.69c.47.17.78-.24.89-.64a29.25,29.25,0,0,0,1.51-5.26,35.44,35.44,0,0,0,.33-8.55,28.9,28.9,0,0,0-1.43-6,37.88,37.88,0,0,0-2.37-5.83.6.6,0,0,0-.6-.5c-.95.15-.44,1.68-.41,2.34.25,2.6,1,5.09,1.46,7.65a33.92,33.92,0,0,1,1.2,7.86,49.15,49.15,0,0,1-.4,5.56A25.72,25.72,0,0,1,227.58,136.61Z"/><path class="cls-1" d="M276.82,53.55a33.15,33.15,0,0,1,21.1,21.75,1.21,1.21,0,1,0,2.33-.64,41.47,41.47,0,0,0-2.22-6c-3.9-8.35-15-19.65-24.77-19.41-.89,0-1.9.67-1.7,1.68C272.32,52.71,275.2,52.75,276.82,53.55Z"/><path class="cls-1" d="M217.77,61.44c-4.15-.7-23.67,1.56-23,7.13,1.24,1.5,5.17-.52,7-.63A144.7,144.7,0,0,1,218,64.7,1.64,1.64,0,0,0,217.77,61.44Z"/><path class="cls-1" d="M180.78,101.32c.1,1.15-.33,2.59.54,3.52,1.65.78,1.54-2.46,1.76-3.41,1.12-6,1-12.15,1.35-18.22a49.56,49.56,0,0,1,.95-7.08,1.79,1.79,0,0,0-3.54-.49,118,118,0,0,0-1.25,22.69C180.6,99.33,180.69,100.32,180.78,101.32Z"/><path class="cls-1" d="M190.85,63.55c8.93-7.66,20.89-6,31.05-1.9.88.33,1.75.66,2.61,1,2.06.44,2.17-2,.31-2.52-4.77-2.76-10.25-3.86-15.67-4.5a25.81,25.81,0,0,0-20.52,5c-2.26,1.49-9.34,7.92-7.21,10.69C182.76,72.34,189.14,64.73,190.85,63.55Z"/><path class="cls-1" d="M185.36,58.58c1.3-1.33,2.52-2.72,3.76-4.09l.21-.23a49,49,0,0,1,8.39-1.72,38.86,38.86,0,0,1,14,.21c7.1,1.47,14.28,5,19.08,10.65a.77.77,0,0,0,1.05.13.76.76,0,0,0,.13-1.05,32.47,32.47,0,0,0-5.26-5,39.12,39.12,0,0,0-18.76-7.75,32.93,32.93,0,0,0-15.4,1.21c1.69-1.62,3.45-3.15,5.26-4.65,1.85.08,3.7.08,5.55.23a66.31,66.31,0,0,1,9.3,1.32c9.16,1.71,18.15,6.37,23.66,14.1a.75.75,0,0,0,1,.14.76.76,0,0,0,.13-1A34.71,34.71,0,0,0,235,57.93a41.92,41.92,0,0,0-20.64-12.39,51.56,51.56,0,0,0-13.1-2.1l4.09-3.28c.52.16,1.08.21,1.59.34,2.46.42,4.93.75,7.37,1.25a46.19,46.19,0,0,1,10.58,3.8c7.19,3.81,14.49,9.39,17.61,17.18a.67.67,0,0,0,.86.36.68.68,0,0,0,.36-.87,32.85,32.85,0,0,0-1.91-4c-6.74-10.8-18.69-17.71-31-20.34-.55-.09-1.35-.21-2.19-.28,1.65-1.25,3.33-2.47,5.05-3.63.71.37,1.44.71,2.18,1,1.51.69,3,1.37,4.5,2.11A101.32,101.32,0,0,1,231,43.38a42.51,42.51,0,0,1,11.23,10.7,34.85,34.85,0,0,1,4.05,8.65.72.72,0,0,0,.86.48.69.69,0,0,0,.49-.86c-.31-.93-.65-1.85-1-2.77a36.54,36.54,0,0,0-10.28-14.47,77.94,77.94,0,0,0-18.6-12.59c-.22-.11-.59-.28-1-.46.9-.55,1.81-1.08,2.74-1.58.72-.36,1.44-.7,2.18-1a10.54,10.54,0,0,0,1,.76c4.69,3.28,9.71,6.12,14,10s7.36,8.62,9.93,13.69a39.66,39.66,0,0,1,3.43,9.26.81.81,0,0,0,1,.57.83.83,0,0,0,.57-1,37.38,37.38,0,0,0-2.63-7.83c-5.81-12.91-12-19.46-24-26.72,1-.37,2.07-.71,3.13-1,.85.48,1.72.89,2.18,1.19a50.56,50.56,0,0,1,6.65,4.89c5.32,4.74,9.08,10.91,12.28,17.21,1.92,4.05,3.85,8.21,4.47,12.7a.67.67,0,0,0,.74.56.65.65,0,0,0,.55-.73,31.8,31.8,0,0,0-.86-4.41c-1.45-7.23-5.4-13.7-9.57-19.68A48.94,48.94,0,0,0,232.31,26c.52-.11,1-.23,1.57-.33.15,0,.3-.06.45-.09,1.25,1.12,2.84,2.22,3.27,2.71,10.47,8.88,17.75,21.66,19.21,35.42a1,1,0,0,0,1.1.83c1.59-.28.46-3.12.44-4.27A59.47,59.47,0,0,0,247.7,35.46c-2.35-3.13-4.25-6.61-7.23-9.21-.44-.37-.9-.78-1.36-1.18a21.86,21.86,0,0,1,2.57.08c.24.25.48.51.71.77,1.08,1.16,2.2,2.28,3.25,3.48,5.32,5.78,8.93,12.91,11.41,20.33A48.94,48.94,0,0,1,259.81,63a.8.8,0,0,0,1.59,0,55.2,55.2,0,0,0-2.31-13.32,71,71,0,0,0-6.2-14.88,45.23,45.23,0,0,0-5.66-8.5A28.7,28.7,0,0,1,253,28.94,132.09,132.09,0,0,1,258.35,41a67.34,67.34,0,0,1,4.22,13.28,30.33,30.33,0,0,1,.57,8.25,17.3,17.3,0,0,1-.22,1.87.7.7,0,0,0,.59.78c1.1.06.83-1.57,1-2.31a33.18,33.18,0,0,0,0-5.46A46.67,46.67,0,0,0,263,48.5a74.53,74.53,0,0,0-3.79-11.87c-.68-1.57-1.33-3.19-2-4.77,1.06.82,2.11,1.7,3.16,2.64,2.63,2.42,5,5.36,6,8.87a31.49,31.49,0,0,1,.43,3.48,2.15,2.15,0,0,0,2.07,2.36,2.08,2.08,0,0,0,2.06-2.06c0-.62-.08-1.24-.14-1.86-.12-1-.16-2-.37-3a23.46,23.46,0,0,0-3.89-7.75A34.75,34.75,0,0,0,254.29,24,30.93,30.93,0,0,0,241,20.27c-7.06-.34-14.39,1.95-20.81,4.74-5.39,2.52-10.27,6-15,9.55-4.54,3.74-23.31,18.77-21.37,24.49C184.34,59.64,185,59,185.36,58.58Z"/><path class="cls-1" d="M291,73.39c-.61-.52-1.21-1-1.82-1.56a42.55,42.55,0,0,1-5.47-5.28c-2.78-3.22-5.14-6.78-7.74-10.15-.31-.44-1-1.14-1.46-.48-.59,1.08,1.74,3.8,2.36,4.81A90.36,90.36,0,0,0,286.15,71c1.26,1.27,2.48,2.5,3.85,3.66a.8.8,0,0,0,1.27-.73A.84.84,0,0,0,291,73.39Z"/><path class="cls-1" d="M296.15,76.27a.53.53,0,0,0,.13-.68c-.37-.6-.77-1.18-1.15-1.77-1.61-2.56-3.37-5.06-5.24-7.49a62.18,62.18,0,0,0-4.59-6.12c-.74-.84-3.62-3.77-4.72-3.38a.55.55,0,0,0-.19.76,15.1,15.1,0,0,0,2.77,4c1.74,2,3.68,3.84,5.48,5.8,2.4,2.81,4.65,5.74,6.78,8.76A.51.51,0,0,0,296.15,76.27Z"/><path class="cls-1" d="M146.67,416.62c-1.32-2.76-2.36-5.65-3.41-8.51-3.19-9.21-3.94-19-5-28.65A277.67,277.67,0,0,1,137,348c.07-3,.23-6,.13-9a.85.85,0,1,0-1.63-.43,36.23,36.23,0,0,0-1.65,7.51c-1.71,12.44-1,25.07.72,37.48l.3,2.62a60,60,0,0,1-4.44-9.92,95.65,95.65,0,0,1-3.1-11.41,109.54,109.54,0,0,1-2.19-27.62c.23-4,.61-8.08.56-12.13a.87.87,0,0,0-.28-.69c-1.33-.86-2.16,3.83-2.49,4.77A49.4,49.4,0,0,0,121.58,340,126.15,126.15,0,0,0,122,355.3a96.38,96.38,0,0,0,6.11,26c1.63,3.46,3.52,6.79,5.38,10.12a1.82,1.82,0,0,0,2.2.85c.3,2.18.66,4.35,1.11,6.49a23.21,23.21,0,0,0-.58,3.54c-1,9.59-1.8,19.2-2.22,28.83h-.2a2.33,2.33,0,0,0-1.09.47,2.47,2.47,0,0,0-1.58-.88l-1-.26c-.44-.24-.87-.48-1.31-.7a1.41,1.41,0,0,0-1.68,0q-11-2.79-21.81-6.41c-4.8-1.83-11.61-3.94-14.67-8.22a6.14,6.14,0,0,1-.61-5.37c1.22-3.15,2.53-6.26,3.72-9.42s2.35-6.47,3.42-9.73c4.28-13.34,7-27.1,9.64-40.85A231.91,231.91,0,0,1,114.05,323c.31-1.41,3.5-9.24,1.43-9.5a.77.77,0,0,0-.75.36,13.4,13.4,0,0,0-2.11,3.14A76.17,76.17,0,0,0,106,336.39l0-.11c-2.32,12.19-5,24.68-8.06,36.77-1.6,6.31-2.92,12.69-5,18.86-1.63,4.49-3.47,8.9-5.22,13.35-1.43,3.32-2.65,6.34-1.56,10,1.49,4.33,5.62,7.47,10.43,9.85a33.65,33.65,0,0,0-.5,4.11c-1.3,13.41,4.31,26.87.79,40.18-1.68,7.87-3.27,15.77-5.19,23.58-1.2,5.23-2.31,10.49-3.14,15.79,0,2.47-2.23,6.89,1.3,7.71,3.67.2,2.67-5,3.58-7.43,1.19-6.35,2.6-12.46,3.86-18.82,1.8-10.46,5-20.81,4.93-31.5,0-4.79-.67-9.55-.79-14.34-.29-5.7.35-11.53-.07-17.22,3.87,1.47,7.77,2.58,10.83,3.49,6,1.63,11.9,3.32,17.9,4.76a2.66,2.66,0,0,0,1.32,0,2,2,0,0,0,.9,1,2.11,2.11,0,0,0,1.38.26c-.07,2.49-.1,5-.11,7.46.23,15.57.43,31.15,1,46.72.18,7.7.1,15.41.23,23.11a2.15,2.15,0,0,0,4.29,0c-.08-13-.14-26.09-.75-39.12-.62-15.58-.61-31.19-.24-46.78.25-7.67.36-15.35.15-23,0-.15,0-.29,0-.44a42,42,0,0,0,2.35,5.85c1.83,3.6,3.89,7.11,6,10.54a1,1,0,0,0,1.81-1.06C147.83,418.83,147.24,417.73,146.67,416.62Z"/><path class="cls-1" d="M442.06,468.78c-.18-3-1.34-5.85-2.12-8.74-2.16-7.67-4.18-15.39-5.86-23.18-2-11-2.49-22.31-3.4-33.47-.84-16.56-.83-33.48-3.36-49.95-1.22-8.73-3-17.43-6.43-25.59-5-11.87-11.3-23.33-19.57-33.24-6.62-8.15-14.91-15-24.79-18.77q-1.3-.57-2.64-1a2.7,2.7,0,0,0-.62-.71,61.32,61.32,0,0,0-7.33-4.33c-1.12-.63-2.21-1.32-3.32-2-1.85-1.28-3.71-2.55-5.55-3.84-11.09-7.64-21.81-15.71-33.68-22.25-1.51-.79-3-1.58-4.54-2.4a2.92,2.92,0,0,0-1.34-.47,1,1,0,0,0-.34.07,2,2,0,0,0-.06-1.19,2.3,2.3,0,0,0-1.06-1.24c-2.24-1.29-4.46-2.6-6.71-3.86-2.65-1.62-5.74-2.38-8.1,0a2.44,2.44,0,0,0-.44-.4,67.69,67.69,0,0,1-12.66-11.9c-2.31-3-2.67-4.33-2.8-8-.28-3.34-.56-6.68-.53-10,0-2.75.53-5.46.63-8.2,0-1-.2-1.89-.23-2.85a12.51,12.51,0,0,0-.17-2,.43.43,0,0,1,0-.07c.68-1.79,1.25-3.62,1.83-5.44,1-2.78,2.09-5.55,3-8.38,3.65,1.38,7.73-8.88,8.95-11.33a27.77,27.77,0,0,0,1.63-4.78,97.78,97.78,0,0,0,3-11.07c1.13-3.73,2.36-7.5,2.63-11.42.61-5.61-2.54-12.72-9-11.53.52-1.81.25-3.74.22-5.61-.07-2.44-.06-4.9,0-7.35,0-3.63.3-7.78.33-11.56,0-2.72-.16-5.45-.11-8.18,0-4-.18-7.91-.48-11.85a2.13,2.13,0,0,0-.68-1.41,2.06,2.06,0,0,0-3.4,1.64c.43,5.56.63,11.14.53,16.71,0,6.63.47,13.35.38,20,0,2.78-.62,5.93.88,8.42a7.92,7.92,0,0,0-.9.5c-.18-3.59-.05-7.19-.3-10.79,0-.89-.19-5.28-1.24-5.78a57.4,57.4,0,0,0-3.79-7.56c-.44-.82-1.06-1.53-1.45-2.36a11.18,11.18,0,0,1-.59-2.62,83.06,83.06,0,0,1-.23-14.55c0-1,.09-2,.17-3.07a1.69,1.69,0,0,0,1.79-2.09,2,2,0,0,0-1-1.16l-.63-.45a1.45,1.45,0,0,0-1.18-.89c-.68-.54-1.35-1.1-2-1.68a71.16,71.16,0,0,1-11.91-14.94c-.77-1.07-1.59-3-3.05-3.09a1.26,1.26,0,0,0-1.19.95c-.39,2,.91,3.92,1.94,5.56a67.77,67.77,0,0,0,5.49,7.26,55,55,0,0,0,9,8.84c-.39,4.18-.79,8.36-.81,12.56q0,3.92.22,7.81a10.78,10.78,0,0,0,1.17,4.45c1.52,2.6,3.18,5.11,4.73,7.69.53.79.88,1.84,1.5,2.6-.11.78-.16,1.58-.24,2.36a35.1,35.1,0,0,0-.12,5.89c.42,4.2.21,8.44.67,12.64.41,3.49,1,7,1.05,10.51-.05,5.23-2.18,10.09-3.45,15.08-1.17,4-1.32,8.25-1.86,12.4a55.74,55.74,0,0,1-2.82,11.61c-.31.8-.61,1.61-.95,2.4a7.37,7.37,0,0,0-.9,2.62,11.07,11.07,0,0,0-.58,2.69,16.06,16.06,0,0,0-.4,3.72c1.36,21.26-3,23.48,8.47,33.77-3.08,5.91-5.58,12.1-8.6,18-.85,1.68-1.71,3.36-2.6,5a49.78,49.78,0,0,1-6.47,3.18c-3.6,1.46-7,3-10.8,4.26a71.12,71.12,0,0,1-12.25,3.25,74.18,74.18,0,0,1-9.06.55c-7.1-.19-14.36-1.55-20.58-5.1a52.2,52.2,0,0,1-8.73-6.8c-.53-.41-1.15-1.11-1.81-1.71a2.69,2.69,0,0,0-.09-.92c-.08-3-.23-6-.37-9.05-.36-10.06-1.68-19.79-1.73-29.91,0-2.29.2-4.76-1-6.79a3.12,3.12,0,0,0-1.12-1.16,101,101,0,0,1-6.41-7.9,42.64,42.64,0,0,1-6.35-15.26,86,86,0,0,1-1.47-9.89,60.73,60.73,0,0,1,0-7.75,41.07,41.07,0,0,0,.28-5,2.27,2.27,0,0,0,.85-2.11c-.19-1.35-.35-2.71-.45-4.08q-.56-6.47-1.07-12.94c-.41-6.5-.24-13-.59-19.53a55.84,55.84,0,0,0-.35-6,2.3,2.3,0,0,0,.32-.37,19,19,0,0,0,2.53-6c.45-2.75-.28-5.52-.5-8.27a44.52,44.52,0,0,1-.07-9.52c.1-1.55.21-3.11.42-4.65.25-1.82.84-3.56,1.15-5.37,0-1.26,1.8-5.15.42-5.83-.63-.29-1.09.26-1.43.71a23.09,23.09,0,0,0-3,6.24A43.81,43.81,0,0,0,187,86.45c-.13,4.13.18,8.27.33,12.4a24.17,24.17,0,0,1,.18,4.07,22.79,22.79,0,0,1-1.62,4c-.1.17-.2.33-.31.49A2.13,2.13,0,0,0,184.1,109c-.72,3.07-.08,6.24,0,9.35.12,2.61.28,5.29.47,8-5.17,1.09-8.31,11.43-7.53,15.85.43,3.84,1.71,7.52,2.5,11.3a73,73,0,0,0,2.83,8.86c.58,1.26.88,2.77,2.07,3.62a2.14,2.14,0,0,0,.6.31A44.17,44.17,0,0,0,187,180a75.93,75.93,0,0,0,3.68,9,60.23,60.23,0,0,0,9.92,15.57l.12.12a2.34,2.34,0,0,0,0,.38c.55,11.48,1.34,22.93,1.95,34.47.15,2.61.29,5.22.55,7.81-.39.31-.72.58-.92.72a15.87,15.87,0,0,0-4,4.52,1.94,1.94,0,0,0-.51.14C188.22,257.1,179.43,263,171,269.26c-12.51,10.17-28,15.47-40.93,25.08-1.77,1.19-14.34,10.37-11.48,12.27,1.19.57,1.8-1.1,2.67-1.64,3.1-2.56,6.41-4.87,9.7-7.18,9.38-6.22,19.42-11.46,29.45-16.55,10.56-5.85,19.56-14.08,30-20.09,2-1.17,4-2.29,6-3.33A15.28,15.28,0,0,0,198,266c2.22,4.6,6.54,7.7,10.89,10.14l.81.45a161.28,161.28,0,0,0,11,30.72,1.76,1.76,0,0,0,.61.63c-1.62,2.65-2.59,5.55.12,7.88a4.47,4.47,0,0,0,5.64-.28c.67-.53,1.5-1.05,1.59-2a1.48,1.48,0,0,0-2-1.55c-.76.37-1.25,1.13-2.06,1.42-.63.27-1.17-.29-1.3-.87a6.6,6.6,0,0,1,.88-2.25c.53-.56,1.2-1,1.77-1.5a10.67,10.67,0,0,1,1.75-.44,1.2,1.2,0,0,0,1.79,1.5c2.63-1.8,5-3.91,7.44-5.94,5.39-4.54,10.49-9,15.65-14,5-5.09,10.29-9.92,14.82-15.42,2.31-.71,4.6-1.47,6.86-2.31,3.07-1.23,6.09-2.6,9.07-4,4.33-2.19,8.18-4.48,12.36-7.13a88.75,88.75,0,0,0,14-10.85,82.44,82.44,0,0,0,6.1-6.16,10.71,10.71,0,0,0,1.82-2.52l.36.28c.67.5,1.36,1,2.06,1.4,13.75,7.85,26.21,17.68,39.23,26.65a4.69,4.69,0,0,0,1,1.69,9.31,9.31,0,0,0,1.16,1c-1-.06-2-.12-3-.16a67.84,67.84,0,0,0-17.92,1.4c-1.94.4-3.87.84-5.79,1.34-3.08.85-6.3,1.6-9.05,3.28-.41.25-.84.68-.54,1.2a.73.73,0,0,0,.79.33,89.61,89.61,0,0,1,13.67-3.11,75.27,75.27,0,0,1,19.32-.6,59.43,59.43,0,0,1,12.76,2.22,64.76,64.76,0,0,1,12.25,6.16c14.06,9.92,22.94,25.4,29.88,40.81a109.88,109.88,0,0,1,5.6,16.79c4.24,15.2,5.55,30.54,5.8,46.37.22,12.42.41,24.89,1.94,37.23,1.14,10,3.49,19.73,6,29.46.75,2.86,1.55,5.71,2.37,8.56a16.61,16.61,0,0,1,.89,4c.26,2.05-1.21,3.83-2.86,4.86a8.49,8.49,0,0,1-2.82.62c-2.25.13-4.51.09-6.76,0-8.86-.09-17.63-1.5-26.44-2.31a119,119,0,0,0-12.38-.45c-7.87,0-16,.35-23.25,3.73a2.9,2.9,0,0,0-1.73,2.21,25.12,25.12,0,0,1-4.69,3,11.49,11.49,0,0,0-1.23-2.16.78.78,0,0,0-.57-.44,93.14,93.14,0,0,1-.93-13.24c0-2.07.08-4.14.13-6.21a2.15,2.15,0,0,0,.17-.65c.21-2.34.4-4.69.56-7,.33-5,.84-9.95.48-14.92a140.27,140.27,0,0,0-1.73-14.61,199.14,199.14,0,0,1-1.61-23.21,184.27,184.27,0,0,1,1-18.49c.63-13.3,2.72-26.49,5.11-39.58.68-3.22,1.06-6.51,1.71-9.72a.45.45,0,0,0-.77-.45c-.17.23-.31.49-.47.73a37.05,37.05,0,0,0-3.7,9.05,173.82,173.82,0,0,0-5.28,28.66c0-.73-.06-1.46-.06-2.19-.22-5.81-.29-11.62-.18-17.43a180.66,180.66,0,0,1,3.61-31.51c.42-2,.8-4,1.27-5.93.25-1,.52-2,.75-3a6.26,6.26,0,0,0,.3-2.3c-1-1.11-3.24,6.15-3.75,7.1-4,10.22-4.65,21.32-5.43,32.16-.36,6.21-.84,12.47-.81,18.7a37.77,37.77,0,0,0,.76,7.27c.5,3.6,1,7.21,1.53,10.8a1.88,1.88,0,0,0,.49,1,125.67,125.67,0,0,0-1.13,20.51c1,15.43,4.24,30.78,2.73,46.29v-.08c-.18,2.48-.37,5-.59,7.45a2.59,2.59,0,0,0,.43,1.8,70.23,70.23,0,0,0,.07,17c.54,3,.42,7.3,3.21,9.22a4.44,4.44,0,0,0,1.86.52c1.12,6.73,2.72,13.37,3.6,20.13a2.35,2.35,0,0,0,4.65-.63c-.73-4.32-1.61-8.61-2.59-12.88-.57-2.51-1.23-5-2-7.46a24.81,24.81,0,0,0,5.63-4,3.26,3.26,0,0,0,1.44-.2c6.59-2.62,13.84-2.87,20.85-2.95,11.56-.25,22.88,2.48,34.39,3.08,1.62.1,3.25.13,4.88.14-2.51,8.69-1.92,24.14-2.32,31,0,3.39,5.25,3.37,5.23,0,.07-8.23.32-16.46.89-24.67-.14-1.14.43-3.89.6-6.36,3.24-.11,6.51-.52,9.07-2.59S442.21,472.15,442.06,468.78ZM292.16,161.19c.77-4.29,1.8-8.53,2.3-12.86.28-2.93.85-5.88.66-8.83-.36-3.22-.82-6.32-1.07-9.58.91-.18,1.92-.66,2.59-.81,6.11-2.16,5.55,6.54,5.05,10.3-.53,4.16-2,8.07-3.37,12a73.32,73.32,0,0,1-3.68,12,24.34,24.34,0,0,1-3.48,6.14c0-.17,0-.35.07-.53C291.54,166.4,291.79,163.79,292.16,161.19ZM183.1,150.24c-2.3-5.92-4.42-13.73.67-18.82a5.63,5.63,0,0,1,1.14-1c.2,2.54.41,5.08.61,7.57.23,4.62.35,9.25.7,13.86a11.15,11.15,0,0,0,.34,3.23,9.18,9.18,0,0,0-.42,1.34q-.12.56-.21,1.11C184.94,155.14,183.94,152.59,183.1,150.24Zm114.83,85.68c-.66.67-1.32,1.34-2,2a95.87,95.87,0,0,1-12.67,10.68l0,0c2.59-5.11,5.32-10.24,7.09-15.77.13-.47.43-1.42.71-2.42C293,232,295.25,233.81,297.93,235.92ZM214.27,260.3a34.62,34.62,0,0,0,13.63,6.11,51.13,51.13,0,0,0,19.8.19,72.74,72.74,0,0,0,14.5-3.31,95.37,95.37,0,0,0,12-4.54A116.31,116.31,0,0,1,266.71,270c-1.61.52-3.24,1-4.86,1.53-3,.94-5.9,2-8.9,2.87a80.57,80.57,0,0,1-29.24,1.29,39.77,39.77,0,0,1-12-3.54c0-.13-.06-.25-.08-.38-.79-3.75-1.19-7.56-1.75-11.35-.28-1.51-.49-3.09-.81-4.64A67.92,67.92,0,0,0,214.27,260.3Zm-14-1.54a10.55,10.55,0,0,1,1.84-5.1,25.63,25.63,0,0,1,1.85-2.65,2.39,2.39,0,0,0,.45.45,2.69,2.69,0,0,0,1,.46c0,.35.07.7.09,1.06a126.14,126.14,0,0,0,2.8,17.06c0,.08,0,.15.05.23C204.21,267.64,200.25,263.88,200.24,258.76Zm38.29,40.32c-2.56,2.29-4.86,4.55-7.6,6.71l-.22.16c-1.73-1.34-4.62-1-6.87.05a1.73,1.73,0,0,0-.19-.45,116.14,116.14,0,0,1-5.21-11.46c-1.26-3.32-2.35-6.37-3.44-9.83-.61-2-1.22-4-1.79-6a46.19,46.19,0,0,0,14.65,2.84c9.35.67,18.64-1,27.67-3.27q3.14-.79,6.25-1.66C254.74,284.49,246.62,291.81,238.53,299.08Zm70.12-54.3a95.87,95.87,0,0,1-19.48,14.55,133.7,133.7,0,0,1-13.59,7.45c-1.22.51-2.45,1-3.68,1.45,1.48-2.33,3-4.8,4.41-7.1q1.65-2.56,3.14-5.22c1.8-1.1,3.53-2.29,5.23-3.54a115.34,115.34,0,0,0,11.15-8.93c3-2.76,5.81-5.83,8.8-8.6,1.84.68,3.4,2,5.11,2.93l3.43,2L313,240A53,53,0,0,1,308.65,244.78Z"/><path class="cls-1" d="M337.89,371.62a114.15,114.15,0,0,1-6.91-32c-.55-7.35.25-14.71,0-22.06-.12-1.25.35-2.67-.29-3.81-1-1.15-2.32.18-2.49,1.28-1.4,5.61-1.19,11.47-.9,17.28.12,18.13,3.18,36.75,12.93,52.35a1.51,1.51,0,0,0,2.6-1.52A68.19,68.19,0,0,1,337.89,371.62Z"/><path class="cls-1" d="M226.44,346.93c-.07-.54.11-1.62-.7-1.6-1.29.3-1.54,5.08-1.7,6.4-.67,9.56-1.22,19.26.79,28.7a88.79,88.79,0,0,0,5.29,17.07c1.83,3.87,3.71,7.74,5.66,11.57a.88.88,0,0,0,1.19.31.89.89,0,0,0,.31-1.19l-1-1.91a72.77,72.77,0,0,1-3.92-9A129.8,129.8,0,0,1,228,377.45c-1.25-8.36-2.2-16.82-1.67-25.28C226.41,350.43,226.49,348.68,226.44,346.93Z"/><path class="cls-1" d="M234.58,436.28a169,169,0,0,1-10.36-17.87c-5.53-10.37-8.45-21.85-11.31-33.18a67.83,67.83,0,0,1-2.56-11.18.65.65,0,0,0-.71-.77.67.67,0,0,0-.52.84,26.49,26.49,0,0,0-.07,2.82,78.68,78.68,0,0,0,6.9,30.29,146.05,146.05,0,0,0,21.29,36.7,1.18,1.18,0,0,0,1.87-1.44C237.52,440.48,236,438.4,234.58,436.28Z"/><path class="cls-1" d="M201.66,402.83c-.11,4.12-.86,8.21-1.29,12.37-.74,6.57-1,13.16-1.61,19.75-.94,9-1.84,17.85-2.07,26.91-.18,2.61-.44,5.35-.68,8.1a1,1,0,0,0,2,.27c.14-1.62.29-3.24.42-4.86.25-3.49.75-6.94,1.11-10.41.54-5.86,1-11.73,1.4-17.6s1-11.63,1.43-17.45.57-11.59.41-17.39C202.71,401.75,201.42,401.75,201.66,402.83Z"/><path class="cls-1" d="M235.37,219l-.05,0h0l.14,0Z"/><path class="cls-1" d="M266.67,201.49a.64.64,0,0,0,.87-.23c.66-1.25,1.29-2.53,1.88-3.81a107.54,107.54,0,0,0,4-10,15.66,15.66,0,0,0,.56-5.18c0-.33-.17-.95-.63-.75a3.93,3.93,0,0,0-.9,1.88c-1.2,3.57-1.88,7.29-3.19,10.82a52,52,0,0,1-2.53,5.91C266.46,200.54,266.11,201.15,266.67,201.49Z"/><path class="cls-1" d="M262,178.3a1.68,1.68,0,0,0,.4-.43c.84-1.69-1.5-2.33-2.61-3a26.08,26.08,0,0,0-4.07-1.65,35.27,35.27,0,0,0-3.4-1.06c-3.21-.82-6.43-1.81-9.78-1.7-1.95.11-3.88.47-5.84.56-3.14.2-6.12-1.8-9.26-1a39.75,39.75,0,0,0-4,1.84,40.6,40.6,0,0,0-7.39,4.42c-.65.64-1.4,1.15-2.1,1.72-.11.11-.18.24-.28.35a.67.67,0,0,0-.2.61c-.75.26-.34,1.27-.37,1.87a8.49,8.49,0,0,0,1.21,3.54,8.21,8.21,0,0,0,1.61,2.41.62.62,0,0,0,1-.75,16.17,16.17,0,0,1-1.38-2.56c-.3-.8-.47-1.63-.71-2.44a10.27,10.27,0,0,0,2.68,1.36c5,1.77,10.46,2.41,15.75,2.86a33.41,33.41,0,0,0,8.36-.16,54.58,54.58,0,0,0,9.15-1.77,87.81,87.81,0,0,0,9.13-3.48c.52-.24,1-.48,1.54-.76A1.09,1.09,0,0,0,262,178.3Zm-36.71-5.23a6.36,6.36,0,0,1,5-.82c2.29.4,4.47,1.39,6.82,1.39s4.5-.75,6.78-.49a33.21,33.21,0,0,1,8.22,1.92,15.08,15.08,0,0,1-1.73.58c-2,.23-3.89.58-5.85.77a3,3,0,0,1-1,0,5,5,0,0,0-1.51-.75,8.7,8.7,0,0,0-4.27-.1,21.94,21.94,0,0,0-2.18.8h0a13.67,13.67,0,0,0-4.24-1c-.91.11-1.8.32-2.71.37a15.13,15.13,0,0,0-4.75.18c-1,.31-1.81-.27-2.71-.61C222.56,174.52,224,173.75,225.28,173.07Zm20.24,9c-.89.19-1.8.33-2.7.43.11-.9.17-1.8.29-2.7,0-.35.15-1.15.18-1.85h.28c1-.1,1.9-.27,2.85-.4-.31,1.13-.41,2.34-.68,3.5C245.69,181.31,245.56,181.68,245.52,182Zm-19.77.25c-.42-1.5-.73-3-1.13-4.53l-.06-.2.92-.23a14.5,14.5,0,0,1,3.16,0,12.61,12.61,0,0,0,0,2.88c.07.83.08,1.67.16,2.5C227.8,182.58,226.77,182.45,225.75,182.28Zm-4.32-1.12a17.19,17.19,0,0,1-.69-3.26,10.3,10.3,0,0,0-.27-1.06,6.54,6.54,0,0,0,2.95.88,15.22,15.22,0,0,0,.72,4.26c-.91-.19-1.8-.43-2.69-.71A.43.43,0,0,0,221.43,181.16Zm-5.61-2.38.25-.18c.85-.51,1.7-1,2.52-1.61a8.66,8.66,0,0,0,.38,2.14c.19.49.4,1,.59,1.47-.38-.15-.75-.31-1.13-.48C217.56,179.69,216.69,179.24,215.82,178.78Zm15.17,4v-.06a23.35,23.35,0,0,1-.16-3.64,13.11,13.11,0,0,0-.06-1.4,5.15,5.15,0,0,0-.07-.65,7.93,7.93,0,0,1,1.08-.12,12.07,12.07,0,0,1,3.39.81c0,.25-.08.51-.12.71a24.88,24.88,0,0,0,.06,4.4C233.74,182.88,232.37,182.87,231,182.81Zm6.43,0-.64,0c-.1-1.49-.06-3-.06-4.49,0-.12,0-.26,0-.41.63-.1,1.27-.35,1.89-.5a8.21,8.21,0,0,1,2.1-.18,5.73,5.73,0,0,1,1.29.23l.14.07c-.14.7-.11,1.64-.21,2.05-.08.92-.23,1.82-.32,2.73a.63.63,0,0,0,0,.27C240.23,182.71,238.82,182.77,237.42,182.8Zm9.66-1.13c.14-.71.27-1.42.42-2.12a16.39,16.39,0,0,0,.26-2.16h0c1.44-.09,2.9-.33,4.35-.54-.26.81-.34,1.93-.56,2.37s-.32.89-.46,1.35C249.78,181,248.44,181.34,247.08,181.67Zm6-1.73a15.63,15.63,0,0,0,.5-2.54,3.72,3.72,0,0,0,0-.75l1.09-.1a1,1,0,0,0,.65-.37l1,.32c.94.33,1.87.68,2.78,1.09a44.61,44.61,0,0,1-4.74,1.94Z"/><path class="cls-1" d="M205.77,126.71c-.84,1,3.49,2,4.14,2a9.64,9.64,0,0,0,6-.49c.7-.36,1.3-.61,2-1a.92.92,0,0,0-.71-1.69l-1,.24a3.88,3.88,0,0,0-2.46-5.35,4.37,4.37,0,0,0-2.77.18,16.25,16.25,0,0,0-1.69,1.31,3.54,3.54,0,0,0-.59.57,1.62,1.62,0,0,1-.21.51,1.83,1.83,0,0,1-.35.44,4.31,4.31,0,0,0-.24,2.41c.1.27.16.55.24.83a1.24,1.24,0,0,0,.1.2c-.64,0-1.27-.08-1.9-.14A.4.4,0,0,0,205.77,126.71Z"/><path class="cls-1" d="M268.34,125.59a.69.69,0,0,0-.67-.59c-.93.15-1.87,0-2.81.11h-.05a4.39,4.39,0,0,0,.15-.6l.19-.26a1.81,1.81,0,0,1,.25-.3,3.86,3.86,0,0,0-.25-2.26,5.33,5.33,0,0,0-4.15-3.45c-3.13-.22-5.42,3.46-4.34,6.29a6.4,6.4,0,0,0,.14.65l0,0,.08.09c-1.22-.1-2.51-.14-2.51.43a.36.36,0,0,0,.24.34,2.94,2.94,0,0,0,1.35.43,24.79,24.79,0,0,0,6.34,1C263.25,127.58,268.68,126.81,268.34,125.59Z"/></g></svg>