<svg xmlns="http://www.w3.org/2000/svg" viewBox="0 0 500 500"><defs><style>.cls-1{fill:#f7f7f7;}</style></defs><g id="shiro"><path class="cls-1" d="M286.69,162.06a1.27,1.27,0,0,0,1.33-2,1.46,1.46,0,0,1,0-.22,12.87,12.87,0,0,1,.63-3.84c2.09-4.26,2.69-6.58,1.62-11.29-.1-1.6.89-2.95,1.5-4.36.71-1.21,1.38-2.71,2.79-3.2a1.12,1.12,0,0,0,.47-1.39c-.41-1-1.65-.86-2.46-.53-2.62,1.3-3.65,4.18-4.86,6.69-1,2.25-.17,4.65-.22,7a21.58,21.58,0,0,1-1.85,6.16,9.63,9.63,0,0,0-.41,4.06C285.28,160.2,285.45,161.71,286.69,162.06Z"/><path class="cls-1" d="M211.16,45.43a16.55,16.55,0,0,1,6.9-4.62c1.23-.33,2.51-.43,3.72-.85a1.3,1.3,0,0,0,.9-1.59c-.42-1.39-1.86-.86-2.87-.61a13.08,13.08,0,0,0-3.56.65,15,15,0,0,0-9.16,9,17.6,17.6,0,0,0-1.49,3.82,9.5,9.5,0,0,0-9.4,1.66A1.28,1.28,0,0,0,197.47,55c.87-.36,1.74-.73,2.61-1.06,4.42-.71,7.64,3.43,10.91,5.76,3.16,2.92,6.33,5.82,9.31,8.93l0,0a1.29,1.29,0,1,0,1.37-2.16c-1-1.25-1.8-2.65-2.75-3.94-2.8-3.84-7.18-8.72-12-10.85a12.53,12.53,0,0,1,1-1.82C209,48.39,210,46.81,211.16,45.43Z"/><path class="cls-1" d="M250.56,43.59c-.41.45-1.79,1-1.21,1.74a.57.57,0,0,0,.82-.07c1.81-1.16,3.63-2.66,5.72-3.39,2.41-.74,5,.38,6.82,2,1,.88.94,2.36.92,3.58a1.55,1.55,0,0,0,0,.71,13.28,13.28,0,0,0-6.45,3.21c-.82.7-1.66,1.38-2.42,2.15A.89.89,0,1,0,256,54.7a15.48,15.48,0,0,1,6.2-3.43c2.58-.39,5.29-.81,7.86-.2a6.68,6.68,0,0,1,2.28,1.71,26.38,26.38,0,0,0-2.82,2.55c-1.16,1.23-2.69,2.53-2.71,4.36a.62.62,0,0,0,1.24,0,1.63,1.63,0,0,1,.17-.77c1.17-2,3.15-3.25,4.89-4.66l.21-.14a12.8,12.8,0,0,1,1.09,2.35,9.28,9.28,0,0,1,.66,4.64c-.17,1-1.19,2.27.11,2.88s1.81-1.28,2.25-2.19c1.1-2.58.35-6-1.34-8.83a5.17,5.17,0,0,1,1.88-.09,8.25,8.25,0,0,1,6.1,6.73,10.4,10.4,0,0,1-1.18,5.22A9.09,9.09,0,0,1,280.54,67a1.41,1.41,0,0,0,.67,2.49,1.47,1.47,0,0,0,.89-.18,9.21,9.21,0,0,0,2.42-1.61,8.82,8.82,0,0,0,2.64-5.31,9,9,0,0,1,3.65,1.45,8.32,8.32,0,0,1,3.57,3.64,7.26,7.26,0,0,1,1.22,3.75,7.76,7.76,0,0,1-.05,2.26c-.42,1.16-1.49,1.94-2.26,2.87a14.72,14.72,0,0,1-3.64,3c-1.24.74-2.58-.08-3.69-.69A3.75,3.75,0,0,1,284.1,77c-.37-.61-.79-1.58-1.66-1.1s-.16,1.53.14,2.19a5.33,5.33,0,0,0,3,2.73,7.41,7.41,0,0,0,2.49,1c3.63.39,6.7-3,9-5.4a6.25,6.25,0,0,0,1.42-5.13,9.13,9.13,0,0,0-.93-4,13.24,13.24,0,0,0-3.25-4,13.14,13.14,0,0,0-5.16-1.93,12.11,12.11,0,0,0-1.81,0q0-.74,0-1.44c-.32-4.84-4.68-9.7-9.71-9.54a9.82,9.82,0,0,0-2.73.83A9.34,9.34,0,0,0,270.28,48a18.47,18.47,0,0,0-3.58-.24,8.78,8.78,0,0,0-.4-3.37c-1.19-4.2-8.46-5.79-11.88-3.59A27,27,0,0,0,250.56,43.59Z"/><path class="cls-1" d="M263,54.79a1.64,1.64,0,0,0-.47.36c-1.17,1.24-2.12,2.68-3.39,3.83-.67.71-2.5,1.24-1.67,2.48.91,1.08,2.27-.51,3-1.14a26,26,0,0,0,2.73-4.19,4.69,4.69,0,0,0,.42-.8A.46.46,0,0,0,263,54.79Z"/><path class="cls-1" d="M460.39,444.91a16,16,0,0,0-.81-2.42c-3.95-9.59-9.13-18.59-13.49-28A98.53,98.53,0,0,1,438,385.05,133.24,133.24,0,0,0,430.63,355c-3.63-9.68-7.84-19.1-11.17-28.9-6.11-18-10.54-38.89-23.75-53.28-6-6.57-13.73-11.49-21.72-15.33-9.19-4.41-19.1-6.55-28.82-9.38-4.75-1.39-9.28-3.39-14-4.77-1.48-.43-3.4-.44-4.68-1.38s-1.63-2.77-2.68-4c-2.75-3.15-7.81-4.56-11.63-5.82a16.93,16.93,0,0,0-6.08-1.13c-2.41.15-4.11,1.61-6.54.67-3.81-1.49-8-4.89-10.67-7.88-3.15-3.46-2.83-8-3.29-12.38-1.08-10.26,1.78-20.35,1.29-30.58a35.7,35.7,0,0,0-.86-5.73c-.23-1.09-.7-2.64.37-3.45s3.14-.81,4.43-1.62a14.47,14.47,0,0,0,5-5.42,25.75,25.75,0,0,0,1.92-6.74,29.11,29.11,0,0,1,2-5.73,33,33,0,0,0,3.12-14.86,10.12,10.12,0,0,0-1.29-5.36c-.75-1.1-2.6-2.23-2.81-3.6s1.34-2.09,2-3.23c1.15-2.06-.89-3.25-.56-5.15.21-1.2,1.66-1.78,2.57-2.36a6.93,6.93,0,0,0,3.28-4.12c.66-2.12.69-4.06,1.79-6.06,1.26-2.28,2.49-4.27,2.66-7,.28-4.64-2.8-6.3-5.58-9.31-1.42-1.53-2.41-3.42-4.1-4.69A9,9,0,0,0,298,85c-.81-.26-1.76-.11-2.38-.78.7-.88,2.85-.88,3.12-2.16.31-1.46-1.66-.74-2.48-.43-3.31,1.28-6.09,2.18-9.72,1.71-6.25-.81-13.42-4-17.19-9.25-1.68-2.33-1.77-4.84-2.58-7.45-.24-.78-.68-1.88-1.56-1.21s.09,2.32.29,3c.88,3.3,1.5,6.56,3.86,9.18a15.47,15.47,0,0,0,4,3.21c1.06.58,2.87.87,3.3,2.11-1.7,1.61-5.38.51-7.27-.16a17.09,17.09,0,0,1-6.68-4.09c-4.16-4.42-3.27-11-6.29-16a12.87,12.87,0,0,0-6.2-5.36,13.11,13.11,0,0,0-5.09-1c-1.65,0-2.85.29-4.46-.29-1.22-.43-2.3-1.09-3.56-1.41-.9-.22-2.09-.14-2.89-.7-1.7-1.19-.74-3.66.8-4.44,5-2.55,12.93-1.14,16.11,3.6a12.55,12.55,0,0,1,1.51,3.36,7.12,7.12,0,0,0,.66,2.11c1.57,2,1.7-1.82,1.42-2.8A13,13,0,0,0,246,46.45a13.9,13.9,0,0,0-7.46-.09c-1.91.52-5,3.55-6,.61-.36-1.06-.37-2.27-.69-3.36A20.64,20.64,0,0,0,230,39.8c-.74-1.48-.26-1.91,1.38-2.26a13.36,13.36,0,0,1,4.28-.09c2.87.33,6,1.15,8.23,3.08.87.76,3.62,5.24,5.24,3.44,1.45-1.62-2-3.22-1.58-4.68.45-1.72,3.65-1,4.76-.61s4.36,2.12,4.65,0c.42-3.16-5.12-3.36-7-2.77-1.26.4-2.28,1.46-3.56,1.73-1.46.31-2.19-.5-3.39-1.18-2.78-1.58-5.94-1.62-9-1-2.65.5-4.86,2.07-7.15.19-2.55-2.09-4.78-4.44-8.4-3.81-1.73.3-5.27,2-5.53,4.09-.38,3,2.87-.73,3.5-1.22,5.24-4.06,10.07,5.15,11.43,9.06,1,2.72,2.21,6.24,1.56,9.13s-4,3.64-6,5.4c-.62.55-2.63,2.23-2,3.29s2.35-.12,3-.6c2.75-2.15,4.7-4,8.43-4.09a15.9,15.9,0,0,1,9.56,3.27c2.69,1.91,4.33,4.38,6.49,6.77.49.54,1.6,1.79,2.14.48.36-.88-.91-2.19-1.35-2.85a20.34,20.34,0,0,0-3-4c-.76-.68-2.79-1.46-2.71-2.66,2.73-1.58,6.57,2.15,8,4,2.18,2.84,2.89,6.09,3.54,9.54.72,3.89,1.69,7.22,4.75,9.93a18.33,18.33,0,0,0,10.88,4.8,14.72,14.72,0,0,0,5.91-.92c1.74-.67,2.67-1.46,4.54-.83a19.83,19.83,0,0,0,4.77,1.18c2.4.23,4.66-.44,7-.39A9.41,9.41,0,0,1,301.76,92c.91,3.73-2.25,8.41-6.37,7.94-.85-.1-5.92-2.92-4.37.3,1.21,2.54,6.27,2.5,8.39,1.81a9.23,9.23,0,0,0,4.1-2.68c.81-1,1.31-4.26,2.4-4.51s1.78,2.27,1.93,3a7.32,7.32,0,0,1-.92,5.1c-4.18,7.63-13.48,8.54-19.4,2.42-.47-.49-9.77-11.27-10.59-9.2-.44,1.1,3.22,3,3.87,3.69,2.84,3.12,3.08,7.56,6.5,10.38a14.32,14.32,0,0,0,9.25,3.3c1,0,5.85-1.71,6.17-.26.27,1.19-1.69,2.51-2.49,2.92a10.44,10.44,0,0,1-4.76,1,12.68,12.68,0,0,1-4.12-.94c-.62-.22-2.42-1.08-3.05-.6-1.83,1.39,4.31,3.58,5.12,3.72,1.19.2,2.66.07,3.72.73,1.6,1,1.33,3,.39,4.4-2.27,3.35-5.65.2-8.07-1.15-3.14-1.76-5-2-5.34-6.07-.13-1.68,0-3.51-.81-5a10.57,10.57,0,0,0-3.61-3.36c-2.66-1.73-6.55-2.61-8-5.63a30.07,30.07,0,0,1-1.94-6.8c-.29-1.31-.87-3,.39-4,1-.78,3.07-.41,4.25-.6a12.69,12.69,0,0,0,5.6-2.16c.63-.49,2.16-2,1.4-2.92s-2.86.08-3.71.43c-3.69,1.55-7.49,2.42-11.32.69a48.33,48.33,0,0,1-5.85-3.53c-1.85-1.18-3.81-2.23-5.2-4-2.49-3.15-3.22-7.52-5.51-10.86s-5.54-5.27-9.16-6.86-7.93-3-11.9-1.88c-1.71.48-3.9,1.56-4.64,3.3-1,2.38,1,2.32,2.47,1.42,2.46-1.5,5-1.36,7.71-.6a55,55,0,0,1,7.28,2.54c1.32.58,4.71,1.75,4.69,3.62-1,.76-3.74-.41-4.88-.74a24.44,24.44,0,0,0-6.16-1.09,99.21,99.21,0,0,0-14.51.81c-3.37.41-6.62,1.45-10,1.93-1.77.25-2.54-.32-3.74-1.56a12.62,12.62,0,0,0-4.83-3.37c-7.67-2.87-14.28,1.35-17.45,8.3-.24.52-2.45,5.37-.4,4.9.62-.15.88-2.3,1.06-2.82a11.57,11.57,0,0,1,3-4.75,12.15,12.15,0,0,1,8.25-3c1.42,0,8.39.85,7.61,3.35-.71,2.24-5.68,0-6.93-.22-3.66-.56-7.48,1.4-10.06,3.88a9.32,9.32,0,0,0-3.15,8c.12,1,.48,5.39-1.83,3.32-1.66-1.48-1.67-6.15-1.72-8.07A18.72,18.72,0,0,1,184,68.34c2.25-3.11,5.68-5.9,9.63-6.25,4.43-.39,9.08,2,12.67,4.39,1.21.79,2.45,2,4,2.09,1.94.09,1.71-1.09.73-2.17a20.16,20.16,0,0,0-5.4-3.63C204,62,202,61.52,200.68,60.23c2.3-.42,6.14,2,8.26.13s-2.89-2.5-3.9-2.6c-4.65-.46-14.62-1.91-11.91-8.94,1.22-3.15,4.91-4.63,7.85-5.66.81-.28,8.38-2.14,6.4-3.47-1-.68-3.91.56-4.83.85a40.19,40.19,0,0,0-6.86,2.73,13,13,0,0,0-4.51,3.64,8.12,8.12,0,0,0-1.31,2.59c-.26.9-.17,2.06-.89,2.74s-1.6.5-2.45.57a7.43,7.43,0,0,0-3,.9,19.24,19.24,0,0,0-6.25,5.76c-5.05,6.92-14.64,9.87-12,20.47.33,1.35,1.21,2.6,1.32,4s-.64,2.77-.93,4.14a10.75,10.75,0,0,0-.16,4.15c.24,1.31,1.34,2.67,1.22,4-.11,1.15-1.08,1.94-1.71,2.82a19,19,0,0,0-2.12,4.07c-1.14,2.9-1,5.29-1.15,8.31,0,1.32-.55,2.56-.64,3.87a8.93,8.93,0,0,0,1,4.23,12.14,12.14,0,0,0,4.92,5.54,11,11,0,0,0,3.71,1.61c1.09.19,2.62-.38,3.57.19-.69,1.08-2.28,1.3-3.36,1.84a4.47,4.47,0,0,0-2.69,3.35,3.83,3.83,0,0,0,1.09,4c1.57,1.29,2.35,1.52,3,3.6,1.19,3.75,3.69,6.82,5.43,10.31.92,1.82.75,3.57.94,5.55a34.89,34.89,0,0,0,1.41,6.21c2.52,8.94,4.53,18,7.58,26.76a67.94,67.94,0,0,0,4.53,11.11,30.3,30.3,0,0,0,7.86,8.79c2.24,1.78,5.83,3,6.95,5.72,1.61,3.93,1.64,8.78,2.4,12.94s.76,8.1,1.16,12.19a24.42,24.42,0,0,1,.51,4.24c-.16,1.85-.78,1.91-2.42,1.91-3.66,0-7.42,1.74-10.28,3.93a16.57,16.57,0,0,0-3.62,4c-1.33,1.94-2.59,2.35-4.68,3.2-8,3.3-15.36,8.44-23,12.6s-15.27,8.28-22.25,13.49c-3.42,2.55-6.76,5.23-10.14,7.84-2.87,2.22-6.46,4.31-8.59,7.3-.43.6-1.92,2.63-1,3.37s2.36-1.43,2.9-2c2.77-2.86,6.47-4.79,9.79-6.92,7.7-4.95,15.17-10.19,23.24-14.54q12.47-6.72,24.72-13.79c1.38-.8,6.22-4.72,7.94-3.53,1.11.76,1.13,3.71,1.35,4.82a30,30,0,0,0,2,6.76c3,6.51,9.31,10.73,16,12.88a109.58,109.58,0,0,0,25.8,4.53c17.78,1.22,34.52-4.8,49.25-14.49,7.46-4.92,14.48-10.57,21.78-15.73a78.3,78.3,0,0,0,9.17-7.71,56.14,56.14,0,0,0,4.26-4.19c1.23-1.46,1.61-3.18,3.81-2.5a27.41,27.41,0,0,1,4.18,2.21c2,1,4.08,2,6.17,2.94q6.4,2.84,13.08,5.06c4.25,1.41,8.63,2.53,12.77,4.27A122.58,122.58,0,0,1,374.92,265c7.32,4,14.15,8.78,19.1,15.63s8.36,15,11.37,23c3.3,8.71,5.92,17.65,9.15,26.39,3.17,8.57,6.78,17,9.9,25.56a126.86,126.86,0,0,1,6.64,26.57c1.23,9,2.38,17.91,5.59,26.5,2.95,7.88,7.1,15.15,10.56,22.77,1.53,3.38-2,4.49-4.39,5.93-4.09,2.46-8.43,4.55-12.72,6.64a254.93,254.93,0,0,1-25.23,10.49c-8.7,3.12-18.09,6.14-27.46,5.26-4.59-.43-9.07-1.54-13.71-1.56a39,39,0,0,0-6.09.59c-1.43.23-2.84.95-3.48-.74-.49-1.31.12-3.68.12-5,0-2.18-.07-4.36-.15-6.54q-.27-7.47-.4-14.94A225,225,0,0,1,354.88,403c1.07-9.37,2.77-18.65,3.73-28,.84-8.15-1.26-17,2.66-24.51,3.65-7,10-12.34,15.76-17.48,1.68-1.49,16.11-13.69,13.32-15.41-1.87-1.15-5.53,3.82-6.62,4.81-3.39,3.09-6.87,6.07-10.23,9.19a74.7,74.7,0,0,0-8.51,9,29.48,29.48,0,0,0-3.39,5.33c-.48,1-1,3.31-2.26,3.65-.88-1.43-.17-3.94,0-5.51q.42-3.57.94-7.12c.73-5,1.61-10,2.14-15.07a132.76,132.76,0,0,1,2.19-15.51c.85-3.72,2.45-9.35,6.26-11.21,1.06-.52,3.7-.06,3.61-1.68-.1-2.14-3.38-1.23-4.38-.74-3.88,1.89-6.23,6.3-7.76,10.11-3.74,9.31-3.89,19.81-5.11,29.65-.66,5.31-1.32,10.62-1.6,16s.07,10.78.21,16.17c.27,11-1.87,21.91-3.07,32.8-2.39,21.76-.77,43.5-1.15,65.31-.08,5-.28,10-.56,15-.29,5.18-1.06,10.4-1.24,15.57,0,.92.1,2.47,1.49,2.16s1.51-3,1.63-4c.23-1.84-1.21-12.65,2.71-10.86,1.21.56,1.41,2.11,1.6,3.28a45.77,45.77,0,0,1,.48,7.76c-.05,5.3-.57,10.58-.15,15.88.85,10.63,2.71,21.12,4.37,31.65.26,1.66.44,4.1,2.37,4.73,2.19.7,3.26-1.34,3.34-3.16a27.45,27.45,0,0,0-1.09-6.52c-.63-2.87-1.33-5.72-1.74-8.63a285.52,285.52,0,0,1-3.12-31.29,57.34,57.34,0,0,0-.65-8c-.2-1.14-1.75-3.87-1.25-4.95.84-1.83,7.67.31,9,.54a75.62,75.62,0,0,0,14.24,1.4A82.41,82.41,0,0,0,399,481.14c1.15-.26,6.38-2.42,7.3-1.61.71.62.2,2.13,0,3a118.21,118.21,0,0,0-1.19,14c-.65,10.69-.08,21.25.33,31.94.11,3-1.4,12.18,2.42,13.33,3.11.94,4-2.84,4-5,0-5-.5-9.94-.79-14.87-.29-5.15-.62-10.3-.64-15.45s.37-10.44.3-15.67c0-2.19,0-4.41-.16-6.58a15.94,15.94,0,0,0-.55-3.07c-.22-.78-1-1.72-.49-2.58.65-1.13,3.43-1.3,4.56-1.69A65.36,65.36,0,0,0,421,474c8.74-4.2,16.8-9.86,24.81-15.3,1.91-1.3,3.8-2.64,5.6-4.07,1.46-1.15,2.62-2.82,4.15-3.84,1.14-.75,2.61-.7,3.71-1.44C460.74,448.3,460.78,446.56,460.39,444.91Zm-213.26-296c-.79.08-1.58.12-2.39.25a19.35,19.35,0,0,1-10.94-1.72c-3.61-1.78-6.17-6.6-7.28-10.3a7,7,0,0,1-.24-2.68c.05-.84-.26-1.61-.29-2.46-.12-3.53,1.49-8,4.71-9.86a48.69,48.69,0,0,1,5-2.2c3.51-1.54,7.43-1.76,11.21-1.88A26.82,26.82,0,0,1,258,119.73c3.24,1.33,3.39,6,3.75,9,.23,1.94.62,3.58,0,5.5a30.77,30.77,0,0,1-1.74,5.25,17.17,17.17,0,0,1-6.63,7.38,19.65,19.65,0,0,1-4.57,1.7A10.85,10.85,0,0,1,247.13,148.89Zm-68-4.64c-.28-.71-.55-1.43-.81-2.15-.67-1.82-2.09-3.53-2-5.52.23-5,5.81-10.07,10.45-11.09a40.25,40.25,0,0,1,5.61-.34,46.11,46.11,0,0,1,6-.18c3.12.18,8,.36,10.22,2.87a7.56,7.56,0,0,1,1.38,3.89c.3,1.87.66,3.74.8,5.63a18.8,18.8,0,0,1-1.18,8.41,19.11,19.11,0,0,1-3,4.47,17.32,17.32,0,0,1-3.41,3.43c-3,2.13-6.57,1.91-10,1.52a16.82,16.82,0,0,1-9-3.35A18.23,18.23,0,0,1,179.14,144.25Zm-2.54-23.07a16.91,16.91,0,0,1-3.77-7.24,10.91,10.91,0,0,1-.76-3.64,12.79,12.79,0,0,1,.9-3.51,6.69,6.69,0,0,0,2.1,1.37,1.28,1.28,0,0,0,1.66-.67c.43-1-.49-1.65-1.28-2a3.46,3.46,0,0,1-1-1.07,11.53,11.53,0,0,1,4.24-3c-.32,2.11-.71,4.21-.92,6.33s0,4.29-.06,6.43c0,1.41,0,2.83-.05,4.24,0,.5-.07,1.17-.09,1.84a12.22,12.22,0,0,0-.83,1.07Zm-11.66-11.49a11.46,11.46,0,0,1,2.94-2.7,15.87,15.87,0,0,1,1.42-.87,12,12,0,0,0-.24,7.48,43.9,43.9,0,0,0,1.77,5.14C167.54,118,165.15,112.93,164.94,109.69Zm12.14-16.35a1,1,0,0,0,.83-1.56c.26,0,.52,0,.79,0a11.16,11.16,0,0,0,2.82-.09c-.54,1-1.07,2.1-1.51,3.19a21,21,0,0,0-1,4.28,11.51,11.51,0,0,0-3.26.74,10.53,10.53,0,0,0-2.28,1c0-.1,0-.2,0-.3a6.49,6.49,0,0,1,0-1.08,1.42,1.42,0,0,0,.3-1.47A10.5,10.5,0,0,1,177.08,93.34Zm108.35,35.11-.36.35c0-.64-.06-1.28-.07-1.92v-.17l1.3.31.52.15C286.35,127.6,285.9,128.05,285.43,128.45ZM203.94,75.84c2.5-.71,5.12-1.14,7.73-1.8,5.43-1.37,11.61.09,17.2-.15s11.62-.46,17,1.33c.51.17,2.24.4,2.65.81.65.64.84,2.48,1.17,3.32A11.17,11.17,0,0,0,254,85.26c2.12,1.39,4.39,2.57,6.59,3.83,1,.57,2,1.13,3,1.61.83.39,3.08.63,3.56,1.43.3.51-.21,2.77-.24,3.3a18.83,18.83,0,0,0,.55,5c.54,2.46.43,5.29,2.22,7.25s4.38,3.11,6.6,4.4c1.05.61,2.95,1.26,3.5,2.42s.17,3.63-.32,4.66c-1.51.27-3.4-.66-4.9-1s-3.16-.45-4.38-1.23-1.51-1.62-3.37-1.41a26.37,26.37,0,0,1-5.26.29c-3.48-.28-6.81-1.53-10.33-1.8s-7.21.32-10.85.32c2.93-1.22,6.1-2,9.11-3a13.13,13.13,0,0,1,3.33-.78c1.4-.09,2.91.82,4.23.61,2.47-.38.56-2-.52-2.71a12,12,0,0,0-7.56-1.8,45.52,45.52,0,0,0-15.74,3.29c-1.71.73-3.71,1.64-4.71,3.33-.83,1.42-1,4.25.66,5.17-2.53,2.93-7.23,5.93-11.15,6.27-1.15.1-2.16.49-3.27.63a4.2,4.2,0,0,1-2.92-.68c-2.07-1-4.71-1.8-6.59-3,.08-1.33.66-1.68-.23-2.94a13.33,13.33,0,0,0-2.76-2.49c-2.21-1.72-4.21-1.93-6.95-1.54a20.09,20.09,0,0,0-6.73,1.87c-1.41.74-5.34,2.75-5.39,4.48,1.32,1.6,4.84.31,6.62.67a41.82,41.82,0,0,1-4.87.48c-1.74.24-3.26,1.23-5,1.44-1-.85.5-3.43.79-4.39a49.35,49.35,0,0,0,1.44-9c1.4-13.51,3.76-20.93,14-30.28A18.31,18.31,0,0,1,203.94,75.84Zm-16.39,4.24a22.9,22.9,0,0,1,4-3.3A10.79,10.79,0,0,1,198.83,75l-1.18.5a11,11,0,0,0-2.44,1.57c-1.67,1.34-3.39,2.62-5.05,4a45,45,0,0,0-4.09,3.72A16.39,16.39,0,0,1,187.55,80.08ZM194,58.46a13.5,13.5,0,0,0-6.55,2.11,6.69,6.69,0,0,1,4.06-3.77c.26-.07.54-.16.82-.21a16.3,16.3,0,0,0,3.32,1.95A8.23,8.23,0,0,0,194,58.46ZM168.83,70.94a25.62,25.62,0,0,1,2.63-3.9A13.79,13.79,0,0,1,175,63.79a13.66,13.66,0,0,0,.07,6,1,1,0,0,0,1.76-.77,13.57,13.57,0,0,1,.72-5.59c.44.05.87.13,1.31.15a.55.55,0,0,0,.62-.47c0-.72-.75-.67-1.35-.72,2.39-3.54,7.36-7.59,11.58-7A8.05,8.05,0,0,0,184.31,63a35.37,35.37,0,0,0-4.16,4.63c-2.9,4.84-4,10.91-2.08,16.31a30,30,0,0,0,1.69,4.59,12.7,12.7,0,0,1-3.51-1.5,36.55,36.55,0,0,1-5.75-5.18,10,10,0,0,1,3.06-4.07c.53-.61,1.31-.73,1.88-1.23a1.22,1.22,0,0,0-.6-1.86c-1-.32-2,.27-2.77.73a11.6,11.6,0,0,0-3.13,3,49,49,0,0,1-.48-6.18A4,4,0,0,1,168.83,70.94ZM170,87.52a15.47,15.47,0,0,0,6.22,4c-1.59.49-3.34,2.44-4.19,3.45a7.11,7.11,0,0,0-1,1.68,2.63,2.63,0,0,1-.8-.69,11.14,11.14,0,0,1-2.41-6.66,17.85,17.85,0,0,1,.1-3.24c0-.16.08-.3.12-.45A22.53,22.53,0,0,0,170,87.52Zm-2.5,12.1c.27-.51.55-1,.86-1.52.17.17.34.34.51.49a5.09,5.09,0,0,0,1.5.85,10.6,10.6,0,0,0,.39,3.58c-.33.13-.65.26-.92.34a12.79,12.79,0,0,0-4.06,3,9.57,9.57,0,0,0-.85,1A24.4,24.4,0,0,1,167.5,99.62Zm5.34,23.68a5.24,5.24,0,0,1-3.13.17c-.35-.16-.72-.36-1.1-.56a16.09,16.09,0,0,1-2.34-2.6,6.77,6.77,0,0,1-1-3.1c1.5,1.62,3.25,3,5.47,3.14a.76.76,0,0,0,.72-.44,12,12,0,0,0,3.82,4.08c-.08.2-.15.39-.22.59A1.76,1.76,0,0,0,172.84,123.3Zm24.86,77.32a18.93,18.93,0,0,1-2-2.84c-2.4-4.3-3.91-9.21-5.36-13.89-.73-2.36-1.66-4.65-2.42-7s-1.05-4.85-1.77-7.23-1.71-5-2.63-7.48a13,13,0,0,1-.69-6.79c5.39,1.85,10,3.54,15.91,2.65,4.91-.73,8.56-4.4,11.12-8.42a27.92,27.92,0,0,0,3.22-5.44c.83-2.32.75-4.79.82-7.22.05-1.84.06-5.85,1.52-7.19,1.82-1.67,5.41-.24,6.85,1.29,1.83,1.95,1.82,5.1,2.68,7.52a22,22,0,0,0,4.5,7.66c3.82,4.27,9.13,5.61,14.73,5.58a25,25,0,0,0,3.54-.52c1.09-.16,2.19-.15,3.27-.37a14.09,14.09,0,0,0,6.07-2.84,22.08,22.08,0,0,0,4.78-5.46c1.39-2.31,1.82-5.38,2.57-8a14.48,14.48,0,0,0,.79-4,12.72,12.72,0,0,1,.59-4.24,9.06,9.06,0,0,1,1.9-3.5c1-1,2.63-.18,3.87.26s2.61.92,3.93,1.32c.8.24,1.61.46,2.43.64.41.09,1.19.13,1.49.43.61.61.75,2.68.91,3.54a39.88,39.88,0,0,1,.65,5.11c.17,2.48-.45,4.94-.29,7.47.09,1.51.27,3,.38,4.51.09,1.16-.32,3.48,1,4,2.59,1,2.06-4.48,2.14-5.66a39.79,39.79,0,0,1,.33-4.36,26.53,26.53,0,0,1,1.42-4.1,10.2,10.2,0,0,1,3.77-5.1c1.61-1.15,5.12-1.42,6.72-.07,1.76,1.49,1.65,5.17,1.7,7.25a28.88,28.88,0,0,1-1,8.92c-.74,2.43-2.28,4.51-3.21,6.86-1.11,2.78-.81,6.12-2.21,8.76-1.05,2-3.19,4.23-5.44,4.63a13.3,13.3,0,0,1-3,.31c-1.33-.09-1.77,0-1.81,1.52-.08,3.43.23,6.82.35,10.23.12,3.6-.61,7.2-.86,10.78a189.69,189.69,0,0,0-.22,20.65c.07,1.71.1,3.42,0,5.13a40.86,40.86,0,0,0-.18,4.69,12.65,12.65,0,0,0,3.72,7.24c1,1.09,2.16,2,3.22,3.05a23.61,23.61,0,0,0,3.2,2.89c1.3.87,2.76,1.5,4.11,2.27,1,.6,3,1.43,3.6,2.47-.28.94-1.4,1.71-2.05,2.4s-1.51,1.61-2.24,2.44a57,57,0,0,1-5.06,5c-3.36,3-6.94,5.71-10.52,8.41a70.4,70.4,0,0,1-12,7.13c-4.17,2-8.17,3.67-12.8,4.22a58.2,58.2,0,0,1-26.19-2.76c-3.78-1.37-8.25-3.2-10.66-6.55a4,4,0,0,1-1-2.5c0-.91,0-1.83-.08-2.75-.15-2.43-.31-4.87-.37-7.3-.15-5.37-.06-10.77-.4-16.13a43.6,43.6,0,0,0-1.13-7,22.1,22.1,0,0,1-.14-2.94c-.09-1.19-.72-2.76-.53-3.9a12.69,12.69,0,0,1,3.13.86c1.16.32.78.44,1.47,1.32a2.13,2.13,0,0,0,2.08.85c1-.21,1.16-1,2.24-1a21.58,21.58,0,0,1,2.77.44c.75.11,1.54-.1,2.26.08.37.23.74.45,1.12.65a1.64,1.64,0,0,0,1.3-.16c.7-.12,1.45-.28,2.16-.43,1.84-.38,3.67-.71,5.49-1.19s4.31-1.93,6-1.33c.83.29,1.14,1,2.19.69s.93-1,1.34-1.68a.71.71,0,0,1,.54-.72,1.74,1.74,0,0,0,1-.54c.45-.69-.34-1.31,0-1.88,1,.56,1.55.93,2.32-.18a8.63,8.63,0,0,0,1.24-3.76c0-1-.38-1.5-.93-.47-.38.69-1.18,2.77-2.25,2.72.14-.9,1.1-3.43-.11-4s-1.83,1.87-2.31,2.6c-.34-.55,0-3.72-1.27-3.4-1.59.39.2,5.17-1.61,5.83-2.37-1.14.92-4.77-1.16-5.95-.75-.42-.87.14-1.33.45s-.51.19-1.1.34c-1.73.42-.77,2.6-.47,3.74.25.95-.12,2.83-1.28,3.25-1.59.58-.29-2.95-.2-3.44.13-.71.63-3.31-.68-3.34-1.12,0-.9,2.19-1.3,2.88-.54-.63-.18-1.77-.67-2.46s-1.9-.51-2.53.1c-.8.79-1.92,8.07-3,7.81a8.2,8.2,0,0,1-.33-4.34c.09-.79,1.25-3.47,0-3.65-1.61-.23-2.49,5.2-2.63,6.22-.07.53.06,1.43-.69,1.44s-.76-1.05-.82-1.48a14,14,0,0,1,.32-3.87c.11-.71.42-1.71-.49-2-1.37-.4-1.15,1.87-1.58,2.51-.85-.32-1.14-.48-1.65.42s-.45,2.27-1.13,3c-1.25.15-.13-2.78.07-3.31.37-.95,1.88-2.82.83-3.66-1.87-1.5-3.59,4.81-4.38,5.66-1.05-.85-.86-2.94-.66-4.09.11-.64,1.24-2.72,0-3-2-.45-2.3,5.31-2.84,6.33-1.39-.49-2.58-1.64-3.9-2.3s-3-.85-4.34-1.81c0,0,0,0,.07,0A32.9,32.9,0,0,1,197.7,200.62ZM223,212.8a7.69,7.69,0,0,1,.11-1.27,1.65,1.65,0,0,1,.3-.74C223.22,211.43,223.07,212.11,223,212.8Zm10.4-.13c.05-.73.15-1.45.25-2.17l0,.2c.17.61.33,1.43.52,2.28l-.15.23a10.82,10.82,0,0,1-.74.88C233.28,213.55,233.3,213.05,233.35,212.67ZM320,244.47c-1.76,1.84-3.67,3.53-5.43,5.38-3.83,3.75-8.3,6.75-12.65,9.83-4.37,3.31-8.27,7.05-12.86,10.08-2.55,1.67-5.49,3.7-8.3,5.17a127.88,127.88,0,0,1-19.61,7.46,49.72,49.72,0,0,1-19.5,2.27c-2.49-.14-5-.24-7.47-.36a90.72,90.72,0,0,1-10-1.46c-5.18-1.34-10.68-1.76-15.53-4.14a24.85,24.85,0,0,1-7.8-7,27.7,27.7,0,0,1-2.69-6c-.81-2.41-1.63-4.84-2.23-7.31a2.28,2.28,0,0,0,.25-2.2c2.36-.68,5.21-6.31,11.45-7.62a11.23,11.23,0,0,1,2.8-.68,1.21,1.21,0,0,0,.61-.3c.17,1.87.38,3.73.66,5.58a1.32,1.32,0,0,0-.73,1.4c1.61,3.2,2,7,4.3,9.88,5,5.72,12.19,8.93,19.66,9.93,4.09.67,8.25.29,12.37.26,4.64-.24,9.4-.27,13.86-1.72a77,77,0,0,0,25.17-15.21,77.61,77.61,0,0,0,14.91-15.11,34.49,34.49,0,0,0,4.78-7.6,2.21,2.21,0,0,0,.2-1.2c3,.46,5.77,2.27,8.57,3.49,1.47.77,3,1.53,4.35,2.44a17.89,17.89,0,0,1,1.95,1.52,3.2,3.2,0,0,1,.33,1.17l-.09.16A10.76,10.76,0,0,1,320,244.47ZM447.17,451.88a191,191,0,0,1-24.88,15c-12.33,6-26,9-39.59,10.84-8.94.13-17.68-2.88-26.66-1.55a3.77,3.77,0,0,0-2.37.54c.25-3.55.51-7.09.56-10.64,0-1.29.06-2.57.08-3.86.52,0,1.05-.08,1.57-.09,3.44-.12,6.89.06,10.33.15,2.78.17,5.51.87,8.28,1.16a36.48,36.48,0,0,0,9.22-.29,43,43,0,0,0,8.66-1.55c4.47-1.27,8.75-3,13.18-4.37,3.41-1.05,6.46-2.22,10-3.3A90.53,90.53,0,0,0,428,449.18c2.71-1.18,5.29-2.59,7.87-4a60,60,0,0,0,11.86-6.53c.67-.45,1.35-.89,2-1.31.41.91.82,1.83,1.22,2.76.81,1.88,1.62,3.76,2.31,5.69.06.17.12.34.17.51C451.2,447.64,448.82,450.83,447.17,451.88Z"/><path class="cls-1" d="M253,130a2.29,2.29,0,0,0,.93-1,1.52,1.52,0,0,0,1.81-.45c.92-1.21-.36-2.43-1.4-3-2.67-1.47-5.83-1.22-8.74-.88a12.45,12.45,0,0,0-5.17,1.64,4.88,4.88,0,0,0-1.19.67c-.12.1-.3.22-.45.35a.49.49,0,0,0-.44.67.63.63,0,0,0,.19.26.8.8,0,0,0,1.22.29A10.58,10.58,0,0,0,242,128c0,.09,0,.18,0,.26a2.74,2.74,0,0,0,1.29,2.43,18.7,18.7,0,0,0-2.24.24.26.26,0,0,0-.25.26c0,.29.32.25.52.28,1.73.2,3.46.55,5.21.65a3.89,3.89,0,0,0,1.51-.32A10.65,10.65,0,0,0,253,130Z"/><path class="cls-1" d="M191.4,135.92a4,4,0,0,1,1.77-1.09l1-.26a1,1,0,0,0-.19.38,1.27,1.27,0,0,0,.16.93,7.07,7.07,0,0,0,.53,1.61,3.87,3.87,0,0,0,.41.64l-.3,0c-.52,0-1.19-.4-1.6,0-.65,1.23,2.59,1.58,3.36,1.73,1.89,0,3.94.27,5.6-.82.81-.44,2.3-1.7,2.4-2.74a1.54,1.54,0,0,0,.41-2,4.75,4.75,0,0,0-1.73-2.28c-2.12-1.2-4.7-1-6.94-.25-2,.73-5.06,1.71-5.9,3.86A.54.54,0,0,0,191.4,135.92Z"/><path class="cls-1" d="M208.23,165.81a6.28,6.28,0,0,0,2.3,1.48,7.79,7.79,0,0,0,3.95.23,12.13,12.13,0,0,0,4.51,1.34c3,.2,5.25-2.2,7.81-3.12a19.6,19.6,0,0,0,5.16.9,6.81,6.81,0,0,0,4.82-1.34,1.57,1.57,0,0,0-1.94-2.48,5.94,5.94,0,0,1-2.78.06c-.9-.11-1.81-.09-2.7-.28a24.77,24.77,0,0,0-2.5-.64c-1.8-.19-3.36,1-4.93,1.72-3.34,2.37-4.33.37-7.63.57-1,.2-1.78.78-2.76.94a5.66,5.66,0,0,1-2.91-.26.48.48,0,1,0-.4.88Z"/><path class="cls-1" d="M222.24,187.75h0c-1.4.83-3,5.37-.61,5.75,1.89.16,1.77-2.27,2-3.56a4.75,4.75,0,0,0,.27-1.23A1.11,1.11,0,0,0,222.24,187.75Z"/><path class="cls-1" d="M205.55,181.93a4.75,4.75,0,0,1-.57-5.19.81.81,0,0,0-1.13-1.14,9,9,0,0,0-1.41,3.18,5.3,5.3,0,0,0,1,4.57A1.28,1.28,0,0,0,205.55,181.93Z"/><path class="cls-1" d="M205.43,180.44c0,.16,0,.32.07.48a.89.89,0,0,0,1.76-.24c-.08-.42-.16-.83-.23-1.25,1.28.4,1.82-1.32,2.3-2.28.1-.2.19-.41.27-.62a2,2,0,0,0,1.15-.39c.05.16.1.32.17.49l.05.1a10.2,10.2,0,0,1-.79.82.53.53,0,0,0,0,.95c1.18.35,2.36-1.13,3-1.95l.15-.2a24.62,24.62,0,0,0,2-2.85,2.23,2.23,0,0,1,.17-.35,5,5,0,0,0,.67,2,1,1,0,0,0,1.66.08,1,1,0,0,0,.7-.78,19.69,19.69,0,0,1,1.62-3.67l.1-.06a9,9,0,0,0,.22,3.92,1.08,1.08,0,0,0,2,.25c.35-.74-.14-1.58-.13-2.37a4.5,4.5,0,0,1,.18-1.63,1.11,1.11,0,0,0,.21-.32,7.49,7.49,0,0,0,2,4.23,1.27,1.27,0,0,0,2.09-.09.67.67,0,0,0,.14.15.71.71,0,0,0,1-.08c.05.06.09.12.15.18a1.24,1.24,0,0,0,2-1.52c-.24-.29-.48-.59-.71-.9.14-.29.26-.57.36-.79a6.14,6.14,0,0,0,.25.59,7.53,7.53,0,0,0,2.39,2.41,1.27,1.27,0,0,0,2-1.21.77.77,0,0,0,.19-.08c0,.08.07.15.1.23a1.43,1.43,0,0,0,2.72-.4,10.82,10.82,0,0,0,2.56,1.91,1,1,0,0,0,.56.13,8.14,8.14,0,0,0,1.91,1.93,1,1,0,0,0,1.35-1.53l-.22-.2c.27-1.11-1.4-3.33-1.87-4a.25.25,0,0,0-.27-.34.45.45,0,0,0-.74.07,3.47,3.47,0,0,1-.06-.45c.32-.67-.26-1.38-1-1s-.55,1.28-.53,1.92c0,.12,0,.24.05.36-1-1-2.14-2.56-3.22-1.65a1.47,1.47,0,0,0-.2.28c-.21-.26-.42-.53-.62-.81-.33-.48-.66-1.07-1.27-1.23a1.08,1.08,0,0,0-.35,0c-.19-.22-.46-.3-.87-.07s-.15,1-.07,1.43c.19.78.38,1.57.58,2.35a3.92,3.92,0,0,1-2.38-3.85.65.65,0,0,0-.24-.5.63.63,0,0,0-.87.12,4.48,4.48,0,0,0-.3,2.19c-.23.42-.46.84-.71,1.25a5.51,5.51,0,0,1-.52-3,.92.92,0,0,0-.32-.9.89.89,0,0,0-1.09,0,.9.9,0,0,0-.33.88.78.78,0,0,0,0,.16.55.55,0,0,0-.48,0c-.49.25-.36.93-.5,1.38s-.17.7-.26,1a3.83,3.83,0,0,1-.31-1.93,1,1,0,1,0-2.07,0c0,.13,0,.26,0,.39a1.22,1.22,0,0,0-.26-.3,1.24,1.24,0,0,0-1.79.51.75.75,0,0,0-1.24-.22,17.3,17.3,0,0,0-1.94,3.23,3.4,3.4,0,0,1,.41-1.78.78.78,0,0,0-.78-1.33,2.12,2.12,0,0,0-.2.12,1.18,1.18,0,0,0-.64-.51c-.88-.17-1.27.52-1.64,1.24a1,1,0,0,0-.79,0l-.08,0a.8.8,0,0,0-.89.83,6.63,6.63,0,0,1-.75,1.07,16.19,16.19,0,0,1,.25-1.72c.12-.43.15-1.08-.42-1.16-.4-.07-.61.3-.67.64a12,12,0,0,0-.84,3.79l-.17.11c.11-.56.2-1.12.28-1.68a.5.5,0,0,0,0-.59c-.47-.47-.86,0-1,.48a15.12,15.12,0,0,1-1.32,2.52c-.33.5-.7,1-1.06,1.45a8.67,8.67,0,0,1,.71-2.06.24.24,0,0,0-.36-.23,2.17,2.17,0,0,0-.43.52v0a.61.61,0,0,0-.66-.38c-.65.11-.71.84-.83,1.36a12.9,12.9,0,0,0-.32,3.92A1.18,1.18,0,0,0,205.43,180.44Zm21.68-6.85-.07.07a1.36,1.36,0,0,0-.33-.54c-.13-.1-.25-.21-.37-.32l.12-.88A6.72,6.72,0,0,0,227.11,173.59Z"/><path class="cls-1" d="M243.87,173.85a13.36,13.36,0,0,1,.86,3.9,1.15,1.15,0,0,0,1.27,1,1,1,0,0,0,.75-.5.77.77,0,0,0,.67.55.87.87,0,0,0,1-.73,8.22,8.22,0,0,0-.14-4.21.72.72,0,0,0-1.25.68,6.47,6.47,0,0,1,0,2.06,11.16,11.16,0,0,0-1.59-4.34C244.24,170.57,242.12,172.89,243.87,173.85Z"/><path class="cls-1" d="M229.55,188.61a1.55,1.55,0,0,0-2.45.67,1.06,1.06,0,0,0-1.44-.28,3.74,3.74,0,0,0-.8,4.27,1.12,1.12,0,0,0,1.91-.79,10.39,10.39,0,0,1,.09-1.37,2,2,0,0,0,.63,1.1A1.56,1.56,0,0,0,230,191C230.11,190.14,230.41,189.23,229.55,188.61Z"/><path class="cls-1" d="M242.12,179.83c-2.27-.18-4.56-.19-6.85-.19a64.88,64.88,0,0,0-8,.35c-2.19.28-4.14,1.5-6.34,1.67a11.42,11.42,0,0,1-1.55,0,23.42,23.42,0,0,0-2.41-.92c-1.57-.54-3.06.52-4.55.89l-.39.07a.62.62,0,0,0-.33,0,5,5,0,0,0-1.8.75,4.64,4.64,0,0,0-2.49.24c-1.26,1.27.94,2.1,1.93,2.39,2,.67,4.06-.09,6.09-.19,2.52-.18,5.06.41,7.55-.21,1.45-.36,2.83-1,4.31-1.25,4.78-.51,9.63.25,14.42-.47,1.32,0,3.49-.67,2.85-2.4C244.12,179.48,243,179.61,242.12,179.83Z"/><path class="cls-1" d="M152.75,335.75c-.15-1-.28-2-.39-3.05-.24-2.17-.41-7.51-3.14-8.19-.85.94.41,2.43.72,3.43a19.11,19.11,0,0,1,.38,5.29c.07,5.09.43,10.13-.08,15.21-.48,4.82-1.34,9.6-2,14.41-.3,2.41-.56,4.82-.7,7.25s.29,5.11-.08,7.5c-1.75-1.79-3.06-4.86-4.41-7s-2.63-4.19-3.77-6.39c-2.58-4.93-4.5-10.18-6.65-15.31s-4-10-6-15.06a30.78,30.78,0,0,1-2.28-7.42c-.19-1.59.66-5.4-.38-6.63-1.61.82-.89,6.5-.74,8,.4,4.08,2,8.16,3,12.1a171.88,171.88,0,0,0,8.42,24,77.26,77.26,0,0,0,6.14,11.08c.94,1.41,1.91,2.81,2.8,4.25,1.18,1.89,2.55,3.62,3.75,5.46,1.46,2.25.38,6.44.52,9,.23,4.47.89,8.89.77,13.37-.22,8.69-1.91,17.07-3,25.65-.24,1.89-.47,3.77-.65,5.66-.11,1.12.14,2.72-.26,3.78-1,2.62-6.73.48-8.75.21-8.53-1.13-17.64-1-25.92-3.42-3.88-1.15-7.7-2.64-11.46-4.13-3.21-1.27-6.65-2.62-9.32-4.87-.43-.37-1.9-2-2.59-2-1.19.09-.85,1.14-.46,2,1.35,2.93,4.44,5.17,7.07,6.84a51.53,51.53,0,0,0,23.53,7.75L130,445.58c4.21.36,8.62.37,12.78,1.11,1.23.21,1.37.22,1.51,1.41a33.37,33.37,0,0,1-.16,4.46c0,1.12.28,3.76-.66,4.61-1.1,1-4.57,0-5.91-.14a156.27,156.27,0,0,1-26-4.56c-3.67-1-7.35-1.93-11-2.91-4.44-1.19-8.36-3.11-12.56-4.89-2.68-1.14-5.46-1.56-5.26-5,.19-3.25,1.76-6.79,2.73-9.84,2.56-8.11,5.86-15.92,7.11-24.38a249.66,249.66,0,0,1,5.9-28.65c2.53-9.39,6.38-18.16,9.86-27.21,3.43-8.9,5.23-18.33,8.72-27.19,1.52-3.87,3.82-7.36,5.36-11.22.54-1.36,2.13-5.71.07-6.47-3.2-1.17-4.34,6.34-5.23,8.11a82.43,82.43,0,0,0-5.92,14.08c-1.32,4.49-2.47,9-4.06,13.42-1.7,4.72-3.71,9.32-5.66,13.94a180.85,180.85,0,0,0-9.26,28.25c-1.12,4.6-2.21,9.21-2.93,13.89a139.74,139.74,0,0,1-2.66,15.07c-1.17,4.36-2.7,8.6-3.72,13-.5,2.14-1,4.27-1.49,6.41a69,69,0,0,0-.9,9.25c-.19,2.42-1.24.14-2.16,1.8-.65,1.17,1.54,2,2.24,2.42,4.33,2.45,8.55,5.14,13.14,7.07a96.41,96.41,0,0,0,13,4.18c1.05.27,2.84.27,3.33,1.41.31.72-.57,2.5-.75,3.15-.48,1.71-.84,3.45-1.19,5.19-.93,4.63-1.61,9.31-2.46,13.95a93.67,93.67,0,0,0-2,15.46,113.16,113.16,0,0,0,.85,14.95c.15,1.26.25,2.85,1.17,3.84,1.52,1.64,3,.14,3.41-1.56.93-4.27-.48-9.09-.74-13.36a74.92,74.92,0,0,1,.91-15.54c.73-4.92,1.37-9.85,2-14.77.3-2.15.6-4.28.82-6.43a13.38,13.38,0,0,1,.33-2.53c.51-1.63.82-1.74,2.48-1.47,2.12.36,4.23,1.06,6.37,1.42,2.39.4,4.77.78,7.15,1.21,2.55.47,5.11.91,7.68,1.22,1.83.23,3.87,0,5.63.3,2.33.43,1.33,3.41,1.11,5.26-.24,2-.6,4.05-.91,6.08-.78,5.1-1.46,10.25-1.73,15.4-.26,5-.16,10-.61,14.95-.15,1.63-.87,4.21.82,5.33s3.2-.09,3.61-1.74c.53-2.09.31-4.62.39-6.76s.14-4.35.2-6.53c.13-5.31.63-10.56,1.26-15.83,1.22-10.3,1.72-20.54,2.19-30.89.52-11.54,1.91-23,2.74-34.52.39-5.48-.09-10.92-.08-16.4s.37-10.83,0-16.37c-.83-11.38,3.47-22.22,3.23-33.55A88.2,88.2,0,0,0,152.75,335.75Z"/></g></svg>