<svg xmlns="http://www.w3.org/2000/svg" viewBox="0 0 500 500"><defs><style>.cls-1{fill:#f7f7f7;}</style></defs><g id="ph-company-fujiu"><path class="cls-1" d="M287.79,171.49c2.11.5,3.49-.41,4.78-2,.58-.71,3.57-3.36,1.65-3.91-.81-.22-2.23,1.38-2.85,1.75a3.31,3.31,0,0,1-2.4.75c-4.17-.86.86-8.26,1.83-10.14,1.16-2.29.18-4.49.19-6.9a5.6,5.6,0,0,1,2.49-4.48c.93-.74,9-5,6.13-6.09-1.25-.5-4.79,1.18-6,1.69-4.44,1.86-5.93,5.67-5.14,10.26.43,2.47.07,3.5-1.64,5.31-2.27,2.41-4.34,7.72-2.75,10.94A5.67,5.67,0,0,0,287.79,171.49Z"/><path class="cls-1" d="M194.45,170.56c1.6.18,3.21.55,4.75.68a3.23,3.23,0,0,0,1.57-.28,1.23,1.23,0,1,0,1-2.23c-.46-1.82-2.59-2.3-4.1-3-1.67-.64-3.66-.66-5.06-1.9-.4-1.77,1-3,2-4.29,1.27-1.53,2.26-3.27,1.89-5.33A6.27,6.27,0,0,0,196,152a1.11,1.11,0,0,0-1.64-.1c-.68.8-.33,2-.94,2.89a35.34,35.34,0,0,1-3.27,3.54,5.77,5.77,0,0,0-1.76,2.64c-.78,2.4-.59,5.35,1.37,7.13A8.82,8.82,0,0,0,194.45,170.56Z"/><path class="cls-1" d="M210.78,169.65a9.46,9.46,0,0,1,4.29-.57,9.89,9.89,0,0,1,1.09.17,3.48,3.48,0,0,1,.92.47,9.22,9.22,0,0,0,4.55,1.41,5.73,5.73,0,0,0,5-2.58c.88-1.64.73-3.66.63-5.47a1.36,1.36,0,0,0-2.69,0,3.64,3.64,0,0,1-1.21,2.68,6.5,6.5,0,0,1-3.87,1.51l-.63.08c-.19-1.28-1.76-1.45-2.84-1.68a7.45,7.45,0,0,0-5.18,1.27c-.88.71-2.49,1.68-1.9,3C209.44,170.7,210.26,170,210.78,169.65Z"/><path class="cls-1" d="M183.94,182a15.94,15.94,0,0,0,.3-2.86,4.33,4.33,0,0,1,.34-1.88,7.15,7.15,0,0,0,.42-.77.83.83,0,0,0-1.3-.87c-.3.29-.55.65-.87.92-.94.74-2.06,1.19-2.39,2.49a5.13,5.13,0,0,0,.32,3.6,12,12,0,0,1,1.22,2.53c.35.71.79,1.38,1.18,2.06a1.23,1.23,0,0,0,2.19-1.1C184.77,184.77,184.44,183.34,183.94,182Z"/><path class="cls-1" d="M242.16,179.22a1.74,1.74,0,0,0-1.11-.55c-.84,0-1,.89-.77,1.54a6.58,6.58,0,0,0,.82,3,13.21,13.21,0,0,1,.77,2.87,27.6,27.6,0,0,1,1.11,2.63,4.55,4.55,0,0,1,0,2c-.26.7-.51,1.39-.75,2.09a.86.86,0,0,0,1.63.56,23.61,23.61,0,0,0,1.73-5.52c1.1-2.19.69-4-.75-5.87A9.11,9.11,0,0,0,242.16,179.22Z"/><path class="cls-1" d="M235.32,189.42c-.9-1.15-3.72-2-5-2.29-2.28-.49-4.69-.54-7-.87-2.56-.37-5.11-.89-7.67-1.28-2.41-.36-4.51.3-6.88.46a58.22,58.22,0,0,1-6.85-.36c-2.27-.13-4.57,0-6.85,0-2.44,0-4.83-.41-6.59,1.42.94,1.32,2.13,1.46,3.73,1.84,1.18.28,1.5.35,2.07,1.44a10.68,10.68,0,0,0,1.69,2.64c2.68,2.78,7.22,3.62,10.91,4a45.68,45.68,0,0,0,13.71-.56,39,39,0,0,0,7-2.36c1.74-.73,3.67-2.32,5.54-2.54C234.05,190.79,236.74,191.25,235.32,189.42Zm-40.5-.87h.05c1.26,0,2.52-.06,3.79-.07-.24.68-.56,1.34-.77,2l-.42-.23A10.41,10.41,0,0,1,194.82,188.55Zm4.28,2.64a11.32,11.32,0,0,0,.2-2.1c0-.12,0-.34.06-.61l.94,0c.63,0,1.26.13,1.89.23-.2,1.15-.43,2.31-.52,3.49-.25-.07-.5-.14-.74-.23A9.58,9.58,0,0,1,199.1,191.19Zm3.7,1.26a30,30,0,0,0-.23-3.66,36.74,36.74,0,0,0,4.42.63,5.15,5.15,0,0,0-.15.68,13.41,13.41,0,0,0,.09,2.61l-1.64-.11A15.86,15.86,0,0,1,202.8,192.45Zm9,.29c-1,.07-2.06.08-3.09,0a8.15,8.15,0,0,1,.06-1.48,4.25,4.25,0,0,0,.29-2A10.26,10.26,0,0,0,211,189a10.28,10.28,0,0,1,3.39-.79c0,.48-.06,1-.07,1.44a18.68,18.68,0,0,0,.4,2.77C213.74,192.53,212.78,192.65,211.81,192.74Zm4.19-.54c-.22-1.27,0-2.59-.33-3.82,1.7.29,3.39.63,5.08,1a8.63,8.63,0,0,0,.45,2.18c-1.28.18-2.57.31-3.85.48Zm6.35-.85c-.12-.62-.41-1.18-.58-1.79,1.37.28,2.74.55,4.12.8-1.06.34-2.11.67-3.19.94Z"/><path class="cls-1" d="M208.55,202.35c-1.57-.41-3.22-.37-4.77-.84-1.14-.52-2.11-1.35-3.29-1.79a20.58,20.58,0,0,1-6.77-4.28,8.82,8.82,0,0,1-2-2.28,9.83,9.83,0,0,1-.71-2.72.16.16,0,1,0-.24.2c-1.24,3.69.69,5.57,3,8.15a16.36,16.36,0,0,0,6.16,3.89,30.11,30.11,0,0,0,8.46,1A.67.67,0,0,0,208.55,202.35Z"/><path class="cls-1" d="M455.47,502.08a51.67,51.67,0,0,0-2-5.59,60.15,60.15,0,0,1-2.75-11.13c-.87-7.2-1.36-14.46-2.2-21.68-.81-7-1.1-14.1-2.17-21.05-.56-3.67-1.61-7.24-2.37-10.87-.51-2.42-.22-6-1.69-8,.57-1.48,2.28-2.68,3.21-4a29.64,29.64,0,0,0,2.49-4.52c1.77-3.62.17-6-1.82-9.49-5.4-9.44-8.53-20.32-10.75-30.89-2.27-10.8-5.94-21.23-9-31.83s-4.29-21.52-7.6-32c-3-9.42-6.67-18.45-12.15-26.73s-13.87-14.12-22.38-19.13c-9.44-5.57-19.81-9.78-29.77-14.31-9.72-4.43-19-9.74-28.89-13.82-5.45-2.25-9.58-5.74-14.08-9.47-4.27-3.54-9-6.61-12.84-10.61a39.63,39.63,0,0,1-8.34-14.11c-1.93-5.25-1.84-10.9-2.45-16.41,1.13-.83,3.85-.31,5.3-.71a11.81,11.81,0,0,0,5.35-3c3.63-3.71,3.74-9.52,5.23-14.21,2.83-8.9,10.29-16.61,9.3-26.54a12.88,12.88,0,0,0-2.17-6.57c-1.64-2.15-3.83-2.16-5.77-3.62-3.36-2.53-1.43-10.83-1.89-14.95-.25-2.21-1.23-4.51-1.1-6.75.31-1.2.64-2.38,1-3.57a4.07,4.07,0,0,0-1.3-2.86c-1.38-4.32-1-10-1.31-14.7a50.56,50.56,0,0,0-1.38-8.66c-.6-2.36-2.26-4.27-2.9-6.46-.46-1.56.1-2.63-.14-4.28-.29-2-1.64-3.84-2.84-5.4a12.22,12.22,0,0,1-2.19-2.46c-.13-.82-.28-1.64-.44-2.45-.94-2.21-3.32-3.51-4.95-5.09s-1.39-2.76-2.49-4.72c-1.25-2.25-3.8-3.47-5.93-4.7a98.14,98.14,0,0,0-26.06-10.39,89.69,89.69,0,0,0-17.9-2c-3.07-.07-6.14-.07-9.21,0-2.21,0-5.26.79-7.39.26,1.41-.86,4-1,4.84-2.51-1.7-1.56-6.09,0-8,.76a20.32,20.32,0,0,0-7.78,5.63c-2,2.3-11.41,13.82-6.3,16.26,2.15-2.63,3.57-6,5.67-8.73,1.4-1.83,3.3-5.55,5.37-6.63,2.52-1.31,6.9-.5,9.63-.37,3.69.17,7.38.13,11.07.28,8.18.33,17.57.54,25.3,3.41,3.39,1.26,6.81,2.68,10.08,4.24,3,1.43,7.18,2.85,9.42,5.35-1.82,3.12,5.93,5.51,7.34,8.08-1,.68-1.54.68-2,1.74,2.25,2.33,9.85,4.51,9.27,9-.43-.07-.93.13-1.36,0,4.08,3,4.5,9.39,5,14,.33,3.08.4,6.2.79,9.27.26,2,1.12,4.06,1.25,6,.08,1.22-.28,2,.27,3.55s1.5,3,1.47,4.58c0,1.1-.85,2.16-.94,3.24-.22,2.43.81,5,.87,7.49a59.61,59.61,0,0,1-.14,9.73c-2.34,1-6.59-.32-9.2-.4-4-.12-4.64-.82-5-5-.62-6.55-.82-11.09-6.57-14.91-1.78-1.19-5.28-2.3-6.4-4.16-1.39-2.32-.92-7.36-1.2-10.06s-.29-5.91-1.11-8.68c-.7-2.4-2.28-3.89-3.48-5.92,1.53,1,7.24,6.28,8.8,3.91-1.1-2.12-4.36-3.35-6.26-4.64-2.48-1.69-4.78-3.57-7.12-5.43-3.26-2.59-8.07-4.81-10.49-8.2-.09,1.75,1.75,3.07,2.06,4.85-2.32.56-5.76-1.4-7.59-.53A11.18,11.18,0,0,0,252,72.27c2.48.22,2.5-.4,4.69.84,1.56.89,3.1,1.8,4.68,2.67,2.85,1.55,1.42,3.89,1.8,6.87.42,3.34.9,6.7,1.42,10,.89,5.77-1.37,12.34,4.5,15.51,3.47,1.86,7.2,2.88,8.11,7.11.6,2.77,1.3,7.15.87,9.9-1.57.69-4.52-.29-6.19-.49-2.58-.32-5.14-.79-7.73-1.11-4-.5-7-2-10.85-3.21-9.63-3-19.72-2.53-29.56-1.09C230,116,239.24,116.89,246.1,118c1.78.29,8.69,2.75,9.63.3,1.09-2.87-5.37-6.47-7.11-7-6.52-1.9-14.21-.68-20.79.32-2.46.38-6.64.6-8.72,2.2-2.5,1.92-1.85,4.22-1.21,6.78a19.83,19.83,0,0,0-5.81,2.19c-1.93,1.06-1.69,1-4.12.87-2.25-.13-4.86,1-7,.52a15.6,15.6,0,0,1-5.77-3.19c1.51,0,2.32-.5,2-2-.75-3.9-6.83-5.09-9.86-5.53-3.86-.55-8.35-1.26-12.16-.14-2,.59-5.31,5.88-6.61,5.58-1.76-3.84.34-10.66.9-14.6.83-5.82,2.89-11.54,4.76-17.1,1.79-5.29,4.41-10.05,6.88-15a40.18,40.18,0,0,1,3-5.55c1-1.44,3.05-3.25,2.39-5.18-3.76-1.76-9.12,8.35-10.52,10.83a80.76,80.76,0,0,0-6.7,16.24A42.14,42.14,0,0,1,172,72.65c.74-2,1.43-5.44,2.88-7.05,1.32-1.46,4.66-1.06,5.14-3.43-1.23-3.19-7.37-1-9.38-.05-2.44,1.15-4.24,2.44-4.83,5,1.69,0,3.84-1.47,5.55-1.21-.49,1.63-1.64,3-2.3,4.52a34.11,34.11,0,0,0-1.74,6.37,47.44,47.44,0,0,0-1.21,12c.17,3.37.58,5.88-.26,9.19a119.21,119.21,0,0,0-2.23,13c-.24,1.72.15,7.4-1.22,8.82-2,2-6.61.83-6.83,4.54-.1,1.68,1.22,3.95,1.57,5.66a45.63,45.63,0,0,0,1.68,7.11c.64,1.72,2.13,3.52,2.45,5.27s-.16,2.16-.62,3.87c-2,7.4,1,14.18,2.22,21.29,1.63,9.19.63,19,4.42,27.73,3,6.87,8,13.28,13.12,18.69,2.51,2.66,5.35,4.65,7.28,7.81,2.1,3.46,5.46,8.88,6.45,12.73-1,1.27-2.17,1-3.47,1.49a21.08,21.08,0,0,0-4.78,2.6c-1.95,1.28-4,2.35-6,3.56-2.31,1.41-4.23,3.35-6.89,4.13-9.52,2.82-20.73,1.59-29.73,6.29-8.2,4.28-14.87,12.28-20.24,19.6-6.37,8.67-7.16,19.07-10.59,29-3.66,10.61-7.81,20.28-9.11,31.52-.62,5.28-.71,10.64-1.42,15.91-.65,4.8-2.6,9.46-4.11,14-3,9.24-8.33,18-10.49,27.46-1,4.59,2,6.42,5.45,8.88a71,71,0,0,0,13.92,8.17c.13,1.39-1.73,3.84-2.26,5.19-.75,1.89-1.42,3.84-2.07,5.77a96,96,0,0,0-3.72,14.66c-1.61,9.38-2.49,19-3.52,28.44-.53,4.91-.47,9.86-1,14.77-.51,4.66-1.21,9.31-1.45,14-.26,5.07-.3,10.12-.73,15.18-.21,2.47-2.06,12.59.45,14.42,3.9,2.84,3-5.23,3-6.56,0-5.18,1-10.33,1.37-15.48.8-10.38,2-20.7,2.86-31.06.42-4.74,1.52-9.36,2-14.08.53-5.57.64-11,1.83-16.5,1.11-5.17,2.61-10.25,4.14-15.3,1.21-3.95,2.83-8,2.87-12.22,1.67-.68,5.53,1.11,7.26,1.4a8.7,8.7,0,0,0,6.14-.84c2.6,3.75,2.07,10.33,2.08,14.63,0,5.09.09,10.21-.07,15.29s-.93,10.27-.68,15.47-1.94,8.9-3.4,13.68c-3.33,10.85-5.73,21.71-8.12,32.8a140.7,140.7,0,0,0-2.8,15c-.21,2-1.81,11,3.27,9,2.65-1.06,1.78-7.18,2-9.33.52-4.72,1.63-9.34,2.6-14,2.3-11,5.44-21.73,8.48-32.55,1.41-5,3.44-9.86,4.73-14.92,1.19-4.71,2-9.38,3.58-14,1.63-4.89,3.45-9.72,4.8-14.7.76-2.79,1.3-5.61,1.9-8.44.47-2.24,1.63-4.77,1.49-7.08-1.49,1.17-2,4.49-2.43,6.22-.83,2.94-1.56,5.89-2.55,8.79a139.82,139.82,0,0,1-7.12,17c-.93-2.24,0-7.5,0-10,0-3.59,0-7.19-.12-10.79a44.29,44.29,0,0,0-1.37-10.51c-.82-2.89-2.53-5.36-3.5-8.17-2.11-6.12-.67-14.39-.38-20.77.15-3.35.66-6.73.54-10.08s-.9-6.73-.83-10.21c.12-6.54.83-11.88,3.83-17.73,3.25-6.33,6.21-12.77,9.63-19s4.92-12.3,6.33-19.29c1.23-6.09,4.81-13.2,4.26-19.49-1.92.15-2.68,5.89-3.19,7.72-1,3.69-2.33,7.25-3.64,10.85a89.08,89.08,0,0,1-4,9.7c-1.19,2.35-3,7.13-5.21,8.71-.83-3.58-.19-8-.06-11.65a102.77,102.77,0,0,1,1.1-10.36c.8-5.78,2.66-12.33,2.24-18.18-1.69,2.31-2.66,6-3.57,8.77a66.88,66.88,0,0,0-2.29,11.85c-1.12,8-1.1,16-1.42,24-.29,7.5-6.32,13.57-8.42,20.67-2,6.76-1.3,14.18-.79,21.07-2.93-2.52-2.47-8.76-2.67-12.23-.33-5.59-.67-11.17-1.29-16.73a42.89,42.89,0,0,1,.44-15c.52-2.28.94-4.61,1.59-6.85s2.16-4.48,2.3-6.79c-5.47-2.63-7.7,17.87-7.74,20.64-.12,9.19,1.73,18.28,1.46,27.53-.1,3.38-.24,6.79.83,10s4.21,5.28,5.41,8.3c.69,1.74,0,5,0,6.86,0,2.5,0,5-.09,7.47-.22,4.68-.18,8.78,1.42,13.25-2.4,1.58-9.73-1.41-12.43-2.27-4.44-1.42-8.3-4.13-12.27-6.52-2.4-1.45-5-2.29-4.61-5.52.24-1.83,1.52-4.43,2.19-6.15C97,380.37,99.27,376,101,371.29c3.7-9.9,6.53-19.41,7.32-30a138.83,138.83,0,0,1,1.93-16.52c1-5.13,3.17-10.05,4.85-15s3.2-9.86,4.39-15c1-4.44,1.86-9.24,3.74-13.41,3.71-8.19,11.67-16.47,19-21.66,7.46-5.3,17.36-6.1,26.13-8,4.52-1,8-2,11.8-4.71,3.38-2.4,7.49-6,11.3-7.5-.8,4-2.86,7.72-3.58,11.87-.94,5.41-2,11-1.57,16.47.79,9.91,10.58,16.58,19,20.13,9.14,3.83,21.37,1.42,30.57-1.22C246,284,255.71,280.91,265,276.11c4.65-2.4,9.15-5,13.93-7.17a38.84,38.84,0,0,0,11.91-7.79c7.05-7.17,14.4-13.86,21.13-21.36,1.58-1.77,1.79-2.55,3.92-1.43s3.94,2.48,6.13,3.43c4.91,2.13,9.66,4.29,14.4,6.79,9.93,5.23,20.29,9.62,30.48,14.34,9.69,4.49,19.62,9.26,27.7,16.4,7.4,6.52,12.85,16.19,16.12,25.44,3.69,10.42,5.55,20.95,7.9,31.69,2.2,10.05,5.9,19.77,8.62,29.69,2.82,10.25,4.76,20.43,8.44,30.45a77.77,77.77,0,0,0,5.72,12.61c.61,1.06,2.13,2.65,2.05,3.86-.07,1-1.78,3.71-2.39,4.71-2.3,3.78-6.92,6.38-10.67,8.47a52.8,52.8,0,0,1-14.62,5.88c-10.3,2.2-21.08,1.92-31.33,4.12-5.74,1.23-11.13,4-16.74,5.71-2.44.74-5.88,2.8-8.38,2.57s-2.91-4.22-3.63-6.42c-3.78-11.54-3.81-24.66-4.17-36.72-.39-12.72-1.92-25.46-1.05-38.2a176.75,176.75,0,0,1,2.73-19.28,50.38,50.38,0,0,1,2-8.12c.68-1.9,2.2-4.17,1.55-6.14-1.18,1.14-1.69,3.3-2.43,4.79a67,67,0,0,0-3.58,8.78c-1.72,5.25-2.78,10.86-4.67,16a76,76,0,0,1,2.3-22.76c2.39-8.92,8-16.07,12.22-24.14,1.87-3.6,3.27-7.47,5.63-10.79,2.48-3.51,5.87-6.36,9.1-9.14,6.87-5.9,12.83-8.92,21.86-10.06-.82-4.19-14,.11-15.87,1a50.43,50.43,0,0,0-17.7,14.29c-2.62,3.4-4,7.4-5.67,11.3a90.62,90.62,0,0,1-6.2,11.16c-2.48,4.11-5,8.11-6.55,12.67-1.62,4.75-1.64,9.95-3.27,14.6-2.08-2.83-2.75-8.11-3.3-11.52a65.28,65.28,0,0,1-.59-14,79.58,79.58,0,0,1,1.86-13.66c.61-2.57,3.15-7.67,2-10.21-2.37-.4-4.57,4.37-5.37,6.07a30.32,30.32,0,0,0-2.4,10.55,107.59,107.59,0,0,0,.5,21.68,111.32,111.32,0,0,0,5.42,22.59c1,2.89,3.17,4.75,4.44,7.33,1.44,2.91.25,7.62.26,10.86.06,15,1.44,30.25,2.75,45.19a81.49,81.49,0,0,0,5,22.17c.87,2.28,1.39,5.73,4.21,6.33,3.11.66,6.09-2.31,9.17-2.05.46,3.12-.36,7.08-.64,10.26a70.76,70.76,0,0,1-2,11c-2,7.92-5.15,15.25-7.94,22.86a21.18,21.18,0,0,0-1.33,9.26c.33,2.81,2.48,5.32,3.08,1.14s.35-7.42,2-11.32c1.41-3.34,2.51-7.12,4.14-10.32,1.18,3.65,1,8,2.06,11.8,1.16,4.21,2.44,8.36,3.28,12.65.52,2.65.14,10.42,2.64,12.3,3.84,2.89,4.7-2.52,4.43-4.93-1-9-4.11-17.3-5.95-26.11-.85-4-.81-8.15-1.85-12.13s-1.22-9.57,1.9-13.14c6.7,17.41,14.58,34.45,16.57,53.28.22,2.12,1.81,9.49,5.44,5,2.13-2.65-.3-10.42-.94-13.51-2-9.52-4.23-19-8.12-27.93-1.92-4.41-4-8.75-5.93-13.17-1.7-3.92-2.42-7.94-3.77-11.95-.39-1.17-1.93-3.57-2-4.76-.08-2.53,1.66-2.7,3.58-3.36,4-1.38,7.64-3.58,11.92-4.3,9.27-1.54,18.82-1.55,28.15-3a44,44,0,0,0,12.69-4.08c4.4-2.19,7.92-5.63,12.17-7.89.33,2.68-.19,5.44.18,8.2.56,4.22,1.29,8.37,1.57,12.63.55,8.31,1.44,16.56,2.4,24.84.87,7.52.82,15.06,2.95,22.38.65,2.22,3.77,17,8.33,11.26A4.09,4.09,0,0,0,455.47,502.08ZM215.35,126.3c3.23-5.09,14.31-4.3,20.52-4.43,5.31-.11,18.16-.45,17.28,7.7-.26,2.4-1.67,1.43-3.47.92a30.27,30.27,0,0,0-6.5-.88c-3.93-.21-8,0-11.91.13a9.82,9.82,0,0,0-5.46,1.48c-.46.35-2.38,2-1.77,2.87s4.12-.31,4.84-.5c1.73-.45,4.45-1.68,6.21-1,.39,1.88-.72,1.75-2,2.21.52.81,2.66,1.25,3.54,1.45a15.38,15.38,0,0,0,5.45-.13c1.65-.24,3.23-.74,4.85-1.1,1.11-.24,2.07-.7,3.12-1,4.27-1.2.92,6.45.35,8.28-.46,1.48-.83,3.08-2.34,3.76-1.73.78-3.87.86-5.71,1.2-6.72,1.25-16.5,3.8-22.25-1.14a14.19,14.19,0,0,1-4.7-9.07c-.22-1.82-.38-3.57-.75-5.38A7,7,0,0,1,215.35,126.3Zm-54.13,4.75c.68-7.94,6.49-9.76,14.6-9.82,4.82,0,10.21-.1,14.74,1.75,3.43,1.4,6.78,2.9,7.9,6.81.6,2.11-.31,4.84-.54,6.94a26.85,26.85,0,0,1-1.9,6.49c-1.53,4.09-5.57,4.66-9.53,4.91-5.07.32-10.79,1.91-15.79.23-2.17-.73-4-1.55-5.13-3.65s-1.8-4.38-2.69-6.53c-.75-1.81-1.75-3.76-1.73-5.73C161.16,132,161.18,131.49,161.22,131.05Zm.73,12.63.15.26L162,144h0Zm141.78,98.14c-1.72,1.69-3.4,3.4-5.26,5-2.27,1.91-4.66,3.67-6.89,5.62s-4,4.42-6.33,6.32c-4.61,3.8-10.27,5.65-15.28,8.79a90.36,90.36,0,0,1-16.45,8c-5.67,2.12-11.55,3.64-17.39,5.25-2.85.78-5.71,1.63-8.6,2.21a73.38,73.38,0,0,1-9.12.81,26.5,26.5,0,0,1-8.57-.24,38.16,38.16,0,0,1-8-3.37c-3.59-1.83-8.24-4.61-10.34-8.22-2.88-5-1.62-12.63-.57-17.94a59.82,59.82,0,0,1,3.15-9.77c.49-1.29,2.09-6,4-6,.88,1,.92,2.67,1.49,3.88.47,1,1.1,1.88,1.61,2.85s1.52,4.88,2.85,4.65a6.35,6.35,0,0,0-.3-2.58,35.56,35.56,0,0,1-.23-3.73,18.45,18.45,0,0,0-.23-2.56,15.91,15.91,0,0,1-.65-2.48,11.17,11.17,0,0,1,2.81.93,15.27,15.27,0,0,0,3.36.59c2,.17,4.05.26,6.08.25a23.78,23.78,0,0,0,7-.89c.57-.17,5.35-1.85,3.51-2.82-.66-.34-2.5.73-3.15.92a14,14,0,0,1-3.8.57,32,32,0,0,1-7.91-1,26.94,26.94,0,0,1-6.22-2.54c-2-1.12-3.34-3.13-5.28-4.45-1.43-1-1.95-2.41-2.7-3.91-1.14-2.27-2.23-4.59-3.45-6.82-2.34-4.24-6.25-6.82-9.39-10.4a94.6,94.6,0,0,1-9.26-12.79c-2.72-4.39-3.6-9.58-4.48-14.61-1-5.69-.87-11.52-2.2-17.15-.66-2.79-1.66-5.55-1.85-8.44-.34-5.24-.58-5.26,3.7-5.5,3.91-.21,8.33.7,12.36.66a31.08,31.08,0,0,0,8.65-.89c1.72-.49,4.59-1.22,5.87-2.54a11.17,11.17,0,0,0,1.25-2c.71-1.11,1.55-2.1,2.2-3.26a38.52,38.52,0,0,0,3.12-7.51c.34-1.12.76-2.23,1.05-3.36.47-1.85.58-2,2.43-2,2.73,0,3.81,1.1,4.46,3.7,1.38,5.49,3.21,10.51,6.73,15,3.1,3.95,9.87,3.65,14.4,3.6,5.62-.05,12.44-.47,17.54-3a7.87,7.87,0,0,0,3.89-4.41c1-2.51.7-6.25,2.44-8.39,1,.12,1.95,1.25,2.61-.13s-1.15-1.53-1.88-2.19c0-1,1.43-4.29,2.5-4.79.78-.37,2.6,0,3.41.09,1.17.07,2.34.14,3.51.27,2.15.23,4.29.37,6.45.52,1.18.08,2.35.19,3.52.28,1,.08,2.45-.13,3.32.33,1.46.77,1.57,3.34,2.06,4.79s1.49,3.59,2.94,4.3c4.18,2,.57-7.62,1-8.61a37.39,37.39,0,0,1,6.83,1.09c-.48.86-1.45,1.52-2,2.45s-1.72,2-1.67,3c.77.5,1.71,0,2.56-.07a17.14,17.14,0,0,0,3.2-.19c2.47-.65,4.59-1.34,7.2-.92,4.47.73,6.19,3.16,6.4,7.49.22,4.63-2.55,9.4-4.79,13.27a49.65,49.65,0,0,0-5.71,13.85c-.95,4.14-1.69,9-6.51,10.23-1.68.43-4.27-.41-5.66.77-1.17,1-.89,3.49-.89,4.86,0,4.65-.46,9.53.42,14.12a44.06,44.06,0,0,0,5.17,13.59,42.11,42.11,0,0,0,9.12,10.4c1.75,1.51,3.57,2.94,5.39,4.37.91.71,1.83,1.42,2.73,2.16,1.07.88,3.19,2.11,3.76,3.42-.38,1.28-2,2.33-2.94,3.24-1.07,1.09-2.16,2.14-3.26,3.2Z"/><path class="cls-1" d="M172.26,147.84h0Z"/><path class="cls-1" d="M194.27,59a2,2,0,0,0,2.14-3.16c-.06-.35-.1-.7-.14-1-.09-1.42.24-2.82.21-4.24a20.12,20.12,0,0,1,.9-7.19,15,15,0,0,1,4.3-6.94,24.43,24.43,0,0,0,2.86-4.31,2.35,2.35,0,0,1,.71-.85c.54-1.17-2.77-.52-3.32-.21a7.43,7.43,0,0,0-4.38,4.16c-.94,1.55-1.91,3.08-2.84,4.65-2.26,3.2-4.05,6.91-4,10.91C190.93,53.66,191,57.89,194.27,59Z"/><path class="cls-1" d="M229.41,65.82A51,51,0,0,0,224,64.29c-4.72-.92-9.27-2.59-14-3.24a21,21,0,0,0-3.26-.26c-1.18-.13-3.09-.25-2.07,1.49,1.23,1.87,4.55,2.24,6.57,3a49.18,49.18,0,0,0,10,2,51.25,51.25,0,0,1,9.12,1.61,19.81,19.81,0,0,0,4.81,1.41c1,.07,2.71.65,3-.73.12-1.39-1.57-1.21-2.51-1.39C233.45,67.58,231.47,66.58,229.41,65.82Z"/><path class="cls-1" d="M240.94,65.34c-1.25-1.44-2.69-2.71-3.81-4.26-1.89-2.38-4.64-3.79-7.12-5.44a29,29,0,0,0-10.23-3.75,20.17,20.17,0,0,0-12.59,2.23c-.73.41-3.58,2.42-2.45,3.31a.59.59,0,0,0,.73-.13,37.56,37.56,0,0,1,5.19-1.51,24.41,24.41,0,0,1,8.39.35,47.6,47.6,0,0,1,10.63,4,51.35,51.35,0,0,1,6.14,3.13c1.3,1,2.45,2.21,3.64,3.35A1,1,0,0,0,240.94,65.34Z"/><path class="cls-1" d="M241,50.33a23.11,23.11,0,0,0-13.77-6.5c-1.25-.19-2.51-.27-3.76-.4a12.73,12.73,0,0,0-4.48-.07,39.63,39.63,0,0,0-5.46,1.47,35.61,35.61,0,0,0-9.94,6,7.3,7.3,0,0,0-2.12,3.1,12.87,12.87,0,0,0-1.25,3.64,4.22,4.22,0,0,0,.06,1.28.31.31,0,0,0,.56,0A17.44,17.44,0,0,1,204,53c3-2.19,6.35-4.27,10.05-5.11a21.15,21.15,0,0,1,4.56-.41c1,.12,2,.24,3.08.33,3.2.2,6.46.26,9.54,1.23a44.14,44.14,0,0,1,9,4.89A28,28,0,0,1,243,55.7c1.29,1.3,2.66,2.53,3.87,3.91a.86.86,0,0,0,1.35-1,12.81,12.81,0,0,0-2.42-3A48.49,48.49,0,0,0,241,50.33Z"/><path class="cls-1" d="M245.39,48.31c1,1.21,1.6,2.69,2.75,3.8,1.29,1.5,2.32,3.2,3.54,4.76a54.85,54.85,0,0,0,5.58,6.31,31.72,31.72,0,0,1,4,5.34,29.53,29.53,0,0,1,2,2.71.94.94,0,0,0,1.61-.94c-.3-.78-.63-1.54-1-2.29a17,17,0,0,0-2.39-4.12,67.24,67.24,0,0,0-4.69-6.55,28,28,0,0,0-4.76-4.73,35.67,35.67,0,0,0-6.35-5A.37.37,0,0,0,245.39,48.31Z"/><path class="cls-1" d="M273.48,64.27c-1-4-5.74-9.12-8-11.15s-4.61-2.94-7.09-4.35c-1.8-1-2.84-2.19-4.93-2.33,1.15,3.75,4.69,6.83,8,9.56,1.93,1.58,3.87,3,5.66,4.73s3.89,5.41,6.34,6A4.56,4.56,0,0,0,273.48,64.27Z"/><path class="cls-1" d="M278.35,66.37a13.77,13.77,0,0,1,1,2.72c.45,1.11,1.3,2,1.82,3.09.37.91.46,1.9.87,2.79a.74.74,0,0,0,1.41-.29,29.78,29.78,0,0,0-.38-6A4.8,4.8,0,0,0,282,66.56a24.71,24.71,0,0,1-1.71-3.46c-.46-1-3.24-5.24-4.47-4.68-.48.27-.34.91-.18,1.34a7.36,7.36,0,0,0,.72,1.89C277.08,63.19,277.68,64.8,278.35,66.37Z"/><path class="cls-1" d="M273.12,70.49a24.14,24.14,0,0,1-2.5-1.73,2.69,2.69,0,0,0-1.37-.55c-.23,0-.15.35.07.29.24,1.11.64,2.19.89,3.3A19,19,0,0,0,272.93,77a13.24,13.24,0,0,0,1.86,2.09c1.18,1.39,2,3,3.11,4.45a1.29,1.29,0,0,0,2.25-1.13c-.35-1.12-1-2.12-1.4-3.23a26.11,26.11,0,0,0-3.33-6.09A14,14,0,0,0,273.12,70.49Z"/><path class="cls-1" d="M167.66,59c.5-.1,1-.28,1.66-.41a36.82,36.82,0,0,1,7.68-.93c2,0,4.49-.13,6.36.55s1.95,1,3.54-.51c1,.64,3.19,2,3.2-.41,0-1.37-1.82-3.2-2.7-4.13-1.65-1.73-3-2-3.33-4.59-.26-2.26-.2-4.56-.32-6.83a7.13,7.13,0,0,1,.26-2.87c.18-.51,1.22-1.93.72-2.56-.92-1.18-2,1-2.28,1.61a25.19,25.19,0,0,0-1.21,3.78,31.12,31.12,0,0,0-.74,3,22.08,22.08,0,0,1-.4,3.46c-.76-.08-8.57-5.9-8.15-2.92.2,1.39,3.21,3.12,4.15,3.87,1.23,1,5.18,3.25,5.34,4.89-1.3.3-2.79-.11-4.14,0a21.89,21.89,0,0,0-4.76.84c-2.63.82-5.51,1.48-6.88,4A3.05,3.05,0,0,0,167.66,59Z"/><path class="cls-1" d="M170.31,135.85c3.58-.21,6.77-2.25,10.28-2.78,1.26-.11,2.52-.21,3.79-.27a2.91,2.91,0,0,0,.74,1.51c-.74.18-1.58.47-1.15,1.1a9.61,9.61,0,0,0,3.72,1,36.66,36.66,0,0,0,3.78,0,5.23,5.23,0,0,0,2.22-.3,1.13,1.13,0,0,0,.32-.19,6.15,6.15,0,0,0,.52.37,1.12,1.12,0,0,0,1.59-1.39,11.38,11.38,0,0,0-1.9-2.58,6.18,6.18,0,0,0-3.14-1.83c-2.54-1.13-5.43-.92-8.11-.44a30.42,30.42,0,0,0-7.72,1.67C174.5,131.93,167.07,135.34,170.31,135.85Zm15.16-3-.08-.1h.15Z"/></g></svg>