<svg xmlns="http://www.w3.org/2000/svg" viewBox="0 0 500 500"><defs><style>.cls-1{fill:#f7f7f7;}</style></defs><g id="kato"><path class="cls-1" d="M235.06,165.23a10,10,0,0,0-5.61.52c-4.89,1.81-6.87,1.17-11.42-.93-2-.88-4.19-.27-6.21-.89-1.62-.51-2.6-2-3.4-3.43a5.48,5.48,0,0,1-.17-3.28,17,17,0,0,1,1.84-4.24c.4-.7,1.41-2,.37-2.56-1.63-.58-3.6,3.1-4.13,4.35a13.51,13.51,0,0,0-1.14,3.21c-.6,1.91-1.06,3.86-1.76,5.74-.19.74-1.34,2.14-.27,2.68a.78.78,0,0,0,.9-.24,28.14,28.14,0,0,0,1.46-2.56c.12-.21.23-.43.35-.65a9.61,9.61,0,0,0,3.24,3.2,8.72,8.72,0,0,0,4.5,1.09c.79,0,1.51-.43,2.29-.41,2.16.64,4.17,1.78,6.42,2.16,3.78.76,7.36-1.12,11.08-1.41,2.25-.2,4.45.89,6.7.28,3.49-.84,8.5-5.16,7.52-9.12-.19-1.11-.72-3.5-2.29-3-1.24.57-.33,2-.5,3-.39,3.41-3.38,6-6.55,6.9C237.18,166,236.13,165.45,235.06,165.23Z"/><path class="cls-1" d="M259.64,112.66c.43,0,.85.11,1.27.19a23,23,0,0,1,6.53,3.7,1.3,1.3,0,0,0,1.69-.1c.86-1,.11-1.85-.72-2.46a20.47,20.47,0,0,0-4.23-2.78,28,28,0,0,0-6.39-2.67c-3.41-1.26-7.24-2.69-10.82-1.52a12.22,12.22,0,0,0-3.07.31,10.94,10.94,0,0,0-2.94,1.08,3,3,0,0,0-1.65,1.59,2.65,2.65,0,0,0-.18.42s0,0,0,0a3,3,0,0,0-.12,1l0,.12c0,.43.25.85.91,1a4,4,0,0,0,1.3,0c2.25-.2,4.46-.69,6.7-.87a26,26,0,0,1,6.22.36C256,112.41,257.82,112.35,259.64,112.66Z"/><path class="cls-1" d="M212.19,108.32c-3.7-1-7.53-.43-11.26.1a17.15,17.15,0,0,0-10.62,4.33A20.79,20.79,0,0,0,186,118a.79.79,0,0,0,.28,1.07c1.12.53,1.44-1.17,2-1.81.63-.85,1.27-1.69,2-2.48l.31-.18a24.93,24.93,0,0,1,9.39-2.29c4.28-.22,8.45.59,12.81.56a3.93,3.93,0,0,0,2.25-.58c1.09-.3.95-1.7.22-2.46A6.82,6.82,0,0,0,212.19,108.32Z"/><path class="cls-1" d="M298.46,173.84c1.42.39,2.05-1.23,2.73-2.16s1.52-2,2.17-3.09c3-4.94,1.3-7.54,1.7-12.71a11.87,11.87,0,0,1,1.42-4.86,59.5,59.5,0,0,1,3.46-6.13.82.82,0,0,0,0-1.3c-1.84-.72-4.28,3.19-5.23,4.51-3.17,4.6-3.73,8.88-3.5,14.32a9.22,9.22,0,0,1-1,3.63C299.41,167.77,295.45,172.72,298.46,173.84Z"/><path class="cls-1" d="M188.66,133.08l.63-.19a9.36,9.36,0,0,0,1.61-.31c.82-.21,1.65-.44,2.48-.64s1.91-.29,2.91-.41,2-.25,3-.33a.65.65,0,0,0,0,.13,3.93,3.93,0,0,0,.78,1.76,2.51,2.51,0,0,0,2.3,1.36c.71,0,1.41,0,2.12-.07l.23,0a8.29,8.29,0,0,0,1.41-.11c1-.06,2-.13,3-.22s1.72-.17,2.57-.33a1.27,1.27,0,0,0,.77-2.34,20.07,20.07,0,0,0-6.44-2.37c-4.2-.72-13.38-.31-17,1.93-.37.24-.92.73-1,1.2a.51.51,0,0,0-.14.76A.56.56,0,0,0,188.66,133.08Z"/><path class="cls-1" d="M263,132.07c1.57.39,3.14.84,4.69,1.3a23.25,23.25,0,0,1,3.33,1.71,1.06,1.06,0,0,0,1.07-1.84,30.18,30.18,0,0,0-9.21-3.79,30.5,30.5,0,0,0-15.81.65c-.35.15-.69.32-1,.49-.57.21-1.12.44-1.67.69A6.27,6.27,0,0,0,242,133a1,1,0,0,0,1.6,1.06c.27-.18.54-.34.81-.5a21.77,21.77,0,0,1,2.78-.58l2-.43a1.57,1.57,0,0,0,.26.61,4.37,4.37,0,0,0,2,1.76c1.37.39,2.82,0,4.2-.17,1.69-.23,3.46-.16,5-.91.53-.26,1.25-.53,1.36-1.18a1,1,0,0,0,0-.17A1,1,0,0,0,263,132.07Zm-2.58-.57Z"/><path class="cls-1" d="M217.34,169.75a.77.77,0,0,0-.58,0Z"/><path class="cls-1" d="M172.43,81.45a5.16,5.16,0,0,0,.32-1.41,12.21,12.21,0,0,1,.95-2.48c1.79-3.89,5.9-5.94,9.91-6.78.91-.28,2.44.2,2.65-1.08.09-2.33-4.21-.91-5.48-.54a15.11,15.11,0,0,0-8.8,6.19c-1.12,1.71-2.25,4.56-.78,6.33A.84.84,0,0,0,172.43,81.45Z"/><path class="cls-1" d="M192.32,60.9a5.62,5.62,0,0,1-2.94,1.86,10.12,10.12,0,0,1-3,.19c-.58,0-.66.71-.43,1.13a2.23,2.23,0,0,0,1.77,1.12c3.7.27,6.13-1.81,8.16-4.49a1,1,0,0,0,.2-.25c1.75-2.36,3.21-5.11,5-7.12a23,23,0,0,1,11.83-7.11,12.35,12.35,0,0,1,3.27-.17c.92-.07,2.63.85,3-.37a.91.91,0,0,0-.63-1.1,17.69,17.69,0,0,0-3.4-.61c-4.07-.3-8.11,1.38-11.34,3.77-4,2.77-7,6.69-9.56,10.8l-.11.15a22.17,22.17,0,0,1-5.8-1.19c-1-.14-6.88-3.43-6.65-1.45C182.53,59.39,189.2,60.64,192.32,60.9Z"/><path class="cls-1" d="M165.76,107.43a18,18,0,0,0,1.31,10.64.26.26,0,0,0,.05.09c-1.93,3.54-3.09,7.79.88,9.29a4.42,4.42,0,0,0,2.77-.64.69.69,0,0,0-.7-1.2c-.6.25-1.38.86-1.92.22-1.18-1-.6-2.86-.21-4.17a20.91,20.91,0,0,1,4.93-7.11,29.16,29.16,0,0,1,4.6-3.76c.31-.21.77-.45.79-.87-.17-1-2.63-.06-3.3.18A12.8,12.8,0,0,0,169.9,114c-.35.43-.75,1-1.16,1.55-.1-.37-.19-.74-.28-1.12a18.78,18.78,0,0,1-.17-6.12,17,17,0,0,0,2.81.48c2.63.21,5-1.11,7.18-2.48a1.39,1.39,0,0,0,.49-1.89c-1.65-2.47-5,3.2-10.07,2,.12-.44.26-.88.42-1.31a19.43,19.43,0,0,1,5.75-8.6l1-.85c.22-.19.53-.43.49-.77a.52.52,0,0,0-.46-.44c-3,.5-6.28,4-7.75,6.58a19.34,19.34,0,0,0-1.88,4.36c-3.75-2-6.26-6.85-4.46-10.91a5.65,5.65,0,0,1,8.28-2.27,1.22,1.22,0,1,0,1.75-1.64c-1.43-2.06-4.37-2.52-6.69-2-5.25,1.26-7.51,7.81-5.57,12.53A10.78,10.78,0,0,0,165.76,107.43Z"/><path class="cls-1" d="M177.77,87.43a13,13,0,0,0,3.79-.33,34,34,0,0,0-1.95,4c-.56,1.54-1,3.12-1.44,4.7a.66.66,0,0,0,.46.81c1,.24,1-1.52,1.37-2.17a41,41,0,0,1,1.8-4.29,29,29,0,0,1,6.33-8,42.65,42.65,0,0,1,6.49-5.59,2,2,0,0,0,.85-1,.84.84,0,0,0-1-1c-1.21.31-2.1,1.32-3.12,2-1.14.84-2.26,1.69-3.34,2.61-.24.2-.48.4-.71.61a6.14,6.14,0,0,0-.09-.79c-1.63-8.32,7.84-11.65,14.52-11.93a32.78,32.78,0,0,1,8.67.61c-1.14.52-2.25,1.08-3.34,1.71A70.17,70.17,0,0,0,194.79,79c-4.94,4.66-8,10.76-10.67,16.91a73.47,73.47,0,0,0-4.87,13.47,41.16,41.16,0,0,0-1.78,8.65,11.09,11.09,0,0,0,.07,3.68.77.77,0,0,0,.76.87.8.8,0,0,0,.77-.8c.5-1.33,1-2.7,1.36-4.07,1.37-4.3,2.37-8.7,4-12.94A99.23,99.23,0,0,1,188.26,95a56.6,56.6,0,0,1,12.13-15.91,55.76,55.76,0,0,1,21.43-10.87c6-1.89,12.36-2,18.59-1.47a74.13,74.13,0,0,1,17,3.37c3.16,1.14,6.22,2.53,9.37,3.67a47.91,47.91,0,0,1,8.48,4.52,29.7,29.7,0,0,1,2.66,2.08,4.58,4.58,0,0,0,1.92,1.35c-.68,2.7-1.59,5.46-2.57,8.51a25.37,25.37,0,0,0-.9,9.12,35,35,0,0,0,4.19,11.48,27.36,27.36,0,0,0,6.31,8.21,25.75,25.75,0,0,0,2.76,1.94,3,3,0,0,0,.08,1,16.16,16.16,0,0,0,2.24,4.47c1.53,2.5,3.22,4.89,4.62,7.46-.25.92.26,2,.24,2.93.15,5.12-.36,10.24-.22,15.35a.85.85,0,0,0,.84.85c1.22-.09.76-1.62.91-2.45,0-1.07.11-2.16.19-3.25a1,1,0,0,0,.13-.16c.51-.68,1.08-1.32,1.6-2a38.22,38.22,0,0,1,5.05-5.23c4-3.09,7.61-1,9.09,3.37a27,27,0,0,1,.54,13.3c-1.65,7.32-2.06,14.84-2.47,22.3-.19,2.26-.27,4.63-1.32,6.69s-2.62,4.38-5.06,5a13.42,13.42,0,0,1-5.43.07c-.93-.41-1.57-1.14-2.77-.94h0v-.09a5.79,5.79,0,0,0-.61-2.82.75.75,0,0,0-.81-.33.72.72,0,0,0-.51.59,16.64,16.64,0,0,0-.39,2.24c-1,7.29-1,14.82-1.3,22.19,0,4.59-.13,9.16-.07,13.73a9.67,9.67,0,0,0-.23,1.63,20.51,20.51,0,0,0,.54,6.34c0,.5.05,1,.09,1.49a1.73,1.73,0,0,0,.71,1.18,25.42,25.42,0,0,0,2.49,4.94,61.49,61.49,0,0,0,12.16,12.38,4.73,4.73,0,0,0,.46.28,130.62,130.62,0,0,1-12.5,11.12,88.21,88.21,0,0,1-34.74,17.91c-12,1.93-24.75,2.44-36.47-1.22-10.38-3.59-18.88-11.27-25.16-20.12-3.66-6.54-7.58-1-2.18,5.92,8.15,11.21,20.65,19.62,34.52,21.44,32.16,4.57,62-14.35,83.72-36.32A34.7,34.7,0,0,1,320.4,250c2.09-1.61-.42-4.72-2.44-3.16-1.48,1.15-2.89,2.37-4.28,3.62a2.72,2.72,0,0,0-.79-1,46.71,46.71,0,0,1-8.05-8.45,49.33,49.33,0,0,1-5.56-9c-.71-1.39-1.22-2.89-1.8-4.35-.07-1.64-.12-3.28-.13-4.93,0-6.08.07-12.16,0-18.24.06-3,.26-6.08.39-9.12a7.92,7.92,0,0,0,2.56.78c5.06.61,9.81-.56,12.39-5.3a33.38,33.38,0,0,0,3.26-9,62.43,62.43,0,0,0,.74-9.76c.13-3.15.26-5.91.64-9.14.44-4.3,1.58-8.52,1.74-12.85a29.62,29.62,0,0,0-1.05-7.79c.11-.49.16-1,.25-1.3a19.13,19.13,0,0,0,.1-4.6c.72-.7.91-2.63,1.15-3.36a15.09,15.09,0,0,0,.52-6c-.14-.65-.25-1.59-.84-2,2.26-1.32,4.76-2.7,5.89-5.19a.76.76,0,0,0-1.3-.75c-1.06,1.79-2.89,2.83-4.63,3.87a.64.64,0,0,0-.6-.4,4.39,4.39,0,0,1-2.35-.6,22.37,22.37,0,0,1-10.73-12.18c-.23-.61-.41-1.23-.58-1.85a1.25,1.25,0,0,0,.69.2,10.94,10.94,0,0,0,1.73-.11,1,1,0,0,0,1.13.06l.68-.47a18,18,0,0,0,8.54-6.51,2.41,2.41,0,0,0,.25.35,16.7,16.7,0,0,1,.86,1.54,24.27,24.27,0,0,1,1.59,5.07,19,19,0,0,1,.12,7.22,8,8,0,0,1-.21.8,15,15,0,0,1-6,1.21,3.59,3.59,0,0,1-2-.63.87.87,0,0,0-.38-.25c-.45-.11-.73.37-.64.77.37,1.31,1.9,1.89,3.1,2.22,4.43,1,8.92-1.15,12.16-4.1a10.72,10.72,0,0,0,3.15-3.55.84.84,0,0,0-1.31-1,22.26,22.26,0,0,1-3.64,3.14c-.62.36-1.26.71-1.91,1a28.51,28.51,0,0,0,.43-3.8,20.67,20.67,0,0,0-1.32-7.79c-.46-1.13-1.52-3.59-2.93-4.07A17.55,17.55,0,0,0,321.4,88.7c-.06-.8-.74-6.43-2.08-5.53a.72.72,0,0,0-.22.48,18.54,18.54,0,0,0,.09,2.47c.36,5.15.5,9-2.26,13a15,15,0,0,0,.72-6.44c-.53-4.14-4.12-9.3-7.44-11.77-.83-.56-3.73-2.26-4.56-1.17-.32.7.59,1.09,1,1.52a67.69,67.69,0,0,1,4.91,4.83A13.14,13.14,0,0,1,315,94.51c.11,2.43-.14,5.13-1.58,7.17a31,31,0,0,1-5.07,4l-.17,0c-.84,0-1.68,0-2.52-.05a1.18,1.18,0,0,0-1.06.6c-.26-1.37-.44-2.76-.62-4.16,0-.35-.11-.7-.15-1a.51.51,0,1,0-1-.22c-1.14,2.8-.51,6,.18,8.84a23.63,23.63,0,0,0,2.06,5.33,20.82,20.82,0,0,0,3.83,4.64,23.64,23.64,0,0,0,7,4c.33.06,1,.22,1.69.28a17.49,17.49,0,0,1-3,1.38c-.85.37-4,1-4.23,1.77-.05.38.34.58.65.64,2.52.44,4.88-.92,7.1-2.07a1.5,1.5,0,0,0,0,.52,21.7,21.7,0,0,1-.42,6.58c-.09-.34-.19-.67-.3-1-.33-.89-1.05-2.75-2.15-2.78-1,.21.28,2.43.46,3.08a16.08,16.08,0,0,1,.93,3,18.26,18.26,0,0,1,.36,4.61c-2.35-4.53-7.94-7-12.46-3.74a20.27,20.27,0,0,0-5.82,6.76,50.08,50.08,0,0,0,0-6.93c-.06-.87-.05-2.07-1-2.51l-.06,0a41.25,41.25,0,0,1-2.41-5.07c-.79-1.66-1.24-3.46-1.87-5.17a20.86,20.86,0,0,0,4.23,1.15c-.37,1.21.31,3,.55,4.17a13.66,13.66,0,0,0,2.16,4.75c.58.65,1.15,1.3,1.79,1.9a.91.91,0,0,0,1.36-1.2,12.07,12.07,0,0,1-1.42-2.19c-.93-1.95-1.56-4-2.31-6.06-.11-.29-.25-.76-.45-1.17a9.13,9.13,0,0,0,2.55-.2l2.56,2.12a.66.66,0,0,0,.8-1l-1.88-1.55a8.58,8.58,0,0,0,2.54-1.17,11.23,11.23,0,0,0,3.28.77,10.18,10.18,0,0,0,1.56-.06.86.86,0,0,0,0-1.69,12.56,12.56,0,0,1-6.89-2.66,17.62,17.62,0,0,1-5.78-12.24A19.14,19.14,0,0,1,300,96.53c.74-1.46,1.66-3.16,2.39-4.74.17-.35.27-.72.42-1.07a.47.47,0,0,0-.12-.6c-.55-.42-1.42.86-1.83,1.21a19.91,19.91,0,0,0-3.54,5.72,18.62,18.62,0,0,0,1.54,19.43,17.6,17.6,0,0,0,5.51,5.22,12.74,12.74,0,0,1-2.41.69l-.35-.3a22.93,22.93,0,0,1-4.41-4.78,1,1,0,0,0-.43-1.11l-.39-.21c-2.59-4.61-2.84-9.82-1.56-16,.48-2.16,1-4.31,1.47-6.47.57-.14,1-.87,1.38-1.34.62-.91,1.28-1.79,1.87-2.72a29.62,29.62,0,0,0,5-15.49,39.82,39.82,0,0,0-.82-12.22.55.55,0,0,0-.61-.55.53.53,0,0,0-.43.7c0,.36,0,.71,0,1.06-.05,2.89-.07,5.79-.21,8.68-.08.82-.19,1.64-.32,2.46a24.51,24.51,0,0,0-.82-2.9c-1.8-4.52-4.2-9.23-8.41-11.93a2.68,2.68,0,0,0-2.34-.52,29,29,0,0,0-4-6c-4.88-5.78-14.25-9.38-21.71-9.61a35.63,35.63,0,0,0-7.91.72c-.54.13-1.89.4-3.33.81a33.69,33.69,0,0,0-2.29-3.4c-1.5-1.9-3.23-3.62-4.9-5.38-1.31-1.27-2.71,1-1,1.7a29.82,29.82,0,0,1,4.69,6.78c.25.43.49.87.73,1.31-1.38.66-2.26,1.48-1.59,2.46a1.14,1.14,0,0,0,1.33.34,2.24,2.24,0,0,1,.8-.32L252,48c1,2,1.92,3.94,2.85,5.93,1.85,4.18,4.05,8.24,5.6,12.55-2.26-.68-4.53-1.32-6.83-1.84.16-2.14-2.69-8.29-3.35-10-2-4.28-4.71-8.38-8.7-11-1.75-1.12-3.72-2.27-5.86-2.17a1.9,1.9,0,0,0-1,.3,8.59,8.59,0,0,0-5.92-2,12,12,0,0,0-10.22,7.54c-.42,1.22.34,2.44,1.42,1.2a16.12,16.12,0,0,1,3.85-3.88c3.63-2.3,7.36-3.06,10.38.63a16.64,16.64,0,0,1,2.44,3.8A12.12,12.12,0,0,1,238.1,53a12.2,12.2,0,0,1-.32,2.89c-.19.55-.12,1.25.54,1.43a.89.89,0,0,0,1.08-.62c.17-.78.32-1.56.44-2.35s.22-1.37.28-2.06a9.89,9.89,0,0,0-.74-3.29,16.34,16.34,0,0,0-3-5.57,5.89,5.89,0,0,1,1.73.79c4.23,3,7,7.68,9.26,12.27A44.72,44.72,0,0,1,250.54,64a92.56,92.56,0,0,0-10.1-1.21,48.2,48.2,0,0,0-10.87-10.42c-.92-.54-3.62-2.3-4.59-1.8a.66.66,0,0,0-.18,1c2.48,2,5.18,3.65,7.54,5.78A63.67,63.67,0,0,1,237,62c.2.23.41.47.6.71h-.49c-.82-.7-1.67-1.36-2.53-2a41.34,41.34,0,0,0-8.91-5.45,33.32,33.32,0,0,0-14-2.51,25.35,25.35,0,0,0-2.89.2.87.87,0,0,0-1.06.85.89.89,0,0,0,1.19.81l.67,0a39.66,39.66,0,0,1,7,.86,42.83,42.83,0,0,1,16.56,7.35c-.54,0-1.09.08-1.63.14l-1.2.11c-.56-.37-1.2-.66-1.68-.93a42.55,42.55,0,0,0-6.79-2.67,29.16,29.16,0,0,0-19.87,1.24,28.3,28.3,0,0,0-3.08,1.86c-.6.27-1.13.77-.65,1.47a.9.9,0,0,0,1.34,0,43.45,43.45,0,0,1,8.92-2.29,27.3,27.3,0,0,1,10.15.46,41.56,41.56,0,0,1,5.68,1.57A61.22,61.22,0,0,0,215,66a33.57,33.57,0,0,0-6-1.09c-7.37-.68-17.69.07-22.16,6.81a11.14,11.14,0,0,0-1.92,6.4c0,1,.11,2.31,1,2.85l.18.08a28.34,28.34,0,0,0-2.27,2.63,1.32,1.32,0,0,0-.79,0,16.78,16.78,0,0,1-6.76.67,17.51,17.51,0,0,1-7-2.41c-.51-.27-1.35-1.28-1.83-.52-.32.92.77,1.85,1.34,2.46A14.18,14.18,0,0,0,177.77,87.43ZM266.7,68.78a21.61,21.61,0,0,0-3.17-1.36c-.7-2.19-1.43-4.37-2.23-6.52a2.45,2.45,0,0,0,.52-.28c4,.31,6.1,4.78,7.87,7.89.47.94.91,1.93,1.34,2.95l-.26-.16C269.41,70.45,268.1,69.54,266.7,68.78Zm26.88-5.05c4.76,4.86,6.3,8.18,6.75,15a20.56,20.56,0,0,1-.32,3.83A55.83,55.83,0,0,1,298,87.78c-.31.61-.64,1.21-1,1.8.1-.7.19-1.4.26-2.11a49.76,49.76,0,0,0,.37-8.54,8.94,8.94,0,0,0-.23-2,.43.43,0,0,0-.23-.28c-.7-.31-.83,2.07-1,2.61-.32,1.54-.64,3.11-1,4.69-.94,5-2.33,10-2.77,15.1-.62,4.74-.88,9.7.92,14.23.16.4.34.79.53,1.18-.43-.3-.85-.62-1.25-1a18.39,18.39,0,0,1-5.94-12.79c-.45-5.26,1-10.54,3.14-15.31A60.94,60.94,0,0,0,293,74.11a23.91,23.91,0,0,0-1.14-12.2C292.46,62.49,293,63.1,293.58,63.73Zm-38.71-16.8a15.41,15.41,0,0,1,2-.54,34.28,34.28,0,0,1,12.12.15c12.71,2.86,21.83,12.29,21.1,25.78-.48,7.51-3.54,14.5-5,21.8a28.93,28.93,0,0,0,.12,13.41c1.62,5,6.06,8.13,10.61,10.36.42.63.86,1.24,1.33,1.83.95,1,2,1.94,3,2.86a12.27,12.27,0,0,1-4.68-.76,36,36,0,0,1-3.35-1.53,1.75,1.75,0,0,0-1.08-.6,18.64,18.64,0,0,1-4.51-3.58c-4.82-5.7-6.74-13.5-6.48-20.85.62-7,4.07-13.45,3.89-20.53-.2-6.66-1.92-15.45-6.45-20.52-.41-.44-2.47-2.54-3-1.79a.48.48,0,0,0,.06.64c.56.74,1.2,1.42,1.7,2.2a32.2,32.2,0,0,1,4.11,10.91,32,32,0,0,1,.25,11.89l-.87-.75,0-.19c-.22-1.05-.46-2.1-.71-3.15a79.11,79.11,0,0,0-3.17-9.35c-2.4-5.45-6.48-10.49-12-12.9-.51-.25-1.6-.17-1.35.62.56.75,1.66,1.24,2.35,1.94,2.91,2.78,4.89,6.36,6.93,9.79A53.59,53.59,0,0,1,277,75.28l-.31-.23c-.9-.65-1.84-1.24-2.79-1.82a56.42,56.42,0,0,0-2.23-6.61,17,17,0,0,0-4.44-6,9.44,9.44,0,0,0-5.8-1.91,1.65,1.65,0,0,0-1,0,89.66,89.66,0,0,0-4.85-10.43Z"/><path class="cls-1" d="M464.81,525.22c-2.82-16.34-6.77-32.46-10.13-48.69-.95-4.56-1.75-9.15-2.3-13.78-3-22.9-5.09-45.94-8.78-68.75-7.13-38.63-25.07-79.24-53-107.26-13.31-13.25-29.86-22.66-46.68-30.73-6.83-3.26-13.46-7.11-20.7-9.37a1.15,1.15,0,0,0-1,.15.93.93,0,0,0,.11,1.44,9.27,9.27,0,0,0,1.34,1c2.95,1.88,5.95,3.67,9,5.4-7.79,10-16.42,19.66-27,26.84-7.24,5-15.1,8.43-23.47,11.38A145.61,145.61,0,0,1,263,298a70.06,70.06,0,0,1-24.5,1,75.23,75.23,0,0,1-24.64-7.72c-6.77-3.51-13.34-7.45-18.59-13.17A23.8,23.8,0,0,1,189,260.46a39.77,39.77,0,0,1,.55-4.23c.23-1.2.6-2.37.82-3.57,2.25-.85,4.53-1.62,6.82-2.28.22,1.71.4,3.43.5,5.15a1.7,1.7,0,0,0,1.73,1.52,1.74,1.74,0,0,0,1.8-1.76c0-1.23-.08-2.46-.12-3.69,0-4.09-.3-8.15-.63-12.22q-.09-1.33-.21-2.67c-.12-.4-.23-.82-.33-1.23-.37-1.34-.74-2.67-1-4-.16-.31-.31-.62-.46-.93h0l-.12-.22c-.09-.2-.19-.39-.29-.58a56.21,56.21,0,0,0,9.46,4.07,3,3,0,0,0,2.88,2.72,3.91,3.91,0,0,0,2.92-.65,23,23,0,0,0,2.47.49,3.14,3.14,0,0,0,.91,1.19,1.06,1.06,0,0,0,1.47-1c1.05.05,2.11.07,3.15.05a.8.8,0,0,0-.11.78,1,1,0,0,0,.47.47A3.14,3.14,0,0,0,224,238a1.52,1.52,0,0,0,2.45-1.24,6.62,6.62,0,0,0,.53-.53q1.26-.18,2.49-.42a2.1,2.1,0,0,0,1.42,0,6.32,6.32,0,0,0,1.15,2.47,1.76,1.76,0,0,0,2.77-1.61,7.28,7.28,0,0,0-.22-2.14l1-.33,1.26-.4c.1,1-.09,2.13.94,2.58,1.73.48,2.13-1.18,1.93-3.41l1.16-.32a1.67,1.67,0,0,0,.91,1.41c2,.8,2.94-.69,3.3-2.57,1-.31,2.05-.64,3.06-1a56.81,56.81,0,0,0,13.24-6.75c.52-.41,1-.87,1.47-1.31s1.91-1,1.44-2c-.63-.93-1.75.28-2.61.52-4.22,1.48-8.21,3.51-12.4,5-1.35-1.25-3.66-1.76-4.14-3.72-.4-2.14-3.12-1.09-2.1,1.31a6.69,6.69,0,0,0,1.38,2.27,1.34,1.34,0,0,0-2,.75.68.68,0,0,0,0,.14,26.89,26.89,0,0,1-2.54-1.71,1.62,1.62,0,0,0-.84-2.5,1.83,1.83,0,0,0-1.33.25,5.78,5.78,0,0,1-.86-2.09,1.2,1.2,0,0,0-1.9-.21c-.75.85-.21,2.09.09,3.1a2,2,0,0,0-.92.39c-1.42,1.17-.71,2.52.12,3.8a6.57,6.57,0,0,0-.55,1.73,4.74,4.74,0,0,0-1.75-2.23,12.48,12.48,0,0,1,1.65-3.14.76.76,0,0,0-.28-1.48,2.88,2.88,0,0,0-1.47,1,17.43,17.43,0,0,0-1.42,1.79,5.88,5.88,0,0,1-.7-2.84,1.7,1.7,0,0,0-1.07-2.32c-2.87-.45-2.23,3.49-1.82,5.24a10.4,10.4,0,0,0,1.53,3.33,10.39,10.39,0,0,0-.55,1.5,2.2,2.2,0,0,0-.9-.28,1.09,1.09,0,0,0-.13-.17,2.46,2.46,0,0,1-1.5-1.9l-.39-.27c.19-.53.42-1.05.63-1.52a5.3,5.3,0,0,0,.76-1.57,1,1,0,0,0-1-1.14,5.42,5.42,0,0,0-2.39,1.12,7.7,7.7,0,0,1,.1-3.9.7.7,0,0,0-1-.89c-1.43,1.36-1.67,4.46-1.47,6.34a7,7,0,0,0,.18.91,8.45,8.45,0,0,0-1,3.2c-.51-.47-1.11-.94-1.18-1.63,0-1.82,3-3.94,1.68-5.31-1.69-1.67-4.25,3.23-4.74,4.54a3.68,3.68,0,0,0-.1,2.07,1.36,1.36,0,0,0-.5.56,2.35,2.35,0,0,0-1-.34,1.61,1.61,0,0,0,.12-.93,21,21,0,0,1-.24-2.24,24.84,24.84,0,0,1,.73-6.07c1.4-.92-.09-3-1.45-2.11-.92.56-2.06,4.44-2.43,7.66-1.62-.91-1.76-2.79-1.33-4.82a1.34,1.34,0,0,0-1.32-1.52,1.36,1.36,0,0,0-1.27,1,.72.72,0,0,0-.75-.34c-1.1.35-1.5,1.78-2,2.7-.54,1.15-1.12,2.29-1.61,3.46-.46-.21-.92-.43-1.37-.66a6.19,6.19,0,0,1,1.05-6,.84.84,0,0,0,.08-1.58c-1.19-.4-2.68.87-3.52,1.62a6.82,6.82,0,0,0-1.59,3.24c-.49-.41-1-.8-1.49-1.18a9.06,9.06,0,0,1,2.41-5.82,1.21,1.21,0,0,0-.11-1.81c-1.26-.89-2.24.82-3,1.59a11.61,11.61,0,0,0-2.42,3.75q-.47-.36-.9-.75l0,0a70.67,70.67,0,0,1-6.2-8.49A86.67,86.67,0,0,1,179.17,198c-2.76-7.57-3-15.35-3.49-23.38a112.8,112.8,0,0,1-.56-13,106.18,106.18,0,0,1,1.07-13.8,102.52,102.52,0,0,0,1.9-15.1c-.05-1.1.48-5.19-.54-5.63-.7-.29-1,.8-1.13,1.26-.45,1.32-.82,2.68-1.16,4-.27-.83-.49-1.67-.68-2.52-.73-4,.51-8.09,2.21-11.68.15-.29.3-.6.48-.88a.81.81,0,0,0,.18-1.15.8.8,0,0,0-1.19-.07c-3.23,2.65-4.64,7.17-4.77,11.23a24.32,24.32,0,0,0,2.7,9.1c0,.06.07.11.1.16-.71,3.4-1.32,6.83-1.75,10.27a122.36,122.36,0,0,0-1.46,12.5c-.22,7.08-.43,14.19.43,21.24.62,7,1.46,14.1,4,20.72a62.62,62.62,0,0,0,8.33,15.06,73.56,73.56,0,0,0,5.52,6.68c.61.63,1.25,1.24,1.89,1.83v.38a1.89,1.89,0,0,0,1.57,2,1.71,1.71,0,0,0,.42.43c0,.26.09.53.13.8.47,3.34.95,6.68,1.62,10,.61,2.56,1.16,5.14,1.62,7.73-2.22.21-5.07,2-6.9,2.3-32.52,12.63-63.19,33.69-82.1,63.47C97.84,327.39,93.46,345.35,89.25,363c-5,22.9-11.26,45.51-20.13,67.24-2.91,7-6.58,13.7-9.79,20.59-.65,2.23-3.65,5.49-2.56,7.7a1.3,1.3,0,0,0,.3.13,5.92,5.92,0,0,0,1.14,2.76,49.26,49.26,0,0,0,11.42,10.85A66.11,66.11,0,0,0,87.26,481c-.13,5.23-.22,10.47-.12,15.7.14,3.63.4,7.26.55,10.9.37,10.8.83,21.6,2,32.34a2,2,0,0,0,4-.54c-.75-6.78-1.09-13.33-1.37-20.26-.21-5.47-.38-10.95-.27-16.42s.31-11,.09-16.42c-.08-1-.09-2.39-.17-3.87A119.56,119.56,0,0,0,103.75,485a80.94,80.94,0,0,0,20.79,1C123,496.52,121.16,507,120,517.48c-.92,7.42-1.78,14.84-2.23,22.3a1.89,1.89,0,0,0,3.2,1.32c.63-.61.54-1.51.61-2.32.14-2,.3-4.12.51-6.2q1.55-14.54,4-29c2.76-17.08,7.19-34.12,6.49-51.54-.6-11.47-3-22.76-4.2-34.17a1.47,1.47,0,0,0,.19-1.51c-.16-.45-.32-.89-.47-1.34-.1-1.06-.19-2.12-.25-3.18-1-14.5-.18-29.07,1.35-43.5a63.29,63.29,0,0,0,.52-10.47.42.42,0,0,0-.77-.27,29.09,29.09,0,0,0-1.73,4.93,149.21,149.21,0,0,0-3.81,17.88c-.56,3.53-1,7.09-1.24,10.66-.73-4.83-1.29-9.69-1.61-14.57-.59-9.56-.79-19.26.82-28.74A121.31,121.31,0,0,1,124,335.28c.16-.91,1.52-4.66.82-5.16-1.81-1.16-4,9.33-4.49,10.9-4.1,15.18-3.64,31.11-1.74,46.59a169,169,0,0,0,3,17.75c.06.22.13.43.2.65.1,3.72.34,7.45.7,11.16.9,9.55,2.6,19,4,28.48a97.75,97.75,0,0,1,.6,18.92c-.39,5-1,10-1.64,14.92a3,3,0,0,0-1.07,0,75.84,75.84,0,0,1-22.53-1.51c-9.3-2-18.57-4.91-26.82-9.75-4.68-2.74-8.88-6.2-13.18-9.48a13.68,13.68,0,0,0-2.27-1.45c1.57-2,3-5.42,4.07-6.7,6.86-11.23,11.53-23.58,15.76-36C90.07,387,93,357.15,103.85,329.71c13.9-33.31,44.22-56.84,75.92-72.4,2.12-1,4.29-2,6.5-3a22.57,22.57,0,0,0-1.25,3.38,20.15,20.15,0,0,0-.14,8.4c1,8.15,6,14.65,12.24,19.69,12,9.84,29,15.68,44.43,16.66a80.78,80.78,0,0,0,18.89-1.06c15.45-2.52,30.69-7.35,44.07-15.59,11.45-7.34,21.08-17.14,29.69-27.59.52-.63,1-1.25,1.55-1.88l3.69,2c15.9,8.27,31.88,16.81,45.48,28.63a150.45,150.45,0,0,1,29.64,36.57,205.64,205.64,0,0,1,15.15,33.72,250.93,250.93,0,0,1,11.22,48.83c1.6,12.08,2.39,24.26,3.81,36.36,2.69,24.54,8.36,48.55,13.72,72.59.46,2.26.93,4.68,1.38,7.1.51,3.27,2.44,10.72-.2,13.3-3.13,2.25-14.5.16-18.81.18-9.95-.62-19.77,1.27-29.43,3.46a176.29,176.29,0,0,1-19.52,3.15,101.2,101.2,0,0,1-12.19-.14c-5.13-.4-10.34-.89-15.22-2.63a3.94,3.94,0,0,0-.51-.14c.05-.52.09-1,.14-1.56.24-2.16.09-4.32.24-6.48,0-.72.11-1.48.22-2.25a4.46,4.46,0,0,0,1.62.61c3.34.77,6.75,0,10-.69,5.48-1,10.47-3.54,15.09-6.56,2.47-1.58,5.08-2.94,7.61-4.44a56.6,56.6,0,0,0,7-5.3A38,38,0,0,0,416.13,502a23.76,23.76,0,0,0,2.47-5.28,1.26,1.26,0,0,0-.67-1.64,1.28,1.28,0,0,0-1.68.75c-.43.83-.87,1.66-1.37,2.44a32.87,32.87,0,0,1-4.84,5.43c-1.92,1.59-4.08,2.94-6.13,4.38-2.86,2-5.34,4.47-8.28,6.35-5,3-9.36,6.93-14.51,9.66a49,49,0,0,1-10.59,3.74,12.06,12.06,0,0,1-5.76-.11c.21-1.19.47-2.39.72-3.5.8-3.18.81-6.47,1.22-9.71,1.09-7.64,1.72-15.33,2.4-23,.44-6.61.3-13.25.7-19.86.21-2.36.34-4.72.46-7.08a2.12,2.12,0,0,0,.87-1.78c-.06-1.8-.25-3.58-.45-5.36.12-1.59.28-3.18.49-4.77.91-6.56,2.13-13.07,3.22-19.61.87-6.67,2.36-13.25,3.25-19.92,1.07-6.6,1.58-13.26,2.41-19.88a123.92,123.92,0,0,0,1.15-13.2c0-3.9.29-7.8.62-11.69.41-5.06-.33-10.11-.77-15.15a77.65,77.65,0,0,1,.1-11.31c.21-2.83.82-5.6,1.31-8.39a5.81,5.81,0,0,0,.2-1.94.32.32,0,0,0-.54-.07.44.44,0,0,0-.09.27c-.68,3.51-1.79,7-2.33,10.58a65.58,65.58,0,0,0-.92,13.05c.14,4.34.45,8.54-.13,12.89-.77,5-1,10.07-1.39,15.12-.7,6.51-1.83,13-2.5,19.47-1,6.59-1.94,13.17-3.28,19.69-.94,5-1.78,10-2.64,15-.16-1.86-.34-3.71-.54-5.57-.71-6.08-1-12.2-1.85-18.26-.81-4.64-1.77-9.27-2.19-14s.08-9.73-.69-14.53c-.52-3-1.16-6-1.62-9-.54-3.22-1.45-6.35-2.26-9.5s-1.84-6-2.67-9.08a39.64,39.64,0,0,1-1.76-7.36c-.3-2.43-.38-4.88-.54-7.32a2.85,2.85,0,0,0-.24-1.27.6.6,0,0,0-1.05.2,95.13,95.13,0,0,0,0,10.41,40.63,40.63,0,0,0,.78,4.92c.61,3.06,1.07,6.16,1.69,9.22s1.08,6.09,1.56,9.14c.42,3.8,1.09,7.57,1.69,11.34s.36,7.57.69,11.35c.57,7.24,3.09,14.15,3.94,21.35.87,6.3,1.45,12.65,1.73,19,.12,3.07-.09,6.14,0,9.21.05,1.64.21,3.28.32,4.91a81.81,81.81,0,0,1-4.45-7.7c-2-3.84-3.78-7.87-5.59-11.82-1.45-3.13-2.58-6.4-3.77-9.63s-2.47-6.62-3.49-10c-1.72-5.21-3.87-10.4-3.73-16a37.86,37.86,0,0,1,1.56-10.68.46.46,0,0,0-.78-.46,18.76,18.76,0,0,0-1.22,3.85c-.3,1.19-.59,2.39-.81,3.6a35.52,35.52,0,0,0,.33,15.89c1,4.06,1.61,8.21,2.87,12.29,2.84,10.21,6.47,20.27,11.73,29.49,1.69,3,3.84,5.63,5.75,8.45.46.7.92,1.41,1.39,2.1a11.41,11.41,0,0,0,.53,1.3c-.16,8.51-.58,17-1,25.5-.61,6.94-1.26,13.88-1.63,20.84-.44,4-.48,8-1.16,11.93-.54,2.33-1.28,4.62-1.68,7a51.39,51.39,0,0,0-.65,7.22c0,.92-.32,2.12-.38,3.21-.58-1.11-1.2-2.2-1.79-3.31a38,38,0,0,1-3.44-9.7c-.4-2.13-.72-4.26-1.05-6.4a110.37,110.37,0,0,0-3.68-13.35c-1.2,1-2.41,1.92-3.62,2.87.73,2.27,1.48,4.54,2.21,6.81a52.74,52.74,0,0,1,1.93,8,50,50,0,0,0,4.23,13.3,63.17,63.17,0,0,1,3.79,7.7c1.06,2.43,2.34,4.77,3.49,7.17,1.53,3.26,2.74,6.6,4.94,9.5a1.17,1.17,0,0,0,.73.45q.1,2.88.25,5.76c0,2.42,3.77,2.41,3.73,0-.62-5.53-1.5-11-1.78-16.58-.1-1.83-.1-3.67,0-5.5l2.53.43a135.93,135.93,0,0,0,17.11,1.25c12.22.16,24.17-2.95,36.13-5.08,1.75-.3,3.52-.54,5.29-.73a3.9,3.9,0,0,0-.92,1.49,14.69,14.69,0,0,0-.6,5.36c.05,3.36,0,6.71.14,10.07.13,3,.53,5.92.51,8.89a2.59,2.59,0,0,0,5.17,0c-.12-4-.94-7.91-1.15-11.89-.11-3.61-.63-7.2-.72-10.82a25.46,25.46,0,0,0,.06-3.18l-.06-.14a96.11,96.11,0,0,1,10.18-.25c4.4.15,8.81.63,13.2,0,4.27-.45,7.78-2.68,8.65-7A26.23,26.23,0,0,0,464.81,525.22ZM245.71,227.15l-.61.18c0-.09,0-.17,0-.25a1.46,1.46,0,0,0-.11-.67C245.19,226.67,245.45,226.91,245.71,227.15Zm-40.11-3a16.25,16.25,0,0,1,.67-1.62,6.52,6.52,0,0,0,.82,6.32c-.73-.25-1.46-.51-2.18-.78,0-.11,0-.21,0-.32A9.93,9.93,0,0,1,205.6,224.13ZM367.47,549c-.15,3-.19,6-.14,9l-.21-.38c-.86-1.81-1.27-3.8-2-5.67-1.32-3.48-3-6.82-4.26-10.31l.23.08a2.35,2.35,0,0,0,1.46,2.14,27.39,27.39,0,0,0,5,1.53A18.28,18.28,0,0,1,367.47,549Zm92-13.42.06-.06Z"/><path class="cls-1" d="M250.59,115.25c-3.26.72-11,6.13-10.86,9.72.31.75,1.24.41,1.71,0a44.56,44.56,0,0,0,3.66-2.92c1.29-1.08,2.55-2.19,3.94-3.14a14.54,14.54,0,0,1,3.44-1.77,1.11,1.11,0,0,0,.78-1.35C252.9,114.61,251.48,115.05,250.59,115.25Z"/><path class="cls-1" d="M216.73,237.55h0l-.11,0Z"/><path class="cls-1" d="M250,189.35a1.43,1.43,0,0,0,2.12.62c0,.66,0,1.32.11,2a1.55,1.55,0,1,0,3-.82,14.27,14.27,0,0,1-.79-4,3.93,3.93,0,0,0-.25-1.27,1.19,1.19,0,0,0-1.92-.38c-.17-1-.37-2-.55-3a12.45,12.45,0,0,0-.74-3.26c-.81-.93-1.83-.06-2.15.84-.31-1.17-.2-2.46-.71-3.57a1.53,1.53,0,0,0-1.47-.73c-1,.14-1.48,1.11-1.94,1.9a7.8,7.8,0,0,1-.72-1.94,3.67,3.67,0,0,0-.53-1.81,1.23,1.23,0,0,0-1.84-.12,4.82,4.82,0,0,0-.86,1.83,7.43,7.43,0,0,1-.36-2c-.05-.84,0-1.93-1-2.32s-1.64.38-2.11,1.07a8.84,8.84,0,0,0-1.51,3,9,9,0,0,1-.63-2,6.69,6.69,0,0,0-.32-1.74c-1.55-1.77-2.52,1.54-3,2.65a5.58,5.58,0,0,1-.5-2.87,1.42,1.42,0,0,0-2-1.27,8.73,8.73,0,0,0-2.32,2.79,7.1,7.1,0,0,0-.49-2,1.5,1.5,0,0,0-2-.53c-.84.58-1,1.64-1.53,2.51a3,3,0,0,0-.23-1.51,1.43,1.43,0,0,0-2-.55,5.59,5.59,0,0,0-1.47,1.86,9.24,9.24,0,0,0-.12-2,1.43,1.43,0,0,0-2.12-.79,4.59,4.59,0,0,0-1.07,1.21,1.24,1.24,0,0,0-2.08-1.07,28.33,28.33,0,0,0-2,3,1.46,1.46,0,0,0-1.14-1.76c-1.29-.14-1.76,1.39-2.34,2.26a1.38,1.38,0,0,0-2.29.41,15.45,15.45,0,0,0-1.95,3.48,1.05,1.05,0,0,0-1.94-.62,33.65,33.65,0,0,1-2.27,3.77c.07-.52.36-1.08.11-1.58a.72.72,0,0,0-1.12-.14,15.06,15.06,0,0,0-1.85,4.68,15.82,15.82,0,0,0-1,4.4,3.93,3.93,0,0,0,.42,2.76,1.73,1.73,0,0,0,3-.6h0a43.87,43.87,0,0,1,.53-5,1.42,1.42,0,0,0,1.6.64,2.26,2.26,0,0,0,1.19-1.07c.7-1,1.32-2.08,1.95-3.14,1.85,1.57,3.52-2.06,4.42-3.29a5,5,0,0,0,.67,1.27,1.54,1.54,0,0,0,2.59-.33c.19-.51.19-.77.38-1.38a1.43,1.43,0,0,0,2.32.49c.74-.89.9-2.11,1.45-3.11.4,1.25,1.17,2.91,2.68,3a1.56,1.56,0,0,0,1.49-1.17c.42,1.39,1.72,2.73,3.08,1.55a3.6,3.6,0,0,0,.74-1.76c.53,1.72,2.61,2.56,3.74.89.39-.71.54-1.53.87-2.26.6,1.27,1.08,3.86,2.63,4.17,2.1.11,1.71-2.53,1.83-3.93.51,1.27,1.35,4.71,3.22,4,1.27-.68.67-2.3,1.05-3.51a10.69,10.69,0,0,0,2.24,4.1,1.44,1.44,0,0,0,2.29-.4c.65,1.39,1.57,3.53,3.39,2.19.18,1.08.39,2.15.59,3.22a2.63,2.63,0,0,0,.69,1.56,1.75,1.75,0,0,0,2.59-.14A9.86,9.86,0,0,0,250,189.35Z"/><path class="cls-1" d="M239.89,195.12l.8-.17a1.55,1.55,0,0,0,1.17-.28,15,15,0,0,0,1.86-.62c1.28-.48,2.45-1.23,3.76-1.64A1.79,1.79,0,0,0,248.6,190a1.83,1.83,0,0,0-.75-1.47,21.13,21.13,0,0,0-4.53-2.52c-3-1.41-6.39-1.81-9.65-2.27-1.95-.38-3.79.45-5.65.88a27.37,27.37,0,0,1-7.93,0,16.45,16.45,0,0,1-3.49-.6,15.15,15.15,0,0,0-4.52-1.17,11.6,11.6,0,0,0-6,1.65c-1.1.73-2.05,1.64-3.08,2.46-.13.12-.3.23-.46.35l-.11-.06a.6.6,0,0,0-.65.95,22.27,22.27,0,0,0,4.41,4.88,34.28,34.28,0,0,0,5.55,2.87,33.07,33.07,0,0,0,12.32,2C230.7,198.56,233.83,196.55,239.89,195.12Zm-8.58-.92c1.24-1.69,2.16-3.58,3.27-5.35a44.17,44.17,0,0,0,3.84,4c-.4.08-.81.15-1.21.24C235.3,193.52,233.3,194,231.31,194.2Zm13-3.34c-.41.24-.82.47-1.24.68a1.92,1.92,0,0,1-.25.12,3.85,3.85,0,0,0,.24-1.52C243.46,190.37,243.87,190.61,244.29,190.86Zm-4.56-2.35a7.64,7.64,0,0,0-.09,1.44c-.78-.67-1.57-1.36-2.32-2,.75.17,1.51.35,2.3.56Zm-11.16-.61c1.26-.22,2.47-.67,3.74-.83l.82.1h0c-1.5,1.86-2.55,4-3.92,6a29.62,29.62,0,0,1-2.35-5.08C227.42,188,228,188,228.57,187.9Zm-6.09.37h.31A45.84,45.84,0,0,0,220,192a23.24,23.24,0,0,1-1.51-3.81C219.83,188.28,221.18,188.26,222.48,188.27Zm-5.58-.34c.18,1.24.43,2.46.67,3.69.16.64.25,1.4.45,2.09a35.4,35.4,0,0,1-3.94-.84c.16-.31.33-.67.49-1.07a25.46,25.46,0,0,1,2.1-3.92Zm-2.39-.79.69.3a22.6,22.6,0,0,0-2.21,3.62c-.49-1.66-1.48-3.13-2-4.77A7.17,7.17,0,0,1,214.51,187.14Zm-10.24,1.41a3.19,3.19,0,0,1-.42-.3l.26-.11a28.44,28.44,0,0,1,4-1.56l1-.15a8.27,8.27,0,0,0,.39,1.67c.4,1.24.76,2.5,1.28,3.69l-1-.37A22.32,22.32,0,0,1,204.27,188.55Zm19.06,5.56c-.62,0-1.25,0-1.88-.05A23.09,23.09,0,0,1,225,188.3a25.89,25.89,0,0,0,2.32,6.06C226,194.3,224.67,194.16,223.33,194.11Z"/><path class="cls-1" d="M222.12,201.18c-1.57-.48-3.22-.46-4.82-.82a37.69,37.69,0,0,1-6.68-2.06,14.48,14.48,0,0,1-5.65-3.59,1,1,0,0,0-1.91.19,1.25,1.25,0,0,0,.43,1c.31.36.58.75.87,1.12a16.45,16.45,0,0,0,9.55,5.25c1.77.39,3.44,1.19,5.28,1.25a30.63,30.63,0,0,0,5.49-.28.67.67,0,0,0,0-1.32A17.92,17.92,0,0,1,222.12,201.18Z"/></g></svg>