<svg width="808" height="321" viewBox="0 0 808 321" fill="none" xmlns="http://www.w3.org/2000/svg">
<g opacity="0.3">
<path d="M1.14448 2.28916C1.77655 2.28916 2.28895 1.77671 2.28895 1.14458C2.28895 0.512445 1.77655 0 1.14448 0C0.512399 0 0 0.512445 0 1.14458C0 1.77671 0.512399 2.28916 1.14448 2.28916Z" fill="#F1EFE8"/>
<path d="M26.3229 2.28916C26.955 2.28916 27.4674 1.77671 27.4674 1.14458C27.4674 0.512445 26.955 0 26.3229 0C25.6909 0 25.1785 0.512445 25.1785 1.14458C25.1785 1.77671 25.6909 2.28916 26.3229 2.28916Z" fill="#F1EFE8"/>
<path d="M51.5014 2.28916C52.1335 2.28916 52.6459 1.77671 52.6459 1.14458C52.6459 0.512445 52.1335 0 51.5014 0C50.8693 0 50.3569 0.512445 50.3569 1.14458C50.3569 1.77671 50.8693 2.28916 51.5014 2.28916Z" fill="#F1EFE8"/>
<path d="M76.6799 2.28916C77.312 2.28916 77.8244 1.77671 77.8244 1.14458C77.8244 0.512445 77.312 0 76.6799 0C76.0478 0 75.5354 0.512445 75.5354 1.14458C75.5354 1.77671 76.0478 2.28916 76.6799 2.28916Z" fill="#F1EFE8"/>
<path d="M101.858 2.28916C102.49 2.28916 103.003 1.77671 103.003 1.14458C103.003 0.512445 102.49 0 101.858 0C101.226 0 100.714 0.512445 100.714 1.14458C100.714 1.77671 101.226 2.28916 101.858 2.28916Z" fill="#F1EFE8"/>
<path d="M127.037 2.28916C127.669 2.28916 128.181 1.77671 128.181 1.14458C128.181 0.512445 127.669 0 127.037 0C126.405 0 125.892 0.512445 125.892 1.14458C125.892 1.77671 126.405 2.28916 127.037 2.28916Z" fill="#F1EFE8"/>
<path d="M152.215 2.28916C152.847 2.28916 153.36 1.77671 153.36 1.14458C153.36 0.512445 152.847 0 152.215 0C151.583 0 151.071 0.512445 151.071 1.14458C151.071 1.77671 151.583 2.28916 152.215 2.28916Z" fill="#F1EFE8"/>
<path d="M177.394 2.28916C178.026 2.28916 178.538 1.77671 178.538 1.14458C178.538 0.512445 178.026 0 177.394 0C176.762 0 176.249 0.512445 176.249 1.14458C176.249 1.77671 176.762 2.28916 177.394 2.28916Z" fill="#F1EFE8"/>
<path d="M202.572 2.28916C203.204 2.28916 203.717 1.77671 203.717 1.14458C203.717 0.512445 203.204 0 202.572 0C201.94 0 201.428 0.512445 201.428 1.14458C201.428 1.77671 201.94 2.28916 202.572 2.28916Z" fill="#F1EFE8"/>
<path d="M227.751 2.28916C228.383 2.28916 228.895 1.77671 228.895 1.14458C228.895 0.512445 228.383 0 227.751 0C227.119 0 226.606 0.512445 226.606 1.14458C226.606 1.77671 227.119 2.28916 227.751 2.28916Z" fill="#F1EFE8"/>
<path d="M252.929 2.28916C253.561 2.28916 254.074 1.77671 254.074 1.14458C254.074 0.512445 253.561 0 252.929 0C252.297 0 251.785 0.512445 251.785 1.14458C251.785 1.77671 252.297 2.28916 252.929 2.28916Z" fill="#F1EFE8"/>
<path d="M278.108 2.28916C278.74 2.28916 279.252 1.77671 279.252 1.14458C279.252 0.512445 278.74 0 278.108 0C277.476 0 276.963 0.512445 276.963 1.14458C276.963 1.77671 277.476 2.28916 278.108 2.28916Z" fill="#F1EFE8"/>
<path d="M303.286 2.28916C303.918 2.28916 304.431 1.77671 304.431 1.14458C304.431 0.512445 303.918 0 303.286 0C302.654 0 302.142 0.512445 302.142 1.14458C302.142 1.77671 302.654 2.28916 303.286 2.28916Z" fill="#F1EFE8"/>
<path d="M328.465 2.28916C329.097 2.28916 329.609 1.77671 329.609 1.14458C329.609 0.512445 329.097 0 328.465 0C327.832 0 327.32 0.512445 327.32 1.14458C327.32 1.77671 327.832 2.28916 328.465 2.28916Z" fill="#F1EFE8"/>
<path d="M353.643 2.28916C354.275 2.28916 354.788 1.77671 354.788 1.14458C354.788 0.512445 354.275 0 353.643 0C353.011 0 352.499 0.512445 352.499 1.14458C352.499 1.77671 353.011 2.28916 353.643 2.28916Z" fill="#F1EFE8"/>
<path d="M378.821 2.28916C379.454 2.28916 379.966 1.77671 379.966 1.14458C379.966 0.512445 379.454 0 378.821 0C378.189 0 377.677 0.512445 377.677 1.14458C377.677 1.77671 378.189 2.28916 378.821 2.28916Z" fill="#F1EFE8"/>
<path d="M404 2.28916C404.632 2.28916 405.144 1.77671 405.144 1.14458C405.144 0.512445 404.632 0 404 0C403.368 0 402.855 0.512445 402.855 1.14458C402.855 1.77671 403.368 2.28916 404 2.28916Z" fill="#F1EFE8"/>
<path d="M429.178 2.28916C429.81 2.28916 430.323 1.77671 430.323 1.14458C430.323 0.512445 429.81 0 429.178 0C428.546 0 428.034 0.512445 428.034 1.14458C428.034 1.77671 428.546 2.28916 429.178 2.28916Z" fill="#F1EFE8"/>
<path d="M454.357 2.28916C454.989 2.28916 455.501 1.77671 455.501 1.14458C455.501 0.512445 454.989 0 454.357 0C453.725 0 453.212 0.512445 453.212 1.14458C453.212 1.77671 453.725 2.28916 454.357 2.28916Z" fill="#F1EFE8"/>
<path d="M479.535 2.28916C480.167 2.28916 480.68 1.77671 480.68 1.14458C480.68 0.512445 480.167 0 479.535 0C478.903 0 478.391 0.512445 478.391 1.14458C478.391 1.77671 478.903 2.28916 479.535 2.28916Z" fill="#F1EFE8"/>
<path d="M504.714 2.28916C505.346 2.28916 505.858 1.77671 505.858 1.14458C505.858 0.512445 505.346 0 504.714 0C504.082 0 503.569 0.512445 503.569 1.14458C503.569 1.77671 504.082 2.28916 504.714 2.28916Z" fill="#F1EFE8"/>
<path d="M529.892 2.28916C530.524 2.28916 531.037 1.77671 531.037 1.14458C531.037 0.512445 530.524 0 529.892 0C529.26 0 528.748 0.512445 528.748 1.14458C528.748 1.77671 529.26 2.28916 529.892 2.28916Z" fill="#F1EFE8"/>
<path d="M555.071 2.28916C555.703 2.28916 556.215 1.77671 556.215 1.14458C556.215 0.512445 555.703 0 555.071 0C554.439 0 553.926 0.512445 553.926 1.14458C553.926 1.77671 554.439 2.28916 555.071 2.28916Z" fill="#F1EFE8"/>
<path d="M580.249 2.28916C580.881 2.28916 581.394 1.77671 581.394 1.14458C581.394 0.512445 580.881 0 580.249 0C579.617 0 579.105 0.512445 579.105 1.14458C579.105 1.77671 579.617 2.28916 580.249 2.28916Z" fill="#F1EFE8"/>
<path d="M605.428 2.28916C606.06 2.28916 606.572 1.77671 606.572 1.14458C606.572 0.512445 606.06 0 605.428 0C604.796 0 604.283 0.512445 604.283 1.14458C604.283 1.77671 604.796 2.28916 605.428 2.28916Z" fill="#F1EFE8"/>
<path d="M630.606 2.28916C631.238 2.28916 631.751 1.77671 631.751 1.14458C631.751 0.512445 631.238 0 630.606 0C629.974 0 629.462 0.512445 629.462 1.14458C629.462 1.77671 629.974 2.28916 630.606 2.28916Z" fill="#F1EFE8"/>
<path d="M655.785 2.28916C656.417 2.28916 656.929 1.77671 656.929 1.14458C656.929 0.512445 656.417 0 655.785 0C655.153 0 654.64 0.512445 654.64 1.14458C654.64 1.77671 655.153 2.28916 655.785 2.28916Z" fill="#F1EFE8"/>
<path d="M680.963 2.28916C681.595 2.28916 682.108 1.77671 682.108 1.14458C682.108 0.512445 681.595 0 680.963 0C680.331 0 679.819 0.512445 679.819 1.14458C679.819 1.77671 680.331 2.28916 680.963 2.28916Z" fill="#F1EFE8"/>
<path d="M706.142 2.28916C706.774 2.28916 707.286 1.77671 707.286 1.14458C707.286 0.512445 706.774 0 706.142 0C705.509 0 704.997 0.512445 704.997 1.14458C704.997 1.77671 705.509 2.28916 706.142 2.28916Z" fill="#F1EFE8"/>
<path d="M731.32 2.28916C731.952 2.28916 732.465 1.77671 732.465 1.14458C732.465 0.512445 731.952 0 731.32 0C730.688 0 730.176 0.512445 730.176 1.14458C730.176 1.77671 730.688 2.28916 731.32 2.28916Z" fill="#F1EFE8"/>
<path d="M756.499 2.28916C757.131 2.28916 757.643 1.77671 757.643 1.14458C757.643 0.512445 757.131 0 756.499 0C755.867 0 755.354 0.512445 755.354 1.14458C755.354 1.77671 755.867 2.28916 756.499 2.28916Z" fill="#F1EFE8"/>
<path d="M781.677 2.28916C782.309 2.28916 782.822 1.77671 782.822 1.14458C782.822 0.512445 782.309 0 781.677 0C781.045 0 780.533 0.512445 780.533 1.14458C780.533 1.77671 781.045 2.28916 781.677 2.28916Z" fill="#F1EFE8"/>
<path d="M806.855 2.28916C807.488 2.28916 808 1.77671 808 1.14458C808 0.512445 807.488 0 806.855 0C806.223 0 805.711 0.512445 805.711 1.14458C805.711 1.77671 806.223 2.28916 806.855 2.28916Z" fill="#F1EFE8"/>
<path d="M1.14448 27.4698C1.77655 27.4698 2.28895 26.9574 2.28895 26.3252C2.28895 25.6931 1.77655 25.1807 1.14448 25.1807C0.512399 25.1807 0 25.6931 0 26.3252C0 26.9574 0.512399 27.4698 1.14448 27.4698Z" fill="#F1EFE8"/>
<path d="M26.3229 27.4698C26.955 27.4698 27.4674 26.9574 27.4674 26.3252C27.4674 25.6931 26.955 25.1807 26.3229 25.1807C25.6909 25.1807 25.1785 25.6931 25.1785 26.3252C25.1785 26.9574 25.6909 27.4698 26.3229 27.4698Z" fill="#F1EFE8"/>
<path d="M51.5014 27.4698C52.1335 27.4698 52.6459 26.9574 52.6459 26.3252C52.6459 25.6931 52.1335 25.1807 51.5014 25.1807C50.8693 25.1807 50.3569 25.6931 50.3569 26.3252C50.3569 26.9574 50.8693 27.4698 51.5014 27.4698Z" fill="#F1EFE8"/>
<path d="M76.6799 27.4698C77.312 27.4698 77.8244 26.9574 77.8244 26.3252C77.8244 25.6931 77.312 25.1807 76.6799 25.1807C76.0478 25.1807 75.5354 25.6931 75.5354 26.3252C75.5354 26.9574 76.0478 27.4698 76.6799 27.4698Z" fill="#F1EFE8"/>
<path d="M101.858 27.4698C102.49 27.4698 103.003 26.9574 103.003 26.3252C103.003 25.6931 102.49 25.1807 101.858 25.1807C101.226 25.1807 100.714 25.6931 100.714 26.3252C100.714 26.9574 101.226 27.4698 101.858 27.4698Z" fill="#F1EFE8"/>
<path d="M127.037 27.4698C127.669 27.4698 128.181 26.9574 128.181 26.3252C128.181 25.6931 127.669 25.1807 127.037 25.1807C126.405 25.1807 125.892 25.6931 125.892 26.3252C125.892 26.9574 126.405 27.4698 127.037 27.4698Z" fill="#F1EFE8"/>
<path d="M152.215 27.4698C152.847 27.4698 153.36 26.9574 153.36 26.3252C153.36 25.6931 152.847 25.1807 152.215 25.1807C151.583 25.1807 151.071 25.6931 151.071 26.3252C151.071 26.9574 151.583 27.4698 152.215 27.4698Z" fill="#F1EFE8"/>
<path d="M177.394 27.4698C178.026 27.4698 178.538 26.9574 178.538 26.3252C178.538 25.6931 178.026 25.1807 177.394 25.1807C176.762 25.1807 176.249 25.6931 176.249 26.3252C176.249 26.9574 176.762 27.4698 177.394 27.4698Z" fill="#F1EFE8"/>
<path d="M202.572 27.4698C203.204 27.4698 203.717 26.9574 203.717 26.3252C203.717 25.6931 203.204 25.1807 202.572 25.1807C201.94 25.1807 201.428 25.6931 201.428 26.3252C201.428 26.9574 201.94 27.4698 202.572 27.4698Z" fill="#F1EFE8"/>
<path d="M227.751 27.4698C228.383 27.4698 228.895 26.9574 228.895 26.3252C228.895 25.6931 228.383 25.1807 227.751 25.1807C227.119 25.1807 226.606 25.6931 226.606 26.3252C226.606 26.9574 227.119 27.4698 227.751 27.4698Z" fill="#F1EFE8"/>
<path d="M252.929 27.4698C253.561 27.4698 254.074 26.9574 254.074 26.3252C254.074 25.6931 253.561 25.1807 252.929 25.1807C252.297 25.1807 251.785 25.6931 251.785 26.3252C251.785 26.9574 252.297 27.4698 252.929 27.4698Z" fill="#F1EFE8"/>
<path d="M278.108 27.4698C278.74 27.4698 279.252 26.9574 279.252 26.3252C279.252 25.6931 278.74 25.1807 278.108 25.1807C277.476 25.1807 276.963 25.6931 276.963 26.3252C276.963 26.9574 277.476 27.4698 278.108 27.4698Z" fill="#F1EFE8"/>
<path d="M303.286 27.4698C303.918 27.4698 304.431 26.9574 304.431 26.3252C304.431 25.6931 303.918 25.1807 303.286 25.1807C302.654 25.1807 302.142 25.6931 302.142 26.3252C302.142 26.9574 302.654 27.4698 303.286 27.4698Z" fill="#F1EFE8"/>
<path d="M328.465 27.4698C329.097 27.4698 329.609 26.9574 329.609 26.3252C329.609 25.6931 329.097 25.1807 328.465 25.1807C327.832 25.1807 327.32 25.6931 327.32 26.3252C327.32 26.9574 327.832 27.4698 328.465 27.4698Z" fill="#F1EFE8"/>
<path d="M353.643 27.4698C354.275 27.4698 354.788 26.9574 354.788 26.3252C354.788 25.6931 354.275 25.1807 353.643 25.1807C353.011 25.1807 352.499 25.6931 352.499 26.3252C352.499 26.9574 353.011 27.4698 353.643 27.4698Z" fill="#F1EFE8"/>
<path d="M378.821 27.4698C379.454 27.4698 379.966 26.9574 379.966 26.3252C379.966 25.6931 379.454 25.1807 378.821 25.1807C378.189 25.1807 377.677 25.6931 377.677 26.3252C377.677 26.9574 378.189 27.4698 378.821 27.4698Z" fill="#F1EFE8"/>
<path d="M404 27.4698C404.632 27.4698 405.144 26.9574 405.144 26.3252C405.144 25.6931 404.632 25.1807 404 25.1807C403.368 25.1807 402.855 25.6931 402.855 26.3252C402.855 26.9574 403.368 27.4698 404 27.4698Z" fill="#F1EFE8"/>
<path d="M429.178 27.4698C429.81 27.4698 430.323 26.9574 430.323 26.3252C430.323 25.6931 429.81 25.1807 429.178 25.1807C428.546 25.1807 428.034 25.6931 428.034 26.3252C428.034 26.9574 428.546 27.4698 429.178 27.4698Z" fill="#F1EFE8"/>
<path d="M454.357 27.4698C454.989 27.4698 455.501 26.9574 455.501 26.3252C455.501 25.6931 454.989 25.1807 454.357 25.1807C453.725 25.1807 453.212 25.6931 453.212 26.3252C453.212 26.9574 453.725 27.4698 454.357 27.4698Z" fill="#F1EFE8"/>
<path d="M479.535 27.4698C480.167 27.4698 480.68 26.9574 480.68 26.3252C480.68 25.6931 480.167 25.1807 479.535 25.1807C478.903 25.1807 478.391 25.6931 478.391 26.3252C478.391 26.9574 478.903 27.4698 479.535 27.4698Z" fill="#F1EFE8"/>
<path d="M504.714 27.4698C505.346 27.4698 505.858 26.9574 505.858 26.3252C505.858 25.6931 505.346 25.1807 504.714 25.1807C504.082 25.1807 503.569 25.6931 503.569 26.3252C503.569 26.9574 504.082 27.4698 504.714 27.4698Z" fill="#F1EFE8"/>
<path d="M529.892 27.4698C530.524 27.4698 531.037 26.9574 531.037 26.3252C531.037 25.6931 530.524 25.1807 529.892 25.1807C529.26 25.1807 528.748 25.6931 528.748 26.3252C528.748 26.9574 529.26 27.4698 529.892 27.4698Z" fill="#F1EFE8"/>
<path d="M555.071 27.4698C555.703 27.4698 556.215 26.9574 556.215 26.3252C556.215 25.6931 555.703 25.1807 555.071 25.1807C554.439 25.1807 553.926 25.6931 553.926 26.3252C553.926 26.9574 554.439 27.4698 555.071 27.4698Z" fill="#F1EFE8"/>
<path d="M580.249 27.4698C580.881 27.4698 581.394 26.9574 581.394 26.3252C581.394 25.6931 580.881 25.1807 580.249 25.1807C579.617 25.1807 579.105 25.6931 579.105 26.3252C579.105 26.9574 579.617 27.4698 580.249 27.4698Z" fill="#F1EFE8"/>
<path d="M605.428 27.4698C606.06 27.4698 606.572 26.9574 606.572 26.3252C606.572 25.6931 606.06 25.1807 605.428 25.1807C604.796 25.1807 604.283 25.6931 604.283 26.3252C604.283 26.9574 604.796 27.4698 605.428 27.4698Z" fill="#F1EFE8"/>
<path d="M630.606 27.4698C631.238 27.4698 631.751 26.9574 631.751 26.3252C631.751 25.6931 631.238 25.1807 630.606 25.1807C629.974 25.1807 629.462 25.6931 629.462 26.3252C629.462 26.9574 629.974 27.4698 630.606 27.4698Z" fill="#F1EFE8"/>
<path d="M655.785 27.4698C656.417 27.4698 656.929 26.9574 656.929 26.3252C656.929 25.6931 656.417 25.1807 655.785 25.1807C655.153 25.1807 654.64 25.6931 654.64 26.3252C654.64 26.9574 655.153 27.4698 655.785 27.4698Z" fill="#F1EFE8"/>
<path d="M680.963 27.4698C681.595 27.4698 682.108 26.9574 682.108 26.3252C682.108 25.6931 681.595 25.1807 680.963 25.1807C680.331 25.1807 679.819 25.6931 679.819 26.3252C679.819 26.9574 680.331 27.4698 680.963 27.4698Z" fill="#F1EFE8"/>
<path d="M706.142 27.4698C706.774 27.4698 707.286 26.9574 707.286 26.3252C707.286 25.6931 706.774 25.1807 706.142 25.1807C705.509 25.1807 704.997 25.6931 704.997 26.3252C704.997 26.9574 705.509 27.4698 706.142 27.4698Z" fill="#F1EFE8"/>
<path d="M731.32 27.4698C731.952 27.4698 732.465 26.9574 732.465 26.3252C732.465 25.6931 731.952 25.1807 731.32 25.1807C730.688 25.1807 730.176 25.6931 730.176 26.3252C730.176 26.9574 730.688 27.4698 731.32 27.4698Z" fill="#F1EFE8"/>
<path d="M756.499 27.4698C757.131 27.4698 757.643 26.9574 757.643 26.3252C757.643 25.6931 757.131 25.1807 756.499 25.1807C755.867 25.1807 755.354 25.6931 755.354 26.3252C755.354 26.9574 755.867 27.4698 756.499 27.4698Z" fill="#F1EFE8"/>
<path d="M781.677 27.4698C782.309 27.4698 782.822 26.9574 782.822 26.3252C782.822 25.6931 782.309 25.1807 781.677 25.1807C781.045 25.1807 780.533 25.6931 780.533 26.3252C780.533 26.9574 781.045 27.4698 781.677 27.4698Z" fill="#F1EFE8"/>
<path d="M806.855 27.4698C807.488 27.4698 808 26.9574 808 26.3252C808 25.6931 807.488 25.1807 806.855 25.1807C806.223 25.1807 805.711 25.6931 805.711 26.3252C805.711 26.9574 806.223 27.4698 806.855 27.4698Z" fill="#F1EFE8"/>
<path d="M1.14448 52.6505C1.77655 52.6505 2.28895 52.138 2.28895 51.5059C2.28895 50.8738 1.77655 50.3613 1.14448 50.3613C0.512399 50.3613 0 50.8738 0 51.5059C0 52.138 0.512399 52.6505 1.14448 52.6505Z" fill="#F1EFE8"/>
<path d="M26.3229 52.6505C26.955 52.6505 27.4674 52.138 27.4674 51.5059C27.4674 50.8738 26.955 50.3613 26.3229 50.3613C25.6909 50.3613 25.1785 50.8738 25.1785 51.5059C25.1785 52.138 25.6909 52.6505 26.3229 52.6505Z" fill="#F1EFE8"/>
<path d="M51.5014 52.6505C52.1335 52.6505 52.6459 52.138 52.6459 51.5059C52.6459 50.8738 52.1335 50.3613 51.5014 50.3613C50.8693 50.3613 50.3569 50.8738 50.3569 51.5059C50.3569 52.138 50.8693 52.6505 51.5014 52.6505Z" fill="#F1EFE8"/>
<path d="M76.6799 52.6505C77.312 52.6505 77.8244 52.138 77.8244 51.5059C77.8244 50.8738 77.312 50.3613 76.6799 50.3613C76.0478 50.3613 75.5354 50.8738 75.5354 51.5059C75.5354 52.138 76.0478 52.6505 76.6799 52.6505Z" fill="#F1EFE8"/>
<path d="M101.858 52.6505C102.49 52.6505 103.003 52.138 103.003 51.5059C103.003 50.8738 102.49 50.3613 101.858 50.3613C101.226 50.3613 100.714 50.8738 100.714 51.5059C100.714 52.138 101.226 52.6505 101.858 52.6505Z" fill="#F1EFE8"/>
<path d="M127.037 52.6505C127.669 52.6505 128.181 52.138 128.181 51.5059C128.181 50.8738 127.669 50.3613 127.037 50.3613C126.405 50.3613 125.892 50.8738 125.892 51.5059C125.892 52.138 126.405 52.6505 127.037 52.6505Z" fill="#F1EFE8"/>
<path d="M152.215 52.6505C152.847 52.6505 153.36 52.138 153.36 51.5059C153.36 50.8738 152.847 50.3613 152.215 50.3613C151.583 50.3613 151.071 50.8738 151.071 51.5059C151.071 52.138 151.583 52.6505 152.215 52.6505Z" fill="#F1EFE8"/>
<path d="M177.394 52.6505C178.026 52.6505 178.538 52.138 178.538 51.5059C178.538 50.8738 178.026 50.3613 177.394 50.3613C176.762 50.3613 176.249 50.8738 176.249 51.5059C176.249 52.138 176.762 52.6505 177.394 52.6505Z" fill="#F1EFE8"/>
<path d="M202.572 52.6505C203.204 52.6505 203.717 52.138 203.717 51.5059C203.717 50.8738 203.204 50.3613 202.572 50.3613C201.94 50.3613 201.428 50.8738 201.428 51.5059C201.428 52.138 201.94 52.6505 202.572 52.6505Z" fill="#F1EFE8"/>
<path d="M227.751 52.6505C228.383 52.6505 228.895 52.138 228.895 51.5059C228.895 50.8738 228.383 50.3613 227.751 50.3613C227.119 50.3613 226.606 50.8738 226.606 51.5059C226.606 52.138 227.119 52.6505 227.751 52.6505Z" fill="#F1EFE8"/>
<path d="M252.929 52.6505C253.561 52.6505 254.074 52.138 254.074 51.5059C254.074 50.8738 253.561 50.3613 252.929 50.3613C252.297 50.3613 251.785 50.8738 251.785 51.5059C251.785 52.138 252.297 52.6505 252.929 52.6505Z" fill="#F1EFE8"/>
<path d="M278.108 52.6505C278.74 52.6505 279.252 52.138 279.252 51.5059C279.252 50.8738 278.74 50.3613 278.108 50.3613C277.476 50.3613 276.963 50.8738 276.963 51.5059C276.963 52.138 277.476 52.6505 278.108 52.6505Z" fill="#F1EFE8"/>
<path d="M303.286 52.6505C303.918 52.6505 304.431 52.138 304.431 51.5059C304.431 50.8738 303.918 50.3613 303.286 50.3613C302.654 50.3613 302.142 50.8738 302.142 51.5059C302.142 52.138 302.654 52.6505 303.286 52.6505Z" fill="#F1EFE8"/>
<path d="M328.465 52.6505C329.097 52.6505 329.609 52.138 329.609 51.5059C329.609 50.8738 329.097 50.3613 328.465 50.3613C327.832 50.3613 327.32 50.8738 327.32 51.5059C327.32 52.138 327.832 52.6505 328.465 52.6505Z" fill="#F1EFE8"/>
<path d="M353.643 52.6505C354.275 52.6505 354.788 52.138 354.788 51.5059C354.788 50.8738 354.275 50.3613 353.643 50.3613C353.011 50.3613 352.499 50.8738 352.499 51.5059C352.499 52.138 353.011 52.6505 353.643 52.6505Z" fill="#F1EFE8"/>
<path d="M378.821 52.6505C379.454 52.6505 379.966 52.138 379.966 51.5059C379.966 50.8738 379.454 50.3613 378.821 50.3613C378.189 50.3613 377.677 50.8738 377.677 51.5059C377.677 52.138 378.189 52.6505 378.821 52.6505Z" fill="#F1EFE8"/>
<path d="M404 52.6505C404.632 52.6505 405.144 52.138 405.144 51.5059C405.144 50.8738 404.632 50.3613 404 50.3613C403.368 50.3613 402.855 50.8738 402.855 51.5059C402.855 52.138 403.368 52.6505 404 52.6505Z" fill="#F1EFE8"/>
<path d="M429.178 52.6505C429.81 52.6505 430.323 52.138 430.323 51.5059C430.323 50.8738 429.81 50.3613 429.178 50.3613C428.546 50.3613 428.034 50.8738 428.034 51.5059C428.034 52.138 428.546 52.6505 429.178 52.6505Z" fill="#F1EFE8"/>
<path d="M454.357 52.6505C454.989 52.6505 455.501 52.138 455.501 51.5059C455.501 50.8738 454.989 50.3613 454.357 50.3613C453.725 50.3613 453.212 50.8738 453.212 51.5059C453.212 52.138 453.725 52.6505 454.357 52.6505Z" fill="#F1EFE8"/>
<path d="M479.535 52.6505C480.167 52.6505 480.68 52.138 480.68 51.5059C480.68 50.8738 480.167 50.3613 479.535 50.3613C478.903 50.3613 478.391 50.8738 478.391 51.5059C478.391 52.138 478.903 52.6505 479.535 52.6505Z" fill="#F1EFE8"/>
<path d="M504.714 52.6505C505.346 52.6505 505.858 52.138 505.858 51.5059C505.858 50.8738 505.346 50.3613 504.714 50.3613C504.082 50.3613 503.569 50.8738 503.569 51.5059C503.569 52.138 504.082 52.6505 504.714 52.6505Z" fill="#F1EFE8"/>
<path d="M529.892 52.6505C530.524 52.6505 531.037 52.138 531.037 51.5059C531.037 50.8738 530.524 50.3613 529.892 50.3613C529.26 50.3613 528.748 50.8738 528.748 51.5059C528.748 52.138 529.26 52.6505 529.892 52.6505Z" fill="#F1EFE8"/>
<path d="M555.071 52.6505C555.703 52.6505 556.215 52.138 556.215 51.5059C556.215 50.8738 555.703 50.3613 555.071 50.3613C554.439 50.3613 553.926 50.8738 553.926 51.5059C553.926 52.138 554.439 52.6505 555.071 52.6505Z" fill="#F1EFE8"/>
<path d="M580.249 52.6505C580.881 52.6505 581.394 52.138 581.394 51.5059C581.394 50.8738 580.881 50.3613 580.249 50.3613C579.617 50.3613 579.105 50.8738 579.105 51.5059C579.105 52.138 579.617 52.6505 580.249 52.6505Z" fill="#F1EFE8"/>
<path d="M605.428 52.6505C606.06 52.6505 606.572 52.138 606.572 51.5059C606.572 50.8738 606.06 50.3613 605.428 50.3613C604.796 50.3613 604.283 50.8738 604.283 51.5059C604.283 52.138 604.796 52.6505 605.428 52.6505Z" fill="#F1EFE8"/>
<path d="M630.606 52.6505C631.238 52.6505 631.751 52.138 631.751 51.5059C631.751 50.8738 631.238 50.3613 630.606 50.3613C629.974 50.3613 629.462 50.8738 629.462 51.5059C629.462 52.138 629.974 52.6505 630.606 52.6505Z" fill="#F1EFE8"/>
<path d="M655.785 52.6505C656.417 52.6505 656.929 52.138 656.929 51.5059C656.929 50.8738 656.417 50.3613 655.785 50.3613C655.153 50.3613 654.64 50.8738 654.64 51.5059C654.64 52.138 655.153 52.6505 655.785 52.6505Z" fill="#F1EFE8"/>
<path d="M680.963 52.6505C681.595 52.6505 682.108 52.138 682.108 51.5059C682.108 50.8738 681.595 50.3613 680.963 50.3613C680.331 50.3613 679.819 50.8738 679.819 51.5059C679.819 52.138 680.331 52.6505 680.963 52.6505Z" fill="#F1EFE8"/>
<path d="M706.142 52.6505C706.774 52.6505 707.286 52.138 707.286 51.5059C707.286 50.8738 706.774 50.3613 706.142 50.3613C705.509 50.3613 704.997 50.8738 704.997 51.5059C704.997 52.138 705.509 52.6505 706.142 52.6505Z" fill="#F1EFE8"/>
<path d="M731.32 52.6505C731.952 52.6505 732.465 52.138 732.465 51.5059C732.465 50.8738 731.952 50.3613 731.32 50.3613C730.688 50.3613 730.176 50.8738 730.176 51.5059C730.176 52.138 730.688 52.6505 731.32 52.6505Z" fill="#F1EFE8"/>
<path d="M756.499 52.6505C757.131 52.6505 757.643 52.138 757.643 51.5059C757.643 50.8738 757.131 50.3613 756.499 50.3613C755.867 50.3613 755.354 50.8738 755.354 51.5059C755.354 52.138 755.867 52.6505 756.499 52.6505Z" fill="#F1EFE8"/>
<path d="M781.677 52.6505C782.309 52.6505 782.822 52.138 782.822 51.5059C782.822 50.8738 782.309 50.3613 781.677 50.3613C781.045 50.3613 780.533 50.8738 780.533 51.5059C780.533 52.138 781.045 52.6505 781.677 52.6505Z" fill="#F1EFE8"/>
<path d="M806.855 52.6505C807.488 52.6505 808 52.138 808 51.5059C808 50.8738 807.488 50.3613 806.855 50.3613C806.223 50.3613 805.711 50.8738 805.711 51.5059C805.711 52.138 806.223 52.6505 806.855 52.6505Z" fill="#F1EFE8"/>
<path d="M1.14448 77.8311C1.77655 77.8311 2.28895 77.3187 2.28895 76.6866C2.28895 76.0544 1.77655 75.542 1.14448 75.542C0.512399 75.542 0 76.0544 0 76.6866C0 77.3187 0.512399 77.8311 1.14448 77.8311Z" fill="#F1EFE8"/>
<path d="M26.3229 77.8311C26.955 77.8311 27.4674 77.3187 27.4674 76.6866C27.4674 76.0544 26.955 75.542 26.3229 75.542C25.6909 75.542 25.1785 76.0544 25.1785 76.6866C25.1785 77.3187 25.6909 77.8311 26.3229 77.8311Z" fill="#F1EFE8"/>
<path d="M51.5014 77.8311C52.1335 77.8311 52.6459 77.3187 52.6459 76.6866C52.6459 76.0544 52.1335 75.542 51.5014 75.542C50.8693 75.542 50.3569 76.0544 50.3569 76.6866C50.3569 77.3187 50.8693 77.8311 51.5014 77.8311Z" fill="#F1EFE8"/>
<path d="M76.6799 77.8311C77.312 77.8311 77.8244 77.3187 77.8244 76.6866C77.8244 76.0544 77.312 75.542 76.6799 75.542C76.0478 75.542 75.5354 76.0544 75.5354 76.6866C75.5354 77.3187 76.0478 77.8311 76.6799 77.8311Z" fill="#F1EFE8"/>
<path d="M101.858 77.8311C102.49 77.8311 103.003 77.3187 103.003 76.6866C103.003 76.0544 102.49 75.542 101.858 75.542C101.226 75.542 100.714 76.0544 100.714 76.6866C100.714 77.3187 101.226 77.8311 101.858 77.8311Z" fill="#F1EFE8"/>
<path d="M127.037 77.8311C127.669 77.8311 128.181 77.3187 128.181 76.6866C128.181 76.0544 127.669 75.542 127.037 75.542C126.405 75.542 125.892 76.0544 125.892 76.6866C125.892 77.3187 126.405 77.8311 127.037 77.8311Z" fill="#F1EFE8"/>
<path d="M152.215 77.8311C152.847 77.8311 153.36 77.3187 153.36 76.6866C153.36 76.0544 152.847 75.542 152.215 75.542C151.583 75.542 151.071 76.0544 151.071 76.6866C151.071 77.3187 151.583 77.8311 152.215 77.8311Z" fill="#F1EFE8"/>
<path d="M177.394 77.8311C178.026 77.8311 178.538 77.3187 178.538 76.6866C178.538 76.0544 178.026 75.542 177.394 75.542C176.762 75.542 176.249 76.0544 176.249 76.6866C176.249 77.3187 176.762 77.8311 177.394 77.8311Z" fill="#F1EFE8"/>
<path d="M202.572 77.8311C203.204 77.8311 203.717 77.3187 203.717 76.6866C203.717 76.0544 203.204 75.542 202.572 75.542C201.94 75.542 201.428 76.0544 201.428 76.6866C201.428 77.3187 201.94 77.8311 202.572 77.8311Z" fill="#F1EFE8"/>
<path d="M227.751 77.8311C228.383 77.8311 228.895 77.3187 228.895 76.6866C228.895 76.0544 228.383 75.542 227.751 75.542C227.119 75.542 226.606 76.0544 226.606 76.6866C226.606 77.3187 227.119 77.8311 227.751 77.8311Z" fill="#F1EFE8"/>
<path d="M252.929 77.8311C253.561 77.8311 254.074 77.3187 254.074 76.6866C254.074 76.0544 253.561 75.542 252.929 75.542C252.297 75.542 251.785 76.0544 251.785 76.6866C251.785 77.3187 252.297 77.8311 252.929 77.8311Z" fill="#F1EFE8"/>
<path d="M278.108 77.8311C278.74 77.8311 279.252 77.3187 279.252 76.6866C279.252 76.0544 278.74 75.542 278.108 75.542C277.476 75.542 276.963 76.0544 276.963 76.6866C276.963 77.3187 277.476 77.8311 278.108 77.8311Z" fill="#F1EFE8"/>
<path d="M303.286 77.8311C303.918 77.8311 304.431 77.3187 304.431 76.6866C304.431 76.0544 303.918 75.542 303.286 75.542C302.654 75.542 302.142 76.0544 302.142 76.6866C302.142 77.3187 302.654 77.8311 303.286 77.8311Z" fill="#F1EFE8"/>
<path d="M328.465 77.8311C329.097 77.8311 329.609 77.3187 329.609 76.6866C329.609 76.0544 329.097 75.542 328.465 75.542C327.832 75.542 327.32 76.0544 327.32 76.6866C327.32 77.3187 327.832 77.8311 328.465 77.8311Z" fill="#F1EFE8"/>
<path d="M353.643 77.8311C354.275 77.8311 354.788 77.3187 354.788 76.6866C354.788 76.0544 354.275 75.542 353.643 75.542C353.011 75.542 352.499 76.0544 352.499 76.6866C352.499 77.3187 353.011 77.8311 353.643 77.8311Z" fill="#F1EFE8"/>
<path d="M378.821 77.8311C379.454 77.8311 379.966 77.3187 379.966 76.6866C379.966 76.0544 379.454 75.542 378.821 75.542C378.189 75.542 377.677 76.0544 377.677 76.6866C377.677 77.3187 378.189 77.8311 378.821 77.8311Z" fill="#F1EFE8"/>
<path d="M404 77.8311C404.632 77.8311 405.144 77.3187 405.144 76.6866C405.144 76.0544 404.632 75.542 404 75.542C403.368 75.542 402.855 76.0544 402.855 76.6866C402.855 77.3187 403.368 77.8311 404 77.8311Z" fill="#F1EFE8"/>
<path d="M429.178 77.8311C429.81 77.8311 430.323 77.3187 430.323 76.6866C430.323 76.0544 429.81 75.542 429.178 75.542C428.546 75.542 428.034 76.0544 428.034 76.6866C428.034 77.3187 428.546 77.8311 429.178 77.8311Z" fill="#F1EFE8"/>
<path d="M454.357 77.8311C454.989 77.8311 455.501 77.3187 455.501 76.6866C455.501 76.0544 454.989 75.542 454.357 75.542C453.725 75.542 453.212 76.0544 453.212 76.6866C453.212 77.3187 453.725 77.8311 454.357 77.8311Z" fill="#F1EFE8"/>
<path d="M479.535 77.8311C480.167 77.8311 480.68 77.3187 480.68 76.6866C480.68 76.0544 480.167 75.542 479.535 75.542C478.903 75.542 478.391 76.0544 478.391 76.6866C478.391 77.3187 478.903 77.8311 479.535 77.8311Z" fill="#F1EFE8"/>
<path d="M504.714 77.8311C505.346 77.8311 505.858 77.3187 505.858 76.6866C505.858 76.0544 505.346 75.542 504.714 75.542C504.082 75.542 503.569 76.0544 503.569 76.6866C503.569 77.3187 504.082 77.8311 504.714 77.8311Z" fill="#F1EFE8"/>
<path d="M529.892 77.8311C530.524 77.8311 531.037 77.3187 531.037 76.6866C531.037 76.0544 530.524 75.542 529.892 75.542C529.26 75.542 528.748 76.0544 528.748 76.6866C528.748 77.3187 529.26 77.8311 529.892 77.8311Z" fill="#F1EFE8"/>
<path d="M555.071 77.8311C555.703 77.8311 556.215 77.3187 556.215 76.6866C556.215 76.0544 555.703 75.542 555.071 75.542C554.439 75.542 553.926 76.0544 553.926 76.6866C553.926 77.3187 554.439 77.8311 555.071 77.8311Z" fill="#F1EFE8"/>
<path d="M580.249 77.8311C580.881 77.8311 581.394 77.3187 581.394 76.6866C581.394 76.0544 580.881 75.542 580.249 75.542C579.617 75.542 579.105 76.0544 579.105 76.6866C579.105 77.3187 579.617 77.8311 580.249 77.8311Z" fill="#F1EFE8"/>
<path d="M605.428 77.8311C606.06 77.8311 606.572 77.3187 606.572 76.6866C606.572 76.0544 606.06 75.542 605.428 75.542C604.796 75.542 604.283 76.0544 604.283 76.6866C604.283 77.3187 604.796 77.8311 605.428 77.8311Z" fill="#F1EFE8"/>
<path d="M630.606 77.8311C631.238 77.8311 631.751 77.3187 631.751 76.6866C631.751 76.0544 631.238 75.542 630.606 75.542C629.974 75.542 629.462 76.0544 629.462 76.6866C629.462 77.3187 629.974 77.8311 630.606 77.8311Z" fill="#F1EFE8"/>
<path d="M655.785 77.8311C656.417 77.8311 656.929 77.3187 656.929 76.6866C656.929 76.0544 656.417 75.542 655.785 75.542C655.153 75.542 654.64 76.0544 654.64 76.6866C654.64 77.3187 655.153 77.8311 655.785 77.8311Z" fill="#F1EFE8"/>
<path d="M680.963 77.8311C681.595 77.8311 682.108 77.3187 682.108 76.6866C682.108 76.0544 681.595 75.542 680.963 75.542C680.331 75.542 679.819 76.0544 679.819 76.6866C679.819 77.3187 680.331 77.8311 680.963 77.8311Z" fill="#F1EFE8"/>
<path d="M706.142 77.8311C706.774 77.8311 707.286 77.3187 707.286 76.6866C707.286 76.0544 706.774 75.542 706.142 75.542C705.509 75.542 704.997 76.0544 704.997 76.6866C704.997 77.3187 705.509 77.8311 706.142 77.8311Z" fill="#F1EFE8"/>
<path d="M731.32 77.8311C731.952 77.8311 732.465 77.3187 732.465 76.6866C732.465 76.0544 731.952 75.542 731.32 75.542C730.688 75.542 730.176 76.0544 730.176 76.6866C730.176 77.3187 730.688 77.8311 731.32 77.8311Z" fill="#F1EFE8"/>
<path d="M756.499 77.8311C757.131 77.8311 757.643 77.3187 757.643 76.6866C757.643 76.0544 757.131 75.542 756.499 75.542C755.867 75.542 755.354 76.0544 755.354 76.6866C755.354 77.3187 755.867 77.8311 756.499 77.8311Z" fill="#F1EFE8"/>
<path d="M781.677 77.8311C782.309 77.8311 782.822 77.3187 782.822 76.6866C782.822 76.0544 782.309 75.542 781.677 75.542C781.045 75.542 780.533 76.0544 780.533 76.6866C780.533 77.3187 781.045 77.8311 781.677 77.8311Z" fill="#F1EFE8"/>
<path d="M806.855 77.8311C807.488 77.8311 808 77.3187 808 76.6866C808 76.0544 807.488 75.542 806.855 75.542C806.223 75.542 805.711 76.0544 805.711 76.6866C805.711 77.3187 806.223 77.8311 806.855 77.8311Z" fill="#F1EFE8"/>
<path d="M1.14448 103.012C1.77655 103.012 2.28895 102.499 2.28895 101.867C2.28895 101.235 1.77655 100.723 1.14448 100.723C0.512399 100.723 0 101.235 0 101.867C0 102.499 0.512399 103.012 1.14448 103.012Z" fill="#F1EFE8"/>
<path d="M26.3229 103.012C26.955 103.012 27.4674 102.499 27.4674 101.867C27.4674 101.235 26.955 100.723 26.3229 100.723C25.6909 100.723 25.1785 101.235 25.1785 101.867C25.1785 102.499 25.6909 103.012 26.3229 103.012Z" fill="#F1EFE8"/>
<path d="M51.5014 103.012C52.1335 103.012 52.6459 102.499 52.6459 101.867C52.6459 101.235 52.1335 100.723 51.5014 100.723C50.8693 100.723 50.3569 101.235 50.3569 101.867C50.3569 102.499 50.8693 103.012 51.5014 103.012Z" fill="#F1EFE8"/>
<path d="M76.6799 103.012C77.312 103.012 77.8244 102.499 77.8244 101.867C77.8244 101.235 77.312 100.723 76.6799 100.723C76.0478 100.723 75.5354 101.235 75.5354 101.867C75.5354 102.499 76.0478 103.012 76.6799 103.012Z" fill="#F1EFE8"/>
<path d="M101.858 103.012C102.49 103.012 103.003 102.499 103.003 101.867C103.003 101.235 102.49 100.723 101.858 100.723C101.226 100.723 100.714 101.235 100.714 101.867C100.714 102.499 101.226 103.012 101.858 103.012Z" fill="#F1EFE8"/>
<path d="M127.037 103.012C127.669 103.012 128.181 102.499 128.181 101.867C128.181 101.235 127.669 100.723 127.037 100.723C126.405 100.723 125.892 101.235 125.892 101.867C125.892 102.499 126.405 103.012 127.037 103.012Z" fill="#F1EFE8"/>
<path d="M152.215 103.012C152.847 103.012 153.36 102.499 153.36 101.867C153.36 101.235 152.847 100.723 152.215 100.723C151.583 100.723 151.071 101.235 151.071 101.867C151.071 102.499 151.583 103.012 152.215 103.012Z" fill="#F1EFE8"/>
<path d="M177.394 103.012C178.026 103.012 178.538 102.499 178.538 101.867C178.538 101.235 178.026 100.723 177.394 100.723C176.762 100.723 176.249 101.235 176.249 101.867C176.249 102.499 176.762 103.012 177.394 103.012Z" fill="#F1EFE8"/>
<path d="M202.572 103.012C203.204 103.012 203.717 102.499 203.717 101.867C203.717 101.235 203.204 100.723 202.572 100.723C201.94 100.723 201.428 101.235 201.428 101.867C201.428 102.499 201.94 103.012 202.572 103.012Z" fill="#F1EFE8"/>
<path d="M227.751 103.012C228.383 103.012 228.895 102.499 228.895 101.867C228.895 101.235 228.383 100.723 227.751 100.723C227.119 100.723 226.606 101.235 226.606 101.867C226.606 102.499 227.119 103.012 227.751 103.012Z" fill="#F1EFE8"/>
<path d="M252.929 103.012C253.561 103.012 254.074 102.499 254.074 101.867C254.074 101.235 253.561 100.723 252.929 100.723C252.297 100.723 251.785 101.235 251.785 101.867C251.785 102.499 252.297 103.012 252.929 103.012Z" fill="#F1EFE8"/>
<path d="M278.108 103.012C278.74 103.012 279.252 102.499 279.252 101.867C279.252 101.235 278.74 100.723 278.108 100.723C277.476 100.723 276.963 101.235 276.963 101.867C276.963 102.499 277.476 103.012 278.108 103.012Z" fill="#F1EFE8"/>
<path d="M303.286 103.012C303.918 103.012 304.431 102.499 304.431 101.867C304.431 101.235 303.918 100.723 303.286 100.723C302.654 100.723 302.142 101.235 302.142 101.867C302.142 102.499 302.654 103.012 303.286 103.012Z" fill="#F1EFE8"/>
<path d="M328.465 103.012C329.097 103.012 329.609 102.499 329.609 101.867C329.609 101.235 329.097 100.723 328.465 100.723C327.832 100.723 327.32 101.235 327.32 101.867C327.32 102.499 327.832 103.012 328.465 103.012Z" fill="#F1EFE8"/>
<path d="M353.643 103.012C354.275 103.012 354.788 102.499 354.788 101.867C354.788 101.235 354.275 100.723 353.643 100.723C353.011 100.723 352.499 101.235 352.499 101.867C352.499 102.499 353.011 103.012 353.643 103.012Z" fill="#F1EFE8"/>
<path d="M378.821 103.012C379.454 103.012 379.966 102.499 379.966 101.867C379.966 101.235 379.454 100.723 378.821 100.723C378.189 100.723 377.677 101.235 377.677 101.867C377.677 102.499 378.189 103.012 378.821 103.012Z" fill="#F1EFE8"/>
<path d="M404 103.012C404.632 103.012 405.144 102.499 405.144 101.867C405.144 101.235 404.632 100.723 404 100.723C403.368 100.723 402.855 101.235 402.855 101.867C402.855 102.499 403.368 103.012 404 103.012Z" fill="#F1EFE8"/>
<path d="M429.178 103.012C429.81 103.012 430.323 102.499 430.323 101.867C430.323 101.235 429.81 100.723 429.178 100.723C428.546 100.723 428.034 101.235 428.034 101.867C428.034 102.499 428.546 103.012 429.178 103.012Z" fill="#F1EFE8"/>
<path d="M454.357 103.012C454.989 103.012 455.501 102.499 455.501 101.867C455.501 101.235 454.989 100.723 454.357 100.723C453.725 100.723 453.212 101.235 453.212 101.867C453.212 102.499 453.725 103.012 454.357 103.012Z" fill="#F1EFE8"/>
<path d="M479.535 103.012C480.167 103.012 480.68 102.499 480.68 101.867C480.68 101.235 480.167 100.723 479.535 100.723C478.903 100.723 478.391 101.235 478.391 101.867C478.391 102.499 478.903 103.012 479.535 103.012Z" fill="#F1EFE8"/>
<path d="M504.714 103.012C505.346 103.012 505.858 102.499 505.858 101.867C505.858 101.235 505.346 100.723 504.714 100.723C504.082 100.723 503.569 101.235 503.569 101.867C503.569 102.499 504.082 103.012 504.714 103.012Z" fill="#F1EFE8"/>
<path d="M529.892 103.012C530.524 103.012 531.037 102.499 531.037 101.867C531.037 101.235 530.524 100.723 529.892 100.723C529.26 100.723 528.748 101.235 528.748 101.867C528.748 102.499 529.26 103.012 529.892 103.012Z" fill="#F1EFE8"/>
<path d="M555.071 103.012C555.703 103.012 556.215 102.499 556.215 101.867C556.215 101.235 555.703 100.723 555.071 100.723C554.439 100.723 553.926 101.235 553.926 101.867C553.926 102.499 554.439 103.012 555.071 103.012Z" fill="#F1EFE8"/>
<path d="M580.249 103.012C580.881 103.012 581.394 102.499 581.394 101.867C581.394 101.235 580.881 100.723 580.249 100.723C579.617 100.723 579.105 101.235 579.105 101.867C579.105 102.499 579.617 103.012 580.249 103.012Z" fill="#F1EFE8"/>
<path d="M605.428 103.012C606.06 103.012 606.572 102.499 606.572 101.867C606.572 101.235 606.06 100.723 605.428 100.723C604.796 100.723 604.283 101.235 604.283 101.867C604.283 102.499 604.796 103.012 605.428 103.012Z" fill="#F1EFE8"/>
<path d="M630.606 103.012C631.238 103.012 631.751 102.499 631.751 101.867C631.751 101.235 631.238 100.723 630.606 100.723C629.974 100.723 629.462 101.235 629.462 101.867C629.462 102.499 629.974 103.012 630.606 103.012Z" fill="#F1EFE8"/>
<path d="M655.785 103.012C656.417 103.012 656.929 102.499 656.929 101.867C656.929 101.235 656.417 100.723 655.785 100.723C655.153 100.723 654.64 101.235 654.64 101.867C654.64 102.499 655.153 103.012 655.785 103.012Z" fill="#F1EFE8"/>
<path d="M680.963 103.012C681.595 103.012 682.108 102.499 682.108 101.867C682.108 101.235 681.595 100.723 680.963 100.723C680.331 100.723 679.819 101.235 679.819 101.867C679.819 102.499 680.331 103.012 680.963 103.012Z" fill="#F1EFE8"/>
<path d="M706.142 103.012C706.774 103.012 707.286 102.499 707.286 101.867C707.286 101.235 706.774 100.723 706.142 100.723C705.509 100.723 704.997 101.235 704.997 101.867C704.997 102.499 705.509 103.012 706.142 103.012Z" fill="#F1EFE8"/>
<path d="M731.32 103.012C731.952 103.012 732.465 102.499 732.465 101.867C732.465 101.235 731.952 100.723 731.32 100.723C730.688 100.723 730.176 101.235 730.176 101.867C730.176 102.499 730.688 103.012 731.32 103.012Z" fill="#F1EFE8"/>
<path d="M756.499 103.012C757.131 103.012 757.643 102.499 757.643 101.867C757.643 101.235 757.131 100.723 756.499 100.723C755.867 100.723 755.354 101.235 755.354 101.867C755.354 102.499 755.867 103.012 756.499 103.012Z" fill="#F1EFE8"/>
<path d="M781.677 103.012C782.309 103.012 782.822 102.499 782.822 101.867C782.822 101.235 782.309 100.723 781.677 100.723C781.045 100.723 780.533 101.235 780.533 101.867C780.533 102.499 781.045 103.012 781.677 103.012Z" fill="#F1EFE8"/>
<path d="M806.855 103.012C807.488 103.012 808 102.499 808 101.867C808 101.235 807.488 100.723 806.855 100.723C806.223 100.723 805.711 101.235 805.711 101.867C805.711 102.499 806.223 103.012 806.855 103.012Z" fill="#F1EFE8"/>
<path d="M1.14448 128.192C1.77655 128.192 2.28895 127.68 2.28895 127.048C2.28895 126.416 1.77655 125.903 1.14448 125.903C0.512399 125.903 0 126.416 0 127.048C0 127.68 0.512399 128.192 1.14448 128.192Z" fill="#F1EFE8"/>
<path d="M26.3229 128.192C26.955 128.192 27.4674 127.68 27.4674 127.048C27.4674 126.416 26.955 125.903 26.3229 125.903C25.6909 125.903 25.1785 126.416 25.1785 127.048C25.1785 127.68 25.6909 128.192 26.3229 128.192Z" fill="#F1EFE8"/>
<path d="M51.5014 128.192C52.1335 128.192 52.6459 127.68 52.6459 127.048C52.6459 126.416 52.1335 125.903 51.5014 125.903C50.8693 125.903 50.3569 126.416 50.3569 127.048C50.3569 127.68 50.8693 128.192 51.5014 128.192Z" fill="#F1EFE8"/>
<path d="M76.6799 128.192C77.312 128.192 77.8244 127.68 77.8244 127.048C77.8244 126.416 77.312 125.903 76.6799 125.903C76.0478 125.903 75.5354 126.416 75.5354 127.048C75.5354 127.68 76.0478 128.192 76.6799 128.192Z" fill="#F1EFE8"/>
<path d="M101.858 128.192C102.49 128.192 103.003 127.68 103.003 127.048C103.003 126.416 102.49 125.903 101.858 125.903C101.226 125.903 100.714 126.416 100.714 127.048C100.714 127.68 101.226 128.192 101.858 128.192Z" fill="#F1EFE8"/>
<path d="M127.037 128.192C127.669 128.192 128.181 127.68 128.181 127.048C128.181 126.416 127.669 125.903 127.037 125.903C126.405 125.903 125.892 126.416 125.892 127.048C125.892 127.68 126.405 128.192 127.037 128.192Z" fill="#F1EFE8"/>
<path d="M152.215 128.192C152.847 128.192 153.36 127.68 153.36 127.048C153.36 126.416 152.847 125.903 152.215 125.903C151.583 125.903 151.071 126.416 151.071 127.048C151.071 127.68 151.583 128.192 152.215 128.192Z" fill="#F1EFE8"/>
<path d="M177.394 128.192C178.026 128.192 178.538 127.68 178.538 127.048C178.538 126.416 178.026 125.903 177.394 125.903C176.762 125.903 176.249 126.416 176.249 127.048C176.249 127.68 176.762 128.192 177.394 128.192Z" fill="#F1EFE8"/>
<path d="M202.572 128.192C203.204 128.192 203.717 127.68 203.717 127.048C203.717 126.416 203.204 125.903 202.572 125.903C201.94 125.903 201.428 126.416 201.428 127.048C201.428 127.68 201.94 128.192 202.572 128.192Z" fill="#F1EFE8"/>
<path d="M227.751 128.192C228.383 128.192 228.895 127.68 228.895 127.048C228.895 126.416 228.383 125.903 227.751 125.903C227.119 125.903 226.606 126.416 226.606 127.048C226.606 127.68 227.119 128.192 227.751 128.192Z" fill="#F1EFE8"/>
<path d="M252.929 128.192C253.561 128.192 254.074 127.68 254.074 127.048C254.074 126.416 253.561 125.903 252.929 125.903C252.297 125.903 251.785 126.416 251.785 127.048C251.785 127.68 252.297 128.192 252.929 128.192Z" fill="#F1EFE8"/>
<path d="M278.108 128.192C278.74 128.192 279.252 127.68 279.252 127.048C279.252 126.416 278.74 125.903 278.108 125.903C277.476 125.903 276.963 126.416 276.963 127.048C276.963 127.68 277.476 128.192 278.108 128.192Z" fill="#F1EFE8"/>
<path d="M303.286 128.192C303.918 128.192 304.431 127.68 304.431 127.048C304.431 126.416 303.918 125.903 303.286 125.903C302.654 125.903 302.142 126.416 302.142 127.048C302.142 127.68 302.654 128.192 303.286 128.192Z" fill="#F1EFE8"/>
<path d="M328.465 128.192C329.097 128.192 329.609 127.68 329.609 127.048C329.609 126.416 329.097 125.903 328.465 125.903C327.832 125.903 327.32 126.416 327.32 127.048C327.32 127.68 327.832 128.192 328.465 128.192Z" fill="#F1EFE8"/>
<path d="M353.643 128.192C354.275 128.192 354.788 127.68 354.788 127.048C354.788 126.416 354.275 125.903 353.643 125.903C353.011 125.903 352.499 126.416 352.499 127.048C352.499 127.68 353.011 128.192 353.643 128.192Z" fill="#F1EFE8"/>
<path d="M378.821 128.192C379.454 128.192 379.966 127.68 379.966 127.048C379.966 126.416 379.454 125.903 378.821 125.903C378.189 125.903 377.677 126.416 377.677 127.048C377.677 127.68 378.189 128.192 378.821 128.192Z" fill="#F1EFE8"/>
<path d="M404 128.192C404.632 128.192 405.144 127.68 405.144 127.048C405.144 126.416 404.632 125.903 404 125.903C403.368 125.903 402.855 126.416 402.855 127.048C402.855 127.68 403.368 128.192 404 128.192Z" fill="#F1EFE8"/>
<path d="M429.178 128.192C429.81 128.192 430.323 127.68 430.323 127.048C430.323 126.416 429.81 125.903 429.178 125.903C428.546 125.903 428.034 126.416 428.034 127.048C428.034 127.68 428.546 128.192 429.178 128.192Z" fill="#F1EFE8"/>
<path d="M454.357 128.192C454.989 128.192 455.501 127.68 455.501 127.048C455.501 126.416 454.989 125.903 454.357 125.903C453.725 125.903 453.212 126.416 453.212 127.048C453.212 127.68 453.725 128.192 454.357 128.192Z" fill="#F1EFE8"/>
<path d="M479.535 128.192C480.167 128.192 480.68 127.68 480.68 127.048C480.68 126.416 480.167 125.903 479.535 125.903C478.903 125.903 478.391 126.416 478.391 127.048C478.391 127.68 478.903 128.192 479.535 128.192Z" fill="#F1EFE8"/>
<path d="M504.714 128.192C505.346 128.192 505.858 127.68 505.858 127.048C505.858 126.416 505.346 125.903 504.714 125.903C504.082 125.903 503.569 126.416 503.569 127.048C503.569 127.68 504.082 128.192 504.714 128.192Z" fill="#F1EFE8"/>
<path d="M529.892 128.192C530.524 128.192 531.037 127.68 531.037 127.048C531.037 126.416 530.524 125.903 529.892 125.903C529.26 125.903 528.748 126.416 528.748 127.048C528.748 127.68 529.26 128.192 529.892 128.192Z" fill="#F1EFE8"/>
<path d="M555.071 128.192C555.703 128.192 556.215 127.68 556.215 127.048C556.215 126.416 555.703 125.903 555.071 125.903C554.439 125.903 553.926 126.416 553.926 127.048C553.926 127.68 554.439 128.192 555.071 128.192Z" fill="#F1EFE8"/>
<path d="M580.249 128.192C580.881 128.192 581.394 127.68 581.394 127.048C581.394 126.416 580.881 125.903 580.249 125.903C579.617 125.903 579.105 126.416 579.105 127.048C579.105 127.68 579.617 128.192 580.249 128.192Z" fill="#F1EFE8"/>
<path d="M605.428 128.192C606.06 128.192 606.572 127.68 606.572 127.048C606.572 126.416 606.06 125.903 605.428 125.903C604.796 125.903 604.283 126.416 604.283 127.048C604.283 127.68 604.796 128.192 605.428 128.192Z" fill="#F1EFE8"/>
<path d="M630.606 128.192C631.238 128.192 631.751 127.68 631.751 127.048C631.751 126.416 631.238 125.903 630.606 125.903C629.974 125.903 629.462 126.416 629.462 127.048C629.462 127.68 629.974 128.192 630.606 128.192Z" fill="#F1EFE8"/>
<path d="M655.785 128.192C656.417 128.192 656.929 127.68 656.929 127.048C656.929 126.416 656.417 125.903 655.785 125.903C655.153 125.903 654.64 126.416 654.64 127.048C654.64 127.68 655.153 128.192 655.785 128.192Z" fill="#F1EFE8"/>
<path d="M680.963 128.192C681.595 128.192 682.108 127.68 682.108 127.048C682.108 126.416 681.595 125.903 680.963 125.903C680.331 125.903 679.819 126.416 679.819 127.048C679.819 127.68 680.331 128.192 680.963 128.192Z" fill="#F1EFE8"/>
<path d="M706.142 128.192C706.774 128.192 707.286 127.68 707.286 127.048C707.286 126.416 706.774 125.903 706.142 125.903C705.509 125.903 704.997 126.416 704.997 127.048C704.997 127.68 705.509 128.192 706.142 128.192Z" fill="#F1EFE8"/>
<path d="M731.32 128.192C731.952 128.192 732.465 127.68 732.465 127.048C732.465 126.416 731.952 125.903 731.32 125.903C730.688 125.903 730.176 126.416 730.176 127.048C730.176 127.68 730.688 128.192 731.32 128.192Z" fill="#F1EFE8"/>
<path d="M756.499 128.192C757.131 128.192 757.643 127.68 757.643 127.048C757.643 126.416 757.131 125.903 756.499 125.903C755.867 125.903 755.354 126.416 755.354 127.048C755.354 127.68 755.867 128.192 756.499 128.192Z" fill="#F1EFE8"/>
<path d="M781.677 128.192C782.309 128.192 782.822 127.68 782.822 127.048C782.822 126.416 782.309 125.903 781.677 125.903C781.045 125.903 780.533 126.416 780.533 127.048C780.533 127.68 781.045 128.192 781.677 128.192Z" fill="#F1EFE8"/>
<path d="M806.855 128.192C807.488 128.192 808 127.68 808 127.048C808 126.416 807.488 125.903 806.855 125.903C806.223 125.903 805.711 126.416 805.711 127.048C805.711 127.68 806.223 128.192 806.855 128.192Z" fill="#F1EFE8"/>
<path d="M1.14448 153.373C1.77655 153.373 2.28895 152.861 2.28895 152.229C2.28895 151.596 1.77655 151.084 1.14448 151.084C0.512399 151.084 0 151.596 0 152.229C0 152.861 0.512399 153.373 1.14448 153.373Z" fill="#F1EFE8"/>
<path d="M26.3229 153.373C26.955 153.373 27.4674 152.861 27.4674 152.229C27.4674 151.596 26.955 151.084 26.3229 151.084C25.6909 151.084 25.1785 151.596 25.1785 152.229C25.1785 152.861 25.6909 153.373 26.3229 153.373Z" fill="#F1EFE8"/>
<path d="M51.5014 153.373C52.1335 153.373 52.6459 152.861 52.6459 152.229C52.6459 151.596 52.1335 151.084 51.5014 151.084C50.8693 151.084 50.3569 151.596 50.3569 152.229C50.3569 152.861 50.8693 153.373 51.5014 153.373Z" fill="#F1EFE8"/>
<path d="M76.6799 153.373C77.312 153.373 77.8244 152.861 77.8244 152.229C77.8244 151.596 77.312 151.084 76.6799 151.084C76.0478 151.084 75.5354 151.596 75.5354 152.229C75.5354 152.861 76.0478 153.373 76.6799 153.373Z" fill="#F1EFE8"/>
<path d="M101.858 153.373C102.49 153.373 103.003 152.861 103.003 152.229C103.003 151.596 102.49 151.084 101.858 151.084C101.226 151.084 100.714 151.596 100.714 152.229C100.714 152.861 101.226 153.373 101.858 153.373Z" fill="#F1EFE8"/>
<path d="M127.037 153.373C127.669 153.373 128.181 152.861 128.181 152.229C128.181 151.596 127.669 151.084 127.037 151.084C126.405 151.084 125.892 151.596 125.892 152.229C125.892 152.861 126.405 153.373 127.037 153.373Z" fill="#F1EFE8"/>
<path d="M152.215 153.373C152.847 153.373 153.36 152.861 153.36 152.229C153.36 151.596 152.847 151.084 152.215 151.084C151.583 151.084 151.071 151.596 151.071 152.229C151.071 152.861 151.583 153.373 152.215 153.373Z" fill="#F1EFE8"/>
<path d="M177.394 153.373C178.026 153.373 178.538 152.861 178.538 152.229C178.538 151.596 178.026 151.084 177.394 151.084C176.762 151.084 176.249 151.596 176.249 152.229C176.249 152.861 176.762 153.373 177.394 153.373Z" fill="#F1EFE8"/>
<path d="M202.572 153.373C203.204 153.373 203.717 152.861 203.717 152.229C203.717 151.596 203.204 151.084 202.572 151.084C201.94 151.084 201.428 151.596 201.428 152.229C201.428 152.861 201.94 153.373 202.572 153.373Z" fill="#F1EFE8"/>
<path d="M227.751 153.373C228.383 153.373 228.895 152.861 228.895 152.229C228.895 151.596 228.383 151.084 227.751 151.084C227.119 151.084 226.606 151.596 226.606 152.229C226.606 152.861 227.119 153.373 227.751 153.373Z" fill="#F1EFE8"/>
<path d="M252.929 153.373C253.561 153.373 254.074 152.861 254.074 152.229C254.074 151.596 253.561 151.084 252.929 151.084C252.297 151.084 251.785 151.596 251.785 152.229C251.785 152.861 252.297 153.373 252.929 153.373Z" fill="#F1EFE8"/>
<path d="M278.108 153.373C278.74 153.373 279.252 152.861 279.252 152.229C279.252 151.596 278.74 151.084 278.108 151.084C277.476 151.084 276.963 151.596 276.963 152.229C276.963 152.861 277.476 153.373 278.108 153.373Z" fill="#F1EFE8"/>
<path d="M303.286 153.373C303.918 153.373 304.431 152.861 304.431 152.229C304.431 151.596 303.918 151.084 303.286 151.084C302.654 151.084 302.142 151.596 302.142 152.229C302.142 152.861 302.654 153.373 303.286 153.373Z" fill="#F1EFE8"/>
<path d="M328.465 153.373C329.097 153.373 329.609 152.861 329.609 152.229C329.609 151.596 329.097 151.084 328.465 151.084C327.832 151.084 327.32 151.596 327.32 152.229C327.32 152.861 327.832 153.373 328.465 153.373Z" fill="#F1EFE8"/>
<path d="M353.643 153.373C354.275 153.373 354.788 152.861 354.788 152.229C354.788 151.596 354.275 151.084 353.643 151.084C353.011 151.084 352.499 151.596 352.499 152.229C352.499 152.861 353.011 153.373 353.643 153.373Z" fill="#F1EFE8"/>
<path d="M378.821 153.373C379.454 153.373 379.966 152.861 379.966 152.229C379.966 151.596 379.454 151.084 378.821 151.084C378.189 151.084 377.677 151.596 377.677 152.229C377.677 152.861 378.189 153.373 378.821 153.373Z" fill="#F1EFE8"/>
<path d="M404 153.373C404.632 153.373 405.144 152.861 405.144 152.229C405.144 151.596 404.632 151.084 404 151.084C403.368 151.084 402.855 151.596 402.855 152.229C402.855 152.861 403.368 153.373 404 153.373Z" fill="#F1EFE8"/>
<path d="M429.178 153.373C429.81 153.373 430.323 152.861 430.323 152.229C430.323 151.596 429.81 151.084 429.178 151.084C428.546 151.084 428.034 151.596 428.034 152.229C428.034 152.861 428.546 153.373 429.178 153.373Z" fill="#F1EFE8"/>
<path d="M454.357 153.373C454.989 153.373 455.501 152.861 455.501 152.229C455.501 151.596 454.989 151.084 454.357 151.084C453.725 151.084 453.212 151.596 453.212 152.229C453.212 152.861 453.725 153.373 454.357 153.373Z" fill="#F1EFE8"/>
<path d="M479.535 153.373C480.167 153.373 480.68 152.861 480.68 152.229C480.68 151.596 480.167 151.084 479.535 151.084C478.903 151.084 478.391 151.596 478.391 152.229C478.391 152.861 478.903 153.373 479.535 153.373Z" fill="#F1EFE8"/>
<path d="M504.714 153.373C505.346 153.373 505.858 152.861 505.858 152.229C505.858 151.596 505.346 151.084 504.714 151.084C504.082 151.084 503.569 151.596 503.569 152.229C503.569 152.861 504.082 153.373 504.714 153.373Z" fill="#F1EFE8"/>
<path d="M529.892 153.373C530.524 153.373 531.037 152.861 531.037 152.229C531.037 151.596 530.524 151.084 529.892 151.084C529.26 151.084 528.748 151.596 528.748 152.229C528.748 152.861 529.26 153.373 529.892 153.373Z" fill="#F1EFE8"/>
<path d="M555.071 153.373C555.703 153.373 556.215 152.861 556.215 152.229C556.215 151.596 555.703 151.084 555.071 151.084C554.439 151.084 553.926 151.596 553.926 152.229C553.926 152.861 554.439 153.373 555.071 153.373Z" fill="#F1EFE8"/>
<path d="M580.249 153.373C580.881 153.373 581.394 152.861 581.394 152.229C581.394 151.596 580.881 151.084 580.249 151.084C579.617 151.084 579.105 151.596 579.105 152.229C579.105 152.861 579.617 153.373 580.249 153.373Z" fill="#F1EFE8"/>
<path d="M605.428 153.373C606.06 153.373 606.572 152.861 606.572 152.229C606.572 151.596 606.06 151.084 605.428 151.084C604.796 151.084 604.283 151.596 604.283 152.229C604.283 152.861 604.796 153.373 605.428 153.373Z" fill="#F1EFE8"/>
<path d="M630.606 153.373C631.238 153.373 631.751 152.861 631.751 152.229C631.751 151.596 631.238 151.084 630.606 151.084C629.974 151.084 629.462 151.596 629.462 152.229C629.462 152.861 629.974 153.373 630.606 153.373Z" fill="#F1EFE8"/>
<path d="M655.785 153.373C656.417 153.373 656.929 152.861 656.929 152.229C656.929 151.596 656.417 151.084 655.785 151.084C655.153 151.084 654.64 151.596 654.64 152.229C654.64 152.861 655.153 153.373 655.785 153.373Z" fill="#F1EFE8"/>
<path d="M680.963 153.373C681.595 153.373 682.108 152.861 682.108 152.229C682.108 151.596 681.595 151.084 680.963 151.084C680.331 151.084 679.819 151.596 679.819 152.229C679.819 152.861 680.331 153.373 680.963 153.373Z" fill="#F1EFE8"/>
<path d="M706.142 153.373C706.774 153.373 707.286 152.861 707.286 152.229C707.286 151.596 706.774 151.084 706.142 151.084C705.509 151.084 704.997 151.596 704.997 152.229C704.997 152.861 705.509 153.373 706.142 153.373Z" fill="#F1EFE8"/>
<path d="M731.32 153.373C731.952 153.373 732.465 152.861 732.465 152.229C732.465 151.596 731.952 151.084 731.32 151.084C730.688 151.084 730.176 151.596 730.176 152.229C730.176 152.861 730.688 153.373 731.32 153.373Z" fill="#F1EFE8"/>
<path d="M756.499 153.373C757.131 153.373 757.643 152.861 757.643 152.229C757.643 151.596 757.131 151.084 756.499 151.084C755.867 151.084 755.354 151.596 755.354 152.229C755.354 152.861 755.867 153.373 756.499 153.373Z" fill="#F1EFE8"/>
<path d="M781.677 153.373C782.309 153.373 782.822 152.861 782.822 152.229C782.822 151.596 782.309 151.084 781.677 151.084C781.045 151.084 780.533 151.596 780.533 152.229C780.533 152.861 781.045 153.373 781.677 153.373Z" fill="#F1EFE8"/>
<path d="M806.855 153.373C807.488 153.373 808 152.861 808 152.229C808 151.596 807.488 151.084 806.855 151.084C806.223 151.084 805.711 151.596 805.711 152.229C805.711 152.861 806.223 153.373 806.855 153.373Z" fill="#F1EFE8"/>
<path d="M1.14448 178.554C1.77655 178.554 2.28895 178.041 2.28895 177.409C2.28895 176.777 1.77655 176.265 1.14448 176.265C0.512399 176.265 0 176.777 0 177.409C0 178.041 0.512399 178.554 1.14448 178.554Z" fill="#F1EFE8"/>
<path d="M26.3229 178.554C26.955 178.554 27.4674 178.041 27.4674 177.409C27.4674 176.777 26.955 176.265 26.3229 176.265C25.6909 176.265 25.1785 176.777 25.1785 177.409C25.1785 178.041 25.6909 178.554 26.3229 178.554Z" fill="#F1EFE8"/>
<path d="M51.5014 178.554C52.1335 178.554 52.6459 178.041 52.6459 177.409C52.6459 176.777 52.1335 176.265 51.5014 176.265C50.8693 176.265 50.3569 176.777 50.3569 177.409C50.3569 178.041 50.8693 178.554 51.5014 178.554Z" fill="#F1EFE8"/>
<path d="M76.6799 178.554C77.312 178.554 77.8244 178.041 77.8244 177.409C77.8244 176.777 77.312 176.265 76.6799 176.265C76.0478 176.265 75.5354 176.777 75.5354 177.409C75.5354 178.041 76.0478 178.554 76.6799 178.554Z" fill="#F1EFE8"/>
<path d="M101.858 178.554C102.49 178.554 103.003 178.041 103.003 177.409C103.003 176.777 102.49 176.265 101.858 176.265C101.226 176.265 100.714 176.777 100.714 177.409C100.714 178.041 101.226 178.554 101.858 178.554Z" fill="#F1EFE8"/>
<path d="M127.037 178.554C127.669 178.554 128.181 178.041 128.181 177.409C128.181 176.777 127.669 176.265 127.037 176.265C126.405 176.265 125.892 176.777 125.892 177.409C125.892 178.041 126.405 178.554 127.037 178.554Z" fill="#F1EFE8"/>
<path d="M152.215 178.554C152.847 178.554 153.36 178.041 153.36 177.409C153.36 176.777 152.847 176.265 152.215 176.265C151.583 176.265 151.071 176.777 151.071 177.409C151.071 178.041 151.583 178.554 152.215 178.554Z" fill="#F1EFE8"/>
<path d="M177.394 178.554C178.026 178.554 178.538 178.041 178.538 177.409C178.538 176.777 178.026 176.265 177.394 176.265C176.762 176.265 176.249 176.777 176.249 177.409C176.249 178.041 176.762 178.554 177.394 178.554Z" fill="#F1EFE8"/>
<path d="M202.572 178.554C203.204 178.554 203.717 178.041 203.717 177.409C203.717 176.777 203.204 176.265 202.572 176.265C201.94 176.265 201.428 176.777 201.428 177.409C201.428 178.041 201.94 178.554 202.572 178.554Z" fill="#F1EFE8"/>
<path d="M227.751 178.554C228.383 178.554 228.895 178.041 228.895 177.409C228.895 176.777 228.383 176.265 227.751 176.265C227.119 176.265 226.606 176.777 226.606 177.409C226.606 178.041 227.119 178.554 227.751 178.554Z" fill="#F1EFE8"/>
<path d="M252.929 178.554C253.561 178.554 254.074 178.041 254.074 177.409C254.074 176.777 253.561 176.265 252.929 176.265C252.297 176.265 251.785 176.777 251.785 177.409C251.785 178.041 252.297 178.554 252.929 178.554Z" fill="#F1EFE8"/>
<path d="M278.108 178.554C278.74 178.554 279.252 178.041 279.252 177.409C279.252 176.777 278.74 176.265 278.108 176.265C277.476 176.265 276.963 176.777 276.963 177.409C276.963 178.041 277.476 178.554 278.108 178.554Z" fill="#F1EFE8"/>
<path d="M303.286 178.554C303.918 178.554 304.431 178.041 304.431 177.409C304.431 176.777 303.918 176.265 303.286 176.265C302.654 176.265 302.142 176.777 302.142 177.409C302.142 178.041 302.654 178.554 303.286 178.554Z" fill="#F1EFE8"/>
<path d="M328.465 178.554C329.097 178.554 329.609 178.041 329.609 177.409C329.609 176.777 329.097 176.265 328.465 176.265C327.832 176.265 327.32 176.777 327.32 177.409C327.32 178.041 327.832 178.554 328.465 178.554Z" fill="#F1EFE8"/>
<path d="M353.643 178.554C354.275 178.554 354.788 178.041 354.788 177.409C354.788 176.777 354.275 176.265 353.643 176.265C353.011 176.265 352.499 176.777 352.499 177.409C352.499 178.041 353.011 178.554 353.643 178.554Z" fill="#F1EFE8"/>
<path d="M378.821 178.554C379.454 178.554 379.966 178.041 379.966 177.409C379.966 176.777 379.454 176.265 378.821 176.265C378.189 176.265 377.677 176.777 377.677 177.409C377.677 178.041 378.189 178.554 378.821 178.554Z" fill="#F1EFE8"/>
<path d="M404 178.554C404.632 178.554 405.144 178.041 405.144 177.409C405.144 176.777 404.632 176.265 404 176.265C403.368 176.265 402.855 176.777 402.855 177.409C402.855 178.041 403.368 178.554 404 178.554Z" fill="#F1EFE8"/>
<path d="M429.178 178.554C429.81 178.554 430.323 178.041 430.323 177.409C430.323 176.777 429.81 176.265 429.178 176.265C428.546 176.265 428.034 176.777 428.034 177.409C428.034 178.041 428.546 178.554 429.178 178.554Z" fill="#F1EFE8"/>
<path d="M454.357 178.554C454.989 178.554 455.501 178.041 455.501 177.409C455.501 176.777 454.989 176.265 454.357 176.265C453.725 176.265 453.212 176.777 453.212 177.409C453.212 178.041 453.725 178.554 454.357 178.554Z" fill="#F1EFE8"/>
<path d="M479.535 178.554C480.167 178.554 480.68 178.041 480.68 177.409C480.68 176.777 480.167 176.265 479.535 176.265C478.903 176.265 478.391 176.777 478.391 177.409C478.391 178.041 478.903 178.554 479.535 178.554Z" fill="#F1EFE8"/>
<path d="M504.714 178.554C505.346 178.554 505.858 178.041 505.858 177.409C505.858 176.777 505.346 176.265 504.714 176.265C504.082 176.265 503.569 176.777 503.569 177.409C503.569 178.041 504.082 178.554 504.714 178.554Z" fill="#F1EFE8"/>
<path d="M529.892 178.554C530.524 178.554 531.037 178.041 531.037 177.409C531.037 176.777 530.524 176.265 529.892 176.265C529.26 176.265 528.748 176.777 528.748 177.409C528.748 178.041 529.26 178.554 529.892 178.554Z" fill="#F1EFE8"/>
<path d="M555.071 178.554C555.703 178.554 556.215 178.041 556.215 177.409C556.215 176.777 555.703 176.265 555.071 176.265C554.439 176.265 553.926 176.777 553.926 177.409C553.926 178.041 554.439 178.554 555.071 178.554Z" fill="#F1EFE8"/>
<path d="M580.249 178.554C580.881 178.554 581.394 178.041 581.394 177.409C581.394 176.777 580.881 176.265 580.249 176.265C579.617 176.265 579.105 176.777 579.105 177.409C579.105 178.041 579.617 178.554 580.249 178.554Z" fill="#F1EFE8"/>
<path d="M605.428 178.554C606.06 178.554 606.572 178.041 606.572 177.409C606.572 176.777 606.06 176.265 605.428 176.265C604.796 176.265 604.283 176.777 604.283 177.409C604.283 178.041 604.796 178.554 605.428 178.554Z" fill="#F1EFE8"/>
<path d="M630.606 178.554C631.238 178.554 631.751 178.041 631.751 177.409C631.751 176.777 631.238 176.265 630.606 176.265C629.974 176.265 629.462 176.777 629.462 177.409C629.462 178.041 629.974 178.554 630.606 178.554Z" fill="#F1EFE8"/>
<path d="M655.785 178.554C656.417 178.554 656.929 178.041 656.929 177.409C656.929 176.777 656.417 176.265 655.785 176.265C655.153 176.265 654.64 176.777 654.64 177.409C654.64 178.041 655.153 178.554 655.785 178.554Z" fill="#F1EFE8"/>
<path d="M680.963 178.554C681.595 178.554 682.108 178.041 682.108 177.409C682.108 176.777 681.595 176.265 680.963 176.265C680.331 176.265 679.819 176.777 679.819 177.409C679.819 178.041 680.331 178.554 680.963 178.554Z" fill="#F1EFE8"/>
<path d="M706.142 178.554C706.774 178.554 707.286 178.041 707.286 177.409C707.286 176.777 706.774 176.265 706.142 176.265C705.509 176.265 704.997 176.777 704.997 177.409C704.997 178.041 705.509 178.554 706.142 178.554Z" fill="#F1EFE8"/>
<path d="M731.32 178.554C731.952 178.554 732.465 178.041 732.465 177.409C732.465 176.777 731.952 176.265 731.32 176.265C730.688 176.265 730.176 176.777 730.176 177.409C730.176 178.041 730.688 178.554 731.32 178.554Z" fill="#F1EFE8"/>
<path d="M756.499 178.554C757.131 178.554 757.643 178.041 757.643 177.409C757.643 176.777 757.131 176.265 756.499 176.265C755.867 176.265 755.354 176.777 755.354 177.409C755.354 178.041 755.867 178.554 756.499 178.554Z" fill="#F1EFE8"/>
<path d="M781.677 178.554C782.309 178.554 782.822 178.041 782.822 177.409C782.822 176.777 782.309 176.265 781.677 176.265C781.045 176.265 780.533 176.777 780.533 177.409C780.533 178.041 781.045 178.554 781.677 178.554Z" fill="#F1EFE8"/>
<path d="M806.855 178.554C807.488 178.554 808 178.041 808 177.409C808 176.777 807.488 176.265 806.855 176.265C806.223 176.265 805.711 176.777 805.711 177.409C805.711 178.041 806.223 178.554 806.855 178.554Z" fill="#F1EFE8"/>
<path d="M1.14448 203.734C1.77655 203.734 2.28895 203.222 2.28895 202.59C2.28895 201.958 1.77655 201.445 1.14448 201.445C0.512399 201.445 0 201.958 0 202.59C0 203.222 0.512399 203.734 1.14448 203.734Z" fill="#F1EFE8"/>
<path d="M26.3229 203.734C26.955 203.734 27.4674 203.222 27.4674 202.59C27.4674 201.958 26.955 201.445 26.3229 201.445C25.6909 201.445 25.1785 201.958 25.1785 202.59C25.1785 203.222 25.6909 203.734 26.3229 203.734Z" fill="#F1EFE8"/>
<path d="M51.5014 203.734C52.1335 203.734 52.6459 203.222 52.6459 202.59C52.6459 201.958 52.1335 201.445 51.5014 201.445C50.8693 201.445 50.3569 201.958 50.3569 202.59C50.3569 203.222 50.8693 203.734 51.5014 203.734Z" fill="#F1EFE8"/>
<path d="M76.6799 203.734C77.312 203.734 77.8244 203.222 77.8244 202.59C77.8244 201.958 77.312 201.445 76.6799 201.445C76.0478 201.445 75.5354 201.958 75.5354 202.59C75.5354 203.222 76.0478 203.734 76.6799 203.734Z" fill="#F1EFE8"/>
<path d="M101.858 203.734C102.49 203.734 103.003 203.222 103.003 202.59C103.003 201.958 102.49 201.445 101.858 201.445C101.226 201.445 100.714 201.958 100.714 202.59C100.714 203.222 101.226 203.734 101.858 203.734Z" fill="#F1EFE8"/>
<path d="M127.037 203.734C127.669 203.734 128.181 203.222 128.181 202.59C128.181 201.958 127.669 201.445 127.037 201.445C126.405 201.445 125.892 201.958 125.892 202.59C125.892 203.222 126.405 203.734 127.037 203.734Z" fill="#F1EFE8"/>
<path d="M152.215 203.734C152.847 203.734 153.36 203.222 153.36 202.59C153.36 201.958 152.847 201.445 152.215 201.445C151.583 201.445 151.071 201.958 151.071 202.59C151.071 203.222 151.583 203.734 152.215 203.734Z" fill="#F1EFE8"/>
<path d="M177.394 203.734C178.026 203.734 178.538 203.222 178.538 202.59C178.538 201.958 178.026 201.445 177.394 201.445C176.762 201.445 176.249 201.958 176.249 202.59C176.249 203.222 176.762 203.734 177.394 203.734Z" fill="#F1EFE8"/>
<path d="M202.572 203.734C203.204 203.734 203.717 203.222 203.717 202.59C203.717 201.958 203.204 201.445 202.572 201.445C201.94 201.445 201.428 201.958 201.428 202.59C201.428 203.222 201.94 203.734 202.572 203.734Z" fill="#F1EFE8"/>
<path d="M227.751 203.734C228.383 203.734 228.895 203.222 228.895 202.59C228.895 201.958 228.383 201.445 227.751 201.445C227.119 201.445 226.606 201.958 226.606 202.59C226.606 203.222 227.119 203.734 227.751 203.734Z" fill="#F1EFE8"/>
<path d="M252.929 203.734C253.561 203.734 254.074 203.222 254.074 202.59C254.074 201.958 253.561 201.445 252.929 201.445C252.297 201.445 251.785 201.958 251.785 202.59C251.785 203.222 252.297 203.734 252.929 203.734Z" fill="#F1EFE8"/>
<path d="M278.108 203.734C278.74 203.734 279.252 203.222 279.252 202.59C279.252 201.958 278.74 201.445 278.108 201.445C277.476 201.445 276.963 201.958 276.963 202.59C276.963 203.222 277.476 203.734 278.108 203.734Z" fill="#F1EFE8"/>
<path d="M303.286 203.734C303.918 203.734 304.431 203.222 304.431 202.59C304.431 201.958 303.918 201.445 303.286 201.445C302.654 201.445 302.142 201.958 302.142 202.59C302.142 203.222 302.654 203.734 303.286 203.734Z" fill="#F1EFE8"/>
<path d="M328.465 203.734C329.097 203.734 329.609 203.222 329.609 202.59C329.609 201.958 329.097 201.445 328.465 201.445C327.832 201.445 327.32 201.958 327.32 202.59C327.32 203.222 327.832 203.734 328.465 203.734Z" fill="#F1EFE8"/>
<path d="M353.643 203.734C354.275 203.734 354.788 203.222 354.788 202.59C354.788 201.958 354.275 201.445 353.643 201.445C353.011 201.445 352.499 201.958 352.499 202.59C352.499 203.222 353.011 203.734 353.643 203.734Z" fill="#F1EFE8"/>
<path d="M378.821 203.734C379.454 203.734 379.966 203.222 379.966 202.59C379.966 201.958 379.454 201.445 378.821 201.445C378.189 201.445 377.677 201.958 377.677 202.59C377.677 203.222 378.189 203.734 378.821 203.734Z" fill="#F1EFE8"/>
<path d="M404 203.734C404.632 203.734 405.144 203.222 405.144 202.59C405.144 201.958 404.632 201.445 404 201.445C403.368 201.445 402.855 201.958 402.855 202.59C402.855 203.222 403.368 203.734 404 203.734Z" fill="#F1EFE8"/>
<path d="M429.178 203.734C429.81 203.734 430.323 203.222 430.323 202.59C430.323 201.958 429.81 201.445 429.178 201.445C428.546 201.445 428.034 201.958 428.034 202.59C428.034 203.222 428.546 203.734 429.178 203.734Z" fill="#F1EFE8"/>
<path d="M454.357 203.734C454.989 203.734 455.501 203.222 455.501 202.59C455.501 201.958 454.989 201.445 454.357 201.445C453.725 201.445 453.212 201.958 453.212 202.59C453.212 203.222 453.725 203.734 454.357 203.734Z" fill="#F1EFE8"/>
<path d="M479.535 203.734C480.167 203.734 480.68 203.222 480.68 202.59C480.68 201.958 480.167 201.445 479.535 201.445C478.903 201.445 478.391 201.958 478.391 202.59C478.391 203.222 478.903 203.734 479.535 203.734Z" fill="#F1EFE8"/>
<path d="M504.714 203.734C505.346 203.734 505.858 203.222 505.858 202.59C505.858 201.958 505.346 201.445 504.714 201.445C504.082 201.445 503.569 201.958 503.569 202.59C503.569 203.222 504.082 203.734 504.714 203.734Z" fill="#F1EFE8"/>
<path d="M529.892 203.734C530.524 203.734 531.037 203.222 531.037 202.59C531.037 201.958 530.524 201.445 529.892 201.445C529.26 201.445 528.748 201.958 528.748 202.59C528.748 203.222 529.26 203.734 529.892 203.734Z" fill="#F1EFE8"/>
<path d="M555.071 203.734C555.703 203.734 556.215 203.222 556.215 202.59C556.215 201.958 555.703 201.445 555.071 201.445C554.439 201.445 553.926 201.958 553.926 202.59C553.926 203.222 554.439 203.734 555.071 203.734Z" fill="#F1EFE8"/>
<path d="M580.249 203.734C580.881 203.734 581.394 203.222 581.394 202.59C581.394 201.958 580.881 201.445 580.249 201.445C579.617 201.445 579.105 201.958 579.105 202.59C579.105 203.222 579.617 203.734 580.249 203.734Z" fill="#F1EFE8"/>
<path d="M605.428 203.734C606.06 203.734 606.572 203.222 606.572 202.59C606.572 201.958 606.06 201.445 605.428 201.445C604.796 201.445 604.283 201.958 604.283 202.59C604.283 203.222 604.796 203.734 605.428 203.734Z" fill="#F1EFE8"/>
<path d="M630.606 203.734C631.238 203.734 631.751 203.222 631.751 202.59C631.751 201.958 631.238 201.445 630.606 201.445C629.974 201.445 629.462 201.958 629.462 202.59C629.462 203.222 629.974 203.734 630.606 203.734Z" fill="#F1EFE8"/>
<path d="M655.785 203.734C656.417 203.734 656.929 203.222 656.929 202.59C656.929 201.958 656.417 201.445 655.785 201.445C655.153 201.445 654.64 201.958 654.64 202.59C654.64 203.222 655.153 203.734 655.785 203.734Z" fill="#F1EFE8"/>
<path d="M680.963 203.734C681.595 203.734 682.108 203.222 682.108 202.59C682.108 201.958 681.595 201.445 680.963 201.445C680.331 201.445 679.819 201.958 679.819 202.59C679.819 203.222 680.331 203.734 680.963 203.734Z" fill="#F1EFE8"/>
<path d="M706.142 203.734C706.774 203.734 707.286 203.222 707.286 202.59C707.286 201.958 706.774 201.445 706.142 201.445C705.509 201.445 704.997 201.958 704.997 202.59C704.997 203.222 705.509 203.734 706.142 203.734Z" fill="#F1EFE8"/>
<path d="M731.32 203.734C731.952 203.734 732.465 203.222 732.465 202.59C732.465 201.958 731.952 201.445 731.32 201.445C730.688 201.445 730.176 201.958 730.176 202.59C730.176 203.222 730.688 203.734 731.32 203.734Z" fill="#F1EFE8"/>
<path d="M756.499 203.734C757.131 203.734 757.643 203.222 757.643 202.59C757.643 201.958 757.131 201.445 756.499 201.445C755.867 201.445 755.354 201.958 755.354 202.59C755.354 203.222 755.867 203.734 756.499 203.734Z" fill="#F1EFE8"/>
<path d="M781.677 203.734C782.309 203.734 782.822 203.222 782.822 202.59C782.822 201.958 782.309 201.445 781.677 201.445C781.045 201.445 780.533 201.958 780.533 202.59C780.533 203.222 781.045 203.734 781.677 203.734Z" fill="#F1EFE8"/>
<path d="M806.855 203.734C807.488 203.734 808 203.222 808 202.59C808 201.958 807.488 201.445 806.855 201.445C806.223 201.445 805.711 201.958 805.711 202.59C805.711 203.222 806.223 203.734 806.855 203.734Z" fill="#F1EFE8"/>
<path d="M1.14448 228.916C1.77655 228.916 2.28895 228.404 2.28895 227.772C2.28895 227.139 1.77655 226.627 1.14448 226.627C0.512399 226.627 0 227.139 0 227.772C0 228.404 0.512399 228.916 1.14448 228.916Z" fill="#F1EFE8"/>
<path d="M26.3229 228.916C26.955 228.916 27.4674 228.404 27.4674 227.772C27.4674 227.139 26.955 226.627 26.3229 226.627C25.6909 226.627 25.1785 227.139 25.1785 227.772C25.1785 228.404 25.6909 228.916 26.3229 228.916Z" fill="#F1EFE8"/>
<path d="M51.5014 228.916C52.1335 228.916 52.6459 228.404 52.6459 227.772C52.6459 227.139 52.1335 226.627 51.5014 226.627C50.8693 226.627 50.3569 227.139 50.3569 227.772C50.3569 228.404 50.8693 228.916 51.5014 228.916Z" fill="#F1EFE8"/>
<path d="M76.6799 228.916C77.312 228.916 77.8244 228.404 77.8244 227.772C77.8244 227.139 77.312 226.627 76.6799 226.627C76.0478 226.627 75.5354 227.139 75.5354 227.772C75.5354 228.404 76.0478 228.916 76.6799 228.916Z" fill="#F1EFE8"/>
<path d="M101.858 228.916C102.49 228.916 103.003 228.404 103.003 227.772C103.003 227.139 102.49 226.627 101.858 226.627C101.226 226.627 100.714 227.139 100.714 227.772C100.714 228.404 101.226 228.916 101.858 228.916Z" fill="#F1EFE8"/>
<path d="M127.037 228.916C127.669 228.916 128.181 228.404 128.181 227.772C128.181 227.139 127.669 226.627 127.037 226.627C126.405 226.627 125.892 227.139 125.892 227.772C125.892 228.404 126.405 228.916 127.037 228.916Z" fill="#F1EFE8"/>
<path d="M152.215 228.916C152.847 228.916 153.36 228.404 153.36 227.772C153.36 227.139 152.847 226.627 152.215 226.627C151.583 226.627 151.071 227.139 151.071 227.772C151.071 228.404 151.583 228.916 152.215 228.916Z" fill="#F1EFE8"/>
<path d="M177.394 228.916C178.026 228.916 178.538 228.404 178.538 227.772C178.538 227.139 178.026 226.627 177.394 226.627C176.762 226.627 176.249 227.139 176.249 227.772C176.249 228.404 176.762 228.916 177.394 228.916Z" fill="#F1EFE8"/>
<path d="M202.572 228.916C203.204 228.916 203.717 228.404 203.717 227.772C203.717 227.139 203.204 226.627 202.572 226.627C201.94 226.627 201.428 227.139 201.428 227.772C201.428 228.404 201.94 228.916 202.572 228.916Z" fill="#F1EFE8"/>
<path d="M227.751 228.916C228.383 228.916 228.895 228.404 228.895 227.772C228.895 227.139 228.383 226.627 227.751 226.627C227.119 226.627 226.606 227.139 226.606 227.772C226.606 228.404 227.119 228.916 227.751 228.916Z" fill="#F1EFE8"/>
<path d="M252.929 228.916C253.561 228.916 254.074 228.404 254.074 227.772C254.074 227.139 253.561 226.627 252.929 226.627C252.297 226.627 251.785 227.139 251.785 227.772C251.785 228.404 252.297 228.916 252.929 228.916Z" fill="#F1EFE8"/>
<path d="M278.108 228.916C278.74 228.916 279.252 228.404 279.252 227.772C279.252 227.139 278.74 226.627 278.108 226.627C277.476 226.627 276.963 227.139 276.963 227.772C276.963 228.404 277.476 228.916 278.108 228.916Z" fill="#F1EFE8"/>
<path d="M303.286 228.916C303.918 228.916 304.431 228.404 304.431 227.772C304.431 227.139 303.918 226.627 303.286 226.627C302.654 226.627 302.142 227.139 302.142 227.772C302.142 228.404 302.654 228.916 303.286 228.916Z" fill="#F1EFE8"/>
<path d="M328.465 228.916C329.097 228.916 329.609 228.404 329.609 227.772C329.609 227.139 329.097 226.627 328.465 226.627C327.832 226.627 327.32 227.139 327.32 227.772C327.32 228.404 327.832 228.916 328.465 228.916Z" fill="#F1EFE8"/>
<path d="M353.643 228.916C354.275 228.916 354.788 228.404 354.788 227.772C354.788 227.139 354.275 226.627 353.643 226.627C353.011 226.627 352.499 227.139 352.499 227.772C352.499 228.404 353.011 228.916 353.643 228.916Z" fill="#F1EFE8"/>
<path d="M378.821 228.916C379.454 228.916 379.966 228.404 379.966 227.772C379.966 227.139 379.454 226.627 378.821 226.627C378.189 226.627 377.677 227.139 377.677 227.772C377.677 228.404 378.189 228.916 378.821 228.916Z" fill="#F1EFE8"/>
<path d="M404 228.916C404.632 228.916 405.144 228.404 405.144 227.772C405.144 227.139 404.632 226.627 404 226.627C403.368 226.627 402.855 227.139 402.855 227.772C402.855 228.404 403.368 228.916 404 228.916Z" fill="#F1EFE8"/>
<path d="M429.178 228.916C429.81 228.916 430.323 228.404 430.323 227.772C430.323 227.139 429.81 226.627 429.178 226.627C428.546 226.627 428.034 227.139 428.034 227.772C428.034 228.404 428.546 228.916 429.178 228.916Z" fill="#F1EFE8"/>
<path d="M454.357 228.916C454.989 228.916 455.501 228.404 455.501 227.772C455.501 227.139 454.989 226.627 454.357 226.627C453.725 226.627 453.212 227.139 453.212 227.772C453.212 228.404 453.725 228.916 454.357 228.916Z" fill="#F1EFE8"/>
<path d="M479.535 228.916C480.167 228.916 480.68 228.404 480.68 227.772C480.68 227.139 480.167 226.627 479.535 226.627C478.903 226.627 478.391 227.139 478.391 227.772C478.391 228.404 478.903 228.916 479.535 228.916Z" fill="#F1EFE8"/>
<path d="M504.714 228.916C505.346 228.916 505.858 228.404 505.858 227.772C505.858 227.139 505.346 226.627 504.714 226.627C504.082 226.627 503.569 227.139 503.569 227.772C503.569 228.404 504.082 228.916 504.714 228.916Z" fill="#F1EFE8"/>
<path d="M529.892 228.916C530.524 228.916 531.037 228.404 531.037 227.772C531.037 227.139 530.524 226.627 529.892 226.627C529.26 226.627 528.748 227.139 528.748 227.772C528.748 228.404 529.26 228.916 529.892 228.916Z" fill="#F1EFE8"/>
<path d="M555.071 228.916C555.703 228.916 556.215 228.404 556.215 227.772C556.215 227.139 555.703 226.627 555.071 226.627C554.439 226.627 553.926 227.139 553.926 227.772C553.926 228.404 554.439 228.916 555.071 228.916Z" fill="#F1EFE8"/>
<path d="M580.249 228.916C580.881 228.916 581.394 228.404 581.394 227.772C581.394 227.139 580.881 226.627 580.249 226.627C579.617 226.627 579.105 227.139 579.105 227.772C579.105 228.404 579.617 228.916 580.249 228.916Z" fill="#F1EFE8"/>
<path d="M605.428 228.916C606.06 228.916 606.572 228.404 606.572 227.772C606.572 227.139 606.06 226.627 605.428 226.627C604.796 226.627 604.283 227.139 604.283 227.772C604.283 228.404 604.796 228.916 605.428 228.916Z" fill="#F1EFE8"/>
<path d="M630.606 228.916C631.238 228.916 631.751 228.404 631.751 227.772C631.751 227.139 631.238 226.627 630.606 226.627C629.974 226.627 629.462 227.139 629.462 227.772C629.462 228.404 629.974 228.916 630.606 228.916Z" fill="#F1EFE8"/>
<path d="M655.785 228.916C656.417 228.916 656.929 228.404 656.929 227.772C656.929 227.139 656.417 226.627 655.785 226.627C655.153 226.627 654.64 227.139 654.64 227.772C654.64 228.404 655.153 228.916 655.785 228.916Z" fill="#F1EFE8"/>
<path d="M680.963 228.916C681.595 228.916 682.108 228.404 682.108 227.772C682.108 227.139 681.595 226.627 680.963 226.627C680.331 226.627 679.819 227.139 679.819 227.772C679.819 228.404 680.331 228.916 680.963 228.916Z" fill="#F1EFE8"/>
<path d="M706.142 228.916C706.774 228.916 707.286 228.404 707.286 227.772C707.286 227.139 706.774 226.627 706.142 226.627C705.509 226.627 704.997 227.139 704.997 227.772C704.997 228.404 705.509 228.916 706.142 228.916Z" fill="#F1EFE8"/>
<path d="M731.32 228.916C731.952 228.916 732.465 228.404 732.465 227.772C732.465 227.139 731.952 226.627 731.32 226.627C730.688 226.627 730.176 227.139 730.176 227.772C730.176 228.404 730.688 228.916 731.32 228.916Z" fill="#F1EFE8"/>
<path d="M756.499 228.916C757.131 228.916 757.643 228.404 757.643 227.772C757.643 227.139 757.131 226.627 756.499 226.627C755.867 226.627 755.354 227.139 755.354 227.772C755.354 228.404 755.867 228.916 756.499 228.916Z" fill="#F1EFE8"/>
<path d="M781.677 228.916C782.309 228.916 782.822 228.404 782.822 227.772C782.822 227.139 782.309 226.627 781.677 226.627C781.045 226.627 780.533 227.139 780.533 227.772C780.533 228.404 781.045 228.916 781.677 228.916Z" fill="#F1EFE8"/>
<path d="M806.855 228.916C807.488 228.916 808 228.404 808 227.772C808 227.139 807.488 226.627 806.855 226.627C806.223 226.627 805.711 227.139 805.711 227.772C805.711 228.404 806.223 228.916 806.855 228.916Z" fill="#F1EFE8"/>
<path d="M1.14448 254.097C1.77655 254.097 2.28895 253.584 2.28895 252.952C2.28895 252.32 1.77655 251.808 1.14448 251.808C0.512399 251.808 0 252.32 0 252.952C0 253.584 0.512399 254.097 1.14448 254.097Z" fill="#F1EFE8"/>
<path d="M26.3229 254.097C26.955 254.097 27.4674 253.584 27.4674 252.952C27.4674 252.32 26.955 251.808 26.3229 251.808C25.6909 251.808 25.1785 252.32 25.1785 252.952C25.1785 253.584 25.6909 254.097 26.3229 254.097Z" fill="#F1EFE8"/>
<path d="M51.5014 254.097C52.1335 254.097 52.6459 253.584 52.6459 252.952C52.6459 252.32 52.1335 251.808 51.5014 251.808C50.8693 251.808 50.3569 252.32 50.3569 252.952C50.3569 253.584 50.8693 254.097 51.5014 254.097Z" fill="#F1EFE8"/>
<path d="M76.6799 254.097C77.312 254.097 77.8244 253.584 77.8244 252.952C77.8244 252.32 77.312 251.808 76.6799 251.808C76.0478 251.808 75.5354 252.32 75.5354 252.952C75.5354 253.584 76.0478 254.097 76.6799 254.097Z" fill="#F1EFE8"/>
<path d="M101.858 254.097C102.49 254.097 103.003 253.584 103.003 252.952C103.003 252.32 102.49 251.808 101.858 251.808C101.226 251.808 100.714 252.32 100.714 252.952C100.714 253.584 101.226 254.097 101.858 254.097Z" fill="#F1EFE8"/>
<path d="M127.037 254.097C127.669 254.097 128.181 253.584 128.181 252.952C128.181 252.32 127.669 251.808 127.037 251.808C126.405 251.808 125.892 252.32 125.892 252.952C125.892 253.584 126.405 254.097 127.037 254.097Z" fill="#F1EFE8"/>
<path d="M152.215 254.097C152.847 254.097 153.36 253.584 153.36 252.952C153.36 252.32 152.847 251.808 152.215 251.808C151.583 251.808 151.071 252.32 151.071 252.952C151.071 253.584 151.583 254.097 152.215 254.097Z" fill="#F1EFE8"/>
<path d="M177.394 254.097C178.026 254.097 178.538 253.584 178.538 252.952C178.538 252.32 178.026 251.808 177.394 251.808C176.762 251.808 176.249 252.32 176.249 252.952C176.249 253.584 176.762 254.097 177.394 254.097Z" fill="#F1EFE8"/>
<path d="M202.572 254.097C203.204 254.097 203.717 253.584 203.717 252.952C203.717 252.32 203.204 251.808 202.572 251.808C201.94 251.808 201.428 252.32 201.428 252.952C201.428 253.584 201.94 254.097 202.572 254.097Z" fill="#F1EFE8"/>
<path d="M227.751 254.097C228.383 254.097 228.895 253.584 228.895 252.952C228.895 252.32 228.383 251.808 227.751 251.808C227.119 251.808 226.606 252.32 226.606 252.952C226.606 253.584 227.119 254.097 227.751 254.097Z" fill="#F1EFE8"/>
<path d="M252.929 254.097C253.561 254.097 254.074 253.584 254.074 252.952C254.074 252.32 253.561 251.808 252.929 251.808C252.297 251.808 251.785 252.32 251.785 252.952C251.785 253.584 252.297 254.097 252.929 254.097Z" fill="#F1EFE8"/>
<path d="M278.108 254.097C278.74 254.097 279.252 253.584 279.252 252.952C279.252 252.32 278.74 251.808 278.108 251.808C277.476 251.808 276.963 252.32 276.963 252.952C276.963 253.584 277.476 254.097 278.108 254.097Z" fill="#F1EFE8"/>
<path d="M303.286 254.097C303.918 254.097 304.431 253.584 304.431 252.952C304.431 252.32 303.918 251.808 303.286 251.808C302.654 251.808 302.142 252.32 302.142 252.952C302.142 253.584 302.654 254.097 303.286 254.097Z" fill="#F1EFE8"/>
<path d="M328.465 254.097C329.097 254.097 329.609 253.584 329.609 252.952C329.609 252.32 329.097 251.808 328.465 251.808C327.832 251.808 327.32 252.32 327.32 252.952C327.32 253.584 327.832 254.097 328.465 254.097Z" fill="#F1EFE8"/>
<path d="M353.643 254.097C354.275 254.097 354.788 253.584 354.788 252.952C354.788 252.32 354.275 251.808 353.643 251.808C353.011 251.808 352.499 252.32 352.499 252.952C352.499 253.584 353.011 254.097 353.643 254.097Z" fill="#F1EFE8"/>
<path d="M378.821 254.097C379.454 254.097 379.966 253.584 379.966 252.952C379.966 252.32 379.454 251.808 378.821 251.808C378.189 251.808 377.677 252.32 377.677 252.952C377.677 253.584 378.189 254.097 378.821 254.097Z" fill="#F1EFE8"/>
<path d="M404 254.097C404.632 254.097 405.144 253.584 405.144 252.952C405.144 252.32 404.632 251.808 404 251.808C403.368 251.808 402.855 252.32 402.855 252.952C402.855 253.584 403.368 254.097 404 254.097Z" fill="#F1EFE8"/>
<path d="M429.178 254.097C429.81 254.097 430.323 253.584 430.323 252.952C430.323 252.32 429.81 251.808 429.178 251.808C428.546 251.808 428.034 252.32 428.034 252.952C428.034 253.584 428.546 254.097 429.178 254.097Z" fill="#F1EFE8"/>
<path d="M454.357 254.097C454.989 254.097 455.501 253.584 455.501 252.952C455.501 252.32 454.989 251.808 454.357 251.808C453.725 251.808 453.212 252.32 453.212 252.952C453.212 253.584 453.725 254.097 454.357 254.097Z" fill="#F1EFE8"/>
<path d="M479.535 254.097C480.167 254.097 480.68 253.584 480.68 252.952C480.68 252.32 480.167 251.808 479.535 251.808C478.903 251.808 478.391 252.32 478.391 252.952C478.391 253.584 478.903 254.097 479.535 254.097Z" fill="#F1EFE8"/>
<path d="M504.714 254.097C505.346 254.097 505.858 253.584 505.858 252.952C505.858 252.32 505.346 251.808 504.714 251.808C504.082 251.808 503.569 252.32 503.569 252.952C503.569 253.584 504.082 254.097 504.714 254.097Z" fill="#F1EFE8"/>
<path d="M529.892 254.097C530.524 254.097 531.037 253.584 531.037 252.952C531.037 252.32 530.524 251.808 529.892 251.808C529.26 251.808 528.748 252.32 528.748 252.952C528.748 253.584 529.26 254.097 529.892 254.097Z" fill="#F1EFE8"/>
<path d="M555.071 254.097C555.703 254.097 556.215 253.584 556.215 252.952C556.215 252.32 555.703 251.808 555.071 251.808C554.439 251.808 553.926 252.32 553.926 252.952C553.926 253.584 554.439 254.097 555.071 254.097Z" fill="#F1EFE8"/>
<path d="M580.249 254.097C580.881 254.097 581.394 253.584 581.394 252.952C581.394 252.32 580.881 251.808 580.249 251.808C579.617 251.808 579.105 252.32 579.105 252.952C579.105 253.584 579.617 254.097 580.249 254.097Z" fill="#F1EFE8"/>
<path d="M605.428 254.097C606.06 254.097 606.572 253.584 606.572 252.952C606.572 252.32 606.06 251.808 605.428 251.808C604.796 251.808 604.283 252.32 604.283 252.952C604.283 253.584 604.796 254.097 605.428 254.097Z" fill="#F1EFE8"/>
<path d="M630.606 254.097C631.238 254.097 631.751 253.584 631.751 252.952C631.751 252.32 631.238 251.808 630.606 251.808C629.974 251.808 629.462 252.32 629.462 252.952C629.462 253.584 629.974 254.097 630.606 254.097Z" fill="#F1EFE8"/>
<path d="M655.785 254.097C656.417 254.097 656.929 253.584 656.929 252.952C656.929 252.32 656.417 251.808 655.785 251.808C655.153 251.808 654.64 252.32 654.64 252.952C654.64 253.584 655.153 254.097 655.785 254.097Z" fill="#F1EFE8"/>
<path d="M680.963 254.097C681.595 254.097 682.108 253.584 682.108 252.952C682.108 252.32 681.595 251.808 680.963 251.808C680.331 251.808 679.819 252.32 679.819 252.952C679.819 253.584 680.331 254.097 680.963 254.097Z" fill="#F1EFE8"/>
<path d="M706.142 254.097C706.774 254.097 707.286 253.584 707.286 252.952C707.286 252.32 706.774 251.808 706.142 251.808C705.509 251.808 704.997 252.32 704.997 252.952C704.997 253.584 705.509 254.097 706.142 254.097Z" fill="#F1EFE8"/>
<path d="M731.32 254.097C731.952 254.097 732.465 253.584 732.465 252.952C732.465 252.32 731.952 251.808 731.32 251.808C730.688 251.808 730.176 252.32 730.176 252.952C730.176 253.584 730.688 254.097 731.32 254.097Z" fill="#F1EFE8"/>
<path d="M756.499 254.097C757.131 254.097 757.643 253.584 757.643 252.952C757.643 252.32 757.131 251.808 756.499 251.808C755.867 251.808 755.354 252.32 755.354 252.952C755.354 253.584 755.867 254.097 756.499 254.097Z" fill="#F1EFE8"/>
<path d="M781.677 254.097C782.309 254.097 782.822 253.584 782.822 252.952C782.822 252.32 782.309 251.808 781.677 251.808C781.045 251.808 780.533 252.32 780.533 252.952C780.533 253.584 781.045 254.097 781.677 254.097Z" fill="#F1EFE8"/>
<path d="M806.855 254.097C807.488 254.097 808 253.584 808 252.952C808 252.32 807.488 251.808 806.855 251.808C806.223 251.808 805.711 252.32 805.711 252.952C805.711 253.584 806.223 254.097 806.855 254.097Z" fill="#F1EFE8"/>
<path d="M1.14448 279.277C1.77655 279.277 2.28895 278.765 2.28895 278.133C2.28895 277.501 1.77655 276.988 1.14448 276.988C0.512399 276.988 0 277.501 0 278.133C0 278.765 0.512399 279.277 1.14448 279.277Z" fill="#F1EFE8"/>
<path d="M26.3229 279.277C26.955 279.277 27.4674 278.765 27.4674 278.133C27.4674 277.501 26.955 276.988 26.3229 276.988C25.6909 276.988 25.1785 277.501 25.1785 278.133C25.1785 278.765 25.6909 279.277 26.3229 279.277Z" fill="#F1EFE8"/>
<path d="M51.5014 279.277C52.1335 279.277 52.6459 278.765 52.6459 278.133C52.6459 277.501 52.1335 276.988 51.5014 276.988C50.8693 276.988 50.3569 277.501 50.3569 278.133C50.3569 278.765 50.8693 279.277 51.5014 279.277Z" fill="#F1EFE8"/>
<path d="M76.6799 279.277C77.312 279.277 77.8244 278.765 77.8244 278.133C77.8244 277.501 77.312 276.988 76.6799 276.988C76.0478 276.988 75.5354 277.501 75.5354 278.133C75.5354 278.765 76.0478 279.277 76.6799 279.277Z" fill="#F1EFE8"/>
<path d="M101.858 279.277C102.49 279.277 103.003 278.765 103.003 278.133C103.003 277.501 102.49 276.988 101.858 276.988C101.226 276.988 100.714 277.501 100.714 278.133C100.714 278.765 101.226 279.277 101.858 279.277Z" fill="#F1EFE8"/>
<path d="M127.037 279.277C127.669 279.277 128.181 278.765 128.181 278.133C128.181 277.501 127.669 276.988 127.037 276.988C126.405 276.988 125.892 277.501 125.892 278.133C125.892 278.765 126.405 279.277 127.037 279.277Z" fill="#F1EFE8"/>
<path d="M152.215 279.277C152.847 279.277 153.36 278.765 153.36 278.133C153.36 277.501 152.847 276.988 152.215 276.988C151.583 276.988 151.071 277.501 151.071 278.133C151.071 278.765 151.583 279.277 152.215 279.277Z" fill="#F1EFE8"/>
<path d="M177.394 279.277C178.026 279.277 178.538 278.765 178.538 278.133C178.538 277.501 178.026 276.988 177.394 276.988C176.762 276.988 176.249 277.501 176.249 278.133C176.249 278.765 176.762 279.277 177.394 279.277Z" fill="#F1EFE8"/>
<path d="M202.572 279.277C203.204 279.277 203.717 278.765 203.717 278.133C203.717 277.501 203.204 276.988 202.572 276.988C201.94 276.988 201.428 277.501 201.428 278.133C201.428 278.765 201.94 279.277 202.572 279.277Z" fill="#F1EFE8"/>
<path d="M227.751 279.277C228.383 279.277 228.895 278.765 228.895 278.133C228.895 277.501 228.383 276.988 227.751 276.988C227.119 276.988 226.606 277.501 226.606 278.133C226.606 278.765 227.119 279.277 227.751 279.277Z" fill="#F1EFE8"/>
<path d="M252.929 279.277C253.561 279.277 254.074 278.765 254.074 278.133C254.074 277.501 253.561 276.988 252.929 276.988C252.297 276.988 251.785 277.501 251.785 278.133C251.785 278.765 252.297 279.277 252.929 279.277Z" fill="#F1EFE8"/>
<path d="M278.108 279.277C278.74 279.277 279.252 278.765 279.252 278.133C279.252 277.501 278.74 276.988 278.108 276.988C277.476 276.988 276.963 277.501 276.963 278.133C276.963 278.765 277.476 279.277 278.108 279.277Z" fill="#F1EFE8"/>
<path d="M303.286 279.277C303.918 279.277 304.431 278.765 304.431 278.133C304.431 277.501 303.918 276.988 303.286 276.988C302.654 276.988 302.142 277.501 302.142 278.133C302.142 278.765 302.654 279.277 303.286 279.277Z" fill="#F1EFE8"/>
<path d="M328.465 279.277C329.097 279.277 329.609 278.765 329.609 278.133C329.609 277.501 329.097 276.988 328.465 276.988C327.832 276.988 327.32 277.501 327.32 278.133C327.32 278.765 327.832 279.277 328.465 279.277Z" fill="#F1EFE8"/>
<path d="M353.643 279.277C354.275 279.277 354.788 278.765 354.788 278.133C354.788 277.501 354.275 276.988 353.643 276.988C353.011 276.988 352.499 277.501 352.499 278.133C352.499 278.765 353.011 279.277 353.643 279.277Z" fill="#F1EFE8"/>
<path d="M378.821 279.277C379.454 279.277 379.966 278.765 379.966 278.133C379.966 277.501 379.454 276.988 378.821 276.988C378.189 276.988 377.677 277.501 377.677 278.133C377.677 278.765 378.189 279.277 378.821 279.277Z" fill="#F1EFE8"/>
<path d="M404 279.277C404.632 279.277 405.144 278.765 405.144 278.133C405.144 277.501 404.632 276.988 404 276.988C403.368 276.988 402.855 277.501 402.855 278.133C402.855 278.765 403.368 279.277 404 279.277Z" fill="#F1EFE8"/>
<path d="M429.178 279.277C429.81 279.277 430.323 278.765 430.323 278.133C430.323 277.501 429.81 276.988 429.178 276.988C428.546 276.988 428.034 277.501 428.034 278.133C428.034 278.765 428.546 279.277 429.178 279.277Z" fill="#F1EFE8"/>
<path d="M454.357 279.277C454.989 279.277 455.501 278.765 455.501 278.133C455.501 277.501 454.989 276.988 454.357 276.988C453.725 276.988 453.212 277.501 453.212 278.133C453.212 278.765 453.725 279.277 454.357 279.277Z" fill="#F1EFE8"/>
<path d="M479.535 279.277C480.167 279.277 480.68 278.765 480.68 278.133C480.68 277.501 480.167 276.988 479.535 276.988C478.903 276.988 478.391 277.501 478.391 278.133C478.391 278.765 478.903 279.277 479.535 279.277Z" fill="#F1EFE8"/>
<path d="M504.714 279.277C505.346 279.277 505.858 278.765 505.858 278.133C505.858 277.501 505.346 276.988 504.714 276.988C504.082 276.988 503.569 277.501 503.569 278.133C503.569 278.765 504.082 279.277 504.714 279.277Z" fill="#F1EFE8"/>
<path d="M529.892 279.277C530.524 279.277 531.037 278.765 531.037 278.133C531.037 277.501 530.524 276.988 529.892 276.988C529.26 276.988 528.748 277.501 528.748 278.133C528.748 278.765 529.26 279.277 529.892 279.277Z" fill="#F1EFE8"/>
<path d="M555.071 279.277C555.703 279.277 556.215 278.765 556.215 278.133C556.215 277.501 555.703 276.988 555.071 276.988C554.439 276.988 553.926 277.501 553.926 278.133C553.926 278.765 554.439 279.277 555.071 279.277Z" fill="#F1EFE8"/>
<path d="M580.249 279.277C580.881 279.277 581.394 278.765 581.394 278.133C581.394 277.501 580.881 276.988 580.249 276.988C579.617 276.988 579.105 277.501 579.105 278.133C579.105 278.765 579.617 279.277 580.249 279.277Z" fill="#F1EFE8"/>
<path d="M605.428 279.277C606.06 279.277 606.572 278.765 606.572 278.133C606.572 277.501 606.06 276.988 605.428 276.988C604.796 276.988 604.283 277.501 604.283 278.133C604.283 278.765 604.796 279.277 605.428 279.277Z" fill="#F1EFE8"/>
<path d="M630.606 279.277C631.238 279.277 631.751 278.765 631.751 278.133C631.751 277.501 631.238 276.988 630.606 276.988C629.974 276.988 629.462 277.501 629.462 278.133C629.462 278.765 629.974 279.277 630.606 279.277Z" fill="#F1EFE8"/>
<path d="M655.785 279.277C656.417 279.277 656.929 278.765 656.929 278.133C656.929 277.501 656.417 276.988 655.785 276.988C655.153 276.988 654.64 277.501 654.64 278.133C654.64 278.765 655.153 279.277 655.785 279.277Z" fill="#F1EFE8"/>
<path d="M680.963 279.277C681.595 279.277 682.108 278.765 682.108 278.133C682.108 277.501 681.595 276.988 680.963 276.988C680.331 276.988 679.819 277.501 679.819 278.133C679.819 278.765 680.331 279.277 680.963 279.277Z" fill="#F1EFE8"/>
<path d="M706.142 279.277C706.774 279.277 707.286 278.765 707.286 278.133C707.286 277.501 706.774 276.988 706.142 276.988C705.509 276.988 704.997 277.501 704.997 278.133C704.997 278.765 705.509 279.277 706.142 279.277Z" fill="#F1EFE8"/>
<path d="M731.32 279.277C731.952 279.277 732.465 278.765 732.465 278.133C732.465 277.501 731.952 276.988 731.32 276.988C730.688 276.988 730.176 277.501 730.176 278.133C730.176 278.765 730.688 279.277 731.32 279.277Z" fill="#F1EFE8"/>
<path d="M756.499 279.277C757.131 279.277 757.643 278.765 757.643 278.133C757.643 277.501 757.131 276.988 756.499 276.988C755.867 276.988 755.354 277.501 755.354 278.133C755.354 278.765 755.867 279.277 756.499 279.277Z" fill="#F1EFE8"/>
<path d="M781.677 279.277C782.309 279.277 782.822 278.765 782.822 278.133C782.822 277.501 782.309 276.988 781.677 276.988C781.045 276.988 780.533 277.501 780.533 278.133C780.533 278.765 781.045 279.277 781.677 279.277Z" fill="#F1EFE8"/>
<path d="M806.855 279.277C807.488 279.277 808 278.765 808 278.133C808 277.501 807.488 276.988 806.855 276.988C806.223 276.988 805.711 277.501 805.711 278.133C805.711 278.765 806.223 279.277 806.855 279.277Z" fill="#F1EFE8"/>
<path d="M1.14448 304.458C1.77655 304.458 2.28895 303.946 2.28895 303.314C2.28895 302.681 1.77655 302.169 1.14448 302.169C0.512399 302.169 0 302.681 0 303.314C0 303.946 0.512399 304.458 1.14448 304.458Z" fill="#F1EFE8"/>
<path d="M26.3229 304.458C26.955 304.458 27.4674 303.946 27.4674 303.314C27.4674 302.681 26.955 302.169 26.3229 302.169C25.6909 302.169 25.1785 302.681 25.1785 303.314C25.1785 303.946 25.6909 304.458 26.3229 304.458Z" fill="#F1EFE8"/>
<path d="M51.5014 304.458C52.1335 304.458 52.6459 303.946 52.6459 303.314C52.6459 302.681 52.1335 302.169 51.5014 302.169C50.8693 302.169 50.3569 302.681 50.3569 303.314C50.3569 303.946 50.8693 304.458 51.5014 304.458Z" fill="#F1EFE8"/>
<path d="M76.6799 304.458C77.312 304.458 77.8244 303.946 77.8244 303.314C77.8244 302.681 77.312 302.169 76.6799 302.169C76.0478 302.169 75.5354 302.681 75.5354 303.314C75.5354 303.946 76.0478 304.458 76.6799 304.458Z" fill="#F1EFE8"/>
<path d="M101.858 304.458C102.49 304.458 103.003 303.946 103.003 303.314C103.003 302.681 102.49 302.169 101.858 302.169C101.226 302.169 100.714 302.681 100.714 303.314C100.714 303.946 101.226 304.458 101.858 304.458Z" fill="#F1EFE8"/>
<path d="M127.037 304.458C127.669 304.458 128.181 303.946 128.181 303.314C128.181 302.681 127.669 302.169 127.037 302.169C126.405 302.169 125.892 302.681 125.892 303.314C125.892 303.946 126.405 304.458 127.037 304.458Z" fill="#F1EFE8"/>
<path d="M152.215 304.458C152.847 304.458 153.36 303.946 153.36 303.314C153.36 302.681 152.847 302.169 152.215 302.169C151.583 302.169 151.071 302.681 151.071 303.314C151.071 303.946 151.583 304.458 152.215 304.458Z" fill="#F1EFE8"/>
<path d="M177.394 304.458C178.026 304.458 178.538 303.946 178.538 303.314C178.538 302.681 178.026 302.169 177.394 302.169C176.762 302.169 176.249 302.681 176.249 303.314C176.249 303.946 176.762 304.458 177.394 304.458Z" fill="#F1EFE8"/>
<path d="M202.572 304.458C203.204 304.458 203.717 303.946 203.717 303.314C203.717 302.681 203.204 302.169 202.572 302.169C201.94 302.169 201.428 302.681 201.428 303.314C201.428 303.946 201.94 304.458 202.572 304.458Z" fill="#F1EFE8"/>
<path d="M227.751 304.458C228.383 304.458 228.895 303.946 228.895 303.314C228.895 302.681 228.383 302.169 227.751 302.169C227.119 302.169 226.606 302.681 226.606 303.314C226.606 303.946 227.119 304.458 227.751 304.458Z" fill="#F1EFE8"/>
<path d="M252.929 304.458C253.561 304.458 254.074 303.946 254.074 303.314C254.074 302.681 253.561 302.169 252.929 302.169C252.297 302.169 251.785 302.681 251.785 303.314C251.785 303.946 252.297 304.458 252.929 304.458Z" fill="#F1EFE8"/>
<path d="M278.108 304.458C278.74 304.458 279.252 303.946 279.252 303.314C279.252 302.681 278.74 302.169 278.108 302.169C277.476 302.169 276.963 302.681 276.963 303.314C276.963 303.946 277.476 304.458 278.108 304.458Z" fill="#F1EFE8"/>
<path d="M303.286 304.458C303.918 304.458 304.431 303.946 304.431 303.314C304.431 302.681 303.918 302.169 303.286 302.169C302.654 302.169 302.142 302.681 302.142 303.314C302.142 303.946 302.654 304.458 303.286 304.458Z" fill="#F1EFE8"/>
<path d="M328.465 304.458C329.097 304.458 329.609 303.946 329.609 303.314C329.609 302.681 329.097 302.169 328.465 302.169C327.832 302.169 327.32 302.681 327.32 303.314C327.32 303.946 327.832 304.458 328.465 304.458Z" fill="#F1EFE8"/>
<path d="M353.643 304.458C354.275 304.458 354.788 303.946 354.788 303.314C354.788 302.681 354.275 302.169 353.643 302.169C353.011 302.169 352.499 302.681 352.499 303.314C352.499 303.946 353.011 304.458 353.643 304.458Z" fill="#F1EFE8"/>
<path d="M378.821 304.458C379.454 304.458 379.966 303.946 379.966 303.314C379.966 302.681 379.454 302.169 378.821 302.169C378.189 302.169 377.677 302.681 377.677 303.314C377.677 303.946 378.189 304.458 378.821 304.458Z" fill="#F1EFE8"/>
<path d="M404 304.458C404.632 304.458 405.144 303.946 405.144 303.314C405.144 302.681 404.632 302.169 404 302.169C403.368 302.169 402.855 302.681 402.855 303.314C402.855 303.946 403.368 304.458 404 304.458Z" fill="#F1EFE8"/>
<path d="M429.178 304.458C429.81 304.458 430.323 303.946 430.323 303.314C430.323 302.681 429.81 302.169 429.178 302.169C428.546 302.169 428.034 302.681 428.034 303.314C428.034 303.946 428.546 304.458 429.178 304.458Z" fill="#F1EFE8"/>
<path d="M454.357 304.458C454.989 304.458 455.501 303.946 455.501 303.314C455.501 302.681 454.989 302.169 454.357 302.169C453.725 302.169 453.212 302.681 453.212 303.314C453.212 303.946 453.725 304.458 454.357 304.458Z" fill="#F1EFE8"/>
<path d="M479.535 304.458C480.167 304.458 480.68 303.946 480.68 303.314C480.68 302.681 480.167 302.169 479.535 302.169C478.903 302.169 478.391 302.681 478.391 303.314C478.391 303.946 478.903 304.458 479.535 304.458Z" fill="#F1EFE8"/>
<path d="M504.714 304.458C505.346 304.458 505.858 303.946 505.858 303.314C505.858 302.681 505.346 302.169 504.714 302.169C504.082 302.169 503.569 302.681 503.569 303.314C503.569 303.946 504.082 304.458 504.714 304.458Z" fill="#F1EFE8"/>
<path d="M529.892 304.458C530.524 304.458 531.037 303.946 531.037 303.314C531.037 302.681 530.524 302.169 529.892 302.169C529.26 302.169 528.748 302.681 528.748 303.314C528.748 303.946 529.26 304.458 529.892 304.458Z" fill="#F1EFE8"/>
<path d="M555.071 304.458C555.703 304.458 556.215 303.946 556.215 303.314C556.215 302.681 555.703 302.169 555.071 302.169C554.439 302.169 553.926 302.681 553.926 303.314C553.926 303.946 554.439 304.458 555.071 304.458Z" fill="#F1EFE8"/>
<path d="M580.249 304.458C580.881 304.458 581.394 303.946 581.394 303.314C581.394 302.681 580.881 302.169 580.249 302.169C579.617 302.169 579.105 302.681 579.105 303.314C579.105 303.946 579.617 304.458 580.249 304.458Z" fill="#F1EFE8"/>
<path d="M605.428 304.458C606.06 304.458 606.572 303.946 606.572 303.314C606.572 302.681 606.06 302.169 605.428 302.169C604.796 302.169 604.283 302.681 604.283 303.314C604.283 303.946 604.796 304.458 605.428 304.458Z" fill="#F1EFE8"/>
<path d="M630.606 304.458C631.238 304.458 631.751 303.946 631.751 303.314C631.751 302.681 631.238 302.169 630.606 302.169C629.974 302.169 629.462 302.681 629.462 303.314C629.462 303.946 629.974 304.458 630.606 304.458Z" fill="#F1EFE8"/>
<path d="M655.785 304.458C656.417 304.458 656.929 303.946 656.929 303.314C656.929 302.681 656.417 302.169 655.785 302.169C655.153 302.169 654.64 302.681 654.64 303.314C654.64 303.946 655.153 304.458 655.785 304.458Z" fill="#F1EFE8"/>
<path d="M680.963 304.458C681.595 304.458 682.108 303.946 682.108 303.314C682.108 302.681 681.595 302.169 680.963 302.169C680.331 302.169 679.819 302.681 679.819 303.314C679.819 303.946 680.331 304.458 680.963 304.458Z" fill="#F1EFE8"/>
<path d="M706.142 304.458C706.774 304.458 707.286 303.946 707.286 303.314C707.286 302.681 706.774 302.169 706.142 302.169C705.509 302.169 704.997 302.681 704.997 303.314C704.997 303.946 705.509 304.458 706.142 304.458Z" fill="#F1EFE8"/>
<path d="M731.32 304.458C731.952 304.458 732.465 303.946 732.465 303.314C732.465 302.681 731.952 302.169 731.32 302.169C730.688 302.169 730.176 302.681 730.176 303.314C730.176 303.946 730.688 304.458 731.32 304.458Z" fill="#F1EFE8"/>
<path d="M756.499 304.458C757.131 304.458 757.643 303.946 757.643 303.314C757.643 302.681 757.131 302.169 756.499 302.169C755.867 302.169 755.354 302.681 755.354 303.314C755.354 303.946 755.867 304.458 756.499 304.458Z" fill="#F1EFE8"/>
<path d="M781.677 304.458C782.309 304.458 782.822 303.946 782.822 303.314C782.822 302.681 782.309 302.169 781.677 302.169C781.045 302.169 780.533 302.681 780.533 303.314C780.533 303.946 781.045 304.458 781.677 304.458Z" fill="#F1EFE8"/>
<path d="M806.855 304.458C807.488 304.458 808 303.946 808 303.314C808 302.681 807.488 302.169 806.855 302.169C806.223 302.169 805.711 302.681 805.711 303.314C805.711 303.946 806.223 304.458 806.855 304.458Z" fill="#F1EFE8"/>
</g>
</svg>
