<svg width="758" height="383" viewBox="0 0 758 383" fill="none" xmlns="http://www.w3.org/2000/svg">
<path fill-rule="evenodd" clip-rule="evenodd" d="M3 4L3 7H4V4L7 4V3L4 3L4 0L3 0L3 3L0 3L0 4L3 4Z" fill="#DCDAD4"/>
<path fill-rule="evenodd" clip-rule="evenodd" d="M3.8 205.2L3.8 208H4.8L4.8 205.2L8 205.2V204.2L4.8 204.2V201H3.8L3.8 204.2L1 204.2L1 205.2L3.8 205.2Z" fill="#DCDAD4"/>
<path fill-rule="evenodd" clip-rule="evenodd" d="M3.8 105.2L3.8 108H4.8L4.8 105.2L8 105.2V104.2L4.8 104.2V101H3.8L3.8 104.2L1 104.2L1 105.2L3.8 105.2Z" fill="#DCDAD4"/>
<path fill-rule="evenodd" clip-rule="evenodd" d="M3.8 305.2L3.8 308H4.8L4.8 305.2L8 305.2V304.2L4.8 304.2V301H3.8L3.8 304.2L1 304.2L1 305.2L3.8 305.2Z" fill="#DCDAD4"/>
<path fill-rule="evenodd" clip-rule="evenodd" d="M3.8 30.2L3.8 33H4.8L4.8 30.2L8 30.2V29.2L4.8 29.2V26H3.8L3.8 29.2L1 29.2L1 30.2L3.8 30.2Z" fill="#DCDAD4"/>
<path fill-rule="evenodd" clip-rule="evenodd" d="M3.8 230.2L3.8 233H4.8L4.8 230.2L8 230.2V229.2L4.8 229.2V226H3.8L3.8 229.2L1 229.2L1 230.2L3.8 230.2Z" fill="#DCDAD4"/>
<path fill-rule="evenodd" clip-rule="evenodd" d="M3.8 130.2L3.8 133H4.8L4.8 130.2L8 130.2V129.2L4.8 129.2V126H3.8L3.8 129.2L1 129.2L1 130.2L3.8 130.2Z" fill="#DCDAD4"/>
<path fill-rule="evenodd" clip-rule="evenodd" d="M3.8 330.2L3.8 333H4.8L4.8 330.2L8 330.2V329.2L4.8 329.2V326H3.8L3.8 329.2L1 329.2L1 330.2L3.8 330.2Z" fill="#DCDAD4"/>
<path fill-rule="evenodd" clip-rule="evenodd" d="M3.8 55.2L3.8 58H4.8L4.8 55.2L8 55.2V54.2L4.8 54.2V51H3.8L3.8 54.2L1 54.2L1 55.2L3.8 55.2Z" fill="#DCDAD4"/>
<path fill-rule="evenodd" clip-rule="evenodd" d="M3.8 255.2L3.8 258H4.8L4.8 255.2L8 255.2V254.2L4.8 254.2V251H3.8L3.8 254.2L1 254.2L1 255.2L3.8 255.2Z" fill="#DCDAD4"/>
<path fill-rule="evenodd" clip-rule="evenodd" d="M3.8 155.2L3.8 158H4.8L4.8 155.2L8 155.2V154.2L4.8 154.2V151H3.8L3.8 154.2L1 154.2L1 155.2L3.8 155.2Z" fill="#DCDAD4"/>
<path fill-rule="evenodd" clip-rule="evenodd" d="M3.8 355.2L3.8 358H4.8L4.8 355.2L8 355.2V354.2L4.8 354.2V351H3.8L3.8 354.2L1 354.2L1 355.2L3.8 355.2Z" fill="#DCDAD4"/>
<path fill-rule="evenodd" clip-rule="evenodd" d="M3.8 80.2L3.8 83H4.8L4.8 80.2L8 80.2V79.2L4.8 79.2V76H3.8L3.8 79.2L1 79.2L1 80.2L3.8 80.2Z" fill="#DCDAD4"/>
<path fill-rule="evenodd" clip-rule="evenodd" d="M3.8 280.2L3.8 283H4.8L4.8 280.2L8 280.2V279.2L4.8 279.2V276H3.8L3.8 279.2L1 279.2L1 280.2L3.8 280.2Z" fill="#DCDAD4"/>
<path fill-rule="evenodd" clip-rule="evenodd" d="M3.8 180.2L3.8 183H4.8L4.8 180.2L8 180.2V179.2L4.8 179.2V176H3.8L3.8 179.2L1 179.2L1 180.2L3.8 180.2Z" fill="#DCDAD4"/>
<path fill-rule="evenodd" clip-rule="evenodd" d="M3.8 380.2L3.8 383H4.8L4.8 380.2L8 380.2V379.2L4.8 379.2V376H3.8L3.8 379.2L1 379.2L1 380.2L3.8 380.2Z" fill="#DCDAD4"/>
<path fill-rule="evenodd" clip-rule="evenodd" d="M403.8 5.2V8H404.8V5.2L408 5.2V4.2L404.8 4.2V1L403.8 1V4.2L401 4.2V5.2L403.8 5.2Z" fill="#DCDAD4"/>
<path fill-rule="evenodd" clip-rule="evenodd" d="M403.8 205.2V208H404.8V205.2L408 205.2V204.2L404.8 204.2V201H403.8V204.2L401 204.2V205.2L403.8 205.2Z" fill="#DCDAD4"/>
<path fill-rule="evenodd" clip-rule="evenodd" d="M403.8 105.2V108H404.8V105.2L408 105.2V104.2L404.8 104.2V101H403.8V104.2L401 104.2V105.2L403.8 105.2Z" fill="#DCDAD4"/>
<path fill-rule="evenodd" clip-rule="evenodd" d="M403.8 305.2V308H404.8V305.2L408 305.2V304.2L404.8 304.2V301H403.8V304.2L401 304.2V305.2L403.8 305.2Z" fill="#DCDAD4"/>
<path fill-rule="evenodd" clip-rule="evenodd" d="M403.8 30.2V33H404.8V30.2L408 30.2V29.2L404.8 29.2V26H403.8V29.2L401 29.2V30.2L403.8 30.2Z" fill="#DCDAD4"/>
<path fill-rule="evenodd" clip-rule="evenodd" d="M403.8 230.2V233H404.8V230.2L408 230.2V229.2L404.8 229.2V226H403.8V229.2L401 229.2V230.2L403.8 230.2Z" fill="#DCDAD4"/>
<path fill-rule="evenodd" clip-rule="evenodd" d="M403.8 130.2V133H404.8V130.2L408 130.2V129.2L404.8 129.2V126H403.8V129.2L401 129.2V130.2L403.8 130.2Z" fill="#DCDAD4"/>
<path fill-rule="evenodd" clip-rule="evenodd" d="M403.8 330.2V333H404.8V330.2L408 330.2V329.2L404.8 329.2V326H403.8V329.2L401 329.2V330.2L403.8 330.2Z" fill="#DCDAD4"/>
<path fill-rule="evenodd" clip-rule="evenodd" d="M403.8 55.2V58H404.8V55.2L408 55.2V54.2L404.8 54.2V51H403.8V54.2L401 54.2V55.2L403.8 55.2Z" fill="#DCDAD4"/>
<path fill-rule="evenodd" clip-rule="evenodd" d="M403.8 255.2V258H404.8V255.2L408 255.2V254.2L404.8 254.2V251H403.8V254.2L401 254.2V255.2L403.8 255.2Z" fill="#DCDAD4"/>
<path fill-rule="evenodd" clip-rule="evenodd" d="M403.8 155.2V158H404.8V155.2L408 155.2V154.2L404.8 154.2V151H403.8V154.2L401 154.2V155.2L403.8 155.2Z" fill="#DCDAD4"/>
<path fill-rule="evenodd" clip-rule="evenodd" d="M403.8 355.2V358H404.8V355.2L408 355.2V354.2L404.8 354.2V351H403.8V354.2L401 354.2V355.2L403.8 355.2Z" fill="#DCDAD4"/>
<path fill-rule="evenodd" clip-rule="evenodd" d="M403.8 80.2V83H404.8V80.2L408 80.2V79.2L404.8 79.2V76H403.8V79.2L401 79.2V80.2L403.8 80.2Z" fill="#DCDAD4"/>
<path fill-rule="evenodd" clip-rule="evenodd" d="M403.8 280.2V283H404.8V280.2L408 280.2V279.2L404.8 279.2V276H403.8V279.2L401 279.2V280.2L403.8 280.2Z" fill="#DCDAD4"/>
<path fill-rule="evenodd" clip-rule="evenodd" d="M403.8 180.2V183H404.8V180.2L408 180.2V179.2L404.8 179.2V176H403.8V179.2L401 179.2V180.2L403.8 180.2Z" fill="#DCDAD4"/>
<path fill-rule="evenodd" clip-rule="evenodd" d="M403.8 380.2V383H404.8V380.2L408 380.2V379.2L404.8 379.2V376H403.8V379.2L401 379.2V380.2L403.8 380.2Z" fill="#DCDAD4"/>
<path fill-rule="evenodd" clip-rule="evenodd" d="M203.8 5.2V8H204.8V5.2L208 5.2V4.2L204.8 4.2V1L203.8 1V4.2L201 4.2V5.2L203.8 5.2Z" fill="#DCDAD4"/>
<path fill-rule="evenodd" clip-rule="evenodd" d="M203.8 205.2V208H204.8V205.2L208 205.2V204.2L204.8 204.2V201H203.8V204.2L201 204.2V205.2L203.8 205.2Z" fill="#DCDAD4"/>
<path fill-rule="evenodd" clip-rule="evenodd" d="M203.8 105.2V108H204.8V105.2L208 105.2V104.2L204.8 104.2V101H203.8V104.2L201 104.2V105.2L203.8 105.2Z" fill="#DCDAD4"/>
<path fill-rule="evenodd" clip-rule="evenodd" d="M203.8 305.2V308H204.8V305.2L208 305.2V304.2L204.8 304.2V301H203.8V304.2L201 304.2V305.2L203.8 305.2Z" fill="#DCDAD4"/>
<path fill-rule="evenodd" clip-rule="evenodd" d="M203.8 30.2V33H204.8V30.2L208 30.2V29.2L204.8 29.2V26H203.8V29.2L201 29.2V30.2L203.8 30.2Z" fill="#DCDAD4"/>
<path fill-rule="evenodd" clip-rule="evenodd" d="M203.8 230.2V233H204.8V230.2L208 230.2V229.2L204.8 229.2V226H203.8V229.2L201 229.2V230.2L203.8 230.2Z" fill="#DCDAD4"/>
<path fill-rule="evenodd" clip-rule="evenodd" d="M203.8 130.2V133H204.8V130.2L208 130.2V129.2L204.8 129.2V126H203.8V129.2L201 129.2V130.2L203.8 130.2Z" fill="#DCDAD4"/>
<path fill-rule="evenodd" clip-rule="evenodd" d="M203.8 330.2V333H204.8V330.2L208 330.2V329.2L204.8 329.2V326H203.8V329.2L201 329.2V330.2L203.8 330.2Z" fill="#DCDAD4"/>
<path fill-rule="evenodd" clip-rule="evenodd" d="M203.8 55.2V58H204.8V55.2L208 55.2V54.2L204.8 54.2V51H203.8V54.2L201 54.2V55.2L203.8 55.2Z" fill="#DCDAD4"/>
<path fill-rule="evenodd" clip-rule="evenodd" d="M203.8 255.2V258H204.8V255.2L208 255.2V254.2L204.8 254.2V251H203.8V254.2L201 254.2V255.2L203.8 255.2Z" fill="#DCDAD4"/>
<path fill-rule="evenodd" clip-rule="evenodd" d="M203.8 155.2V158H204.8V155.2L208 155.2V154.2L204.8 154.2V151H203.8V154.2L201 154.2V155.2L203.8 155.2Z" fill="#DCDAD4"/>
<path fill-rule="evenodd" clip-rule="evenodd" d="M203.8 355.2V358H204.8V355.2L208 355.2V354.2L204.8 354.2V351H203.8V354.2L201 354.2V355.2L203.8 355.2Z" fill="#DCDAD4"/>
<path fill-rule="evenodd" clip-rule="evenodd" d="M203.8 80.2V83H204.8V80.2L208 80.2V79.2L204.8 79.2V76H203.8V79.2L201 79.2V80.2L203.8 80.2Z" fill="#DCDAD4"/>
<path fill-rule="evenodd" clip-rule="evenodd" d="M203.8 280.2V283H204.8V280.2L208 280.2V279.2L204.8 279.2V276H203.8V279.2L201 279.2V280.2L203.8 280.2Z" fill="#DCDAD4"/>
<path fill-rule="evenodd" clip-rule="evenodd" d="M203.8 180.2V183H204.8V180.2L208 180.2V179.2L204.8 179.2V176H203.8V179.2L201 179.2V180.2L203.8 180.2Z" fill="#DCDAD4"/>
<path fill-rule="evenodd" clip-rule="evenodd" d="M203.8 380.2V383H204.8V380.2L208 380.2V379.2L204.8 379.2V376H203.8V379.2L201 379.2V380.2L203.8 380.2Z" fill="#DCDAD4"/>
<path fill-rule="evenodd" clip-rule="evenodd" d="M603.8 5.2V8H604.8V5.2L608 5.2V4.2L604.8 4.2V1L603.8 1V4.2L601 4.2V5.2L603.8 5.2Z" fill="#DCDAD4"/>
<path fill-rule="evenodd" clip-rule="evenodd" d="M603.8 205.2V208H604.8V205.2L608 205.2V204.2L604.8 204.2V201H603.8V204.2L601 204.2V205.2L603.8 205.2Z" fill="#DCDAD4"/>
<path fill-rule="evenodd" clip-rule="evenodd" d="M603.8 105.2V108H604.8V105.2L608 105.2V104.2L604.8 104.2V101H603.8V104.2L601 104.2V105.2L603.8 105.2Z" fill="#DCDAD4"/>
<path fill-rule="evenodd" clip-rule="evenodd" d="M603.8 305.2V308H604.8V305.2L608 305.2V304.2L604.8 304.2V301H603.8V304.2L601 304.2V305.2L603.8 305.2Z" fill="#DCDAD4"/>
<path fill-rule="evenodd" clip-rule="evenodd" d="M603.8 30.2V33H604.8V30.2L608 30.2V29.2L604.8 29.2V26H603.8V29.2L601 29.2V30.2L603.8 30.2Z" fill="#DCDAD4"/>
<path fill-rule="evenodd" clip-rule="evenodd" d="M603.8 230.2V233H604.8V230.2L608 230.2V229.2L604.8 229.2V226H603.8V229.2L601 229.2V230.2L603.8 230.2Z" fill="#DCDAD4"/>
<path fill-rule="evenodd" clip-rule="evenodd" d="M603.8 130.2V133H604.8V130.2L608 130.2V129.2L604.8 129.2V126H603.8V129.2L601 129.2V130.2L603.8 130.2Z" fill="#DCDAD4"/>
<path fill-rule="evenodd" clip-rule="evenodd" d="M603.8 330.2V333H604.8V330.2L608 330.2V329.2L604.8 329.2V326H603.8V329.2L601 329.2V330.2L603.8 330.2Z" fill="#DCDAD4"/>
<path fill-rule="evenodd" clip-rule="evenodd" d="M603.8 55.2V58H604.8V55.2L608 55.2V54.2L604.8 54.2V51H603.8V54.2L601 54.2V55.2L603.8 55.2Z" fill="#DCDAD4"/>
<path fill-rule="evenodd" clip-rule="evenodd" d="M603.8 255.2V258H604.8V255.2L608 255.2V254.2L604.8 254.2V251H603.8V254.2L601 254.2V255.2L603.8 255.2Z" fill="#DCDAD4"/>
<path fill-rule="evenodd" clip-rule="evenodd" d="M603.8 155.2V158H604.8V155.2L608 155.2V154.2L604.8 154.2V151H603.8V154.2L601 154.2V155.2L603.8 155.2Z" fill="#DCDAD4"/>
<path fill-rule="evenodd" clip-rule="evenodd" d="M603.8 355.2V358H604.8V355.2L608 355.2V354.2L604.8 354.2V351H603.8V354.2L601 354.2V355.2L603.8 355.2Z" fill="#DCDAD4"/>
<path fill-rule="evenodd" clip-rule="evenodd" d="M603.8 80.2V83H604.8V80.2L608 80.2V79.2L604.8 79.2V76H603.8V79.2L601 79.2V80.2L603.8 80.2Z" fill="#DCDAD4"/>
<path fill-rule="evenodd" clip-rule="evenodd" d="M603.8 280.2V283H604.8V280.2L608 280.2V279.2L604.8 279.2V276H603.8V279.2L601 279.2V280.2L603.8 280.2Z" fill="#DCDAD4"/>
<path fill-rule="evenodd" clip-rule="evenodd" d="M603.8 180.2V183H604.8V180.2L608 180.2V179.2L604.8 179.2V176H603.8V179.2L601 179.2V180.2L603.8 180.2Z" fill="#DCDAD4"/>
<path fill-rule="evenodd" clip-rule="evenodd" d="M603.8 380.2V383H604.8V380.2L608 380.2V379.2L604.8 379.2V376H603.8V379.2L601 379.2V380.2L603.8 380.2Z" fill="#DCDAD4"/>
<path fill-rule="evenodd" clip-rule="evenodd" d="M103.8 5.2V8H104.8V5.2L108 5.2V4.2L104.8 4.2V1L103.8 1V4.2L101 4.2V5.2L103.8 5.2Z" fill="#DCDAD4"/>
<path fill-rule="evenodd" clip-rule="evenodd" d="M103.8 205.2V208H104.8V205.2L108 205.2V204.2L104.8 204.2V201H103.8V204.2L101 204.2V205.2L103.8 205.2Z" fill="#DCDAD4"/>
<path fill-rule="evenodd" clip-rule="evenodd" d="M103.8 105.2V108H104.8V105.2L108 105.2V104.2L104.8 104.2V101H103.8V104.2L101 104.2V105.2L103.8 105.2Z" fill="#DCDAD4"/>
<path fill-rule="evenodd" clip-rule="evenodd" d="M103.8 305.2V308H104.8V305.2L108 305.2V304.2L104.8 304.2V301H103.8V304.2L101 304.2V305.2L103.8 305.2Z" fill="#DCDAD4"/>
<path fill-rule="evenodd" clip-rule="evenodd" d="M103.8 30.2V33H104.8V30.2L108 30.2V29.2L104.8 29.2V26H103.8V29.2L101 29.2V30.2L103.8 30.2Z" fill="#DCDAD4"/>
<path fill-rule="evenodd" clip-rule="evenodd" d="M103.8 230.2V233H104.8V230.2L108 230.2V229.2L104.8 229.2V226H103.8V229.2L101 229.2V230.2L103.8 230.2Z" fill="#DCDAD4"/>
<path fill-rule="evenodd" clip-rule="evenodd" d="M103.8 130.2V133H104.8V130.2L108 130.2V129.2L104.8 129.2V126H103.8V129.2L101 129.2V130.2L103.8 130.2Z" fill="#DCDAD4"/>
<path fill-rule="evenodd" clip-rule="evenodd" d="M103.8 330.2V333H104.8V330.2L108 330.2V329.2L104.8 329.2V326H103.8V329.2L101 329.2V330.2L103.8 330.2Z" fill="#DCDAD4"/>
<path fill-rule="evenodd" clip-rule="evenodd" d="M103.8 55.2V58H104.8V55.2L108 55.2V54.2L104.8 54.2V51H103.8V54.2L101 54.2V55.2L103.8 55.2Z" fill="#DCDAD4"/>
<path fill-rule="evenodd" clip-rule="evenodd" d="M103.8 255.2V258H104.8V255.2L108 255.2V254.2L104.8 254.2V251H103.8V254.2L101 254.2V255.2L103.8 255.2Z" fill="#DCDAD4"/>
<path fill-rule="evenodd" clip-rule="evenodd" d="M103.8 155.2V158H104.8V155.2L108 155.2V154.2L104.8 154.2V151H103.8V154.2L101 154.2V155.2L103.8 155.2Z" fill="#DCDAD4"/>
<path fill-rule="evenodd" clip-rule="evenodd" d="M103.8 355.2V358H104.8V355.2L108 355.2V354.2L104.8 354.2V351H103.8V354.2L101 354.2V355.2L103.8 355.2Z" fill="#DCDAD4"/>
<path fill-rule="evenodd" clip-rule="evenodd" d="M103.8 80.2V83H104.8V80.2L108 80.2V79.2L104.8 79.2V76H103.8V79.2L101 79.2V80.2L103.8 80.2Z" fill="#DCDAD4"/>
<path fill-rule="evenodd" clip-rule="evenodd" d="M103.8 280.2V283H104.8V280.2L108 280.2V279.2L104.8 279.2V276H103.8V279.2L101 279.2V280.2L103.8 280.2Z" fill="#DCDAD4"/>
<path fill-rule="evenodd" clip-rule="evenodd" d="M103.8 180.2V183H104.8V180.2L108 180.2V179.2L104.8 179.2V176H103.8V179.2L101 179.2V180.2L103.8 180.2Z" fill="#DCDAD4"/>
<path fill-rule="evenodd" clip-rule="evenodd" d="M103.8 380.2V383H104.8V380.2L108 380.2V379.2L104.8 379.2V376H103.8V379.2L101 379.2V380.2L103.8 380.2Z" fill="#DCDAD4"/>
<path fill-rule="evenodd" clip-rule="evenodd" d="M503.8 5.2V8H504.8V5.2L508 5.2V4.2L504.8 4.2V1L503.8 1V4.2L501 4.2V5.2L503.8 5.2Z" fill="#DCDAD4"/>
<path fill-rule="evenodd" clip-rule="evenodd" d="M503.8 205.2V208H504.8V205.2L508 205.2V204.2L504.8 204.2V201H503.8V204.2L501 204.2V205.2L503.8 205.2Z" fill="#DCDAD4"/>
<path fill-rule="evenodd" clip-rule="evenodd" d="M503.8 105.2V108H504.8V105.2L508 105.2V104.2L504.8 104.2V101H503.8V104.2L501 104.2V105.2L503.8 105.2Z" fill="#DCDAD4"/>
<path fill-rule="evenodd" clip-rule="evenodd" d="M503.8 305.2V308H504.8V305.2L508 305.2V304.2L504.8 304.2V301H503.8V304.2L501 304.2V305.2L503.8 305.2Z" fill="#DCDAD4"/>
<path fill-rule="evenodd" clip-rule="evenodd" d="M503.8 30.2V33H504.8V30.2L508 30.2V29.2L504.8 29.2V26H503.8V29.2L501 29.2V30.2L503.8 30.2Z" fill="#DCDAD4"/>
<path fill-rule="evenodd" clip-rule="evenodd" d="M503.8 230.2V233H504.8V230.2L508 230.2V229.2L504.8 229.2V226H503.8V229.2L501 229.2V230.2L503.8 230.2Z" fill="#DCDAD4"/>
<path fill-rule="evenodd" clip-rule="evenodd" d="M503.8 130.2V133H504.8V130.2L508 130.2V129.2L504.8 129.2V126H503.8V129.2L501 129.2V130.2L503.8 130.2Z" fill="#DCDAD4"/>
<path fill-rule="evenodd" clip-rule="evenodd" d="M503.8 330.2V333H504.8V330.2L508 330.2V329.2L504.8 329.2V326H503.8V329.2L501 329.2V330.2L503.8 330.2Z" fill="#DCDAD4"/>
<path fill-rule="evenodd" clip-rule="evenodd" d="M503.8 55.2V58H504.8V55.2L508 55.2V54.2L504.8 54.2V51H503.8V54.2L501 54.2V55.2L503.8 55.2Z" fill="#DCDAD4"/>
<path fill-rule="evenodd" clip-rule="evenodd" d="M503.8 255.2V258H504.8V255.2L508 255.2V254.2L504.8 254.2V251H503.8V254.2L501 254.2V255.2L503.8 255.2Z" fill="#DCDAD4"/>
<path fill-rule="evenodd" clip-rule="evenodd" d="M503.8 155.2V158H504.8V155.2L508 155.2V154.2L504.8 154.2V151H503.8V154.2L501 154.2V155.2L503.8 155.2Z" fill="#DCDAD4"/>
<path fill-rule="evenodd" clip-rule="evenodd" d="M503.8 355.2V358H504.8V355.2L508 355.2V354.2L504.8 354.2V351H503.8V354.2L501 354.2V355.2L503.8 355.2Z" fill="#DCDAD4"/>
<path fill-rule="evenodd" clip-rule="evenodd" d="M503.8 80.2V83H504.8V80.2L508 80.2V79.2L504.8 79.2V76H503.8V79.2L501 79.2V80.2L503.8 80.2Z" fill="#DCDAD4"/>
<path fill-rule="evenodd" clip-rule="evenodd" d="M503.8 280.2V283H504.8V280.2L508 280.2V279.2L504.8 279.2V276H503.8V279.2L501 279.2V280.2L503.8 280.2Z" fill="#DCDAD4"/>
<path fill-rule="evenodd" clip-rule="evenodd" d="M503.8 180.2V183H504.8V180.2L508 180.2V179.2L504.8 179.2V176H503.8V179.2L501 179.2V180.2L503.8 180.2Z" fill="#DCDAD4"/>
<path fill-rule="evenodd" clip-rule="evenodd" d="M503.8 380.2V383H504.8V380.2L508 380.2V379.2L504.8 379.2V376H503.8V379.2L501 379.2V380.2L503.8 380.2Z" fill="#DCDAD4"/>
<path fill-rule="evenodd" clip-rule="evenodd" d="M303.8 5.2V8H304.8V5.2L308 5.2V4.2L304.8 4.2V1L303.8 1V4.2L301 4.2V5.2L303.8 5.2Z" fill="#DCDAD4"/>
<path fill-rule="evenodd" clip-rule="evenodd" d="M303.8 205.2V208H304.8V205.2L308 205.2V204.2L304.8 204.2V201H303.8V204.2L301 204.2V205.2L303.8 205.2Z" fill="#DCDAD4"/>
<path fill-rule="evenodd" clip-rule="evenodd" d="M303.8 105.2V108H304.8V105.2L308 105.2V104.2L304.8 104.2V101H303.8V104.2L301 104.2V105.2L303.8 105.2Z" fill="#DCDAD4"/>
<path fill-rule="evenodd" clip-rule="evenodd" d="M303.8 305.2V308H304.8V305.2L308 305.2V304.2L304.8 304.2V301H303.8V304.2L301 304.2V305.2L303.8 305.2Z" fill="#DCDAD4"/>
<path fill-rule="evenodd" clip-rule="evenodd" d="M303.8 30.2V33H304.8V30.2L308 30.2V29.2L304.8 29.2V26H303.8V29.2L301 29.2V30.2L303.8 30.2Z" fill="#DCDAD4"/>
<path fill-rule="evenodd" clip-rule="evenodd" d="M303.8 230.2V233H304.8V230.2L308 230.2V229.2L304.8 229.2V226H303.8V229.2L301 229.2V230.2L303.8 230.2Z" fill="#DCDAD4"/>
<path fill-rule="evenodd" clip-rule="evenodd" d="M303.8 130.2V133H304.8V130.2L308 130.2V129.2L304.8 129.2V126H303.8V129.2L301 129.2V130.2L303.8 130.2Z" fill="#DCDAD4"/>
<path fill-rule="evenodd" clip-rule="evenodd" d="M303.8 330.2V333H304.8V330.2L308 330.2V329.2L304.8 329.2V326H303.8V329.2L301 329.2V330.2L303.8 330.2Z" fill="#DCDAD4"/>
<path fill-rule="evenodd" clip-rule="evenodd" d="M303.8 55.2V58H304.8V55.2L308 55.2V54.2L304.8 54.2V51H303.8V54.2L301 54.2V55.2L303.8 55.2Z" fill="#DCDAD4"/>
<path fill-rule="evenodd" clip-rule="evenodd" d="M303.8 255.2V258H304.8V255.2L308 255.2V254.2L304.8 254.2V251H303.8V254.2L301 254.2V255.2L303.8 255.2Z" fill="#DCDAD4"/>
<path fill-rule="evenodd" clip-rule="evenodd" d="M303.8 155.2V158H304.8V155.2L308 155.2V154.2L304.8 154.2V151H303.8V154.2L301 154.2V155.2L303.8 155.2Z" fill="#DCDAD4"/>
<path fill-rule="evenodd" clip-rule="evenodd" d="M303.8 355.2V358H304.8V355.2L308 355.2V354.2L304.8 354.2V351H303.8V354.2L301 354.2V355.2L303.8 355.2Z" fill="#DCDAD4"/>
<path fill-rule="evenodd" clip-rule="evenodd" d="M303.8 80.2V83H304.8V80.2L308 80.2V79.2L304.8 79.2V76H303.8V79.2L301 79.2V80.2L303.8 80.2Z" fill="#DCDAD4"/>
<path fill-rule="evenodd" clip-rule="evenodd" d="M303.8 280.2V283H304.8V280.2L308 280.2V279.2L304.8 279.2V276H303.8V279.2L301 279.2V280.2L303.8 280.2Z" fill="#DCDAD4"/>
<path fill-rule="evenodd" clip-rule="evenodd" d="M303.8 180.2V183H304.8V180.2L308 180.2V179.2L304.8 179.2V176H303.8V179.2L301 179.2V180.2L303.8 180.2Z" fill="#DCDAD4"/>
<path fill-rule="evenodd" clip-rule="evenodd" d="M303.8 380.2V383H304.8V380.2L308 380.2V379.2L304.8 379.2V376H303.8V379.2L301 379.2V380.2L303.8 380.2Z" fill="#DCDAD4"/>
<path fill-rule="evenodd" clip-rule="evenodd" d="M703.8 5.2V8H704.8V5.2L708 5.2V4.2L704.8 4.2V1L703.8 1V4.2L701 4.2V5.2L703.8 5.2Z" fill="#DCDAD4"/>
<path fill-rule="evenodd" clip-rule="evenodd" d="M703.8 205.2V208H704.8V205.2L708 205.2V204.2L704.8 204.2V201H703.8V204.2L701 204.2V205.2L703.8 205.2Z" fill="#DCDAD4"/>
<path fill-rule="evenodd" clip-rule="evenodd" d="M703.8 105.2V108H704.8V105.2L708 105.2V104.2L704.8 104.2V101H703.8V104.2L701 104.2V105.2L703.8 105.2Z" fill="#DCDAD4"/>
<path fill-rule="evenodd" clip-rule="evenodd" d="M703.8 305.2V308H704.8V305.2L708 305.2V304.2L704.8 304.2V301H703.8V304.2L701 304.2V305.2L703.8 305.2Z" fill="#DCDAD4"/>
<path fill-rule="evenodd" clip-rule="evenodd" d="M703.8 30.2V33H704.8V30.2L708 30.2V29.2L704.8 29.2V26H703.8V29.2L701 29.2V30.2L703.8 30.2Z" fill="#DCDAD4"/>
<path fill-rule="evenodd" clip-rule="evenodd" d="M703.8 230.2V233H704.8V230.2L708 230.2V229.2L704.8 229.2V226H703.8V229.2L701 229.2V230.2L703.8 230.2Z" fill="#DCDAD4"/>
<path fill-rule="evenodd" clip-rule="evenodd" d="M703.8 130.2V133H704.8V130.2L708 130.2V129.2L704.8 129.2V126H703.8V129.2L701 129.2V130.2L703.8 130.2Z" fill="#DCDAD4"/>
<path fill-rule="evenodd" clip-rule="evenodd" d="M703.8 330.2V333H704.8V330.2L708 330.2V329.2L704.8 329.2V326H703.8V329.2L701 329.2V330.2L703.8 330.2Z" fill="#DCDAD4"/>
<path fill-rule="evenodd" clip-rule="evenodd" d="M703.8 55.2V58H704.8V55.2L708 55.2V54.2L704.8 54.2V51H703.8V54.2L701 54.2V55.2L703.8 55.2Z" fill="#DCDAD4"/>
<path fill-rule="evenodd" clip-rule="evenodd" d="M703.8 255.2V258H704.8V255.2L708 255.2V254.2L704.8 254.2V251H703.8V254.2L701 254.2V255.2L703.8 255.2Z" fill="#DCDAD4"/>
<path fill-rule="evenodd" clip-rule="evenodd" d="M703.8 155.2V158H704.8V155.2L708 155.2V154.2L704.8 154.2V151H703.8V154.2L701 154.2V155.2L703.8 155.2Z" fill="#DCDAD4"/>
<path fill-rule="evenodd" clip-rule="evenodd" d="M703.8 355.2V358H704.8V355.2L708 355.2V354.2L704.8 354.2V351H703.8V354.2L701 354.2V355.2L703.8 355.2Z" fill="#DCDAD4"/>
<path fill-rule="evenodd" clip-rule="evenodd" d="M703.8 80.2V83H704.8V80.2L708 80.2V79.2L704.8 79.2V76H703.8V79.2L701 79.2V80.2L703.8 80.2Z" fill="#DCDAD4"/>
<path fill-rule="evenodd" clip-rule="evenodd" d="M703.8 280.2V283H704.8V280.2L708 280.2V279.2L704.8 279.2V276H703.8V279.2L701 279.2V280.2L703.8 280.2Z" fill="#DCDAD4"/>
<path fill-rule="evenodd" clip-rule="evenodd" d="M703.8 180.2V183H704.8V180.2L708 180.2V179.2L704.8 179.2V176H703.8V179.2L701 179.2V180.2L703.8 180.2Z" fill="#DCDAD4"/>
<path fill-rule="evenodd" clip-rule="evenodd" d="M703.8 380.2V383H704.8V380.2L708 380.2V379.2L704.8 379.2V376H703.8V379.2L701 379.2V380.2L703.8 380.2Z" fill="#DCDAD4"/>
<path fill-rule="evenodd" clip-rule="evenodd" d="M53 4V7H54V4L57 4V3L54 3V0L53 0V3L50 3V4L53 4Z" fill="#DCDAD4"/>
<path fill-rule="evenodd" clip-rule="evenodd" d="M53.8 205.2V208H54.8V205.2L58 205.2V204.2L54.8 204.2V201H53.8V204.2L51 204.2V205.2L53.8 205.2Z" fill="#DCDAD4"/>
<path fill-rule="evenodd" clip-rule="evenodd" d="M53.8 105.2V108H54.8V105.2L58 105.2V104.2L54.8 104.2V101H53.8V104.2L51 104.2V105.2L53.8 105.2Z" fill="#DCDAD4"/>
<path fill-rule="evenodd" clip-rule="evenodd" d="M53.8 305.2V308H54.8V305.2L58 305.2V304.2L54.8 304.2V301H53.8V304.2L51 304.2V305.2L53.8 305.2Z" fill="#DCDAD4"/>
<path fill-rule="evenodd" clip-rule="evenodd" d="M53.8 30.2V33H54.8V30.2L58 30.2V29.2L54.8 29.2V26H53.8V29.2L51 29.2V30.2L53.8 30.2Z" fill="#DCDAD4"/>
<path fill-rule="evenodd" clip-rule="evenodd" d="M53.8 230.2V233H54.8V230.2L58 230.2V229.2L54.8 229.2V226H53.8V229.2L51 229.2V230.2L53.8 230.2Z" fill="#DCDAD4"/>
<path fill-rule="evenodd" clip-rule="evenodd" d="M53.8 130.2V133H54.8V130.2L58 130.2V129.2L54.8 129.2V126H53.8V129.2L51 129.2V130.2L53.8 130.2Z" fill="#DCDAD4"/>
<path fill-rule="evenodd" clip-rule="evenodd" d="M53.8 330.2V333H54.8V330.2L58 330.2V329.2L54.8 329.2V326H53.8V329.2L51 329.2V330.2L53.8 330.2Z" fill="#DCDAD4"/>
<path fill-rule="evenodd" clip-rule="evenodd" d="M53.8 55.2V58H54.8V55.2L58 55.2V54.2L54.8 54.2V51H53.8V54.2L51 54.2V55.2L53.8 55.2Z" fill="#DCDAD4"/>
<path fill-rule="evenodd" clip-rule="evenodd" d="M53.8 255.2V258H54.8V255.2L58 255.2V254.2L54.8 254.2V251H53.8V254.2L51 254.2V255.2L53.8 255.2Z" fill="#DCDAD4"/>
<path fill-rule="evenodd" clip-rule="evenodd" d="M53.8 155.2V158H54.8V155.2L58 155.2V154.2L54.8 154.2V151H53.8V154.2L51 154.2V155.2L53.8 155.2Z" fill="#DCDAD4"/>
<path fill-rule="evenodd" clip-rule="evenodd" d="M53.8 355.2V358H54.8V355.2L58 355.2V354.2L54.8 354.2V351H53.8V354.2L51 354.2V355.2L53.8 355.2Z" fill="#DCDAD4"/>
<path fill-rule="evenodd" clip-rule="evenodd" d="M53.8 80.2V83H54.8V80.2L58 80.2V79.2L54.8 79.2V76H53.8V79.2L51 79.2V80.2L53.8 80.2Z" fill="#DCDAD4"/>
<path fill-rule="evenodd" clip-rule="evenodd" d="M53.8 280.2V283H54.8V280.2L58 280.2V279.2L54.8 279.2V276H53.8V279.2L51 279.2V280.2L53.8 280.2Z" fill="#DCDAD4"/>
<path fill-rule="evenodd" clip-rule="evenodd" d="M53.8 180.2V183H54.8V180.2L58 180.2V179.2L54.8 179.2V176H53.8V179.2L51 179.2V180.2L53.8 180.2Z" fill="#DCDAD4"/>
<path fill-rule="evenodd" clip-rule="evenodd" d="M53.8 380.2V383H54.8V380.2L58 380.2V379.2L54.8 379.2V376H53.8V379.2L51 379.2V380.2L53.8 380.2Z" fill="#DCDAD4"/>
<path fill-rule="evenodd" clip-rule="evenodd" d="M453.8 5.2V8H454.8V5.2L458 5.2V4.2L454.8 4.2V1L453.8 1V4.2L451 4.2V5.2L453.8 5.2Z" fill="#DCDAD4"/>
<path fill-rule="evenodd" clip-rule="evenodd" d="M453.8 205.2V208H454.8V205.2L458 205.2V204.2L454.8 204.2V201H453.8V204.2L451 204.2V205.2L453.8 205.2Z" fill="#DCDAD4"/>
<path fill-rule="evenodd" clip-rule="evenodd" d="M453.8 105.2V108H454.8V105.2L458 105.2V104.2L454.8 104.2V101H453.8V104.2L451 104.2V105.2L453.8 105.2Z" fill="#DCDAD4"/>
<path fill-rule="evenodd" clip-rule="evenodd" d="M453.8 305.2V308H454.8V305.2L458 305.2V304.2L454.8 304.2V301H453.8V304.2L451 304.2V305.2L453.8 305.2Z" fill="#DCDAD4"/>
<path fill-rule="evenodd" clip-rule="evenodd" d="M453.8 30.2V33H454.8V30.2L458 30.2V29.2L454.8 29.2V26H453.8V29.2L451 29.2V30.2L453.8 30.2Z" fill="#DCDAD4"/>
<path fill-rule="evenodd" clip-rule="evenodd" d="M453.8 230.2V233H454.8V230.2L458 230.2V229.2L454.8 229.2V226H453.8V229.2L451 229.2V230.2L453.8 230.2Z" fill="#DCDAD4"/>
<path fill-rule="evenodd" clip-rule="evenodd" d="M453.8 130.2V133H454.8V130.2L458 130.2V129.2L454.8 129.2V126H453.8V129.2L451 129.2V130.2L453.8 130.2Z" fill="#DCDAD4"/>
<path fill-rule="evenodd" clip-rule="evenodd" d="M453.8 330.2V333H454.8V330.2L458 330.2V329.2L454.8 329.2V326H453.8V329.2L451 329.2V330.2L453.8 330.2Z" fill="#DCDAD4"/>
<path fill-rule="evenodd" clip-rule="evenodd" d="M453.8 55.2V58H454.8V55.2L458 55.2V54.2L454.8 54.2V51H453.8V54.2L451 54.2V55.2L453.8 55.2Z" fill="#DCDAD4"/>
<path fill-rule="evenodd" clip-rule="evenodd" d="M453.8 255.2V258H454.8V255.2L458 255.2V254.2L454.8 254.2V251H453.8V254.2L451 254.2V255.2L453.8 255.2Z" fill="#DCDAD4"/>
<path fill-rule="evenodd" clip-rule="evenodd" d="M453.8 155.2V158H454.8V155.2L458 155.2V154.2L454.8 154.2V151H453.8V154.2L451 154.2V155.2L453.8 155.2Z" fill="#DCDAD4"/>
<path fill-rule="evenodd" clip-rule="evenodd" d="M453.8 355.2V358H454.8V355.2L458 355.2V354.2L454.8 354.2V351H453.8V354.2L451 354.2V355.2L453.8 355.2Z" fill="#DCDAD4"/>
<path fill-rule="evenodd" clip-rule="evenodd" d="M453.8 80.2V83H454.8V80.2L458 80.2V79.2L454.8 79.2V76H453.8V79.2L451 79.2V80.2L453.8 80.2Z" fill="#DCDAD4"/>
<path fill-rule="evenodd" clip-rule="evenodd" d="M453.8 280.2V283H454.8V280.2L458 280.2V279.2L454.8 279.2V276H453.8V279.2L451 279.2V280.2L453.8 280.2Z" fill="#DCDAD4"/>
<path fill-rule="evenodd" clip-rule="evenodd" d="M453.8 180.2V183H454.8V180.2L458 180.2V179.2L454.8 179.2V176H453.8V179.2L451 179.2V180.2L453.8 180.2Z" fill="#DCDAD4"/>
<path fill-rule="evenodd" clip-rule="evenodd" d="M453.8 380.2V383H454.8V380.2L458 380.2V379.2L454.8 379.2V376H453.8V379.2L451 379.2V380.2L453.8 380.2Z" fill="#DCDAD4"/>
<path fill-rule="evenodd" clip-rule="evenodd" d="M253.8 5.2V8H254.8V5.2L258 5.2V4.2L254.8 4.2V1L253.8 1V4.2L251 4.2V5.2L253.8 5.2Z" fill="#DCDAD4"/>
<path fill-rule="evenodd" clip-rule="evenodd" d="M253.8 205.2V208H254.8V205.2L258 205.2V204.2L254.8 204.2V201H253.8V204.2L251 204.2V205.2L253.8 205.2Z" fill="#DCDAD4"/>
<path fill-rule="evenodd" clip-rule="evenodd" d="M253.8 105.2V108H254.8V105.2L258 105.2V104.2L254.8 104.2V101H253.8V104.2L251 104.2V105.2L253.8 105.2Z" fill="#DCDAD4"/>
<path fill-rule="evenodd" clip-rule="evenodd" d="M253.8 305.2V308H254.8V305.2L258 305.2V304.2L254.8 304.2V301H253.8V304.2L251 304.2V305.2L253.8 305.2Z" fill="#DCDAD4"/>
<path fill-rule="evenodd" clip-rule="evenodd" d="M253.8 30.2V33H254.8V30.2L258 30.2V29.2L254.8 29.2V26H253.8V29.2L251 29.2V30.2L253.8 30.2Z" fill="#DCDAD4"/>
<path fill-rule="evenodd" clip-rule="evenodd" d="M253.8 230.2V233H254.8V230.2L258 230.2V229.2L254.8 229.2V226H253.8V229.2L251 229.2V230.2L253.8 230.2Z" fill="#DCDAD4"/>
<path fill-rule="evenodd" clip-rule="evenodd" d="M253.8 130.2V133H254.8V130.2L258 130.2V129.2L254.8 129.2V126H253.8V129.2L251 129.2V130.2L253.8 130.2Z" fill="#DCDAD4"/>
<path fill-rule="evenodd" clip-rule="evenodd" d="M253.8 330.2V333H254.8V330.2L258 330.2V329.2L254.8 329.2V326H253.8V329.2L251 329.2V330.2L253.8 330.2Z" fill="#DCDAD4"/>
<path fill-rule="evenodd" clip-rule="evenodd" d="M253.8 55.2V58H254.8V55.2L258 55.2V54.2L254.8 54.2V51H253.8V54.2L251 54.2V55.2L253.8 55.2Z" fill="#DCDAD4"/>
<path fill-rule="evenodd" clip-rule="evenodd" d="M253.8 255.2V258H254.8V255.2L258 255.2V254.2L254.8 254.2V251H253.8V254.2L251 254.2V255.2L253.8 255.2Z" fill="#DCDAD4"/>
<path fill-rule="evenodd" clip-rule="evenodd" d="M253.8 155.2V158H254.8V155.2L258 155.2V154.2L254.8 154.2V151H253.8V154.2L251 154.2V155.2L253.8 155.2Z" fill="#DCDAD4"/>
<path fill-rule="evenodd" clip-rule="evenodd" d="M253.8 355.2V358H254.8V355.2L258 355.2V354.2L254.8 354.2V351H253.8V354.2L251 354.2V355.2L253.8 355.2Z" fill="#DCDAD4"/>
<path fill-rule="evenodd" clip-rule="evenodd" d="M253.8 80.2V83H254.8V80.2L258 80.2V79.2L254.8 79.2V76H253.8V79.2L251 79.2V80.2L253.8 80.2Z" fill="#DCDAD4"/>
<path fill-rule="evenodd" clip-rule="evenodd" d="M253.8 280.2V283H254.8V280.2L258 280.2V279.2L254.8 279.2V276H253.8V279.2L251 279.2V280.2L253.8 280.2Z" fill="#DCDAD4"/>
<path fill-rule="evenodd" clip-rule="evenodd" d="M253.8 180.2V183H254.8V180.2L258 180.2V179.2L254.8 179.2V176H253.8V179.2L251 179.2V180.2L253.8 180.2Z" fill="#DCDAD4"/>
<path fill-rule="evenodd" clip-rule="evenodd" d="M253.8 380.2V383H254.8V380.2L258 380.2V379.2L254.8 379.2V376H253.8V379.2L251 379.2V380.2L253.8 380.2Z" fill="#DCDAD4"/>
<path fill-rule="evenodd" clip-rule="evenodd" d="M653.8 5.2V8H654.8V5.2L658 5.2V4.2L654.8 4.2V1L653.8 1V4.2L651 4.2V5.2L653.8 5.2Z" fill="#DCDAD4"/>
<path fill-rule="evenodd" clip-rule="evenodd" d="M653.8 205.2V208H654.8V205.2L658 205.2V204.2L654.8 204.2V201H653.8V204.2L651 204.2V205.2L653.8 205.2Z" fill="#DCDAD4"/>
<path fill-rule="evenodd" clip-rule="evenodd" d="M653.8 105.2V108H654.8V105.2L658 105.2V104.2L654.8 104.2V101H653.8V104.2L651 104.2V105.2L653.8 105.2Z" fill="#DCDAD4"/>
<path fill-rule="evenodd" clip-rule="evenodd" d="M653.8 305.2V308H654.8V305.2L658 305.2V304.2L654.8 304.2V301H653.8V304.2L651 304.2V305.2L653.8 305.2Z" fill="#DCDAD4"/>
<path fill-rule="evenodd" clip-rule="evenodd" d="M653.8 30.2V33H654.8V30.2L658 30.2V29.2L654.8 29.2V26H653.8V29.2L651 29.2V30.2L653.8 30.2Z" fill="#DCDAD4"/>
<path fill-rule="evenodd" clip-rule="evenodd" d="M653.8 230.2V233H654.8V230.2L658 230.2V229.2L654.8 229.2V226H653.8V229.2L651 229.2V230.2L653.8 230.2Z" fill="#DCDAD4"/>
<path fill-rule="evenodd" clip-rule="evenodd" d="M653.8 130.2V133H654.8V130.2L658 130.2V129.2L654.8 129.2V126H653.8V129.2L651 129.2V130.2L653.8 130.2Z" fill="#DCDAD4"/>
<path fill-rule="evenodd" clip-rule="evenodd" d="M653.8 330.2V333H654.8V330.2L658 330.2V329.2L654.8 329.2V326H653.8V329.2L651 329.2V330.2L653.8 330.2Z" fill="#DCDAD4"/>
<path fill-rule="evenodd" clip-rule="evenodd" d="M653.8 55.2V58H654.8V55.2L658 55.2V54.2L654.8 54.2V51H653.8V54.2L651 54.2V55.2L653.8 55.2Z" fill="#DCDAD4"/>
<path fill-rule="evenodd" clip-rule="evenodd" d="M653.8 255.2V258H654.8V255.2L658 255.2V254.2L654.8 254.2V251H653.8V254.2L651 254.2V255.2L653.8 255.2Z" fill="#DCDAD4"/>
<path fill-rule="evenodd" clip-rule="evenodd" d="M653.8 155.2V158H654.8V155.2L658 155.2V154.2L654.8 154.2V151H653.8V154.2L651 154.2V155.2L653.8 155.2Z" fill="#DCDAD4"/>
<path fill-rule="evenodd" clip-rule="evenodd" d="M653.8 355.2V358H654.8V355.2L658 355.2V354.2L654.8 354.2V351H653.8V354.2L651 354.2V355.2L653.8 355.2Z" fill="#DCDAD4"/>
<path fill-rule="evenodd" clip-rule="evenodd" d="M653.8 80.2V83H654.8V80.2L658 80.2V79.2L654.8 79.2V76H653.8V79.2L651 79.2V80.2L653.8 80.2Z" fill="#DCDAD4"/>
<path fill-rule="evenodd" clip-rule="evenodd" d="M653.8 280.2V283H654.8V280.2L658 280.2V279.2L654.8 279.2V276H653.8V279.2L651 279.2V280.2L653.8 280.2Z" fill="#DCDAD4"/>
<path fill-rule="evenodd" clip-rule="evenodd" d="M653.8 180.2V183H654.8V180.2L658 180.2V179.2L654.8 179.2V176H653.8V179.2L651 179.2V180.2L653.8 180.2Z" fill="#DCDAD4"/>
<path fill-rule="evenodd" clip-rule="evenodd" d="M653.8 380.2V383H654.8V380.2L658 380.2V379.2L654.8 379.2V376H653.8V379.2L651 379.2V380.2L653.8 380.2Z" fill="#DCDAD4"/>
<path fill-rule="evenodd" clip-rule="evenodd" d="M153.8 5.2V8H154.8V5.2L158 5.2V4.2L154.8 4.2V1L153.8 1V4.2L151 4.2V5.2L153.8 5.2Z" fill="#DCDAD4"/>
<path fill-rule="evenodd" clip-rule="evenodd" d="M153.8 205.2V208H154.8V205.2L158 205.2V204.2L154.8 204.2V201H153.8V204.2L151 204.2V205.2L153.8 205.2Z" fill="#DCDAD4"/>
<path fill-rule="evenodd" clip-rule="evenodd" d="M153.8 105.2V108H154.8V105.2L158 105.2V104.2L154.8 104.2V101H153.8V104.2L151 104.2V105.2L153.8 105.2Z" fill="#DCDAD4"/>
<path fill-rule="evenodd" clip-rule="evenodd" d="M153.8 305.2V308H154.8V305.2L158 305.2V304.2L154.8 304.2V301H153.8V304.2L151 304.2V305.2L153.8 305.2Z" fill="#DCDAD4"/>
<path fill-rule="evenodd" clip-rule="evenodd" d="M153.8 30.2V33H154.8V30.2L158 30.2V29.2L154.8 29.2V26H153.8V29.2L151 29.2V30.2L153.8 30.2Z" fill="#DCDAD4"/>
<path fill-rule="evenodd" clip-rule="evenodd" d="M153.8 230.2V233H154.8V230.2L158 230.2V229.2L154.8 229.2V226H153.8V229.2L151 229.2V230.2L153.8 230.2Z" fill="#DCDAD4"/>
<path fill-rule="evenodd" clip-rule="evenodd" d="M153.8 130.2V133H154.8V130.2L158 130.2V129.2L154.8 129.2V126H153.8V129.2L151 129.2V130.2L153.8 130.2Z" fill="#DCDAD4"/>
<path fill-rule="evenodd" clip-rule="evenodd" d="M153.8 330.2V333H154.8V330.2L158 330.2V329.2L154.8 329.2V326H153.8V329.2L151 329.2V330.2L153.8 330.2Z" fill="#DCDAD4"/>
<path fill-rule="evenodd" clip-rule="evenodd" d="M153.8 55.2V58H154.8V55.2L158 55.2V54.2L154.8 54.2V51H153.8V54.2L151 54.2V55.2L153.8 55.2Z" fill="#DCDAD4"/>
<path fill-rule="evenodd" clip-rule="evenodd" d="M153.8 255.2V258H154.8V255.2L158 255.2V254.2L154.8 254.2V251H153.8V254.2L151 254.2V255.2L153.8 255.2Z" fill="#DCDAD4"/>
<path fill-rule="evenodd" clip-rule="evenodd" d="M153.8 155.2V158H154.8V155.2L158 155.2V154.2L154.8 154.2V151H153.8V154.2L151 154.2V155.2L153.8 155.2Z" fill="#DCDAD4"/>
<path fill-rule="evenodd" clip-rule="evenodd" d="M153.8 355.2V358H154.8V355.2L158 355.2V354.2L154.8 354.2V351H153.8V354.2L151 354.2V355.2L153.8 355.2Z" fill="#DCDAD4"/>
<path fill-rule="evenodd" clip-rule="evenodd" d="M153.8 80.2V83H154.8V80.2L158 80.2V79.2L154.8 79.2V76H153.8V79.2L151 79.2V80.2L153.8 80.2Z" fill="#DCDAD4"/>
<path fill-rule="evenodd" clip-rule="evenodd" d="M153.8 280.2V283H154.8V280.2L158 280.2V279.2L154.8 279.2V276H153.8V279.2L151 279.2V280.2L153.8 280.2Z" fill="#DCDAD4"/>
<path fill-rule="evenodd" clip-rule="evenodd" d="M153.8 180.2V183H154.8V180.2L158 180.2V179.2L154.8 179.2V176H153.8V179.2L151 179.2V180.2L153.8 180.2Z" fill="#DCDAD4"/>
<path fill-rule="evenodd" clip-rule="evenodd" d="M153.8 380.2V383H154.8V380.2L158 380.2V379.2L154.8 379.2V376H153.8V379.2L151 379.2V380.2L153.8 380.2Z" fill="#DCDAD4"/>
<path fill-rule="evenodd" clip-rule="evenodd" d="M553.8 5.2V8H554.8V5.2L558 5.2V4.2L554.8 4.2V1L553.8 1V4.2L551 4.2V5.2L553.8 5.2Z" fill="#DCDAD4"/>
<path fill-rule="evenodd" clip-rule="evenodd" d="M553.8 205.2V208H554.8V205.2L558 205.2V204.2L554.8 204.2V201H553.8V204.2L551 204.2V205.2L553.8 205.2Z" fill="#DCDAD4"/>
<path fill-rule="evenodd" clip-rule="evenodd" d="M553.8 105.2V108H554.8V105.2L558 105.2V104.2L554.8 104.2V101H553.8V104.2L551 104.2V105.2L553.8 105.2Z" fill="#DCDAD4"/>
<path fill-rule="evenodd" clip-rule="evenodd" d="M553.8 305.2V308H554.8V305.2L558 305.2V304.2L554.8 304.2V301H553.8V304.2L551 304.2V305.2L553.8 305.2Z" fill="#DCDAD4"/>
<path fill-rule="evenodd" clip-rule="evenodd" d="M553.8 30.2V33H554.8V30.2L558 30.2V29.2L554.8 29.2V26H553.8V29.2L551 29.2V30.2L553.8 30.2Z" fill="#DCDAD4"/>
<path fill-rule="evenodd" clip-rule="evenodd" d="M553.8 230.2V233H554.8V230.2L558 230.2V229.2L554.8 229.2V226H553.8V229.2L551 229.2V230.2L553.8 230.2Z" fill="#DCDAD4"/>
<path fill-rule="evenodd" clip-rule="evenodd" d="M553.8 130.2V133H554.8V130.2L558 130.2V129.2L554.8 129.2V126H553.8V129.2L551 129.2V130.2L553.8 130.2Z" fill="#DCDAD4"/>
<path fill-rule="evenodd" clip-rule="evenodd" d="M553.8 330.2V333H554.8V330.2L558 330.2V329.2L554.8 329.2V326H553.8V329.2L551 329.2V330.2L553.8 330.2Z" fill="#DCDAD4"/>
<path fill-rule="evenodd" clip-rule="evenodd" d="M553.8 55.2V58H554.8V55.2L558 55.2V54.2L554.8 54.2V51H553.8V54.2L551 54.2V55.2L553.8 55.2Z" fill="#DCDAD4"/>
<path fill-rule="evenodd" clip-rule="evenodd" d="M553.8 255.2V258H554.8V255.2L558 255.2V254.2L554.8 254.2V251H553.8V254.2L551 254.2V255.2L553.8 255.2Z" fill="#DCDAD4"/>
<path fill-rule="evenodd" clip-rule="evenodd" d="M553.8 155.2V158H554.8V155.2L558 155.2V154.2L554.8 154.2V151H553.8V154.2L551 154.2V155.2L553.8 155.2Z" fill="#DCDAD4"/>
<path fill-rule="evenodd" clip-rule="evenodd" d="M553.8 355.2V358H554.8V355.2L558 355.2V354.2L554.8 354.2V351H553.8V354.2L551 354.2V355.2L553.8 355.2Z" fill="#DCDAD4"/>
<path fill-rule="evenodd" clip-rule="evenodd" d="M553.8 80.2V83H554.8V80.2L558 80.2V79.2L554.8 79.2V76H553.8V79.2L551 79.2V80.2L553.8 80.2Z" fill="#DCDAD4"/>
<path fill-rule="evenodd" clip-rule="evenodd" d="M553.8 280.2V283H554.8V280.2L558 280.2V279.2L554.8 279.2V276H553.8V279.2L551 279.2V280.2L553.8 280.2Z" fill="#DCDAD4"/>
<path fill-rule="evenodd" clip-rule="evenodd" d="M553.8 180.2V183H554.8V180.2L558 180.2V179.2L554.8 179.2V176H553.8V179.2L551 179.2V180.2L553.8 180.2Z" fill="#DCDAD4"/>
<path fill-rule="evenodd" clip-rule="evenodd" d="M553.8 380.2V383H554.8V380.2L558 380.2V379.2L554.8 379.2V376H553.8V379.2L551 379.2V380.2L553.8 380.2Z" fill="#DCDAD4"/>
<path fill-rule="evenodd" clip-rule="evenodd" d="M353.8 5.2V8H354.8V5.2L358 5.2V4.2L354.8 4.2V1L353.8 1V4.2L351 4.2V5.2L353.8 5.2Z" fill="#DCDAD4"/>
<path fill-rule="evenodd" clip-rule="evenodd" d="M353.8 205.2V208H354.8V205.2L358 205.2V204.2L354.8 204.2V201H353.8V204.2L351 204.2V205.2L353.8 205.2Z" fill="#DCDAD4"/>
<path fill-rule="evenodd" clip-rule="evenodd" d="M353.8 105.2V108H354.8V105.2L358 105.2V104.2L354.8 104.2V101H353.8V104.2L351 104.2V105.2L353.8 105.2Z" fill="#DCDAD4"/>
<path fill-rule="evenodd" clip-rule="evenodd" d="M353.8 305.2V308H354.8V305.2L358 305.2V304.2L354.8 304.2V301H353.8V304.2L351 304.2V305.2L353.8 305.2Z" fill="#DCDAD4"/>
<path fill-rule="evenodd" clip-rule="evenodd" d="M353.8 30.2V33H354.8V30.2L358 30.2V29.2L354.8 29.2V26H353.8V29.2L351 29.2V30.2L353.8 30.2Z" fill="#DCDAD4"/>
<path fill-rule="evenodd" clip-rule="evenodd" d="M353.8 230.2V233H354.8V230.2L358 230.2V229.2L354.8 229.2V226H353.8V229.2L351 229.2V230.2L353.8 230.2Z" fill="#DCDAD4"/>
<path fill-rule="evenodd" clip-rule="evenodd" d="M353.8 130.2V133H354.8V130.2L358 130.2V129.2L354.8 129.2V126H353.8V129.2L351 129.2V130.2L353.8 130.2Z" fill="#DCDAD4"/>
<path fill-rule="evenodd" clip-rule="evenodd" d="M353.8 330.2V333H354.8V330.2L358 330.2V329.2L354.8 329.2V326H353.8V329.2L351 329.2V330.2L353.8 330.2Z" fill="#DCDAD4"/>
<path fill-rule="evenodd" clip-rule="evenodd" d="M353.8 55.2V58H354.8V55.2L358 55.2V54.2L354.8 54.2V51H353.8V54.2L351 54.2V55.2L353.8 55.2Z" fill="#DCDAD4"/>
<path fill-rule="evenodd" clip-rule="evenodd" d="M353.8 255.2V258H354.8V255.2L358 255.2V254.2L354.8 254.2V251H353.8V254.2L351 254.2V255.2L353.8 255.2Z" fill="#DCDAD4"/>
<path fill-rule="evenodd" clip-rule="evenodd" d="M353.8 155.2V158H354.8V155.2L358 155.2V154.2L354.8 154.2V151H353.8V154.2L351 154.2V155.2L353.8 155.2Z" fill="#DCDAD4"/>
<path fill-rule="evenodd" clip-rule="evenodd" d="M353.8 355.2V358H354.8V355.2L358 355.2V354.2L354.8 354.2V351H353.8V354.2L351 354.2V355.2L353.8 355.2Z" fill="#DCDAD4"/>
<path fill-rule="evenodd" clip-rule="evenodd" d="M353.8 80.2V83H354.8V80.2L358 80.2V79.2L354.8 79.2V76H353.8V79.2L351 79.2V80.2L353.8 80.2Z" fill="#DCDAD4"/>
<path fill-rule="evenodd" clip-rule="evenodd" d="M353.8 280.2V283H354.8V280.2L358 280.2V279.2L354.8 279.2V276H353.8V279.2L351 279.2V280.2L353.8 280.2Z" fill="#DCDAD4"/>
<path fill-rule="evenodd" clip-rule="evenodd" d="M353.8 180.2V183H354.8V180.2L358 180.2V179.2L354.8 179.2V176H353.8V179.2L351 179.2V180.2L353.8 180.2Z" fill="#DCDAD4"/>
<path fill-rule="evenodd" clip-rule="evenodd" d="M353.8 380.2V383H354.8V380.2L358 380.2V379.2L354.8 379.2V376H353.8V379.2L351 379.2V380.2L353.8 380.2Z" fill="#DCDAD4"/>
<path fill-rule="evenodd" clip-rule="evenodd" d="M753.8 5.2V8H754.8V5.2L758 5.2V4.2L754.8 4.2V1L753.8 1V4.2L751 4.2V5.2L753.8 5.2Z" fill="#DCDAD4"/>
<path fill-rule="evenodd" clip-rule="evenodd" d="M753.8 205.2V208H754.8V205.2L758 205.2V204.2L754.8 204.2V201H753.8V204.2L751 204.2V205.2L753.8 205.2Z" fill="#DCDAD4"/>
<path fill-rule="evenodd" clip-rule="evenodd" d="M753.8 105.2V108H754.8V105.2L758 105.2V104.2L754.8 104.2V101H753.8V104.2L751 104.2V105.2L753.8 105.2Z" fill="#DCDAD4"/>
<path fill-rule="evenodd" clip-rule="evenodd" d="M753.8 305.2V308H754.8V305.2L758 305.2V304.2L754.8 304.2V301H753.8V304.2L751 304.2V305.2L753.8 305.2Z" fill="#DCDAD4"/>
<path fill-rule="evenodd" clip-rule="evenodd" d="M753.8 30.2V33H754.8V30.2L758 30.2V29.2L754.8 29.2V26H753.8V29.2L751 29.2V30.2L753.8 30.2Z" fill="#DCDAD4"/>
<path fill-rule="evenodd" clip-rule="evenodd" d="M753.8 230.2V233H754.8V230.2L758 230.2V229.2L754.8 229.2V226H753.8V229.2L751 229.2V230.2L753.8 230.2Z" fill="#DCDAD4"/>
<path fill-rule="evenodd" clip-rule="evenodd" d="M753.8 130.2V133H754.8V130.2L758 130.2V129.2L754.8 129.2V126H753.8V129.2L751 129.2V130.2L753.8 130.2Z" fill="#DCDAD4"/>
<path fill-rule="evenodd" clip-rule="evenodd" d="M753.8 330.2V333H754.8V330.2L758 330.2V329.2L754.8 329.2V326H753.8V329.2L751 329.2V330.2L753.8 330.2Z" fill="#DCDAD4"/>
<path fill-rule="evenodd" clip-rule="evenodd" d="M753.8 55.2V58H754.8V55.2L758 55.2V54.2L754.8 54.2V51H753.8V54.2L751 54.2V55.2L753.8 55.2Z" fill="#DCDAD4"/>
<path fill-rule="evenodd" clip-rule="evenodd" d="M753.8 255.2V258H754.8V255.2L758 255.2V254.2L754.8 254.2V251H753.8V254.2L751 254.2V255.2L753.8 255.2Z" fill="#DCDAD4"/>
<path fill-rule="evenodd" clip-rule="evenodd" d="M753.8 155.2V158H754.8V155.2L758 155.2V154.2L754.8 154.2V151H753.8V154.2L751 154.2V155.2L753.8 155.2Z" fill="#DCDAD4"/>
<path fill-rule="evenodd" clip-rule="evenodd" d="M753.8 355.2V358H754.8V355.2L758 355.2V354.2L754.8 354.2V351H753.8V354.2L751 354.2V355.2L753.8 355.2Z" fill="#DCDAD4"/>
<path fill-rule="evenodd" clip-rule="evenodd" d="M753.8 80.2V83H754.8V80.2L758 80.2V79.2L754.8 79.2V76H753.8V79.2L751 79.2V80.2L753.8 80.2Z" fill="#DCDAD4"/>
<path fill-rule="evenodd" clip-rule="evenodd" d="M753.8 280.2V283H754.8V280.2L758 280.2V279.2L754.8 279.2V276H753.8V279.2L751 279.2V280.2L753.8 280.2Z" fill="#DCDAD4"/>
<path fill-rule="evenodd" clip-rule="evenodd" d="M753.8 180.2V183H754.8V180.2L758 180.2V179.2L754.8 179.2V176H753.8V179.2L751 179.2V180.2L753.8 180.2Z" fill="#DCDAD4"/>
<path fill-rule="evenodd" clip-rule="evenodd" d="M753.8 380.2V383H754.8V380.2L758 380.2V379.2L754.8 379.2V376H753.8V379.2L751 379.2V380.2L753.8 380.2Z" fill="#DCDAD4"/>
<path fill-rule="evenodd" clip-rule="evenodd" d="M28 4V7H29V4L32 4V3L29 3V0L28 0V3L25 3V4L28 4Z" fill="#DCDAD4"/>
<path fill-rule="evenodd" clip-rule="evenodd" d="M28.8 205.2V208H29.8V205.2L33 205.2V204.2L29.8 204.2V201H28.8V204.2L26 204.2V205.2L28.8 205.2Z" fill="#DCDAD4"/>
<path fill-rule="evenodd" clip-rule="evenodd" d="M28.8 105.2V108H29.8V105.2L33 105.2V104.2L29.8 104.2V101H28.8V104.2L26 104.2V105.2L28.8 105.2Z" fill="#DCDAD4"/>
<path fill-rule="evenodd" clip-rule="evenodd" d="M28.8 305.2V308H29.8V305.2L33 305.2V304.2L29.8 304.2V301H28.8V304.2L26 304.2V305.2L28.8 305.2Z" fill="#DCDAD4"/>
<path fill-rule="evenodd" clip-rule="evenodd" d="M28.8 30.2V33H29.8V30.2L33 30.2V29.2L29.8 29.2V26H28.8V29.2L26 29.2V30.2L28.8 30.2Z" fill="#DCDAD4"/>
<path fill-rule="evenodd" clip-rule="evenodd" d="M28.8 230.2V233H29.8V230.2L33 230.2V229.2L29.8 229.2V226H28.8V229.2L26 229.2V230.2L28.8 230.2Z" fill="#DCDAD4"/>
<path fill-rule="evenodd" clip-rule="evenodd" d="M28.8 130.2V133H29.8V130.2L33 130.2V129.2L29.8 129.2V126H28.8V129.2L26 129.2V130.2L28.8 130.2Z" fill="#DCDAD4"/>
<path fill-rule="evenodd" clip-rule="evenodd" d="M28.8 330.2V333H29.8V330.2L33 330.2V329.2L29.8 329.2V326H28.8V329.2L26 329.2V330.2L28.8 330.2Z" fill="#DCDAD4"/>
<path fill-rule="evenodd" clip-rule="evenodd" d="M28.8 55.2V58H29.8V55.2L33 55.2V54.2L29.8 54.2V51H28.8V54.2L26 54.2V55.2L28.8 55.2Z" fill="#DCDAD4"/>
<path fill-rule="evenodd" clip-rule="evenodd" d="M28.8 255.2V258H29.8V255.2L33 255.2V254.2L29.8 254.2V251H28.8V254.2L26 254.2V255.2L28.8 255.2Z" fill="#DCDAD4"/>
<path fill-rule="evenodd" clip-rule="evenodd" d="M28.8 155.2V158H29.8V155.2L33 155.2V154.2L29.8 154.2V151H28.8V154.2L26 154.2V155.2L28.8 155.2Z" fill="#DCDAD4"/>
<path fill-rule="evenodd" clip-rule="evenodd" d="M28.8 355.2V358H29.8V355.2L33 355.2V354.2L29.8 354.2V351H28.8V354.2L26 354.2V355.2L28.8 355.2Z" fill="#DCDAD4"/>
<path fill-rule="evenodd" clip-rule="evenodd" d="M28.8 80.2V83H29.8V80.2L33 80.2V79.2L29.8 79.2V76H28.8V79.2L26 79.2V80.2L28.8 80.2Z" fill="#DCDAD4"/>
<path fill-rule="evenodd" clip-rule="evenodd" d="M28.8 280.2V283H29.8V280.2L33 280.2V279.2L29.8 279.2V276H28.8V279.2L26 279.2V280.2L28.8 280.2Z" fill="#DCDAD4"/>
<path fill-rule="evenodd" clip-rule="evenodd" d="M28.8 180.2V183H29.8V180.2L33 180.2V179.2L29.8 179.2V176H28.8V179.2L26 179.2V180.2L28.8 180.2Z" fill="#DCDAD4"/>
<path fill-rule="evenodd" clip-rule="evenodd" d="M28.8 380.2V383H29.8V380.2L33 380.2V379.2L29.8 379.2V376H28.8V379.2L26 379.2V380.2L28.8 380.2Z" fill="#DCDAD4"/>
<path fill-rule="evenodd" clip-rule="evenodd" d="M428.8 5.2V8H429.8V5.2L433 5.2V4.2L429.8 4.2V1L428.8 1V4.2L426 4.2V5.2L428.8 5.2Z" fill="#DCDAD4"/>
<path fill-rule="evenodd" clip-rule="evenodd" d="M428.8 205.2V208H429.8V205.2L433 205.2V204.2L429.8 204.2V201H428.8V204.2L426 204.2V205.2L428.8 205.2Z" fill="#DCDAD4"/>
<path fill-rule="evenodd" clip-rule="evenodd" d="M428.8 105.2V108H429.8V105.2L433 105.2V104.2L429.8 104.2V101H428.8V104.2L426 104.2V105.2L428.8 105.2Z" fill="#DCDAD4"/>
<path fill-rule="evenodd" clip-rule="evenodd" d="M428.8 305.2V308H429.8V305.2L433 305.2V304.2L429.8 304.2V301H428.8V304.2L426 304.2V305.2L428.8 305.2Z" fill="#DCDAD4"/>
<path fill-rule="evenodd" clip-rule="evenodd" d="M428.8 30.2V33H429.8V30.2L433 30.2V29.2L429.8 29.2V26H428.8V29.2L426 29.2V30.2L428.8 30.2Z" fill="#DCDAD4"/>
<path fill-rule="evenodd" clip-rule="evenodd" d="M428.8 230.2V233H429.8V230.2L433 230.2V229.2L429.8 229.2V226H428.8V229.2L426 229.2V230.2L428.8 230.2Z" fill="#DCDAD4"/>
<path fill-rule="evenodd" clip-rule="evenodd" d="M428.8 130.2V133H429.8V130.2L433 130.2V129.2L429.8 129.2V126H428.8V129.2L426 129.2V130.2L428.8 130.2Z" fill="#DCDAD4"/>
<path fill-rule="evenodd" clip-rule="evenodd" d="M428.8 330.2V333H429.8V330.2L433 330.2V329.2L429.8 329.2V326H428.8V329.2L426 329.2V330.2L428.8 330.2Z" fill="#DCDAD4"/>
<path fill-rule="evenodd" clip-rule="evenodd" d="M428.8 55.2V58H429.8V55.2L433 55.2V54.2L429.8 54.2V51H428.8V54.2L426 54.2V55.2L428.8 55.2Z" fill="#DCDAD4"/>
<path fill-rule="evenodd" clip-rule="evenodd" d="M428.8 255.2V258H429.8V255.2L433 255.2V254.2L429.8 254.2V251H428.8V254.2L426 254.2V255.2L428.8 255.2Z" fill="#DCDAD4"/>
<path fill-rule="evenodd" clip-rule="evenodd" d="M428.8 155.2V158H429.8V155.2L433 155.2V154.2L429.8 154.2V151H428.8V154.2L426 154.2V155.2L428.8 155.2Z" fill="#DCDAD4"/>
<path fill-rule="evenodd" clip-rule="evenodd" d="M428.8 355.2V358H429.8V355.2L433 355.2V354.2L429.8 354.2V351H428.8V354.2L426 354.2V355.2L428.8 355.2Z" fill="#DCDAD4"/>
<path fill-rule="evenodd" clip-rule="evenodd" d="M428.8 80.2V83H429.8V80.2L433 80.2V79.2L429.8 79.2V76H428.8V79.2L426 79.2V80.2L428.8 80.2Z" fill="#DCDAD4"/>
<path fill-rule="evenodd" clip-rule="evenodd" d="M428.8 280.2V283H429.8V280.2L433 280.2V279.2L429.8 279.2V276H428.8V279.2L426 279.2V280.2L428.8 280.2Z" fill="#DCDAD4"/>
<path fill-rule="evenodd" clip-rule="evenodd" d="M428.8 180.2V183H429.8V180.2L433 180.2V179.2L429.8 179.2V176H428.8V179.2L426 179.2V180.2L428.8 180.2Z" fill="#DCDAD4"/>
<path fill-rule="evenodd" clip-rule="evenodd" d="M428.8 380.2V383H429.8V380.2L433 380.2V379.2L429.8 379.2V376H428.8V379.2L426 379.2V380.2L428.8 380.2Z" fill="#DCDAD4"/>
<path fill-rule="evenodd" clip-rule="evenodd" d="M228.8 5.2V8H229.8V5.2L233 5.2V4.2L229.8 4.2V1L228.8 1V4.2L226 4.2V5.2L228.8 5.2Z" fill="#DCDAD4"/>
<path fill-rule="evenodd" clip-rule="evenodd" d="M228.8 205.2V208H229.8V205.2L233 205.2V204.2L229.8 204.2V201H228.8V204.2L226 204.2V205.2L228.8 205.2Z" fill="#DCDAD4"/>
<path fill-rule="evenodd" clip-rule="evenodd" d="M228.8 105.2V108H229.8V105.2L233 105.2V104.2L229.8 104.2V101H228.8V104.2L226 104.2V105.2L228.8 105.2Z" fill="#DCDAD4"/>
<path fill-rule="evenodd" clip-rule="evenodd" d="M228.8 305.2V308H229.8V305.2L233 305.2V304.2L229.8 304.2V301H228.8V304.2L226 304.2V305.2L228.8 305.2Z" fill="#DCDAD4"/>
<path fill-rule="evenodd" clip-rule="evenodd" d="M228.8 30.2V33H229.8V30.2L233 30.2V29.2L229.8 29.2V26H228.8V29.2L226 29.2V30.2L228.8 30.2Z" fill="#DCDAD4"/>
<path fill-rule="evenodd" clip-rule="evenodd" d="M228.8 230.2V233H229.8V230.2L233 230.2V229.2L229.8 229.2V226H228.8V229.2L226 229.2V230.2L228.8 230.2Z" fill="#DCDAD4"/>
<path fill-rule="evenodd" clip-rule="evenodd" d="M228.8 130.2V133H229.8V130.2L233 130.2V129.2L229.8 129.2V126H228.8V129.2L226 129.2V130.2L228.8 130.2Z" fill="#DCDAD4"/>
<path fill-rule="evenodd" clip-rule="evenodd" d="M228.8 330.2V333H229.8V330.2L233 330.2V329.2L229.8 329.2V326H228.8V329.2L226 329.2V330.2L228.8 330.2Z" fill="#DCDAD4"/>
<path fill-rule="evenodd" clip-rule="evenodd" d="M228.8 55.2V58H229.8V55.2L233 55.2V54.2L229.8 54.2V51H228.8V54.2L226 54.2V55.2L228.8 55.2Z" fill="#DCDAD4"/>
<path fill-rule="evenodd" clip-rule="evenodd" d="M228.8 255.2V258H229.8V255.2L233 255.2V254.2L229.8 254.2V251H228.8V254.2L226 254.2V255.2L228.8 255.2Z" fill="#DCDAD4"/>
<path fill-rule="evenodd" clip-rule="evenodd" d="M228.8 155.2V158H229.8V155.2L233 155.2V154.2L229.8 154.2V151H228.8V154.2L226 154.2V155.2L228.8 155.2Z" fill="#DCDAD4"/>
<path fill-rule="evenodd" clip-rule="evenodd" d="M228.8 355.2V358H229.8V355.2L233 355.2V354.2L229.8 354.2V351H228.8V354.2L226 354.2V355.2L228.8 355.2Z" fill="#DCDAD4"/>
<path fill-rule="evenodd" clip-rule="evenodd" d="M228.8 80.2V83H229.8V80.2L233 80.2V79.2L229.8 79.2V76H228.8V79.2L226 79.2V80.2L228.8 80.2Z" fill="#DCDAD4"/>
<path fill-rule="evenodd" clip-rule="evenodd" d="M228.8 280.2V283H229.8V280.2L233 280.2V279.2L229.8 279.2V276H228.8V279.2L226 279.2V280.2L228.8 280.2Z" fill="#DCDAD4"/>
<path fill-rule="evenodd" clip-rule="evenodd" d="M228.8 180.2V183H229.8V180.2L233 180.2V179.2L229.8 179.2V176H228.8V179.2L226 179.2V180.2L228.8 180.2Z" fill="#DCDAD4"/>
<path fill-rule="evenodd" clip-rule="evenodd" d="M228.8 380.2V383H229.8V380.2L233 380.2V379.2L229.8 379.2V376H228.8V379.2L226 379.2V380.2L228.8 380.2Z" fill="#DCDAD4"/>
<path fill-rule="evenodd" clip-rule="evenodd" d="M628.8 5.2V8H629.8V5.2L633 5.2V4.2L629.8 4.2V1L628.8 1V4.2L626 4.2V5.2L628.8 5.2Z" fill="#DCDAD4"/>
<path fill-rule="evenodd" clip-rule="evenodd" d="M628.8 205.2V208H629.8V205.2L633 205.2V204.2L629.8 204.2V201H628.8V204.2L626 204.2V205.2L628.8 205.2Z" fill="#DCDAD4"/>
<path fill-rule="evenodd" clip-rule="evenodd" d="M628.8 105.2V108H629.8V105.2L633 105.2V104.2L629.8 104.2V101H628.8V104.2L626 104.2V105.2L628.8 105.2Z" fill="#DCDAD4"/>
<path fill-rule="evenodd" clip-rule="evenodd" d="M628.8 305.2V308H629.8V305.2L633 305.2V304.2L629.8 304.2V301H628.8V304.2L626 304.2V305.2L628.8 305.2Z" fill="#DCDAD4"/>
<path fill-rule="evenodd" clip-rule="evenodd" d="M628.8 30.2V33H629.8V30.2L633 30.2V29.2L629.8 29.2V26H628.8V29.2L626 29.2V30.2L628.8 30.2Z" fill="#DCDAD4"/>
<path fill-rule="evenodd" clip-rule="evenodd" d="M628.8 230.2V233H629.8V230.2L633 230.2V229.2L629.8 229.2V226H628.8V229.2L626 229.2V230.2L628.8 230.2Z" fill="#DCDAD4"/>
<path fill-rule="evenodd" clip-rule="evenodd" d="M628.8 130.2V133H629.8V130.2L633 130.2V129.2L629.8 129.2V126H628.8V129.2L626 129.2V130.2L628.8 130.2Z" fill="#DCDAD4"/>
<path fill-rule="evenodd" clip-rule="evenodd" d="M628.8 330.2V333H629.8V330.2L633 330.2V329.2L629.8 329.2V326H628.8V329.2L626 329.2V330.2L628.8 330.2Z" fill="#DCDAD4"/>
<path fill-rule="evenodd" clip-rule="evenodd" d="M628.8 55.2V58H629.8V55.2L633 55.2V54.2L629.8 54.2V51H628.8V54.2L626 54.2V55.2L628.8 55.2Z" fill="#DCDAD4"/>
<path fill-rule="evenodd" clip-rule="evenodd" d="M628.8 255.2V258H629.8V255.2L633 255.2V254.2L629.8 254.2V251H628.8V254.2L626 254.2V255.2L628.8 255.2Z" fill="#DCDAD4"/>
<path fill-rule="evenodd" clip-rule="evenodd" d="M628.8 155.2V158H629.8V155.2L633 155.2V154.2L629.8 154.2V151H628.8V154.2L626 154.2V155.2L628.8 155.2Z" fill="#DCDAD4"/>
<path fill-rule="evenodd" clip-rule="evenodd" d="M628.8 355.2V358H629.8V355.2L633 355.2V354.2L629.8 354.2V351H628.8V354.2L626 354.2V355.2L628.8 355.2Z" fill="#DCDAD4"/>
<path fill-rule="evenodd" clip-rule="evenodd" d="M628.8 80.2V83H629.8V80.2L633 80.2V79.2L629.8 79.2V76H628.8V79.2L626 79.2V80.2L628.8 80.2Z" fill="#DCDAD4"/>
<path fill-rule="evenodd" clip-rule="evenodd" d="M628.8 280.2V283H629.8V280.2L633 280.2V279.2L629.8 279.2V276H628.8V279.2L626 279.2V280.2L628.8 280.2Z" fill="#DCDAD4"/>
<path fill-rule="evenodd" clip-rule="evenodd" d="M628.8 180.2V183H629.8V180.2L633 180.2V179.2L629.8 179.2V176H628.8V179.2L626 179.2V180.2L628.8 180.2Z" fill="#DCDAD4"/>
<path fill-rule="evenodd" clip-rule="evenodd" d="M628.8 380.2V383H629.8V380.2L633 380.2V379.2L629.8 379.2V376H628.8V379.2L626 379.2V380.2L628.8 380.2Z" fill="#DCDAD4"/>
<path fill-rule="evenodd" clip-rule="evenodd" d="M128.8 5.2V8H129.8V5.2L133 5.2V4.2L129.8 4.2V1L128.8 1V4.2L126 4.2V5.2L128.8 5.2Z" fill="#DCDAD4"/>
<path fill-rule="evenodd" clip-rule="evenodd" d="M128.8 205.2V208H129.8V205.2L133 205.2V204.2L129.8 204.2V201H128.8V204.2L126 204.2V205.2L128.8 205.2Z" fill="#DCDAD4"/>
<path fill-rule="evenodd" clip-rule="evenodd" d="M128.8 105.2V108H129.8V105.2L133 105.2V104.2L129.8 104.2V101H128.8V104.2L126 104.2V105.2L128.8 105.2Z" fill="#DCDAD4"/>
<path fill-rule="evenodd" clip-rule="evenodd" d="M128.8 305.2V308H129.8V305.2L133 305.2V304.2L129.8 304.2V301H128.8V304.2L126 304.2V305.2L128.8 305.2Z" fill="#DCDAD4"/>
<path fill-rule="evenodd" clip-rule="evenodd" d="M128.8 30.2V33H129.8V30.2L133 30.2V29.2L129.8 29.2V26H128.8V29.2L126 29.2V30.2L128.8 30.2Z" fill="#DCDAD4"/>
<path fill-rule="evenodd" clip-rule="evenodd" d="M128.8 230.2V233H129.8V230.2L133 230.2V229.2L129.8 229.2V226H128.8V229.2L126 229.2V230.2L128.8 230.2Z" fill="#DCDAD4"/>
<path fill-rule="evenodd" clip-rule="evenodd" d="M128.8 130.2V133H129.8V130.2L133 130.2V129.2L129.8 129.2V126H128.8V129.2L126 129.2V130.2L128.8 130.2Z" fill="#DCDAD4"/>
<path fill-rule="evenodd" clip-rule="evenodd" d="M128.8 330.2V333H129.8V330.2L133 330.2V329.2L129.8 329.2V326H128.8V329.2L126 329.2V330.2L128.8 330.2Z" fill="#DCDAD4"/>
<path fill-rule="evenodd" clip-rule="evenodd" d="M128.8 55.2V58H129.8V55.2L133 55.2V54.2L129.8 54.2V51H128.8V54.2L126 54.2V55.2L128.8 55.2Z" fill="#DCDAD4"/>
<path fill-rule="evenodd" clip-rule="evenodd" d="M128.8 255.2V258H129.8V255.2L133 255.2V254.2L129.8 254.2V251H128.8V254.2L126 254.2V255.2L128.8 255.2Z" fill="#DCDAD4"/>
<path fill-rule="evenodd" clip-rule="evenodd" d="M128.8 155.2V158H129.8V155.2L133 155.2V154.2L129.8 154.2V151H128.8V154.2L126 154.2V155.2L128.8 155.2Z" fill="#DCDAD4"/>
<path fill-rule="evenodd" clip-rule="evenodd" d="M128.8 355.2V358H129.8V355.2L133 355.2V354.2L129.8 354.2V351H128.8V354.2L126 354.2V355.2L128.8 355.2Z" fill="#DCDAD4"/>
<path fill-rule="evenodd" clip-rule="evenodd" d="M128.8 80.2V83H129.8V80.2L133 80.2V79.2L129.8 79.2V76H128.8V79.2L126 79.2V80.2L128.8 80.2Z" fill="#DCDAD4"/>
<path fill-rule="evenodd" clip-rule="evenodd" d="M128.8 280.2V283H129.8V280.2L133 280.2V279.2L129.8 279.2V276H128.8V279.2L126 279.2V280.2L128.8 280.2Z" fill="#DCDAD4"/>
<path fill-rule="evenodd" clip-rule="evenodd" d="M128.8 180.2V183H129.8V180.2L133 180.2V179.2L129.8 179.2V176H128.8V179.2L126 179.2V180.2L128.8 180.2Z" fill="#DCDAD4"/>
<path fill-rule="evenodd" clip-rule="evenodd" d="M128.8 380.2V383H129.8V380.2L133 380.2V379.2L129.8 379.2V376H128.8V379.2L126 379.2V380.2L128.8 380.2Z" fill="#DCDAD4"/>
<path fill-rule="evenodd" clip-rule="evenodd" d="M528.8 5.2V8H529.8V5.2L533 5.2V4.2L529.8 4.2V1L528.8 1V4.2L526 4.2V5.2L528.8 5.2Z" fill="#DCDAD4"/>
<path fill-rule="evenodd" clip-rule="evenodd" d="M528.8 205.2V208H529.8V205.2L533 205.2V204.2L529.8 204.2V201H528.8V204.2L526 204.2V205.2L528.8 205.2Z" fill="#DCDAD4"/>
<path fill-rule="evenodd" clip-rule="evenodd" d="M528.8 105.2V108H529.8V105.2L533 105.2V104.2L529.8 104.2V101H528.8V104.2L526 104.2V105.2L528.8 105.2Z" fill="#DCDAD4"/>
<path fill-rule="evenodd" clip-rule="evenodd" d="M528.8 305.2V308H529.8V305.2L533 305.2V304.2L529.8 304.2V301H528.8V304.2L526 304.2V305.2L528.8 305.2Z" fill="#DCDAD4"/>
<path fill-rule="evenodd" clip-rule="evenodd" d="M528.8 30.2V33H529.8V30.2L533 30.2V29.2L529.8 29.2V26H528.8V29.2L526 29.2V30.2L528.8 30.2Z" fill="#DCDAD4"/>
<path fill-rule="evenodd" clip-rule="evenodd" d="M528.8 230.2V233H529.8V230.2L533 230.2V229.2L529.8 229.2V226H528.8V229.2L526 229.2V230.2L528.8 230.2Z" fill="#DCDAD4"/>
<path fill-rule="evenodd" clip-rule="evenodd" d="M528.8 130.2V133H529.8V130.2L533 130.2V129.2L529.8 129.2V126H528.8V129.2L526 129.2V130.2L528.8 130.2Z" fill="#DCDAD4"/>
<path fill-rule="evenodd" clip-rule="evenodd" d="M528.8 330.2V333H529.8V330.2L533 330.2V329.2L529.8 329.2V326H528.8V329.2L526 329.2V330.2L528.8 330.2Z" fill="#DCDAD4"/>
<path fill-rule="evenodd" clip-rule="evenodd" d="M528.8 55.2V58H529.8V55.2L533 55.2V54.2L529.8 54.2V51H528.8V54.2L526 54.2V55.2L528.8 55.2Z" fill="#DCDAD4"/>
<path fill-rule="evenodd" clip-rule="evenodd" d="M528.8 255.2V258H529.8V255.2L533 255.2V254.2L529.8 254.2V251H528.8V254.2L526 254.2V255.2L528.8 255.2Z" fill="#DCDAD4"/>
<path fill-rule="evenodd" clip-rule="evenodd" d="M528.8 155.2V158H529.8V155.2L533 155.2V154.2L529.8 154.2V151H528.8V154.2L526 154.2V155.2L528.8 155.2Z" fill="#DCDAD4"/>
<path fill-rule="evenodd" clip-rule="evenodd" d="M528.8 355.2V358H529.8V355.2L533 355.2V354.2L529.8 354.2V351H528.8V354.2L526 354.2V355.2L528.8 355.2Z" fill="#DCDAD4"/>
<path fill-rule="evenodd" clip-rule="evenodd" d="M528.8 80.2V83H529.8V80.2L533 80.2V79.2L529.8 79.2V76H528.8V79.2L526 79.2V80.2L528.8 80.2Z" fill="#DCDAD4"/>
<path fill-rule="evenodd" clip-rule="evenodd" d="M528.8 280.2V283H529.8V280.2L533 280.2V279.2L529.8 279.2V276H528.8V279.2L526 279.2V280.2L528.8 280.2Z" fill="#DCDAD4"/>
<path fill-rule="evenodd" clip-rule="evenodd" d="M528.8 180.2V183H529.8V180.2L533 180.2V179.2L529.8 179.2V176H528.8V179.2L526 179.2V180.2L528.8 180.2Z" fill="#DCDAD4"/>
<path fill-rule="evenodd" clip-rule="evenodd" d="M528.8 380.2V383H529.8V380.2L533 380.2V379.2L529.8 379.2V376H528.8V379.2L526 379.2V380.2L528.8 380.2Z" fill="#DCDAD4"/>
<path fill-rule="evenodd" clip-rule="evenodd" d="M328.8 5.2V8H329.8V5.2L333 5.2V4.2L329.8 4.2V1L328.8 1V4.2L326 4.2V5.2L328.8 5.2Z" fill="#DCDAD4"/>
<path fill-rule="evenodd" clip-rule="evenodd" d="M328.8 205.2V208H329.8V205.2L333 205.2V204.2L329.8 204.2V201H328.8V204.2L326 204.2V205.2L328.8 205.2Z" fill="#DCDAD4"/>
<path fill-rule="evenodd" clip-rule="evenodd" d="M328.8 105.2V108H329.8V105.2L333 105.2V104.2L329.8 104.2V101H328.8V104.2L326 104.2V105.2L328.8 105.2Z" fill="#DCDAD4"/>
<path fill-rule="evenodd" clip-rule="evenodd" d="M328.8 305.2V308H329.8V305.2L333 305.2V304.2L329.8 304.2V301H328.8V304.2L326 304.2V305.2L328.8 305.2Z" fill="#DCDAD4"/>
<path fill-rule="evenodd" clip-rule="evenodd" d="M328.8 30.2V33H329.8V30.2L333 30.2V29.2L329.8 29.2V26H328.8V29.2L326 29.2V30.2L328.8 30.2Z" fill="#DCDAD4"/>
<path fill-rule="evenodd" clip-rule="evenodd" d="M328.8 230.2V233H329.8V230.2L333 230.2V229.2L329.8 229.2V226H328.8V229.2L326 229.2V230.2L328.8 230.2Z" fill="#DCDAD4"/>
<path fill-rule="evenodd" clip-rule="evenodd" d="M328.8 130.2V133H329.8V130.2L333 130.2V129.2L329.8 129.2V126H328.8V129.2L326 129.2V130.2L328.8 130.2Z" fill="#DCDAD4"/>
<path fill-rule="evenodd" clip-rule="evenodd" d="M328.8 330.2V333H329.8V330.2L333 330.2V329.2L329.8 329.2V326H328.8V329.2L326 329.2V330.2L328.8 330.2Z" fill="#DCDAD4"/>
<path fill-rule="evenodd" clip-rule="evenodd" d="M328.8 55.2V58H329.8V55.2L333 55.2V54.2L329.8 54.2V51H328.8V54.2L326 54.2V55.2L328.8 55.2Z" fill="#DCDAD4"/>
<path fill-rule="evenodd" clip-rule="evenodd" d="M328.8 255.2V258H329.8V255.2L333 255.2V254.2L329.8 254.2V251H328.8V254.2L326 254.2V255.2L328.8 255.2Z" fill="#DCDAD4"/>
<path fill-rule="evenodd" clip-rule="evenodd" d="M328.8 155.2V158H329.8V155.2L333 155.2V154.2L329.8 154.2V151H328.8V154.2L326 154.2V155.2L328.8 155.2Z" fill="#DCDAD4"/>
<path fill-rule="evenodd" clip-rule="evenodd" d="M328.8 355.2V358H329.8V355.2L333 355.2V354.2L329.8 354.2V351H328.8V354.2L326 354.2V355.2L328.8 355.2Z" fill="#DCDAD4"/>
<path fill-rule="evenodd" clip-rule="evenodd" d="M328.8 80.2V83H329.8V80.2L333 80.2V79.2L329.8 79.2V76H328.8V79.2L326 79.2V80.2L328.8 80.2Z" fill="#DCDAD4"/>
<path fill-rule="evenodd" clip-rule="evenodd" d="M328.8 280.2V283H329.8V280.2L333 280.2V279.2L329.8 279.2V276H328.8V279.2L326 279.2V280.2L328.8 280.2Z" fill="#DCDAD4"/>
<path fill-rule="evenodd" clip-rule="evenodd" d="M328.8 180.2V183H329.8V180.2L333 180.2V179.2L329.8 179.2V176H328.8V179.2L326 179.2V180.2L328.8 180.2Z" fill="#DCDAD4"/>
<path fill-rule="evenodd" clip-rule="evenodd" d="M328.8 380.2V383H329.8V380.2L333 380.2V379.2L329.8 379.2V376H328.8V379.2L326 379.2V380.2L328.8 380.2Z" fill="#DCDAD4"/>
<path fill-rule="evenodd" clip-rule="evenodd" d="M728.8 5.2V8H729.8V5.2L733 5.2V4.2L729.8 4.2V1L728.8 1V4.2L726 4.2V5.2L728.8 5.2Z" fill="#DCDAD4"/>
<path fill-rule="evenodd" clip-rule="evenodd" d="M728.8 205.2V208H729.8V205.2L733 205.2V204.2L729.8 204.2V201H728.8V204.2L726 204.2V205.2L728.8 205.2Z" fill="#DCDAD4"/>
<path fill-rule="evenodd" clip-rule="evenodd" d="M728.8 105.2V108H729.8V105.2L733 105.2V104.2L729.8 104.2V101H728.8V104.2L726 104.2V105.2L728.8 105.2Z" fill="#DCDAD4"/>
<path fill-rule="evenodd" clip-rule="evenodd" d="M728.8 305.2V308H729.8V305.2L733 305.2V304.2L729.8 304.2V301H728.8V304.2L726 304.2V305.2L728.8 305.2Z" fill="#DCDAD4"/>
<path fill-rule="evenodd" clip-rule="evenodd" d="M728.8 30.2V33H729.8V30.2L733 30.2V29.2L729.8 29.2V26H728.8V29.2L726 29.2V30.2L728.8 30.2Z" fill="#DCDAD4"/>
<path fill-rule="evenodd" clip-rule="evenodd" d="M728.8 230.2V233H729.8V230.2L733 230.2V229.2L729.8 229.2V226H728.8V229.2L726 229.2V230.2L728.8 230.2Z" fill="#DCDAD4"/>
<path fill-rule="evenodd" clip-rule="evenodd" d="M728.8 130.2V133H729.8V130.2L733 130.2V129.2L729.8 129.2V126H728.8V129.2L726 129.2V130.2L728.8 130.2Z" fill="#DCDAD4"/>
<path fill-rule="evenodd" clip-rule="evenodd" d="M728.8 330.2V333H729.8V330.2L733 330.2V329.2L729.8 329.2V326H728.8V329.2L726 329.2V330.2L728.8 330.2Z" fill="#DCDAD4"/>
<path fill-rule="evenodd" clip-rule="evenodd" d="M728.8 55.2V58H729.8V55.2L733 55.2V54.2L729.8 54.2V51H728.8V54.2L726 54.2V55.2L728.8 55.2Z" fill="#DCDAD4"/>
<path fill-rule="evenodd" clip-rule="evenodd" d="M728.8 255.2V258H729.8V255.2L733 255.2V254.2L729.8 254.2V251H728.8V254.2L726 254.2V255.2L728.8 255.2Z" fill="#DCDAD4"/>
<path fill-rule="evenodd" clip-rule="evenodd" d="M728.8 155.2V158H729.8V155.2L733 155.2V154.2L729.8 154.2V151H728.8V154.2L726 154.2V155.2L728.8 155.2Z" fill="#DCDAD4"/>
<path fill-rule="evenodd" clip-rule="evenodd" d="M728.8 355.2V358H729.8V355.2L733 355.2V354.2L729.8 354.2V351H728.8V354.2L726 354.2V355.2L728.8 355.2Z" fill="#DCDAD4"/>
<path fill-rule="evenodd" clip-rule="evenodd" d="M728.8 80.2V83H729.8V80.2L733 80.2V79.2L729.8 79.2V76H728.8V79.2L726 79.2V80.2L728.8 80.2Z" fill="#DCDAD4"/>
<path fill-rule="evenodd" clip-rule="evenodd" d="M728.8 280.2V283H729.8V280.2L733 280.2V279.2L729.8 279.2V276H728.8V279.2L726 279.2V280.2L728.8 280.2Z" fill="#DCDAD4"/>
<path fill-rule="evenodd" clip-rule="evenodd" d="M728.8 180.2V183H729.8V180.2L733 180.2V179.2L729.8 179.2V176H728.8V179.2L726 179.2V180.2L728.8 180.2Z" fill="#DCDAD4"/>
<path fill-rule="evenodd" clip-rule="evenodd" d="M728.8 380.2V383H729.8V380.2L733 380.2V379.2L729.8 379.2V376H728.8V379.2L726 379.2V380.2L728.8 380.2Z" fill="#DCDAD4"/>
<path fill-rule="evenodd" clip-rule="evenodd" d="M78.8 5.2V8H79.8V5.2L83 5.2V4.2L79.8 4.2V1L78.8 1V4.2L76 4.2V5.2L78.8 5.2Z" fill="#DCDAD4"/>
<path fill-rule="evenodd" clip-rule="evenodd" d="M78.8 205.2V208H79.8V205.2L83 205.2V204.2L79.8 204.2V201H78.8V204.2L76 204.2V205.2L78.8 205.2Z" fill="#DCDAD4"/>
<path fill-rule="evenodd" clip-rule="evenodd" d="M78.8 105.2V108H79.8V105.2L83 105.2V104.2L79.8 104.2V101H78.8V104.2L76 104.2V105.2L78.8 105.2Z" fill="#DCDAD4"/>
<path fill-rule="evenodd" clip-rule="evenodd" d="M78.8 305.2V308H79.8V305.2L83 305.2V304.2L79.8 304.2V301H78.8V304.2L76 304.2V305.2L78.8 305.2Z" fill="#DCDAD4"/>
<path fill-rule="evenodd" clip-rule="evenodd" d="M78.8 30.2V33H79.8V30.2L83 30.2V29.2L79.8 29.2V26H78.8V29.2L76 29.2V30.2L78.8 30.2Z" fill="#DCDAD4"/>
<path fill-rule="evenodd" clip-rule="evenodd" d="M78.8 230.2V233H79.8V230.2L83 230.2V229.2L79.8 229.2V226H78.8V229.2L76 229.2V230.2L78.8 230.2Z" fill="#DCDAD4"/>
<path fill-rule="evenodd" clip-rule="evenodd" d="M78.8 130.2V133H79.8V130.2L83 130.2V129.2L79.8 129.2V126H78.8V129.2L76 129.2V130.2L78.8 130.2Z" fill="#DCDAD4"/>
<path fill-rule="evenodd" clip-rule="evenodd" d="M78.8 330.2V333H79.8V330.2L83 330.2V329.2L79.8 329.2V326H78.8V329.2L76 329.2V330.2L78.8 330.2Z" fill="#DCDAD4"/>
<path fill-rule="evenodd" clip-rule="evenodd" d="M78.8 55.2V58H79.8V55.2L83 55.2V54.2L79.8 54.2V51H78.8V54.2L76 54.2V55.2L78.8 55.2Z" fill="#DCDAD4"/>
<path fill-rule="evenodd" clip-rule="evenodd" d="M78.8 255.2V258H79.8V255.2L83 255.2V254.2L79.8 254.2V251H78.8V254.2L76 254.2V255.2L78.8 255.2Z" fill="#DCDAD4"/>
<path fill-rule="evenodd" clip-rule="evenodd" d="M78.8 155.2V158H79.8V155.2L83 155.2V154.2L79.8 154.2V151H78.8V154.2L76 154.2V155.2L78.8 155.2Z" fill="#DCDAD4"/>
<path fill-rule="evenodd" clip-rule="evenodd" d="M78.8 355.2V358H79.8V355.2L83 355.2V354.2L79.8 354.2V351H78.8V354.2L76 354.2V355.2L78.8 355.2Z" fill="#DCDAD4"/>
<path fill-rule="evenodd" clip-rule="evenodd" d="M78.8 80.2V83H79.8V80.2L83 80.2V79.2L79.8 79.2V76H78.8V79.2L76 79.2V80.2L78.8 80.2Z" fill="#DCDAD4"/>
<path fill-rule="evenodd" clip-rule="evenodd" d="M78.8 280.2V283H79.8V280.2L83 280.2V279.2L79.8 279.2V276H78.8V279.2L76 279.2V280.2L78.8 280.2Z" fill="#DCDAD4"/>
<path fill-rule="evenodd" clip-rule="evenodd" d="M78.8 180.2V183H79.8V180.2L83 180.2V179.2L79.8 179.2V176H78.8V179.2L76 179.2V180.2L78.8 180.2Z" fill="#DCDAD4"/>
<path fill-rule="evenodd" clip-rule="evenodd" d="M78.8 380.2V383H79.8V380.2L83 380.2V379.2L79.8 379.2V376H78.8V379.2L76 379.2V380.2L78.8 380.2Z" fill="#DCDAD4"/>
<path fill-rule="evenodd" clip-rule="evenodd" d="M478.8 5.2V8H479.8V5.2L483 5.2V4.2L479.8 4.2V1L478.8 1V4.2L476 4.2V5.2L478.8 5.2Z" fill="#DCDAD4"/>
<path fill-rule="evenodd" clip-rule="evenodd" d="M478.8 205.2V208H479.8V205.2L483 205.2V204.2L479.8 204.2V201H478.8V204.2L476 204.2V205.2L478.8 205.2Z" fill="#DCDAD4"/>
<path fill-rule="evenodd" clip-rule="evenodd" d="M478.8 105.2V108H479.8V105.2L483 105.2V104.2L479.8 104.2V101H478.8V104.2L476 104.2V105.2L478.8 105.2Z" fill="#DCDAD4"/>
<path fill-rule="evenodd" clip-rule="evenodd" d="M478.8 305.2V308H479.8V305.2L483 305.2V304.2L479.8 304.2V301H478.8V304.2L476 304.2V305.2L478.8 305.2Z" fill="#DCDAD4"/>
<path fill-rule="evenodd" clip-rule="evenodd" d="M478.8 30.2V33H479.8V30.2L483 30.2V29.2L479.8 29.2V26H478.8V29.2L476 29.2V30.2L478.8 30.2Z" fill="#DCDAD4"/>
<path fill-rule="evenodd" clip-rule="evenodd" d="M478.8 230.2V233H479.8V230.2L483 230.2V229.2L479.8 229.2V226H478.8V229.2L476 229.2V230.2L478.8 230.2Z" fill="#DCDAD4"/>
<path fill-rule="evenodd" clip-rule="evenodd" d="M478.8 130.2V133H479.8V130.2L483 130.2V129.2L479.8 129.2V126H478.8V129.2L476 129.2V130.2L478.8 130.2Z" fill="#DCDAD4"/>
<path fill-rule="evenodd" clip-rule="evenodd" d="M478.8 330.2V333H479.8V330.2L483 330.2V329.2L479.8 329.2V326H478.8V329.2L476 329.2V330.2L478.8 330.2Z" fill="#DCDAD4"/>
<path fill-rule="evenodd" clip-rule="evenodd" d="M478.8 55.2V58H479.8V55.2L483 55.2V54.2L479.8 54.2V51H478.8V54.2L476 54.2V55.2L478.8 55.2Z" fill="#DCDAD4"/>
<path fill-rule="evenodd" clip-rule="evenodd" d="M478.8 255.2V258H479.8V255.2L483 255.2V254.2L479.8 254.2V251H478.8V254.2L476 254.2V255.2L478.8 255.2Z" fill="#DCDAD4"/>
<path fill-rule="evenodd" clip-rule="evenodd" d="M478.8 155.2V158H479.8V155.2L483 155.2V154.2L479.8 154.2V151H478.8V154.2L476 154.2V155.2L478.8 155.2Z" fill="#DCDAD4"/>
<path fill-rule="evenodd" clip-rule="evenodd" d="M478.8 355.2V358H479.8V355.2L483 355.2V354.2L479.8 354.2V351H478.8V354.2L476 354.2V355.2L478.8 355.2Z" fill="#DCDAD4"/>
<path fill-rule="evenodd" clip-rule="evenodd" d="M478.8 80.2V83H479.8V80.2L483 80.2V79.2L479.8 79.2V76H478.8V79.2L476 79.2V80.2L478.8 80.2Z" fill="#DCDAD4"/>
<path fill-rule="evenodd" clip-rule="evenodd" d="M478.8 280.2V283H479.8V280.2L483 280.2V279.2L479.8 279.2V276H478.8V279.2L476 279.2V280.2L478.8 280.2Z" fill="#DCDAD4"/>
<path fill-rule="evenodd" clip-rule="evenodd" d="M478.8 180.2V183H479.8V180.2L483 180.2V179.2L479.8 179.2V176H478.8V179.2L476 179.2V180.2L478.8 180.2Z" fill="#DCDAD4"/>
<path fill-rule="evenodd" clip-rule="evenodd" d="M478.8 380.2V383H479.8V380.2L483 380.2V379.2L479.8 379.2V376H478.8V379.2L476 379.2V380.2L478.8 380.2Z" fill="#DCDAD4"/>
<path fill-rule="evenodd" clip-rule="evenodd" d="M278.8 5.2V8H279.8V5.2L283 5.2V4.2L279.8 4.2V1L278.8 1V4.2L276 4.2V5.2L278.8 5.2Z" fill="#DCDAD4"/>
<path fill-rule="evenodd" clip-rule="evenodd" d="M278.8 205.2V208H279.8V205.2L283 205.2V204.2L279.8 204.2V201H278.8V204.2L276 204.2V205.2L278.8 205.2Z" fill="#DCDAD4"/>
<path fill-rule="evenodd" clip-rule="evenodd" d="M278.8 105.2V108H279.8V105.2L283 105.2V104.2L279.8 104.2V101H278.8V104.2L276 104.2V105.2L278.8 105.2Z" fill="#DCDAD4"/>
<path fill-rule="evenodd" clip-rule="evenodd" d="M278.8 305.2V308H279.8V305.2L283 305.2V304.2L279.8 304.2V301H278.8V304.2L276 304.2V305.2L278.8 305.2Z" fill="#DCDAD4"/>
<path fill-rule="evenodd" clip-rule="evenodd" d="M278.8 30.2V33H279.8V30.2L283 30.2V29.2L279.8 29.2V26H278.8V29.2L276 29.2V30.2L278.8 30.2Z" fill="#DCDAD4"/>
<path fill-rule="evenodd" clip-rule="evenodd" d="M278.8 230.2V233H279.8V230.2L283 230.2V229.2L279.8 229.2V226H278.8V229.2L276 229.2V230.2L278.8 230.2Z" fill="#DCDAD4"/>
<path fill-rule="evenodd" clip-rule="evenodd" d="M278.8 130.2V133H279.8V130.2L283 130.2V129.2L279.8 129.2V126H278.8V129.2L276 129.2V130.2L278.8 130.2Z" fill="#DCDAD4"/>
<path fill-rule="evenodd" clip-rule="evenodd" d="M278.8 330.2V333H279.8V330.2L283 330.2V329.2L279.8 329.2V326H278.8V329.2L276 329.2V330.2L278.8 330.2Z" fill="#DCDAD4"/>
<path fill-rule="evenodd" clip-rule="evenodd" d="M278.8 55.2V58H279.8V55.2L283 55.2V54.2L279.8 54.2V51H278.8V54.2L276 54.2V55.2L278.8 55.2Z" fill="#DCDAD4"/>
<path fill-rule="evenodd" clip-rule="evenodd" d="M278.8 255.2V258H279.8V255.2L283 255.2V254.2L279.8 254.2V251H278.8V254.2L276 254.2V255.2L278.8 255.2Z" fill="#DCDAD4"/>
<path fill-rule="evenodd" clip-rule="evenodd" d="M278.8 155.2V158H279.8V155.2L283 155.2V154.2L279.8 154.2V151H278.8V154.2L276 154.2V155.2L278.8 155.2Z" fill="#DCDAD4"/>
<path fill-rule="evenodd" clip-rule="evenodd" d="M278.8 355.2V358H279.8V355.2L283 355.2V354.2L279.8 354.2V351H278.8V354.2L276 354.2V355.2L278.8 355.2Z" fill="#DCDAD4"/>
<path fill-rule="evenodd" clip-rule="evenodd" d="M278.8 80.2V83H279.8V80.2L283 80.2V79.2L279.8 79.2V76H278.8V79.2L276 79.2V80.2L278.8 80.2Z" fill="#DCDAD4"/>
<path fill-rule="evenodd" clip-rule="evenodd" d="M278.8 280.2V283H279.8V280.2L283 280.2V279.2L279.8 279.2V276H278.8V279.2L276 279.2V280.2L278.8 280.2Z" fill="#DCDAD4"/>
<path fill-rule="evenodd" clip-rule="evenodd" d="M278.8 180.2V183H279.8V180.2L283 180.2V179.2L279.8 179.2V176H278.8V179.2L276 179.2V180.2L278.8 180.2Z" fill="#DCDAD4"/>
<path fill-rule="evenodd" clip-rule="evenodd" d="M278.8 380.2V383H279.8V380.2L283 380.2V379.2L279.8 379.2V376H278.8V379.2L276 379.2V380.2L278.8 380.2Z" fill="#DCDAD4"/>
<path fill-rule="evenodd" clip-rule="evenodd" d="M678.8 5.2V8H679.8V5.2L683 5.2V4.2L679.8 4.2V1L678.8 1V4.2L676 4.2V5.2L678.8 5.2Z" fill="#DCDAD4"/>
<path fill-rule="evenodd" clip-rule="evenodd" d="M678.8 205.2V208H679.8V205.2L683 205.2V204.2L679.8 204.2V201H678.8V204.2L676 204.2V205.2L678.8 205.2Z" fill="#DCDAD4"/>
<path fill-rule="evenodd" clip-rule="evenodd" d="M678.8 105.2V108H679.8V105.2L683 105.2V104.2L679.8 104.2V101H678.8V104.2L676 104.2V105.2L678.8 105.2Z" fill="#DCDAD4"/>
<path fill-rule="evenodd" clip-rule="evenodd" d="M678.8 305.2V308H679.8V305.2L683 305.2V304.2L679.8 304.2V301H678.8V304.2L676 304.2V305.2L678.8 305.2Z" fill="#DCDAD4"/>
<path fill-rule="evenodd" clip-rule="evenodd" d="M678.8 30.2V33H679.8V30.2L683 30.2V29.2L679.8 29.2V26H678.8V29.2L676 29.2V30.2L678.8 30.2Z" fill="#DCDAD4"/>
<path fill-rule="evenodd" clip-rule="evenodd" d="M678.8 230.2V233H679.8V230.2L683 230.2V229.2L679.8 229.2V226H678.8V229.2L676 229.2V230.2L678.8 230.2Z" fill="#DCDAD4"/>
<path fill-rule="evenodd" clip-rule="evenodd" d="M678.8 130.2V133H679.8V130.2L683 130.2V129.2L679.8 129.2V126H678.8V129.2L676 129.2V130.2L678.8 130.2Z" fill="#DCDAD4"/>
<path fill-rule="evenodd" clip-rule="evenodd" d="M678.8 330.2V333H679.8V330.2L683 330.2V329.2L679.8 329.2V326H678.8V329.2L676 329.2V330.2L678.8 330.2Z" fill="#DCDAD4"/>
<path fill-rule="evenodd" clip-rule="evenodd" d="M678.8 55.2V58H679.8V55.2L683 55.2V54.2L679.8 54.2V51H678.8V54.2L676 54.2V55.2L678.8 55.2Z" fill="#DCDAD4"/>
<path fill-rule="evenodd" clip-rule="evenodd" d="M678.8 255.2V258H679.8V255.2L683 255.2V254.2L679.8 254.2V251H678.8V254.2L676 254.2V255.2L678.8 255.2Z" fill="#DCDAD4"/>
<path fill-rule="evenodd" clip-rule="evenodd" d="M678.8 155.2V158H679.8V155.2L683 155.2V154.2L679.8 154.2V151H678.8V154.2L676 154.2V155.2L678.8 155.2Z" fill="#DCDAD4"/>
<path fill-rule="evenodd" clip-rule="evenodd" d="M678.8 355.2V358H679.8V355.2L683 355.2V354.2L679.8 354.2V351H678.8V354.2L676 354.2V355.2L678.8 355.2Z" fill="#DCDAD4"/>
<path fill-rule="evenodd" clip-rule="evenodd" d="M678.8 80.2V83H679.8V80.2L683 80.2V79.2L679.8 79.2V76H678.8V79.2L676 79.2V80.2L678.8 80.2Z" fill="#DCDAD4"/>
<path fill-rule="evenodd" clip-rule="evenodd" d="M678.8 280.2V283H679.8V280.2L683 280.2V279.2L679.8 279.2V276H678.8V279.2L676 279.2V280.2L678.8 280.2Z" fill="#DCDAD4"/>
<path fill-rule="evenodd" clip-rule="evenodd" d="M678.8 180.2V183H679.8V180.2L683 180.2V179.2L679.8 179.2V176H678.8V179.2L676 179.2V180.2L678.8 180.2Z" fill="#DCDAD4"/>
<path fill-rule="evenodd" clip-rule="evenodd" d="M678.8 380.2V383H679.8V380.2L683 380.2V379.2L679.8 379.2V376H678.8V379.2L676 379.2V380.2L678.8 380.2Z" fill="#DCDAD4"/>
<path fill-rule="evenodd" clip-rule="evenodd" d="M178.8 5.2V8H179.8V5.2L183 5.2V4.2L179.8 4.2V1L178.8 1V4.2L176 4.2V5.2L178.8 5.2Z" fill="#DCDAD4"/>
<path fill-rule="evenodd" clip-rule="evenodd" d="M178.8 205.2V208H179.8V205.2L183 205.2V204.2L179.8 204.2V201H178.8V204.2L176 204.2V205.2L178.8 205.2Z" fill="#DCDAD4"/>
<path fill-rule="evenodd" clip-rule="evenodd" d="M178.8 105.2V108H179.8V105.2L183 105.2V104.2L179.8 104.2V101H178.8V104.2L176 104.2V105.2L178.8 105.2Z" fill="#DCDAD4"/>
<path fill-rule="evenodd" clip-rule="evenodd" d="M178.8 305.2V308H179.8V305.2L183 305.2V304.2L179.8 304.2V301H178.8V304.2L176 304.2V305.2L178.8 305.2Z" fill="#DCDAD4"/>
<path fill-rule="evenodd" clip-rule="evenodd" d="M178.8 30.2V33H179.8V30.2L183 30.2V29.2L179.8 29.2V26H178.8V29.2L176 29.2V30.2L178.8 30.2Z" fill="#DCDAD4"/>
<path fill-rule="evenodd" clip-rule="evenodd" d="M178.8 230.2V233H179.8V230.2L183 230.2V229.2L179.8 229.2V226H178.8V229.2L176 229.2V230.2L178.8 230.2Z" fill="#DCDAD4"/>
<path fill-rule="evenodd" clip-rule="evenodd" d="M178.8 130.2V133H179.8V130.2L183 130.2V129.2L179.8 129.2V126H178.8V129.2L176 129.2V130.2L178.8 130.2Z" fill="#DCDAD4"/>
<path fill-rule="evenodd" clip-rule="evenodd" d="M178.8 330.2V333H179.8V330.2L183 330.2V329.2L179.8 329.2V326H178.8V329.2L176 329.2V330.2L178.8 330.2Z" fill="#DCDAD4"/>
<path fill-rule="evenodd" clip-rule="evenodd" d="M178.8 55.2V58H179.8V55.2L183 55.2V54.2L179.8 54.2V51H178.8V54.2L176 54.2V55.2L178.8 55.2Z" fill="#DCDAD4"/>
<path fill-rule="evenodd" clip-rule="evenodd" d="M178.8 255.2V258H179.8V255.2L183 255.2V254.2L179.8 254.2V251H178.8V254.2L176 254.2V255.2L178.8 255.2Z" fill="#DCDAD4"/>
<path fill-rule="evenodd" clip-rule="evenodd" d="M178.8 155.2V158H179.8V155.2L183 155.2V154.2L179.8 154.2V151H178.8V154.2L176 154.2V155.2L178.8 155.2Z" fill="#DCDAD4"/>
<path fill-rule="evenodd" clip-rule="evenodd" d="M178.8 355.2V358H179.8V355.2L183 355.2V354.2L179.8 354.2V351H178.8V354.2L176 354.2V355.2L178.8 355.2Z" fill="#DCDAD4"/>
<path fill-rule="evenodd" clip-rule="evenodd" d="M178.8 80.2V83H179.8V80.2L183 80.2V79.2L179.8 79.2V76H178.8V79.2L176 79.2V80.2L178.8 80.2Z" fill="#DCDAD4"/>
<path fill-rule="evenodd" clip-rule="evenodd" d="M178.8 280.2V283H179.8V280.2L183 280.2V279.2L179.8 279.2V276H178.8V279.2L176 279.2V280.2L178.8 280.2Z" fill="#DCDAD4"/>
<path fill-rule="evenodd" clip-rule="evenodd" d="M178.8 180.2V183H179.8V180.2L183 180.2V179.2L179.8 179.2V176H178.8V179.2L176 179.2V180.2L178.8 180.2Z" fill="#DCDAD4"/>
<path fill-rule="evenodd" clip-rule="evenodd" d="M178.8 380.2V383H179.8V380.2L183 380.2V379.2L179.8 379.2V376H178.8V379.2L176 379.2V380.2L178.8 380.2Z" fill="#DCDAD4"/>
<path fill-rule="evenodd" clip-rule="evenodd" d="M578.8 5.2V8H579.8V5.2L583 5.2V4.2L579.8 4.2V1L578.8 1V4.2L576 4.2V5.2L578.8 5.2Z" fill="#DCDAD4"/>
<path fill-rule="evenodd" clip-rule="evenodd" d="M578.8 205.2V208H579.8V205.2L583 205.2V204.2L579.8 204.2V201H578.8V204.2L576 204.2V205.2L578.8 205.2Z" fill="#DCDAD4"/>
<path fill-rule="evenodd" clip-rule="evenodd" d="M578.8 105.2V108H579.8V105.2L583 105.2V104.2L579.8 104.2V101H578.8V104.2L576 104.2V105.2L578.8 105.2Z" fill="#DCDAD4"/>
<path fill-rule="evenodd" clip-rule="evenodd" d="M578.8 305.2V308H579.8V305.2L583 305.2V304.2L579.8 304.2V301H578.8V304.2L576 304.2V305.2L578.8 305.2Z" fill="#DCDAD4"/>
<path fill-rule="evenodd" clip-rule="evenodd" d="M578.8 30.2V33H579.8V30.2L583 30.2V29.2L579.8 29.2V26H578.8V29.2L576 29.2V30.2L578.8 30.2Z" fill="#DCDAD4"/>
<path fill-rule="evenodd" clip-rule="evenodd" d="M578.8 230.2V233H579.8V230.2L583 230.2V229.2L579.8 229.2V226H578.8V229.2L576 229.2V230.2L578.8 230.2Z" fill="#DCDAD4"/>
<path fill-rule="evenodd" clip-rule="evenodd" d="M578.8 130.2V133H579.8V130.2L583 130.2V129.2L579.8 129.2V126H578.8V129.2L576 129.2V130.2L578.8 130.2Z" fill="#DCDAD4"/>
<path fill-rule="evenodd" clip-rule="evenodd" d="M578.8 330.2V333H579.8V330.2L583 330.2V329.2L579.8 329.2V326H578.8V329.2L576 329.2V330.2L578.8 330.2Z" fill="#DCDAD4"/>
<path fill-rule="evenodd" clip-rule="evenodd" d="M578.8 55.2V58H579.8V55.2L583 55.2V54.2L579.8 54.2V51H578.8V54.2L576 54.2V55.2L578.8 55.2Z" fill="#DCDAD4"/>
<path fill-rule="evenodd" clip-rule="evenodd" d="M578.8 255.2V258H579.8V255.2L583 255.2V254.2L579.8 254.2V251H578.8V254.2L576 254.2V255.2L578.8 255.2Z" fill="#DCDAD4"/>
<path fill-rule="evenodd" clip-rule="evenodd" d="M578.8 155.2V158H579.8V155.2L583 155.2V154.2L579.8 154.2V151H578.8V154.2L576 154.2V155.2L578.8 155.2Z" fill="#DCDAD4"/>
<path fill-rule="evenodd" clip-rule="evenodd" d="M578.8 355.2V358H579.8V355.2L583 355.2V354.2L579.8 354.2V351H578.8V354.2L576 354.2V355.2L578.8 355.2Z" fill="#DCDAD4"/>
<path fill-rule="evenodd" clip-rule="evenodd" d="M578.8 80.2V83H579.8V80.2L583 80.2V79.2L579.8 79.2V76H578.8V79.2L576 79.2V80.2L578.8 80.2Z" fill="#DCDAD4"/>
<path fill-rule="evenodd" clip-rule="evenodd" d="M578.8 280.2V283H579.8V280.2L583 280.2V279.2L579.8 279.2V276H578.8V279.2L576 279.2V280.2L578.8 280.2Z" fill="#DCDAD4"/>
<path fill-rule="evenodd" clip-rule="evenodd" d="M578.8 180.2V183H579.8V180.2L583 180.2V179.2L579.8 179.2V176H578.8V179.2L576 179.2V180.2L578.8 180.2Z" fill="#DCDAD4"/>
<path fill-rule="evenodd" clip-rule="evenodd" d="M578.8 380.2V383H579.8V380.2L583 380.2V379.2L579.8 379.2V376H578.8V379.2L576 379.2V380.2L578.8 380.2Z" fill="#DCDAD4"/>
<path fill-rule="evenodd" clip-rule="evenodd" d="M378.8 5.2V8H379.8V5.2L383 5.2V4.2L379.8 4.2V1L378.8 1V4.2L376 4.2V5.2L378.8 5.2Z" fill="#DCDAD4"/>
<path fill-rule="evenodd" clip-rule="evenodd" d="M378.8 205.2V208H379.8V205.2L383 205.2V204.2L379.8 204.2V201H378.8V204.2L376 204.2V205.2L378.8 205.2Z" fill="#DCDAD4"/>
<path fill-rule="evenodd" clip-rule="evenodd" d="M378.8 105.2V108H379.8V105.2L383 105.2V104.2L379.8 104.2V101H378.8V104.2L376 104.2V105.2L378.8 105.2Z" fill="#DCDAD4"/>
<path fill-rule="evenodd" clip-rule="evenodd" d="M378.8 305.2V308H379.8V305.2L383 305.2V304.2L379.8 304.2V301H378.8V304.2L376 304.2V305.2L378.8 305.2Z" fill="#DCDAD4"/>
<path fill-rule="evenodd" clip-rule="evenodd" d="M378.8 30.2V33H379.8V30.2L383 30.2V29.2L379.8 29.2V26H378.8V29.2L376 29.2V30.2L378.8 30.2Z" fill="#DCDAD4"/>
<path fill-rule="evenodd" clip-rule="evenodd" d="M378.8 230.2V233H379.8V230.2L383 230.2V229.2L379.8 229.2V226H378.8V229.2L376 229.2V230.2L378.8 230.2Z" fill="#DCDAD4"/>
<path fill-rule="evenodd" clip-rule="evenodd" d="M378.8 130.2V133H379.8V130.2L383 130.2V129.2L379.8 129.2V126H378.8V129.2L376 129.2V130.2L378.8 130.2Z" fill="#DCDAD4"/>
<path fill-rule="evenodd" clip-rule="evenodd" d="M378.8 330.2V333H379.8V330.2L383 330.2V329.2L379.8 329.2V326H378.8V329.2L376 329.2V330.2L378.8 330.2Z" fill="#DCDAD4"/>
<path fill-rule="evenodd" clip-rule="evenodd" d="M378.8 55.2V58H379.8V55.2L383 55.2V54.2L379.8 54.2V51H378.8V54.2L376 54.2V55.2L378.8 55.2Z" fill="#DCDAD4"/>
<path fill-rule="evenodd" clip-rule="evenodd" d="M378.8 255.2V258H379.8V255.2L383 255.2V254.2L379.8 254.2V251H378.8V254.2L376 254.2V255.2L378.8 255.2Z" fill="#DCDAD4"/>
<path fill-rule="evenodd" clip-rule="evenodd" d="M378.8 155.2V158H379.8V155.2L383 155.2V154.2L379.8 154.2V151H378.8V154.2L376 154.2V155.2L378.8 155.2Z" fill="#DCDAD4"/>
<path fill-rule="evenodd" clip-rule="evenodd" d="M378.8 355.2V358H379.8V355.2L383 355.2V354.2L379.8 354.2V351H378.8V354.2L376 354.2V355.2L378.8 355.2Z" fill="#DCDAD4"/>
<path fill-rule="evenodd" clip-rule="evenodd" d="M378.8 80.2V83H379.8V80.2L383 80.2V79.2L379.8 79.2V76H378.8V79.2L376 79.2V80.2L378.8 80.2Z" fill="#DCDAD4"/>
<path fill-rule="evenodd" clip-rule="evenodd" d="M378.8 280.2V283H379.8V280.2L383 280.2V279.2L379.8 279.2V276H378.8V279.2L376 279.2V280.2L378.8 280.2Z" fill="#DCDAD4"/>
<path fill-rule="evenodd" clip-rule="evenodd" d="M378.8 180.2V183H379.8V180.2L383 180.2V179.2L379.8 179.2V176H378.8V179.2L376 179.2V180.2L378.8 180.2Z" fill="#DCDAD4"/>
<path fill-rule="evenodd" clip-rule="evenodd" d="M378.8 380.2V383H379.8V380.2L383 380.2V379.2L379.8 379.2V376H378.8V379.2L376 379.2V380.2L378.8 380.2Z" fill="#DCDAD4"/>
</svg>
